<svg xmlns="http://www.w3.org/2000/svg" width="1096" height="514" fill="none"><g clip-path="url('#a')" opacity=".24"><path fill="#8C8C8C" d="m720.423 116.12-.33.133-106.536 41.408 208.636 53.515-101.77-95.056Zm-102.43 41.242 102.19-39.713 97.273 90.866-199.463-51.153Z"/><path fill="#8C8C8C" d="M926.96 209.613h-.359l-108.785-.466 187.534 144.015-78.39-143.549Zm-105.157.931 104.468.466 74.999 137.396-179.467-137.862Zm-200.302-50.455c1.289-3.526-.24-7.517-3.388-8.947-3.177-1.43-6.774.266-8.063 3.759-1.289 3.525.239 7.516 3.387 8.946 3.178 1.464 6.775-.232 8.064-3.758ZM385.017-.39c1.289-3.525-.24-7.516-3.388-8.946-3.177-1.43-6.774.266-8.063 3.758-1.289 3.526.24 7.517 3.387 8.947 3.178 1.463 6.775-.233 8.064-3.758Zm-82.046 34.059c1.289-3.526-.239-7.517-3.387-8.947-3.177-1.43-6.775.266-8.064 3.758-1.289 3.526.24 7.517 3.388 8.947 3.147 1.463 6.774-.233 8.063-3.758ZM156.597 20.83c1.289-3.525-.24-7.516-3.388-8.947-3.177-1.43-6.774.266-8.063 3.759-1.289 3.525.24 7.516 3.387 8.947 3.178 1.43 6.775-.266 8.064-3.759Zm416.971 29.635c1.289-3.526-.239-7.517-3.387-8.947-3.177-1.43-6.775.266-8.064 3.758-1.289 3.526.24 7.517 3.388 8.947 3.177 1.43 6.774-.266 8.063-3.758Zm152.46 69.014c1.289-3.526-.239-7.517-3.387-8.947-3.177-1.43-6.775.266-8.064 3.758-1.289 3.526.24 7.517 3.388 8.947 3.147 1.43 6.774-.233 8.063-3.758Z"/><path fill="#8C8C8C" d="M931.217 212.373c1.289-3.525-.24-7.516-3.388-8.947-3.177-1.43-6.774.266-8.063 3.759-1.289 3.492.24 7.516 3.387 8.947 3.148 1.43 6.775-.233 8.064-3.759Zm-428.243 40.943c1.289-3.525-.24-7.517-3.387-8.947-3.178-1.43-6.775.266-8.064 3.759-1.289 3.525.24 7.516 3.387 8.946 3.178 1.431 6.775-.266 8.064-3.758Zm157.556-10.277c1.289-3.526-.24-7.517-3.387-8.947-3.178-1.43-6.775.266-8.064 3.758-1.289 3.526.24 7.517 3.387 8.947 3.148 1.463 6.775-.233 8.064-3.758Zm164.87-30.133c1.289-3.526-.24-7.517-3.387-8.947-3.178-1.431-6.775.266-8.064 3.758-1.289 3.525.24 7.517 3.388 8.947 3.147 1.43 6.744-.266 8.063-3.758Zm-73.292 44.701c1.289-3.526-.24-7.517-3.387-8.947-3.178-1.43-6.775.266-8.064 3.758-1.289 3.526.24 7.517 3.387 8.947 3.178 1.43 6.775-.266 8.064-3.758Zm256.932 95.754c1.28-3.525-.24-7.516-3.39-8.946-3.18-1.431-6.776.266-8.065 3.758-1.289 3.525.24 7.517 3.385 8.947 3.18 1.463 6.78-.233 8.07-3.759Zm-18.17 74.868c1.289-3.525-.24-7.517-3.388-8.947-3.177-1.43-6.774.266-8.063 3.759-1.289 3.525.24 7.516 3.387 8.946 3.178 1.431 6.775-.266 8.064-3.758ZM365.982-43.361l106.416 153.826L346.977 222.65l.209.267 125.631-112.385-.089-.133L366.251-43.594"/><path fill="#8C8C8C" d="m1130.62 302.507-156.627 37.151L668.773 93.37h-.059l-196.106 16.962.03.333 196.046-16.963 305.249 246.322h.06l156.687-37.184m-779.447-78.194c.93-2.528-.15-5.454-2.458-6.485-2.278-1.032-4.916.166-5.845 2.727-.929 2.528.15 5.454 2.458 6.486 2.278 1.031 4.916-.167 5.845-2.728Z"/><path fill="#8C8C8C" d="M476.775 112.361c.929-2.528-.15-5.454-2.458-6.486-2.279-1.031-4.917.167-5.846 2.728-.929 2.527.15 5.454 2.458 6.485 2.278 1.031 4.886-.166 5.846-2.727Zm77.398 58.571c.93-2.528-.149-5.455-2.458-6.486-2.278-1.031-4.916.166-5.845 2.727-.929 2.528.15 5.455 2.458 6.486 2.278 1.031 4.916-.166 5.845-2.727ZM672.88 95.399c.93-2.528-.15-5.455-2.458-6.486-2.278-1.031-4.916.166-5.845 2.727-.929 2.528.15 5.455 2.458 6.486 2.278 1.064 4.886-.166 5.845-2.727Zm97.244 278.883c.929-2.528-.15-5.455-2.458-6.486-2.279-1.031-4.917.166-5.846 2.727-.929 2.528.15 5.455 2.458 6.486 2.308 1.031 4.916-.199 5.846-2.727Zm138.431 25.577c.929-2.528-.15-5.455-2.458-6.486-2.279-1.031-4.916.166-5.846 2.727-.929 2.528.15 5.455 2.458 6.486 2.279 1.031 4.916-.2 5.846-2.727Zm69.515-57.939c.929-2.528-.15-5.455-2.458-6.486-2.278-1.031-4.916.167-5.845 2.728-.93 2.527.149 5.454 2.458 6.485 2.308 1.031 4.916-.199 5.845-2.727Z"/><path fill="#8C8C8C" d="m725.609 162.284-.48.632-88.43 111.753-58.424-116.709-.12-.033-129.678-47.096-64.12-65.954-.18.067-131.416 56.042-88.49-118.77-.48.432 88.76 119.17.21-.1 131.446-56.043 63.94 65.788 129.708 47.063 58.724 117.34.3-.366 88.19-111.486 5.726 120.167.239.067 152.46 24.412-23.801 129.979.6.134 23.951-130.711-.33-.034-152.55-24.446-5.755-121.298Z"/><path fill="#8C8C8C" d="M388.344 47.105c.899-2.494-.15-5.321-2.398-6.319-2.248-.998-4.796.166-5.695 2.661-.9 2.494.149 5.322 2.398 6.32 2.218 1.03 4.766-.167 5.695-2.662Zm-131.626 56.143c.899-2.494-.15-5.322-2.398-6.32-2.248-.997-4.796.167-5.696 2.662-.899 2.494.15 5.321 2.398 6.319 2.219.998 4.767-.2 5.696-2.661Zm194.726 9.479c.9-2.495-.149-5.322-2.398-6.319-2.248-.998-4.796.166-5.695 2.66-.899 2.495.15 5.322 2.398 6.32 2.218.998 4.796-.167 5.695-2.661Zm66.578-87.407c.9-2.494-.15-5.321-2.398-6.319-2.248-.998-4.796.166-5.695 2.66-.9 2.495.15 5.322 2.398 6.32 2.248.998 4.796-.2 5.695-2.66Zm64.33 134.104c.899-2.495-.15-5.322-2.399-6.32-2.248-.997-4.796.167-5.695 2.661-.899 2.495.15 5.322 2.398 6.319 2.218 1.032 4.796-.166 5.696-2.66Zm59.203 118.072c.899-2.495-.15-5.322-2.398-6.319-2.249-.998-4.797.166-5.696 2.66-.899 2.495.15 5.322 2.398 6.32 2.219.997 4.797-.2 5.696-2.661Zm87.561-112.651c.899-2.494-.15-5.322-2.398-6.319-2.248-.998-4.796.166-5.696 2.66-.899 2.495.15 5.322 2.399 6.32 2.218 1.031 4.766-.167 5.695-2.661Zm6.355 121.831c.899-2.495-.15-5.322-2.398-6.32-2.248-.998-4.796.167-5.696 2.661-.899 2.495.15 5.322 2.398 6.319 2.219.998 4.767-.199 5.696-2.66Zm153.659 23.88c.899-2.494-.15-5.321-2.398-6.319-2.248-.998-4.796.166-5.696 2.661-.899 2.494.15 5.321 2.398 6.319 2.219 1.031 4.767-.166 5.696-2.661Zm-25.06 129.979c.899-2.494-.15-5.321-2.398-6.319-2.249-.998-4.797.166-5.696 2.661-.899 2.494.15 5.321 2.398 6.319 2.218.998 4.766-.166 5.696-2.661Zm163.61-26.807c.9-2.495-.15-5.322-2.4-6.32-2.25-.997-4.79.167-5.69 2.661-.9 2.495.15 5.322 2.4 6.32 2.21 1.031 4.76-.167 5.69-2.661Zm-22.51-167.862c.9-2.495-.15-5.322-2.4-6.32-2.25-.997-4.796.167-5.695 2.661-.899 2.495.15 5.322 2.398 6.32 2.247 1.031 4.797-.167 5.697-2.661Z"/><path fill="#8C8C8C" d="M343.29-119.958c-.21.898-22.303 96.985-22.303 96.985s99.162 3.16 100.031 3.193c-.629.699-51.529 56.475-51.529 56.475l71.344 106.199c-1.859-1.397-140.32-106.066-140.32-106.066l-.209.366 141.248 106.764.27-.299s-71.613-106.631-71.823-106.93c.239-.267 51.919-56.908 51.919-56.908s-99.972-3.193-100.451-3.193c.12-.499 22.392-97.384 22.392-97.384"/><path fill="#8C8C8C" d="M343.47-120.158c.06.067 77.758 100.212 77.848 100.278 0 .133 20.204 163.771 20.204 163.771l132.316 72.307s83.574 17.894 83.784 17.96c.06.233 28.868 88.272 28.898 88.405-.03.133-18.496 60.732-18.616 61.131-.36-.166-116.518-51.12-116.518-51.12l-.15.399 116.878 51.287 18.795-61.697-29.017-88.771-83.934-17.96s-131.896-72.107-132.076-72.207c-.03-.233-20.174-163.671-20.174-163.671l-77.969-100.478m28.66 367.134L216.626 101.969l.25-.332 155.773 144.642-.25.331Z"/><path fill="#8C8C8C" d="m657.832 233.792-.18.366s140.59 87.108 141.849 87.873c-1.439 0-113.101.332-113.101.332s52.039 96.187 52.668 97.318c-1.079-.565-70.954-35.887-70.954-35.887l-.15.399 72.063 36.453s-52.608-97.218-52.938-97.85c.66 0 113.88-.333 113.88-.333l-143.137-88.671Z"/><path fill="#8C8C8C" d="m755.615 321.898 17.716 44.202-49.971 25.444 32.255-69.646ZM724.2 390.679a97335.3 97335.3 0 0 1 48.622-24.779c-.15-.366-16.937-42.24-17.267-43.038-.33.765-30.846 66.752-31.355 67.817ZM288.583-18.383l-36.421 58.604-20.894-52.917 57.315-5.687Zm-56.745 6.053c.209.532 20.144 51.02 20.413 51.72.39-.6 35.133-56.542 35.582-57.274-.809.1-55.486 5.521-55.995 5.554ZM482.41 275.434l79.198 13.57-34.833 40.843-44.365-54.413Zm44.395 53.482c.42-.499 32.914-38.582 33.664-39.447-1.049-.199-74.941-12.838-76.5-13.104 1.019 1.264 42.417 52.018 42.836 52.551Z"/><path fill="#8C8C8C" d="M391.222 168.337s83.275 7.916 83.724 7.949c.15-.465 26.409-80.754 26.409-80.754l.54.233s-26.259 80.189-26.409 80.721c.449.266 62.68 36.652 62.68 36.652L433.968 332.94l-.299-.2-.18.067-42.267-164.47Zm146.015 44.968c-.659-.399-61.302-35.854-61.931-36.22-.21.731-40.288 151.997-40.948 154.458 1.619-1.862 102.34-117.64 102.879-118.238ZM433.759 331.543c.569-2.095 40.797-153.893 40.977-154.625-.689-.066-81.925-7.782-82.735-7.849.24.865 41.248 160.379 41.758 162.474Z"/><path fill="#8C8C8C" d="m257.977 285.911 54.287-137.363s54.767 118.937 54.827 119.037c.09.066 66.847 64.889 66.847 64.889l-.389.499s-66.578-64.623-66.788-64.823c-.24 0-108.784 17.761-108.784 17.761Zm108.454-18.393c-.359-.798-53.567-116.309-54.107-117.473-.48 1.23-52.968 134.036-53.388 135.067 1.019-.199 106.716-17.461 107.495-17.594ZM254.23 135.344s114.3-68.549 114.57-68.715c.269.166 90.918 57.074 90.918 57.074l.36-.466L350.304-17.784l-100.721-3.692-.029.632s100.211 3.658 100.48 3.658c.15.2 106.387 136.698 108.545 139.425-2.818-1.763-89.749-56.342-89.749-56.342l-114.87 68.881.27.566Z"/><path fill="#8C8C8C" d="M314.842-176.234 249.194-21.11S367.9 65.93 368.41 66.296c-.36.532-56.326 82.784-56.326 82.784l-56.085 57.839.389.465 56.116-57.838 56.715-83.383S250.333-21.01 249.913-21.31c.21-.499 64.06-151.365 64.749-152.995m316.161 407.499.12-.599-93.166-19.69-.12.632 93.166 19.657Z"/><path fill="#8C8C8C" d="m367.061 268.017 40.288-38.182 52.759 7.25s-67.897-68.215-68.137-68.481c.09-.366 18.946-76.132 18.946-76.132l-20.025-58.437-23.022 31.929.45.399s21.763-30.2 22.392-31.065c.36 1.032 19.545 57.008 19.605 57.207-.06.2-19.005 76.331-19.005 76.331s65.738 66.054 67.057 67.385a171596.3 171596.3 0 0 1-51.199-7.018l-40.469 38.348.36.466Z"/><path fill="#8C8C8C" d="m482.95 276.066.479-.366s-23.261-38.182-23.711-38.881c.779-.233 77.339-22.783 77.339-22.783l26.559-54.712-.509-.299s-26.32 54.213-26.44 54.446c-.239.066-77.878 22.949-77.878 22.949l24.161 39.646ZM252.042 57.05l39.299-47.56-.42-.433-39.299 47.562.42.432Zm39.179-113.815s58.064 39.014 58.544 39.347c-.27.532-25.121 51.386-25.121 51.386l-5.605 62.096 19.185 15.133 53.178 57.739.419-.466-53.208-57.772s-18.675-14.734-18.945-14.967c.03-.366 5.546-61.464 5.576-61.597.06-.133 25.33-51.819 25.33-51.819S292.09-56.998 291.82-57.163"/><path fill="#8C8C8C" d="m291.161 9.489 57.854-26.907-.21-.566-57.884 26.907.24.566Zm183.695 167.23.57-.2-15.288-53.215-.57.166 15.288 53.249Zm155.188 56.641 86.872-98.183s-9.053 43.637-17.687 85.312l22.243 101.874-.57.167s-21.403-98.05-21.972-100.611c-10.522 50.688-21.194 102.174-21.194 102.174l-.569-.133 21.373-103.039c-.839.1-68.496 12.439-68.496 12.439Zm68.646-13.171c8.513-41.009 16.996-81.985 17.206-82.95-1.409 1.597-82.974 93.793-84.203 95.157 1.708-.266 66.607-12.14 66.997-12.207Z"/><path fill="#8C8C8C" d="m631.213 233.693-2.698-63.227-.569.033s2.578 60.034 2.638 61.597c-1.02-1.097-128.719-136.697-128.719-136.697l-.39.465 129.738 137.829Z"/><path fill="#8C8C8C" d="M678.156 179.513c.15.266 20.504 41.109 20.504 41.109l.509-.3-20.653-41.375-117.388-20.455-.09.632c.03-.033 116.848 20.355 117.118 20.389ZM418.321-73.594c-.18.665-27.819 108.127-27.819 108.127l.57.167L419.07-74.126M257.947 285.578s21.223-20.455 42.057-40.544c.03-.232 11.901-94.923 11.96-95.522-.509-.133-58.274-14.268-58.274-14.268L291.011 8.192l28.597 87.639s-6.924 52.584-7.014 53.182c.51.133 79.348 19.424 79.348 19.424l-41.877 167.696-92.118-50.555Zm91.788 49.657c.06-.3 8.693-34.823 16.787-67.251-.54-.167-65.859-22.318-66.188-22.418-20.654 19.923-41.038 39.546-41.368 39.846.78.432 90.139 49.49 90.769 49.823Zm16.936-67.883a166284.21 166284.21 0 0 0 24.461-97.917c-1.259.931-51.739 38.515-51.739 38.515s-19.305 18.592-38.52 37.118c.959.332 65.259 22.117 65.798 22.284Zm24.221-98.516c-1.289-.299-77.758-19.024-78.358-19.157-.09.665-11.661 93.094-11.871 94.723 19.125-18.426 38.37-36.984 38.37-36.984s50.78-37.75 51.859-38.582Zm-78.808-19.922c.09-.666 6.955-52.817 6.985-52.983-.06-.133-27.429-84.014-27.998-85.744-.51 1.73-36.391 123.959-36.601 124.624.599.167 57.015 13.936 57.614 14.103Z"/><path fill="#8C8C8C" d="m350.094 335.933 46.734-39.213 10.731-67.185-.569-.099s-10.642 66.685-10.672 66.952c-.18.166-46.553 39.047-46.553 39.047l.329.498Zm41.997-163.638c1.919-.066 3.418-1.829 3.358-3.958-.06-2.128-1.649-3.791-3.568-3.725-1.918.067-3.417 1.829-3.327 3.958.03 2.129 1.649 3.792 3.537 3.725Zm-72.752-72.273c1.918-.067 3.387-1.83 3.357-3.958-.06-2.129-1.649-3.758-3.567-3.692-1.919.067-3.418 1.83-3.358 3.958.06 2.095 1.649 3.758 3.568 3.692Zm19.814 111.254c1.919-.067 3.417-1.83 3.327-3.958-.06-2.129-1.648-3.792-3.567-3.725-1.918.066-3.417 1.829-3.327 3.958.06 2.128 1.679 3.791 3.567 3.725Z"/><path fill="#8C8C8C" d="M396.918 300.578c1.918-.066 3.417-1.829 3.327-3.958-.06-2.128-1.649-3.791-3.567-3.725-1.919.067-3.418 1.829-3.328 3.958.06 2.129 1.679 3.792 3.568 3.725Zm-140.8-89.835c1.919-.066 3.418-1.829 3.358-3.958-.06-2.128-1.649-3.791-3.567-3.725-1.919.067-3.388 1.83-3.328 3.958.03 2.129 1.619 3.792 3.537 3.725Zm92.478 128.55c1.918-.067 3.417-1.83 3.357-3.958-.06-2.129-1.649-3.792-3.567-3.725-1.919.066-3.417 1.829-3.328 3.958.03 2.128 1.649 3.824 3.538 3.725ZM367.96 69.755c1.919-.066 3.418-1.829 3.358-3.957-.06-2.13-1.649-3.759-3.568-3.692-1.918.066-3.417 1.829-3.327 3.958.03 2.095 1.649 3.758 3.537 3.692Zm91.848 170.889c1.919-.067 3.417-1.829 3.357-3.958-.06-2.129-1.648-3.792-3.567-3.725-1.918.066-3.417 1.829-3.327 3.958.03 2.128 1.619 3.791 3.537 3.725Zm67.087 92.096c1.919-.066 3.417-1.829 3.357-3.958-.059-2.128-1.648-3.791-3.567-3.725-1.918.067-3.387 1.83-3.327 3.958.03 2.129 1.649 3.792 3.537 3.725Zm11.391-115.777c1.919-.067 3.418-1.829 3.358-3.958-.06-2.129-1.649-3.792-3.568-3.725-1.918.067-3.417 1.829-3.357 3.958.06 2.129 1.679 3.792 3.567 3.725Zm139.99-33.592c1.918-.067 3.417-1.829 3.357-3.958-.06-2.129-1.648-3.792-3.567-3.725-1.918.066-3.387 1.829-3.327 3.958.03 2.128 1.619 3.791 3.537 3.725Zm42.746 142.95c1.919-.066 3.418-1.829 3.358-3.958-.06-2.128-1.679-3.791-3.568-3.725-1.918.067-3.417 1.829-3.357 3.958.06 2.129 1.649 3.792 3.567 3.725Zm-313.583-92.662c1.919-.066 3.417-1.829 3.358-3.957-.06-2.129-1.649-3.792-3.568-3.726-1.918.067-3.417 1.83-3.357 3.958.06 2.129 1.679 3.792 3.567 3.725Zm26.26 103.106c1.918-.067 3.417-1.83 3.327-3.958-.06-2.129-1.649-3.759-3.567-3.692-1.919.066-3.417 1.829-3.357 3.958.089 2.095 1.678 3.758 3.597 3.692ZM291.161 14.012c1.918-.067 3.417-1.83 3.327-3.958-.06-2.129-1.648-3.792-3.567-3.725-1.888.066-3.417 1.83-3.357 3.958.12 2.128 1.708 3.791 3.597 3.725ZM254.56 139.335c1.918-.067 3.417-1.829 3.357-3.958-.06-2.129-1.649-3.792-3.567-3.692-1.919.067-3.417 1.829-3.328 3.958.03 2.095 1.649 3.758 3.538 3.692Zm308.307 25.51c1.918-.066 3.417-1.829 3.357-3.958-.06-2.128-1.648-3.791-3.567-3.725-1.918.067-3.417 1.829-3.357 3.958.06 2.129 1.678 3.792 3.567 3.725Zm-102.639-37.717c1.918-.066 3.387-1.829 3.327-3.957-.06-2.129-1.649-3.792-3.567-3.726-1.919.067-3.417 1.83-3.357 3.958.119 2.129 1.708 3.792 3.597 3.725ZM300.783 248.227c1.918-.066 3.417-1.829 3.327-3.958-.06-2.128-1.648-3.791-3.567-3.691-1.918.066-3.417 1.829-3.327 3.957.06 2.129 1.678 3.759 3.567 3.692Zm37.561-133.205c1.918-.066 3.417-1.829 3.357-3.958-.06-2.128-1.649-3.758-3.567-3.692-1.919.067-3.387 1.83-3.327 3.958.03 2.096 1.618 3.759 3.537 3.692Zm52.278-76.631c1.919-.066 3.418-1.829 3.358-3.957-.06-2.13-1.649-3.792-3.567-3.692-1.919.066-3.418 1.829-3.328 3.958.03 2.095 1.619 3.758 3.537 3.691Zm170.386 255.203c1.919-.067 3.418-1.83 3.358-3.958-.06-2.129-1.649-3.792-3.567-3.725-1.919.066-3.418 1.829-3.358 3.958.06 2.128 1.649 3.791 3.567 3.725Zm154.709-151.465c1.918-.067 3.387-1.83 3.327-3.958-.06-2.129-1.649-3.792-3.567-3.725-1.919.066-3.418 1.829-3.328 3.958.06 2.128 1.649 3.791 3.568 3.725ZM698.78 224.48c1.918-.067 3.417-1.829 3.357-3.958-.06-2.129-1.649-3.792-3.567-3.725-1.919.066-3.417 1.829-3.357 3.958.06 2.128 1.648 3.791 3.567 3.725ZM501.565 99.69c1.919-.067 3.418-1.83 3.328-3.959-.06-2.128-1.649-3.791-3.568-3.691-1.918.066-3.387 1.829-3.327 3.957.06 2.096 1.649 3.759 3.567 3.692Zm129.138 137.196c1.919-.067 3.418-1.863 3.358-3.958-.06-2.129-1.649-3.792-3.568-3.725-1.918.066-3.417 1.829-3.327 3.958.03 2.128 1.649 3.791 3.537 3.725ZM325.364 38.258c1.918-.066 3.417-1.829 3.357-3.958-.06-2.128-1.649-3.791-3.567-3.725-1.918.067-3.417 1.83-3.357 3.958.06 2.129 1.648 3.792 3.567 3.725Zm-12.71 115.245c1.918-.066 3.417-1.829 3.357-3.957-.06-2.129-1.648-3.792-3.567-3.726-1.918.067-3.417 1.83-3.357 3.958.06 2.129 1.678 3.792 3.567 3.725Zm-60.523-92.628c1.919-.066 3.418-1.83 3.358-3.958-.06-2.128-1.649-3.791-3.567-3.692-1.919.067-3.418 1.83-3.358 3.958.09 2.129 1.679 3.759 3.567 3.692Zm115.14 211.1c1.918-.067 3.387-1.83 3.327-3.958-.06-2.129-1.648-3.792-3.567-3.725-1.918.066-3.417 1.829-3.357 3.958.09 2.128 1.708 3.791 3.597 3.725ZM259.086 289.27c1.919-.067 3.387-1.829 3.327-3.958-.06-2.129-1.648-3.792-3.567-3.725-1.918.066-3.417 1.829-3.357 3.958.09 2.128 1.679 3.791 3.597 3.725Zm151.92-193.007c1.919-.066 3.418-1.829 3.358-3.958-.06-2.128-1.649-3.791-3.567-3.725-1.919.067-3.418 1.83-3.358 3.958.06 2.162 1.649 3.792 3.567 3.725Zm73.053 183.927c1.918-.067 3.387-1.829 3.327-3.958-.06-2.129-1.648-3.792-3.567-3.692-1.918.067-3.417 1.829-3.357 3.958.09 2.095 1.678 3.758 3.597 3.692Zm144.606-106.165c1.919-.067 3.388-1.863 3.328-3.958-.06-2.129-1.649-3.792-3.568-3.725-1.918.066-3.417 1.829-3.357 3.958.09 2.128 1.679 3.791 3.597 3.725Zm49.041 152.795c1.919-.066 3.418-1.829 3.358-3.958-.06-2.128-1.649-3.791-3.567-3.725-1.919.067-3.418 1.863-3.358 3.958.06 2.129 1.679 3.792 3.567 3.725Zm-202.73-146.276c1.919-.067 3.417-1.83 3.357-3.958-.059-2.129-1.648-3.792-3.567-3.692-1.918.067-3.417 1.829-3.327 3.958.03 2.095 1.619 3.758 3.537 3.692Z"/><path fill="#8C8C8C" d="m391.102 247.429 56.626-2.794 78.987-95.821.12.1-79.047 95.821s-56.506 2.794-56.596 2.794c-.03.1-20.144 62.894-20.144 62.894l42.027 69.513-.12.1-42.027-69.546 20.174-63.061Zm21.253-343.54s-51.919 74.07-51.979 74.136c.03.1 21.014 67.684 21.014 67.684s-62.111 59.135-62.201 59.202c.03.1 24.431 87.839 24.431 87.839l-97.364 118.072-.12-.1s97.274-117.905 97.304-118.005c-.03-.1-24.431-87.839-24.431-87.839s62.111-59.103 62.171-59.203l-21.013-67.683 52.009-74.203"/><path fill="#8C8C8C" d="m305.13-94.847-6.925 88.504 77.04 94.857s15.767 89.136 15.797 89.236c.06.033 98.532 43.537 98.532 43.537l-.059.133-98.593-43.57-15.797-89.27-77.04-94.89s6.895-88.271 6.925-88.404"/><path fill="#8C8C8C" d="M285.975 126.729s72.543 49.591 72.633 49.657c.09-.1 43.705-62.096 43.705-62.096l38.67-15.466.06.133-38.64 15.466-43.765 62.196s-72.513-49.59-72.633-49.657c-.09.1-49.371 73.005-49.371 73.005l-.12-.099 49.461-73.139Zm52.159-182.463-64.27 72.84c.03.099 20.564 56.108 20.564 56.108l-58.154 52.252-.09-.134s57.974-52.118 58.064-52.184c-.03-.1-20.563-56.076-20.563-56.076s64.179-72.74 64.269-72.839m-81.386 296.278s61.272 75.167 61.392 75.3l46.283-64.224 37.051 52.45-.12.1s-36.811-52.151-36.931-52.318l-46.283 64.225-61.512-75.433.12-.1Z"/><path fill="#8C8C8C" d="M339.183-94.481c.09.133 37.74 71.674 37.74 71.674s-60.462 79.358-60.522 79.425c.03.1 25.03 58.77 25.03 58.77l-57.195 96.686c.06.1 66.068 103.238 66.068 103.238l-65.918 75.899-.09-.1s65.768-75.699 65.828-75.765c-.06-.1-66.038-103.205-66.038-103.205s57.165-96.62 57.195-96.687c-.03-.066-25.03-58.77-25.03-58.77s60.432-79.357 60.492-79.424c-.06-.1-37.77-71.741-37.77-71.741"/><path fill="#8C8C8C" d="m248.534 60.908 38.04 100.711s92.687 53.382 92.777 53.448c.06-.066 73.982-69.446 73.982-69.446l64.15 53.981-.09.133s-63.94-53.848-64.03-53.915c-.09.1-73.982 69.447-73.982 69.447l-92.897-53.515-38.07-100.777.12-.067Zm192.599 40.644c1.349-.067 2.368-1.331 2.308-2.794-.06-1.497-1.199-2.627-2.518-2.561-1.349.066-2.368 1.33-2.308 2.794.06 1.497 1.199 2.627 2.518 2.561Zm-25.48-14.069c1.319-.067 2.368-1.33 2.308-2.794-.06-1.497-1.199-2.627-2.518-2.561-1.319.067-2.368 1.33-2.308 2.794.06 1.463 1.199 2.627 2.518 2.56Zm111.212 64.058c1.349-.066 2.368-1.33 2.308-2.794-.06-1.463-1.169-2.627-2.518-2.561-1.319.067-2.368 1.331-2.308 2.794.06 1.497 1.199 2.628 2.518 2.561Z"/><path fill="#8C8C8C" d="M517.573 202.329c1.318-.067 2.368-1.33 2.308-2.794-.06-1.463-1.169-2.627-2.518-2.561-1.319.067-2.368 1.33-2.308 2.794.059 1.497 1.169 2.627 2.518 2.561Zm-27.939 21.718c1.319-.066 2.369-1.33 2.309-2.793-.06-1.464-1.199-2.628-2.518-2.561-1.319.066-2.369 1.33-2.309 2.793.06 1.464 1.199 2.628 2.518 2.561Zm-36.151-75.666c1.319-.066 2.368-1.33 2.308-2.793-.06-1.497-1.199-2.628-2.518-2.561-1.319.066-2.368 1.33-2.308 2.793.06 1.497 1.169 2.628 2.518 2.561Zm24.76 30.732c1.349-.066 2.369-1.33 2.309-2.793-.06-1.464-1.199-2.628-2.518-2.561-1.319.066-2.369 1.297-2.309 2.793.06 1.464 1.199 2.628 2.518 2.561Zm-86.991 71.043c1.349-.066 2.368-1.33 2.308-2.794-.06-1.496-1.199-2.627-2.518-2.561-1.349.067-2.368 1.331-2.308 2.794.06 1.497 1.169 2.628 2.518 2.561Zm-11.781-32.328c1.349-.067 2.368-1.33 2.308-2.794-.059-1.497-1.199-2.627-2.518-2.561-1.319.067-2.368 1.297-2.308 2.794.06 1.497 1.199 2.628 2.518 2.561Zm11.601-37.351c1.349-.066 2.368-1.33 2.308-2.794-.06-1.463-1.199-2.627-2.518-2.561-1.319.067-2.368 1.331-2.308 2.794.06 1.497 1.199 2.628 2.518 2.561Zm-26.709 73.903c1.319-.066 2.368-1.33 2.308-2.794-.06-1.463-1.199-2.627-2.518-2.561-1.349.067-2.368 1.331-2.308 2.794.06 1.497 1.199 2.628 2.518 2.561Zm36.991 52.384c1.319-.066 2.368-1.297 2.308-2.793-.06-1.464-1.199-2.628-2.518-2.561-1.319.066-2.368 1.33-2.308 2.793.06 1.497 1.199 2.628 2.518 2.561Zm-51.02 11.242c1.319-.066 2.368-1.33 2.308-2.794-.06-1.496-1.199-2.627-2.518-2.561-1.319.067-2.368 1.331-2.308 2.794.06 1.464 1.199 2.628 2.518 2.561Zm97.513-70.61c1.349-.067 2.368-1.331 2.308-2.794-.059-1.463-1.199-2.627-2.518-2.561-1.318.067-2.368 1.33-2.308 2.794.03 1.463 1.169 2.627 2.518 2.561ZM415.953 16.673c1.319-.067 2.368-1.33 2.308-2.794-.06-1.497-1.199-2.627-2.518-2.561-1.319.066-2.368 1.33-2.308 2.794.059 1.463 1.169 2.627 2.518 2.56ZM381.45 48.37c1.319-.067 2.368-1.331 2.308-2.794-.06-1.497-1.199-2.628-2.518-2.561-1.319.066-2.368 1.33-2.308 2.793.06 1.464 1.169 2.628 2.518 2.561Zm-39.959 69.712c1.319-.067 2.368-1.331 2.308-2.794-.06-1.463-1.199-2.627-2.518-2.561-1.319.067-2.368 1.33-2.308 2.794.06 1.497 1.169 2.627 2.518 2.561Zm2.218 77.329c1.349-.067 2.369-1.331 2.309-2.794-.06-1.497-1.199-2.628-2.518-2.561-1.319.067-2.368 1.33-2.309 2.794.03 1.463 1.17 2.627 2.518 2.561Zm15.049-16.231c1.319-.067 2.368-1.297 2.308-2.794-.06-1.463-1.169-2.627-2.518-2.561-1.319.067-2.368 1.297-2.308 2.794.06 1.463 1.169 2.627 2.518 2.561Zm43.735-62.162c1.349-.067 2.368-1.331 2.308-2.794-.06-1.464-1.169-2.628-2.518-2.561-1.319.066-2.368 1.33-2.308 2.794.06 1.496 1.199 2.627 2.518 2.561Zm13.07 21.618c1.349-.066 2.368-1.33 2.308-2.793-.06-1.497-1.199-2.628-2.518-2.561-1.319.066-2.368 1.33-2.308 2.794.06 1.496 1.199 2.627 2.518 2.56Zm-40.259-47.395c1.319-.066 2.369-1.297 2.309-2.794-.06-1.463-1.199-2.627-2.518-2.56-1.319.066-2.368 1.33-2.309 2.793.06 1.497 1.2 2.628 2.518 2.561Zm-72.033 153.195c1.319-.067 2.369-1.331 2.309-2.794-.06-1.463-1.199-2.628-2.518-2.561-1.319.066-2.369 1.33-2.309 2.794.03 1.463 1.17 2.627 2.518 2.561Zm14.809 74.169c1.319-.067 2.368-1.33 2.308-2.794-.06-1.497-1.199-2.627-2.518-2.561-1.319.067-2.368 1.33-2.308 2.794.06 1.497 1.199 2.627 2.518 2.561Zm52.998-5.488c1.319-.066 2.368-1.33 2.308-2.794-.06-1.496-1.199-2.627-2.518-2.561-1.319.067-2.368 1.331-2.308 2.794.06 1.463 1.199 2.628 2.518 2.561Zm-42.717-172.851c1.319-.066 2.369-1.33 2.309-2.794-.06-1.496-1.199-2.627-2.518-2.561-1.319.067-2.369 1.331-2.309 2.794.06 1.497 1.17 2.628 2.518 2.561Zm-44.065 74.502c1.319-.066 2.368-1.33 2.308-2.794-.06-1.463-1.199-2.627-2.518-2.561-1.319.067-2.368 1.297-2.308 2.794.06 1.497 1.169 2.628 2.518 2.561Zm-47.542-12.107c1.319-.066 2.368-1.33 2.308-2.793-.06-1.464-1.199-2.628-2.518-2.561-1.319.066-2.368 1.33-2.308 2.794.06 1.463 1.199 2.627 2.518 2.56Zm175.332 178.173c1.318-.067 2.368-1.33 2.308-2.794-.06-1.497-1.199-2.627-2.518-2.561-1.349.067-2.368 1.331-2.308 2.794.059 1.497 1.199 2.628 2.518 2.561ZM236.394 128.16c1.319-.067 2.368-1.331 2.308-2.794-.06-1.464-1.199-2.628-2.518-2.561-1.349.066-2.368 1.33-2.308 2.794.03 1.463 1.169 2.627 2.518 2.561Zm12.26-64.59c1.319-.067 2.368-1.331 2.309-2.795-.06-1.463-1.2-2.627-2.519-2.56-1.318.066-2.368 1.33-2.308 2.793.06 1.497 1.199 2.628 2.518 2.561Zm8.034 179.602c1.319-.067 2.368-1.297 2.308-2.794-.06-1.497-1.199-2.628-2.518-2.561-1.319.066-2.368 1.33-2.308 2.794.06 1.496 1.199 2.627 2.518 2.561Zm29.946-78.826c1.349-.066 2.369-1.33 2.309-2.793-.06-1.464-1.199-2.628-2.518-2.561-1.319.066-2.369 1.33-2.309 2.793.06 1.464 1.17 2.628 2.518 2.561Zm-.539-34.823c1.319-.066 2.368-1.33 2.308-2.794-.06-1.496-1.199-2.627-2.518-2.56-1.349.066-2.368 1.33-2.308 2.793.06 1.464 1.199 2.628 2.518 2.561Zm8.333-53.648c1.349-.066 2.368-1.33 2.308-2.793-.06-1.464-1.199-2.628-2.518-2.561-1.319.066-2.368 1.33-2.308 2.793.06 1.464 1.199 2.628 2.518 2.561Zm-20.563-56.109c1.348-.067 2.368-1.33 2.308-2.794-.06-1.463-1.199-2.627-2.518-2.56-1.319.066-2.368 1.296-2.308 2.793.059 1.497 1.199 2.627 2.518 2.56Zm5.815 251.743c1.349-.066 2.368-1.33 2.308-2.794-.06-1.463-1.199-2.627-2.518-2.561-1.319.067-2.368 1.331-2.308 2.794.06 1.464 1.199 2.628 2.518 2.561Zm37.201-211.865c1.319-.066 2.368-1.297 2.308-2.793-.06-1.464-1.199-2.628-2.518-2.561-1.349.066-2.368 1.33-2.308 2.793.059 1.497 1.199 2.628 2.518 2.561Zm2.368 47.928c1.319-.067 2.368-1.33 2.308-2.794-.06-1.463-1.199-2.627-2.518-2.561-1.319.067-2.368 1.33-2.308 2.794.06 1.463 1.199 2.627 2.518 2.561Z"/><path fill="#8C8C8C" d="M324.674-107.32S279.08-27.762 279.02-27.696c.06.067 94.516 182.164 94.516 182.164l-58.724 102.606 25.18 127.419-.15.033-25.15-127.485s58.664-102.506 58.694-102.606c-.03-.1-94.516-182.164-94.516-182.164l45.684-79.724"/><path fill="#8C8C8C" d="m276.742-84.736 54.587 55.41-22.812 127.95 69.156 180.502-91.908 81.054-.09-.133s91.728-80.855 91.818-80.921c-.06-.1-69.126-180.434-69.126-180.434s22.782-127.818 22.782-127.918c-.06-.066-54.527-55.344-54.527-55.344"/><path fill="#8C8C8C" d="m390.832-1.32 37.531 130.843s-40.318 81.287-40.348 81.387c1.738 3.392 38.19 74.568 35.791 79.358a.578.578 0 0 1-.419.299c-5.126.233-38.43 118.737-38.76 119.935l-.15-.034c1.379-4.889 33.664-119.801 38.88-120.034.15 0 .24-.067.3-.2 2.338-4.723-35.433-78.493-35.822-79.224l-.03-.034 40.378-81.386S390.742-.855 390.712-1.021c-.149.066-112.291 48.093-112.291 48.093l-.06-.133L390.832-1.32Z"/><path fill="#8C8C8C" d="M369.189-41.798 355.58 54.69l26.589 53.881-86.302 68.149-2.488 111.354-56.356 53.149-.09-.133 56.326-53.083 2.488-111.354s86.122-68.049 86.242-68.149c-.06-.133-26.559-53.814-26.559-53.814l13.579-96.553"/><path fill="#8C8C8C" d="m387.175-51.377-40.438 37.883-7.074 62.23-61.932 44.734-4.106 70.777-25.81 31.33-.09-.099 25.78-31.265 4.136-70.81 61.932-44.734 7.074-62.23s40.138-37.616 40.318-37.782m41.458 183.693c1.409-.066 2.518-1.397 2.458-2.96-.06-1.563-1.259-2.794-2.668-2.727-1.409.067-2.518 1.397-2.458 2.96.06 1.597 1.229 2.794 2.668 2.727ZM390.922 1.606c1.409-.066 2.518-1.397 2.458-2.96-.06-1.563-1.259-2.794-2.668-2.727-1.408.066-2.518 1.397-2.458 2.96.06 1.596 1.229 2.794 2.668 2.727Zm-8.723 109.791c1.409-.067 2.518-1.397 2.458-2.96-.06-1.564-1.259-2.794-2.668-2.728-1.409.067-2.518 1.397-2.458 2.96.06 1.597 1.259 2.794 2.668 2.728Zm-20.444-97.318c1.409-.067 2.518-1.397 2.458-2.96-.06-1.564-1.259-2.761-2.668-2.728-1.409.067-2.518 1.397-2.458 2.96.06 1.597 1.259 2.794 2.668 2.728Zm-5.935 42.173c1.409-.067 2.518-1.397 2.458-2.96-.06-1.563-1.259-2.794-2.668-2.694-1.409.066-2.518 1.397-2.458 2.96.06 1.53 1.259 2.76 2.668 2.694ZM278.571 49.7c1.409-.067 2.518-1.397 2.458-2.96-.06-1.564-1.259-2.794-2.668-2.728-1.409.067-2.518 1.397-2.458 2.96.06 1.597 1.259 2.828 2.668 2.728Z"/><path fill="#8C8C8C" d="M339.693 51.562c1.409-.066 2.518-1.397 2.458-2.96-.06-1.563-1.259-2.794-2.668-2.727-1.409.066-2.518 1.397-2.458 2.96.06 1.563 1.259 2.794 2.668 2.727Zm-21.913-1.829c1.409-.066 2.518-1.397 2.458-2.96-.06-1.563-1.259-2.794-2.668-2.727-1.409.066-2.518 1.397-2.458 2.96.06 1.596 1.229 2.794 2.668 2.727Zm-39.989 46.464c1.409-.067 2.518-1.397 2.458-2.96-.06-1.563-1.259-2.794-2.668-2.727-1.408.066-2.518 1.396-2.458 2.96.06 1.596 1.259 2.827 2.668 2.727Zm30.756 5.288c1.409-.066 2.518-1.397 2.458-2.96-.06-1.563-1.259-2.794-2.668-2.727-1.409.066-2.518 1.397-2.428 2.96.03 1.563 1.229 2.794 2.638 2.727Zm50.63 28.105c1.409-.067 2.518-1.397 2.458-2.96-.06-1.564-1.259-2.794-2.668-2.728-1.408.067-2.518 1.397-2.458 2.96.06 1.564 1.259 2.794 2.668 2.728Zm14.419 27.738c1.409-.066 2.518-1.397 2.428-2.96-.06-1.563-1.259-2.794-2.668-2.694-1.409.067-2.518 1.397-2.458 2.96.06 1.53 1.259 2.761 2.698 2.694Zm14.479 56.708c1.408-.066 2.518-1.397 2.458-2.96-.06-1.563-1.259-2.794-2.668-2.694-1.409.067-2.518 1.397-2.458 2.96.03 1.53 1.229 2.761 2.668 2.694Zm-10.372 67.917c1.409-.067 2.518-1.397 2.428-2.96-.06-1.564-1.259-2.794-2.668-2.728-1.409.067-2.518 1.397-2.458 2.96.06 1.597 1.259 2.827 2.698 2.728Zm45.803 11.308c1.409-.067 2.518-1.397 2.459-2.96-.06-1.563-1.259-2.794-2.668-2.694-1.409.066-2.518 1.397-2.458 2.96.06 1.563 1.259 2.76 2.667 2.694Zm-108.634-33.36c1.409-.066 2.518-1.396 2.458-2.96-.06-1.563-1.259-2.793-2.668-2.727-1.409.067-2.518 1.397-2.458 2.96.06 1.563 1.259 2.794 2.668 2.727Zm-18.915-80.388c1.409-.067 2.518-1.397 2.458-2.961-.06-1.563-1.259-2.793-2.668-2.727-1.408.067-2.518 1.397-2.458 2.96.06 1.597 1.259 2.794 2.668 2.728Zm-22.302-12.44c1.409-.066 2.518-1.396 2.458-2.96-.06-1.563-1.259-2.793-2.668-2.727-1.409.067-2.518 1.397-2.458 2.96.06 1.597 1.259 2.794 2.668 2.727Zm-25.75 31.331c1.409-.066 2.518-1.397 2.458-2.96-.06-1.563-1.259-2.794-2.668-2.727-1.409.066-2.518 1.397-2.458 2.96.06 1.563 1.259 2.794 2.668 2.727Zm92.207 188.949c1.409-.067 2.518-1.397 2.458-2.96-.06-1.564-1.259-2.794-2.667-2.728-1.409.067-2.519 1.397-2.459 2.96.03 1.597 1.229 2.794 2.668 2.728Zm-46.523-95.589c1.409-.066 2.518-1.397 2.428-2.96-.06-1.563-1.259-2.794-2.668-2.694-1.409.067-2.518 1.397-2.458 2.96.09 1.564 1.289 2.761 2.698 2.694Zm-7.764 71.176c1.409-.066 2.518-1.397 2.458-2.96-.06-1.563-1.259-2.794-2.668-2.727-1.409.066-2.518 1.397-2.458 2.96.06 1.596 1.259 2.794 2.668 2.727Zm42.057-37.051c1.409-.067 2.518-1.397 2.428-2.96-.06-1.564-1.259-2.794-2.668-2.728-1.409.067-2.518 1.397-2.458 2.96.09 1.564 1.289 2.794 2.698 2.728Z"/><g fill="#8C8C8C" opacity=".4"><path d="M380.97 189.823s42.716 23.016 42.806 23.082c.06-.066 60.463-58.138 60.463-58.138l58.424 20.355-.03.167s-58.274-20.322-58.364-20.355c-.06.066-60.493 58.138-60.493 58.138S381.12 190.089 381 190.023c-.06.133-35.072 59.734-35.072 59.734l25 101.309-.15.034-24.97-101.376 35.162-59.901Z"/><path d="M542.753 177.883c1.319-.067 2.368-1.331 2.308-2.794-.06-1.497-1.199-2.627-2.518-2.561-1.319.067-2.368 1.297-2.308 2.794.06 1.463 1.199 2.627 2.518 2.561Zm-58.364-20.355c1.319-.067 2.368-1.297 2.308-2.794-.06-1.463-1.199-2.627-2.518-2.561-1.319.067-2.368 1.33-2.308 2.794.03 1.463 1.169 2.594 2.518 2.561Zm-60.493 58.138c1.319-.067 2.368-1.33 2.308-2.794-.06-1.463-1.199-2.627-2.518-2.561-1.319.067-2.368 1.297-2.308 2.794.06 1.463 1.169 2.628 2.518 2.561Zm-42.806-23.082c1.319-.067 2.368-1.297 2.308-2.794-.06-1.464-1.199-2.628-2.518-2.561-1.319.066-2.368 1.33-2.308 2.794.06 1.496 1.199 2.627 2.518 2.561Zm-35.133 59.801c1.319-.067 2.369-1.331 2.309-2.794-.06-1.497-1.199-2.628-2.518-2.561-1.319.066-2.368 1.33-2.309 2.794.06 1.496 1.2 2.627 2.518 2.561Zm25.001 101.376c1.349-.067 2.368-1.331 2.308-2.794-.06-1.464-1.199-2.628-2.518-2.561-1.319.066-2.368 1.33-2.308 2.794.06 1.463 1.199 2.627 2.518 2.561Z"/></g><g fill="#8C8C8C" opacity=".3"><path d="m732.323 108.17.24 37.684-49.581 58.836-107.105-27.605-206.867 62.262-.03-.166 206.897-62.263s106.985 27.573 107.075 27.573c.06-.067 49.521-58.737 49.521-58.737"/><path d="m775.43 255.844 10.192-61.863-66.548-106.797.12-.1 66.577 106.863s-10.132 61.73-10.162 61.83c.09.067 50.75 35.821 50.75 35.821l70.415-29.967.06.166-70.475 29.967-50.929-35.92Zm-58.664 39.28c-.09 0-82.645 6.851-82.645 6.851s-38.1-80.356-38.13-80.455c-.09 0-64.15 7.649-64.15 7.649l-53.597-72.805.119-.1s53.508 72.673 53.538 72.739c.09 0 64.18-7.65 64.18-7.65s38.1 80.356 38.13 80.456c.09 0 82.615-6.852 82.615-6.852l82.015 131.642-.12.1s-81.925-131.509-81.955-131.575Z"/><path d="m425.395 348.007 30.156-75.533 76.2 27.239 100.541-62.162s81.836 2.827 81.926 2.827c.03-.067 60.222-96.852 60.222-96.852l.12.099-60.252 96.919-81.956-2.86-100.571 62.196s-76.02-27.14-76.14-27.207c-.06.133-30.126 75.4-30.126 75.4l-.12-.066Z"/><path d="M645.961 342.618s59.743-67.384 59.833-67.484c-.06-.099-44.814-61.131-44.814-61.131l-4.976-45.267.149-.033 4.947 45.233 44.874 61.198s-59.743 67.385-59.833 67.484c.09.1 53.149 69.713 53.149 69.713l-.12.1-53.209-69.813Zm-45.204-20.887c-.12.034-53.868 9.712-53.868 9.712s-49.611-85.644-49.67-85.743l-117.898 43.902-.06-.166L497.279 245.5s49.61 85.677 49.67 85.777c.09-.033 53.868-9.745 53.868-9.745l32.944 74.535-.15.066c.03.034-32.824-74.302-32.854-74.402Zm138.611 78.061s79.707-49.524 79.857-49.624c-.12-.133-46.104-64.39-46.104-64.39l54.348-28.371.06.133s-54.018 28.204-54.198 28.271l46.104 64.391-80.007 49.69-.06-.1Z"/><path d="M825.94 315.279c-.12.033-105.397 48.426-105.397 48.426s-72.154-83.382-72.183-83.449c-.09.034-57.225 13.97-57.225 13.97s-56.236-83.083-56.296-83.15c-.09.033-71.434 24.845-71.434 24.845l-15.378-78.892.15-.033s15.318 78.559 15.348 78.726c.15-.067 71.404-24.845 71.404-24.845s56.236 83.082 56.296 83.149c.089-.033 57.224-13.969 57.224-13.969s72.124 83.349 72.184 83.449c.09-.034 105.427-48.427 105.427-48.427l51.949 88.239-.12.099c-.03 0-51.859-88.005-51.949-88.138Z"/><path d="m579.774 368.428 96.973-18.692s67.597-88.338 67.657-88.438c-.03-.099-44.515-95.522-44.515-95.522l61.751-57.339.09.133s-61.571 57.173-61.661 57.24c.06.099 44.515 95.522 44.515 95.522l-67.747 88.537-97.033 18.692-.03-.133Zm78.688-199.226c.239-1.463-.63-2.86-1.949-3.126s-2.578.698-2.818 2.161c-.24 1.464.63 2.861 1.949 3.127 1.319.233 2.578-.699 2.818-2.162Zm-18.046 24.413c.24-1.464-.63-2.861-1.949-3.127-1.319-.266-2.578.699-2.817 2.162-.24 1.464.629 2.861 1.948 3.127 1.319.266 2.578-.699 2.818-2.162Zm81.086-105.999c.24-1.464-.63-2.86-1.949-3.127-1.318-.266-2.577.699-2.817 2.162-.24 1.464.629 2.86 1.948 3.127 1.319.233 2.578-.699 2.818-2.162Z"/><path d="M764.039 109.002c.239-1.463-.63-2.86-1.949-3.126-1.319-.267-2.578.698-2.818 2.161-.24 1.464.63 2.861 1.949 3.127 1.319.266 2.578-.699 2.818-2.162Zm12.829 35.056c.24-1.464-.629-2.861-1.948-3.127-1.319-.266-2.578.699-2.818 2.162-.24 1.464.63 2.861 1.949 3.127 1.349.232 2.578-.732 2.817-2.162Zm-74.521 22.251c.24-1.464-.629-2.861-1.948-3.127-1.319-.266-2.578.699-2.818 2.162-.24 1.464.629 2.86 1.948 3.127 1.319.232 2.578-.732 2.818-2.162Zm32.524-19.956c.24-1.464-.629-2.861-1.948-3.127-1.319-.266-2.578.699-2.818 2.162-.24 1.464.63 2.86 1.949 3.093 1.319.266 2.578-.698 2.817-2.128Zm43.017 109.956c.239-1.463-.63-2.86-1.949-3.126s-2.578.698-2.818 2.162c-.239 1.463.63 2.86 1.949 3.126s2.578-.698 2.818-2.162Zm-31.026 5.488c.24-1.463-.63-2.86-1.948-3.126-1.319-.266-2.578.698-2.818 2.162-.24 1.463.629 2.86 1.948 3.126s2.578-.698 2.818-2.162Zm-30.216-20.854c.24-1.463-.63-2.86-1.949-3.126s-2.578.698-2.817 2.162c-.24 1.463.629 2.86 1.948 3.126s2.578-.698 2.818-2.162Zm58.963 45.367c.24-1.464-.629-2.861-1.948-3.127-1.319-.266-2.578.699-2.818 2.162-.24 1.464.63 2.861 1.949 3.127 1.319.266 2.578-.699 2.817-2.162Zm54.258-28.304c.239-1.464-.63-2.861-1.949-3.127-1.319-.266-2.578.699-2.818 2.162-.239 1.464.63 2.86 1.949 3.127 1.349.232 2.578-.732 2.818-2.162Zm-429.442-71.243c.24-1.463-.63-2.827-1.949-3.126-1.319-.266-2.578.698-2.817 2.162-.24 1.463.629 2.86 1.948 3.126s2.578-.698 2.818-2.162Zm427.943 128.915c.24-1.463-.63-2.86-1.949-3.126s-2.578.698-2.817 2.162c-.24 1.463.629 2.86 1.948 3.126s2.578-.698 2.818-2.162ZM788.08 194.48c.239-1.464-.63-2.861-1.949-3.127-1.319-.266-2.578.699-2.818 2.162-.239 1.463.63 2.86 1.949 3.126 1.319.267 2.578-.698 2.818-2.161Zm-209.835-16.963c.24-1.463-.63-2.86-1.949-3.126-1.319-.267-2.578.698-2.817 2.161-.24 1.464.629 2.861 1.948 3.127 1.319.266 2.578-.699 2.818-2.162Zm20.174 44.369c.24-1.464-.63-2.861-1.949-3.127-1.319-.266-2.578.699-2.817 2.162-.24 1.464.629 2.86 1.948 3.127 1.319.266 2.578-.699 2.818-2.162Zm-61.182-10.411c.24-1.463-.629-2.86-1.948-3.126s-2.578.698-2.818 2.162c-.24 1.463.629 2.86 1.948 3.126 1.319.233 2.578-.732 2.818-2.162Zm113.521 69.181c.239-1.464-.63-2.861-1.949-3.127-1.319-.266-2.578.699-2.818 2.162-.239 1.463.63 2.86 1.949 3.126 1.319.267 2.578-.698 2.818-2.161Zm68.406 14.867c.24-1.464-.63-2.861-1.949-3.127-1.319-.266-2.578.699-2.817 2.162-.24 1.464.629 2.861 1.948 3.127 1.319.232 2.578-.732 2.818-2.162ZM708.283 275.6c.239-1.463-.63-2.86-1.949-3.126s-2.578.698-2.818 2.162c-.239 1.463.63 2.86 1.949 3.126s2.578-.699 2.818-2.162Zm-44.875-61.165c.24-1.463-.63-2.86-1.949-3.126s-2.578.698-2.818 2.162c-.239 1.463.63 2.86 1.949 3.126s2.578-.731 2.818-2.162Zm21.912-9.312c.24-1.464-.629-2.861-1.948-3.127-1.319-.266-2.578.699-2.818 2.162-.24 1.464.63 2.86 1.949 3.127 1.319.232 2.578-.732 2.817-2.162Zm-50.6 32.993c.24-1.463-.629-2.86-1.948-3.126s-2.578.698-2.818 2.162c-.24 1.463.63 2.86 1.949 3.126 1.319.233 2.577-.731 2.817-2.162Zm118.497 112.086c.24-1.464-.63-2.861-1.948-3.127-1.319-.266-2.578.699-2.818 2.162-.24 1.464.629 2.861 1.948 3.127 1.319.232 2.578-.732 2.818-2.162Zm68.496.499c.24-1.464-.629-2.861-1.948-3.127-1.319-.266-2.578.699-2.818 2.162-.24 1.464.629 2.86 1.948 3.126 1.319.267 2.578-.698 2.818-2.161Zm6.985-58.538c.239-1.463-.63-2.86-1.949-3.126s-2.578.698-2.818 2.162c-.239 1.463.63 2.86 1.949 3.126 1.319.233 2.578-.731 2.818-2.162Zm-161.393 7.65c.24-1.463-.63-2.86-1.949-3.126s-2.578.698-2.818 2.162c-.239 1.463.63 2.86 1.949 3.126s2.578-.698 2.818-2.162Zm55.636 64.291c.24-1.463-.63-2.86-1.949-3.126s-2.578.698-2.817 2.162c-.24 1.463.629 2.86 1.948 3.126s2.578-.698 2.818-2.162Zm-21.253 48.693c.239-1.464-.63-2.861-1.949-3.127-1.319-.266-2.578.699-2.818 2.162-.239 1.464.63 2.86 1.949 3.126 1.319.267 2.578-.698 2.818-2.161Zm195.656-149.902c.239-1.464-.63-2.86-1.949-3.127-1.319-.266-2.578.699-2.818 2.162-.24 1.464.63 2.861 1.949 3.127 1.319.266 2.578-.699 2.818-2.162ZM636.159 396.599c.24-1.463-.629-2.86-1.948-3.126s-2.578.698-2.818 2.162c-.24 1.463.629 2.86 1.948 3.126 1.319.233 2.578-.732 2.818-2.162Zm-54.017-27.705c.239-1.464-.63-2.861-1.949-3.127-1.319-.266-2.578.699-2.818 2.162-.239 1.464.63 2.861 1.949 3.127 1.319.266 2.608-.699 2.818-2.162Zm159.594 31.397c.24-1.463-.629-2.86-1.948-3.126-1.319-.267-2.578.698-2.818 2.161-.24 1.464.629 2.861 1.948 3.127 1.319.233 2.578-.732 2.818-2.162Zm-62.591-49.989c.24-1.464-.629-2.861-1.948-3.127-1.319-.266-2.578.699-2.818 2.162-.24 1.463.63 2.86 1.949 3.126s2.578-.698 2.817-2.161Zm-30.696-7.185c.24-1.463-.629-2.86-1.948-3.126s-2.578.698-2.818 2.162c-.24 1.463.63 2.86 1.949 3.126 1.319.233 2.578-.732 2.817-2.162Zm-45.264-20.987c.24-1.463-.629-2.86-1.948-3.126s-2.578.699-2.818 2.162c-.24 1.463.629 2.86 1.948 3.126 1.289.266 2.548-.698 2.818-2.162Zm-103.538-76.031c.239-1.464-.63-2.861-1.949-3.127-1.319-.266-2.578.699-2.818 2.162-.239 1.464.63 2.86 1.949 3.093 1.319.3 2.578-.665 2.818-2.128Zm-41.668 26.94c.24-1.463-.629-2.86-1.948-3.126s-2.578.698-2.818 2.162c-.24 1.463.63 2.86 1.949 3.126s2.578-.699 2.817-2.162Zm91.309 58.803c.239-1.463-.63-2.86-1.949-3.126s-2.578.698-2.818 2.162c-.239 1.463.63 2.86 1.949 3.126s2.578-.698 2.818-2.162Zm222.485 49.89c.239-1.463-.63-2.86-1.949-3.126-1.319-.267-2.578.698-2.818 2.161-.24 1.464.63 2.861 1.949 3.127 1.319.233 2.578-.732 2.818-2.162ZM480.671 156.763c.24-1.463-.629-2.86-1.948-3.126s-2.578.698-2.818 2.161c-.24 1.464.63 2.861 1.949 3.127 1.319.233 2.578-.732 2.817-2.162Zm-30.246.732c.24-1.464-.629-2.861-1.948-3.127-1.319-.266-2.578.699-2.818 2.162-.24 1.464.63 2.86 1.949 3.127 1.319.266 2.578-.699 2.817-2.162Zm15.378 78.825c.24-1.463-.629-2.86-1.948-3.126s-2.578.698-2.818 2.162c-.24 1.463.63 2.86 1.948 3.126 1.319.233 2.578-.732 2.818-2.162Zm-4.586-23.581c.24-1.463-.63-2.86-1.949-3.126s-2.578.698-2.817 2.162c-.24 1.463.629 2.86 1.948 3.126 1.319.233 2.578-.732 2.818-2.162Zm73.052 16.796c.24-1.463-.629-2.86-1.948-3.126s-2.578.698-2.818 2.162c-.24 1.463.63 2.86 1.949 3.126 1.289.266 2.578-.698 2.817-2.162Zm59.653 64.691c.24-1.464-.629-2.861-1.948-3.127-1.319-.266-2.578.699-2.818 2.162-.24 1.463.63 2.86 1.949 3.126 1.319.267 2.578-.698 2.817-2.161Zm42.627 8.148c.24-1.463-.63-2.86-1.949-3.126s-2.577.698-2.817 2.162c-.24 1.463.629 2.86 1.948 3.126 1.319.233 2.578-.732 2.818-2.162Zm-102.43-2.095c.24-1.464-.629-2.861-1.948-3.127-1.319-.266-2.578.699-2.818 2.162-.24 1.464.63 2.861 1.949 3.127 1.319.266 2.578-.699 2.817-2.162Z"/><g opacity=".3"><path d="m448.866 248.66.12-.1 59.773 67.118c.09-.033 181.118-61.597 181.118-61.597l77.069 86.442 117.567 1.197v.167l-117.627-1.231-77.039-86.375c-.09.033-181.118 61.597-181.118 61.597l-59.863-67.218Z"/><path d="M800.25 277.629c-.12.033-173.953 34.524-173.953 34.524s-107.226-53.15-107.286-53.183c-.06.067-60.792 46.63-60.792 46.63l-.09-.133 60.852-46.663 107.346 53.216 174.013-34.524 50.69 117.473-.12.067c-.03-.033-50.63-117.274-50.66-117.407Z"/><path d="m556.842 200.633 123.323-11.408s62.44 61.73 62.5 61.796c3.358-1.131 74.012-24.645 77.699-21.02.15.133.21.299.15.499-.929 5.587 95.745 68.049 96.734 68.681l-.06.133c-3.987-2.594-97.723-63.16-96.794-68.847a.352.352 0 0 0-.12-.366c-3.627-3.592-76.859 20.82-77.609 21.053h-.03l-62.5-61.83s-122.964 11.408-123.114 11.408c.03.167 17.207 132.175 17.207 132.175l-.15.033-17.236-132.307Z"/><path d="m789.339 370.723-97.304-27.539s-40.588-108.327-40.618-108.46c-.12.033-53.178 16.696-53.178 16.696l-81.776-36.22-118.376-28.902.03-.167 118.376 28.903 81.746 36.22 53.268-16.763 40.648 108.56 97.273 27.539 34.144 72.806-.12.066-34.113-72.739Z"/><path d="m676.088 364.47-61.302-20.255-25.48-76.963-53.088-21.519s-24.101-51.819-24.191-52.018c-.15.166-91.428 109.158-91.428 109.158l-.09-.1 91.578-109.325 24.251 52.185 53.088 21.552 25.48 76.963 61.272 20.222 21.763 34.89-.12.1-21.733-34.89Zm6.594-174.647c.27-1.53-.659-3.026-2.068-3.292-1.379-.267-2.728.731-2.968 2.294-.24 1.564.66 3.027 2.039 3.326 1.409.233 2.727-.765 2.997-2.328ZM559.45 201.231c.239-1.563-.66-3.026-2.069-3.292-1.379-.267-2.728.731-2.967 2.294-.24 1.564.659 3.027 2.068 3.293 1.379.266 2.698-.765 2.968-2.295Zm94.515 33.892c.27-1.563-.659-3.027-2.068-3.326-1.379-.266-2.728.732-2.968 2.295-.24 1.53.66 3.027 2.068 3.326 1.379.266 2.698-.765 2.968-2.295Z"/><path d="M514.545 194.08c.24-1.53-.66-3.026-2.068-3.292-1.379-.266-2.728.731-2.968 2.295-.24 1.529.659 3.026 2.068 3.292 1.379.3 2.728-.731 2.968-2.295Zm49.371 41.442c.24-1.53-.659-3.027-2.068-3.293-1.379-.299-2.728.732-2.968 2.295-.24 1.53.66 3.027 2.068 3.293 1.379.299 2.698-.732 2.968-2.295Zm35.702 15.832c.27-1.53-.66-3.027-2.068-3.293-1.379-.266-2.728.732-2.968 2.295-.24 1.53.659 3.027 2.068 3.293 1.379.266 2.698-.732 2.968-2.295Zm-22.962 82.118c.24-1.53-.659-3.027-2.068-3.293-1.379-.299-2.728.732-2.968 2.295-.24 1.53.659 3.027 2.068 3.293 1.379.266 2.698-.765 2.968-2.295Zm-65.409-17.195c.27-1.53-.659-3.027-2.068-3.293-1.379-.266-2.728.732-2.968 2.295-.239 1.53.66 3.027 2.069 3.293 1.379.299 2.728-.732 2.967-2.295Zm-50.57-10.244c.24-1.53-.659-3.027-2.068-3.293-1.379-.299-2.728.732-2.968 2.295-.24 1.53.66 3.027 2.069 3.293 1.379.266 2.728-.765 2.967-2.295Zm-36.571-3.991c.24-1.53-.659-3.027-2.068-3.293-1.379-.299-2.728.732-2.968 2.295-.24 1.53.66 3.026 2.068 3.293 1.379.266 2.728-.765 2.968-2.295Zm27.339-52.917c.239-1.53-.66-3.026-2.069-3.293-1.379-.299-2.728.732-2.967 2.295-.24 1.53.659 3.027 2.068 3.293 1.379.266 2.728-.765 2.968-2.295Zm70.084 10.244c.24-1.53-.659-3.026-2.068-3.292-1.379-.3-2.728.731-2.968 2.295-.269 1.529.66 3.026 2.069 3.292 1.349.3 2.698-.731 2.967-2.295Zm17.207-13.204c.24-1.53-.66-3.026-2.068-3.293-1.379-.266-2.728.732-2.968 2.295-.24 1.564.659 3.027 2.068 3.293s2.728-.732 2.968-2.295Zm-38.43-35.089c.27-1.53-.659-3.026-2.068-3.293-1.379-.266-2.728.732-2.968 2.295-.24 1.53.66 3.027 2.068 3.293 1.379.266 2.728-.765 2.968-2.295Zm25.69 7.65c.27-1.53-.66-3.027-2.068-3.326-1.379-.266-2.728.732-2.968 2.295-.27 1.563.659 3.026 2.068 3.293 1.379.332 2.728-.699 2.968-2.262Zm65.888 49.025c.24-1.53-.659-3.027-2.068-3.293s-2.728.732-2.968 2.295c-.27 1.53.659 3.027 2.068 3.293 1.379.266 2.728-.765 2.968-2.295Zm-6.475 23.315c.24-1.53-.659-3.027-2.068-3.293-1.409-.299-2.728.732-2.998 2.295-.24 1.53.66 3.027 2.069 3.293 1.408.266 2.757-.732 2.997-2.295Zm31.925 53.581c.27-1.53-.66-3.026-2.068-3.292-1.379-.3-2.728.731-2.968 2.295-.27 1.53.659 3.026 2.068 3.292 1.379.3 2.698-.731 2.968-2.295Zm11.481-32.062c.27-1.53-.66-3.027-2.068-3.293-1.379-.266-2.728.732-2.968 2.295-.27 1.53.659 3.027 2.068 3.326 1.379.233 2.698-.798 2.968-2.328Zm35.972-48.526c.239-1.53-.66-3.027-2.069-3.293-1.379-.299-2.728.732-2.967 2.295-.27 1.53.659 3.027 2.068 3.293 1.409.299 2.728-.732 2.968-2.295Zm27.578-9.346c.24-1.563-.66-3.027-2.068-3.326-1.379-.266-2.728.732-2.968 2.295-.27 1.53.659 3.027 2.038 3.293 1.409.299 2.758-.732 2.998-2.262Zm53.058-3.027c.24-1.53-.659-3.026-2.068-3.292-1.379-.3-2.728.731-2.998 2.295-.24 1.529.66 3.026 2.069 3.292 1.408.266 2.757-.731 2.997-2.295Zm57.375 26.375c.24-1.563-.66-3.026-2.068-3.292-1.409-.267-2.728.731-2.968 2.295-.27 1.529.659 3.026 2.068 3.325 1.379.233 2.728-.798 2.968-2.328Zm20.144-47.029c.24-1.563-.659-3.027-2.068-3.293-1.409-.299-2.728.732-2.968 2.295-.24 1.563.659 3.027 2.068 3.293 1.379.266 2.728-.765 2.968-2.295Zm-53.538 110.057c.24-1.564-.659-3.027-2.068-3.326-1.379-.266-2.728.731-2.968 2.295-.24 1.529.66 3.026 2.069 3.292 1.379.3 2.697-.731 2.967-2.261Zm-74.821 2.527c.24-1.53-.659-3.026-2.068-3.292s-2.728.731-2.968 2.295c-.27 1.529.66 3.026 2.068 3.292 1.379.266 2.698-.765 2.968-2.295Zm-15.917 21.353c.27-1.563-.66-3.027-2.069-3.293-1.379-.266-2.728.732-2.967 2.295-.24 1.53.659 3.027 2.068 3.293 1.379.266 2.698-.765 2.968-2.295Zm21.763 34.823c.239-1.53-.66-3.027-2.069-3.293-1.409-.266-2.728.732-2.967 2.295-.27 1.53.659 3.027 2.068 3.293 1.379.266 2.728-.765 2.968-2.295Zm186.603-57.573c.269-1.53-.66-3.026-2.069-3.292-1.379-.266-2.728.731-2.967 2.295-.24 1.53.659 3.026 2.068 3.292 1.379.266 2.698-.731 2.968-2.295Zm-94.366 28.97c.27-1.53-.66-3.027-2.068-3.293-1.379-.266-2.728.732-2.968 2.295-.24 1.53.659 3.026 2.068 3.293 1.379.299 2.728-.732 2.968-2.295Zm60.792 24.279c.24-1.53-.659-3.026-2.068-3.326-1.379-.299-2.728.732-2.968 2.295-.24 1.563.69 3.027 2.068 3.326 1.379.266 2.728-.765 2.968-2.295Zm-23.172-53.748c.27-1.529-.659-3.026-2.068-3.292-1.379-.266-2.728.732-2.998 2.261-.24 1.564.66 3.027 2.069 3.326 1.409.267 2.728-.765 2.997-2.295Z"/></g><g opacity=".4"><path d="M722.581 253.948s29.767-41.076 29.827-41.142c-.03-.1-37.591-78.394-37.591-78.394l30.936-58.637.12.1s-30.846 58.504-30.876 58.571c.03.066 37.591 78.393 37.591 78.393s-29.707 41.009-29.797 41.142c.09.1 44.665 51.287 44.665 51.287l94.575-4.424v.167l-94.635 4.423-44.815-51.486Z"/><path d="M748.181 76.308c.24-1.464-.63-2.86-1.948-3.127-1.319-.266-2.578.699-2.818 2.162-.24 1.463.629 2.86 1.948 3.126 1.319.267 2.578-.698 2.818-2.161Zm-30.936 58.603c.24-1.463-.629-2.86-1.948-3.126s-2.578.698-2.818 2.162c-.24 1.463.63 2.86 1.949 3.126 1.349.266 2.578-.698 2.817-2.162Zm37.621 78.394c.24-1.464-.63-2.861-1.949-3.127-1.319-.266-2.578.699-2.817 2.162-.24 1.463.629 2.86 1.948 3.126 1.319.267 2.578-.698 2.818-2.161Zm-29.827 41.142c.24-1.464-.629-2.86-1.948-3.127-1.319-.266-2.578.699-2.818 2.162-.24 1.464.629 2.861 1.948 3.127 1.319.233 2.578-.699 2.818-2.162Zm44.725 51.32c.24-1.464-.63-2.861-1.948-3.127-1.319-.266-2.578.699-2.818 2.162-.24 1.464.629 2.861 1.948 3.127 1.319.266 2.578-.699 2.818-2.162Zm94.636-4.424c.239-1.463-.63-2.86-1.949-3.126s-2.578.698-2.818 2.162c-.24 1.463.63 2.86 1.949 3.126 1.289.266 2.548-.698 2.818-2.162Z"/></g></g><path fill="#8C8C8C" d="M374.405 40.254c-1.768 2.86-5.276 3.559-7.854 1.596-2.577-1.962-3.207-5.853-1.438-8.714 1.768-2.86 5.275-3.559 7.853-1.596 2.548 1.962 3.208 5.854 1.439 8.714Zm71.944 107.063c-1.769 2.861-5.276 3.559-7.854 1.597-2.578-1.963-3.208-5.854-1.439-8.714 1.769-2.861 5.276-3.559 7.854-1.597 2.548 1.963 3.177 5.854 1.439 8.714Zm24.76 53.216c-1.768 2.86-5.276 3.559-7.854 1.596-2.578-1.962-3.207-5.854-1.439-8.714 1.769-2.86 5.276-3.559 7.854-1.596 2.548 1.962 3.208 5.853 1.439 8.714Zm-93.976 49.457c-1.769 2.861-5.276 3.559-7.854 1.597-2.578-1.963-3.207-5.854-1.439-8.714 1.769-2.861 5.276-3.559 7.854-1.597 2.578 1.996 3.208 5.887 1.439 8.714ZM279.56 93.436c-1.769 2.86-5.276 3.56-7.854 1.597-2.578-1.963-3.207-5.854-1.439-8.714 1.769-2.86 5.276-3.559 7.854-1.597 2.548 1.963 3.207 5.854 1.439 8.714Zm74.611 44.901c-1.768 2.86-5.276 3.559-7.854 1.597-2.578-1.963-3.207-5.854-1.438-8.715 1.768-2.86 5.275-3.558 7.853-1.596 2.548 1.996 3.208 5.887 1.439 8.714Zm44.305 4.324c-1.768 2.86-5.275 3.558-7.853 1.596-2.578-1.962-3.208-5.854-1.439-8.714 1.768-2.86 5.276-3.559 7.854-1.596 2.548 1.962 3.207 5.853 1.438 8.714Zm178.899 75.998c-1.319 2.129-3.927 2.661-5.845 1.198-1.919-1.464-2.398-4.357-1.079-6.486 1.319-2.128 3.927-2.661 5.845-1.197 1.889 1.463 2.398 4.39 1.079 6.485ZM220.207 104.445c-1.319 2.129-3.927 2.661-5.846 1.198-1.918-1.464-2.398-4.357-1.079-6.486 1.319-2.129 3.927-2.66 5.846-1.197 1.918 1.463 2.398 4.39 1.079 6.485Zm35.462-61.995c-1.319 2.128-3.927 2.66-5.846 1.197-1.918-1.464-2.398-4.357-1.079-6.486 1.319-2.129 3.927-2.66 5.846-1.197 1.888 1.463 2.398 4.39 1.079 6.485Zm48.232-2.828c-1.319 2.129-3.927 2.66-5.846 1.197-1.918-1.463-2.398-4.357-1.079-6.485 1.319-2.129 3.927-2.661 5.846-1.198 1.918 1.464 2.398 4.39 1.079 6.486Zm423.357 354.15c-1.319 2.129-3.927 2.661-5.846 1.197-1.918-1.463-2.398-4.357-1.079-6.485 1.319-2.129 3.927-2.661 5.845-1.198 1.919 1.431 2.399 4.357 1.08 6.486Zm49.281-25.144c-1.319 2.128-3.927 2.66-5.845 1.197-1.919-1.463-2.399-4.357-1.08-6.486 1.319-2.128 3.927-2.66 5.846-1.197 1.918 1.463 2.398 4.39 1.079 6.486ZM200.572 45.675c-1.319 2.129-3.927 2.661-5.845 1.198-1.919-1.464-2.398-4.357-1.079-6.486 1.319-2.129 3.927-2.66 5.845-1.197 1.918 1.463 2.398 4.39 1.079 6.485Zm354.201 289.759c-1.319 2.129-3.927 2.661-5.845 1.198-1.919-1.464-2.398-4.357-1.079-6.486 1.319-2.128 3.927-2.661 5.845-1.197 1.919 1.463 2.398 4.357 1.079 6.485Zm135.404-10.21c-1.319 2.128-3.927 2.66-5.846 1.197-1.918-1.463-2.398-4.357-1.079-6.486 1.319-2.128 3.927-2.66 5.846-1.197 1.918 1.463 2.398 4.357 1.079 6.486Zm-18.706 61.431c-1.319 2.128-3.927 2.66-5.845 1.197-1.919-1.464-2.398-4.357-1.079-6.486 1.319-2.128 3.927-2.661 5.845-1.197 1.889 1.43 2.398 4.357 1.079 6.486ZM661.19 236.62c-1.319 2.128-3.927 2.66-5.846 1.197-1.918-1.463-2.398-4.357-1.079-6.486 1.319-2.128 3.927-2.66 5.845-1.197 1.919 1.463 2.399 4.357 1.08 6.486Zm97.872 88.404c-1.319 2.129-3.926 2.661-5.845 1.197-1.918-1.463-2.398-4.357-1.079-6.485 1.319-2.129 3.927-2.661 5.845-1.198 1.919 1.464 2.398 4.357 1.079 6.486Zm44.605-.133c-1.319 2.129-3.927 2.661-5.845 1.198-1.919-1.464-2.398-4.358-1.079-6.486 1.319-2.129 3.927-2.661 5.845-1.197 1.919 1.463 2.398 4.357 1.079 6.485Zm-60.702 97.917c-1.319 2.128-3.927 2.661-5.845 1.197-1.919-1.463-2.398-4.357-1.08-6.486 1.319-2.128 3.927-2.66 5.846-1.197 1.918 1.464 2.398 4.357 1.079 6.486Z"/><g fill="#8C8C8C" opacity=".5"><path d="M342.81 27.516 203.18 192.817l-97.813-20.222-.39 2.328 98.952 20.455.42-.499L342.84 30.909l191.759 221.709 103.449-117.74 79.078 107.762 56.955-55.843 124.342 214.226 83.544-88.571 45.833 32.927 1.17-1.962-47.273-33.958-82.885 87.905L774.53 183.238l-57.135 56.043-79.197-107.928-.84.931-102.759 116.974L342.81 27.516Z"/><path d="M110.013 172.994c-.389-2.96-2.847-5.022-5.545-4.623-2.668.432-4.527 3.159-4.167 6.153.39 2.96 2.848 5.022 5.546 4.623 2.698-.433 4.556-3.193 4.166-6.153Zm98.413 20.321c-.39-2.96-2.848-5.022-5.546-4.623-2.668.433-4.526 3.16-4.166 6.153.389 2.961 2.847 5.023 5.545 4.624 2.668-.433 4.527-3.193 4.167-6.154Zm139.84-165.3c-.39-2.96-2.848-5.023-5.546-4.623-2.668.432-4.526 3.16-4.167 6.152.39 2.96 2.848 5.023 5.546 4.624 2.698-.433 4.557-3.193 4.167-6.153ZM540.834 248.76c-.389-2.961-2.848-5.023-5.545-4.624-2.668.433-4.527 3.16-4.167 6.154.39 2.96 2.848 5.022 5.546 4.623 2.667-.433 4.526-3.193 4.166-6.153Zm101.65-116.476c-.39-2.96-2.848-5.022-5.545-4.623-2.668.432-4.527 3.159-4.167 6.153.389 2.96 2.848 5.022 5.545 4.623 2.668-.466 4.527-3.193 4.167-6.153Zm79.618 107.895c-.39-2.961-2.848-5.023-5.546-4.624-2.668.433-4.527 3.16-4.167 6.154.39 2.96 2.848 5.022 5.546 4.623 2.698-.433 4.556-3.16 4.167-6.153Zm56.085-55.677c-.389-2.96-2.847-5.022-5.545-4.623-2.668.432-4.527 3.159-4.167 6.153.39 2.96 2.848 5.022 5.546 4.623 2.698-.433 4.556-3.16 4.166-6.153Zm125.272 213.927c-.39-2.961-2.848-5.023-5.546-4.624-2.668.433-4.526 3.16-4.167 6.153.39 2.961 2.848 5.023 5.546 4.624 2.668-.433 4.556-3.16 4.167-6.153Zm83.604-86.975c-.389-2.96-2.848-5.022-5.545-4.623-2.668.432-4.527 3.16-4.167 6.153.389 2.96 2.848 5.022 5.545 4.623 2.698-.432 4.557-3.193 4.167-6.153Zm46.167 32.162c-.39-2.96-2.85-5.022-5.55-4.623-2.67.433-4.53 3.16-4.17 6.153.39 2.961 2.85 5.023 5.55 4.623 2.7-.432 4.56-3.192 4.17-6.153Z"/></g><path fill="#8C8C8C" d="m100.421 71.618-.84 2.162 98.293 46.031 52.579-24.412 42.057 49.158 46.313-52.65 80.127 66.586 21.553-12.573 105.517 55.345 45.684-41.775 36.242 72.706 28.058 24.679 40.438-15.765 51.889 57.173 48.741-38.847 102.73 81.985 23.591 25.91.15.099 34.353 18.36 74.854-72.706-1.41-1.763-73.774 71.675-32.944-17.628-23.531-25.809-104.019-83.017-48.531 38.681-51.56-56.807-40.588 15.798-26.799-23.581-37.26-74.735-46.614 42.606-105.277-55.211-21.283 12.439-80.577-66.952-46.043 52.384-41.548-48.592-53.118 24.678-97.453-45.632Z" opacity=".2"/><path d="m122.095 217.814-4.206-.46.102-1.159 4.207.461-.103 1.158Zm8.542-.252-.09 1.164 8.424.931.089-1.164-8.423-.931Zm16.877 1.863-.09 1.164 8.423.931.09-1.164-8.423-.931Zm16.847 1.829-.09 1.164 3.657.366 4.886-.732-.15-1.164-4.826.732-3.477-.366Zm16.696-1.597.15 1.164 8.394-1.263-.15-1.165-8.394 1.264Zm16.787-2.527.15 1.164 8.393-1.264-.149-1.164-8.394 1.264Zm16.817-2.528.15 1.164 8.393-1.264-.15-1.164-8.393 1.264Zm16.787-2.528.15 1.164 8.393-1.264-.15-1.164-8.393 1.264Zm16.787-2.494.149 1.164 8.394-1.264-.15-1.164-8.393 1.264Zm16.816-2.528.15 1.164 8.394-1.264-.15-1.164-8.394 1.264Zm16.787-2.528.15 1.164 8.393-1.264-.15-1.164-8.393 1.264Zm16.787-2.494.15 1.164 8.393-1.264-.15-1.164-8.393 1.264Zm16.907-1.098-.54.998 7.224 4.889.54-.998-7.224-4.889Zm14.448 9.778-.539.998 7.224 4.889.539-.997-7.224-4.89Zm14.479 9.812-.54.998 7.225 4.889.539-.998-7.224-4.889Zm14.478 9.778-.539.998 7.224 4.889.54-.997-7.225-4.89Zm14.449 9.812-.54.998 7.225 4.889.539-.998-7.224-4.889Zm14.479 9.778-.54.998 4.826 3.26 3.088.199.06-1.164-2.818-.199-4.616-3.094Zm15.857 3.892-.06 1.164 8.454.565.059-1.164-8.453-.565Zm16.937 1.131-.06 1.164 8.453.565.06-1.164-8.453-.565Zm16.906 1.13-.059 1.165 8.453.565.06-1.164-8.454-.566Zm16.937 1.131-.06 1.164 8.454.566.06-1.164-8.454-.566Zm16.907 1.131-.06 1.164 8.453.566.06-1.164-8.453-.566Zm16.817 2.495-.39 1.097 7.914 3.326.359-1.097-7.883-3.326Zm15.857 6.618-.39 1.098 7.914 3.326.39-1.098-7.914-3.326Zm15.858 6.652-.36 1.098 7.914 3.326.389-1.098-7.943-3.326Zm15.857 6.652-.39 1.098 7.914 3.326.36-1.098-7.884-3.326Zm15.828 6.652-.39 1.098 7.914 3.326.359-1.098-7.883-3.326Zm15.857 6.652-.36 1.098 7.914 3.326.39-1.098-7.944-3.326Zm15.858 6.652-.39 1.098 2.818 1.164 5.635.133.03-1.164-5.545-.133-2.548-1.098Zm16.577 1.397-.03 1.164 8.483.2.03-1.164-8.483-.2Zm16.966.399-.03 1.164 8.484.2.03-1.164-8.484-.2Zm16.937.366-.03 1.164 8.483.2.03-1.164-8.483-.2Zm16.937.366-.03 1.164 8.483.199.03-1.164-8.483-.199Zm16.367 4.157-.48 1.065 7.614 4.124.48-1.064-7.614-4.125Zm15.228 8.282-.48 1.064 7.614 4.125.48-1.065-7.614-4.124Zm15.198 8.282-.48 1.064 7.614 4.124.48-1.064-7.614-4.124Zm15.228 8.281-.48 1.065 7.614 4.124.48-1.064-7.614-4.125Zm15.228 8.249-.48 1.064 7.614 4.124.48-1.064-7.614-4.124Zm15.198 8.281-.48 1.065 7.614 4.124.48-1.064-7.614-4.125Zm15.228 8.282-.48 1.064 6.115 3.326 1.709.499.27-1.131-1.619-.465-5.995-3.293Zm15.827 6.12-.269 1.131 8.183 2.394.27-1.13-8.184-2.395Zm16.398 4.789-.27 1.131 8.183 2.395.27-1.131-8.183-2.395Zm16.397 4.756-.27 1.131 8.213 2.395.27-1.131-8.213-2.395Zm16.397 4.757-.27 1.13 8.183 2.395.27-1.131-8.183-2.394Zm16.397 4.756-.27 1.131 8.213 2.394.27-1.131-8.213-2.394Zm16.397 4.756-.27 1.131 8.184 2.394.269-1.13-8.183-2.395Zm15.797 6.685-.599.965 6.924 5.421.6-.965-6.925-5.421Zm13.85 10.81-.6.964 6.925 5.421.599-.964-6.924-5.421Zm13.879 10.842-.6.965 6.925 5.421.599-.964-6.924-5.422Zm13.849 10.81-.6.964 6.925 5.422.599-.965-6.924-5.421Zm14.448 8.215-.12 1.164 8.424.964.12-1.164-8.424-.964Zm16.877 1.896-.12 1.164 8.424.964.119-1.164-8.423-.964Zm16.847 1.895-.12 1.165 8.423.964.12-1.164-8.423-.965Zm16.876 1.929-.119 1.165 8.423.964.12-1.164-8.424-.965Zm16.847 1.896-.12 1.164 8.424.965.12-1.164-8.424-.965Zm16.874 1.929-.12 1.164 8.43.965.12-1.164-8.43-.965Zm16.85 1.896-.12 1.164 8.42.965.12-1.164-8.42-.965Zm20.98 3.606-4.2-.474.11-1.158 4.2.474-.11 1.158ZM93.047 51.307l-4.206-.46.103-1.16 4.206.462-.103 1.158Zm8.543-.243-.09 1.164 8.423.93.09-1.163-8.423-.931Zm16.877 1.829-.09 1.164 8.423.931.09-1.164-8.423-.931Zm16.876 1.83-.09 1.163 3.658.366 4.886-.732-.15-1.164-4.826.732-3.478-.366Zm16.667-1.597.15 1.164 8.394-1.264-.15-1.164-8.394 1.264Zm16.817-2.495.15 1.164 8.393-1.264-.15-1.164-8.393 1.264Zm16.787-2.528.15 1.165 8.393-1.264-.15-1.164-8.393 1.263Zm16.787-2.527.15 1.164 8.393-1.264-.15-1.164-8.393 1.264Zm16.786-2.528.15 1.164 8.394-1.264-.15-1.164-8.394 1.264Zm16.817-2.495.15 1.165 8.393-1.264-.149-1.164-8.394 1.264Zm16.787-2.527.15 1.164 8.393-1.264-.15-1.164-8.393 1.264Zm16.787-2.528.15 1.164 8.393-1.264-.15-1.164-8.393 1.264Zm16.906-1.098-.539.998 7.224 4.89.54-.998-7.225-4.89Zm14.449 9.812-.54.998 7.225 4.89.539-.999-7.224-4.889Zm14.479 9.778-.54.998 7.224 4.89.54-.998-7.224-4.89Zm14.478 9.812-.539.998 7.224 4.889.54-.998-7.225-4.889Zm14.449 9.812-.54.998 7.225 4.889.539-.998-7.224-4.89Zm14.479 9.778-.54.998 4.826 3.26 3.088.199.06-1.164-2.818-.2-4.616-3.093Zm15.887 3.858-.06 1.164 8.453.566.06-1.164-8.453-.566Zm16.907 1.131-.06 1.164 8.453.566.06-1.165-8.453-.565Zm16.906 1.13-.06 1.165 8.454.565.06-1.164-8.454-.565Zm16.937 1.165-.06 1.164 8.453.566.06-1.165-8.453-.565Zm16.907 1.13-.06 1.165 8.453.565.06-1.164-8.453-.565Zm16.816 2.462-.389 1.098 7.914 3.326.359-1.098-7.884-3.326Zm15.858 6.652-.39 1.098 7.914 3.326.39-1.098-7.914-3.326Zm15.857 6.652-.359 1.097 7.914 3.326.389-1.097-7.944-3.326Zm15.858 6.652-.39 1.097 7.914 3.326.36-1.097-7.884-3.326Zm15.858 6.652-.39 1.097 7.914 3.326.359-1.097-7.883-3.326Zm15.827 6.652-.36 1.097 7.914 3.326.39-1.097-7.944-3.326Zm15.858 6.652-.39 1.097 2.818 1.164 5.635.133.03-1.164-5.545-.133-2.548-1.097Zm16.607 1.397-.03 1.164 8.483.199.03-1.164-8.483-.199Zm16.936.365-.03 1.165 8.484.199.03-1.164-8.484-.2Zm16.937.4-.03 1.164 8.483.199.03-1.164-8.483-.199Zm16.937.365-.03 1.165 8.483.199.03-1.164-8.483-.2Zm16.367 4.158-.48 1.064 7.614 4.124.48-1.064-7.614-4.124Zm15.228 8.282-.48 1.064 7.614 4.124.48-1.064-7.614-4.124Zm15.198 8.248-.48 1.064 7.614 4.125.48-1.065-7.614-4.124Zm15.228 8.282-.48 1.064 7.614 4.124.48-1.064-7.614-4.124Zm15.228 8.281-.48 1.065 7.614 4.124.48-1.064-7.614-4.125Zm15.228 8.282-.48 1.064 7.614 4.125.48-1.065-7.614-4.124Zm15.198 8.282-.48 1.064 6.115 3.326 1.709.499.27-1.131-1.619-.466-5.995-3.292Zm15.827 6.12-.27 1.13 8.184 2.395.27-1.131-8.184-2.394Zm16.397 4.756-.269 1.131 8.183 2.394.27-1.131-8.184-2.394Zm16.397 4.756-.269 1.131 8.213 2.394.27-1.13-8.214-2.395Zm16.398 4.789-.27 1.131 8.183 2.395.27-1.131-8.183-2.395Zm16.397 4.756-.27 1.131 8.213 2.395.27-1.131-8.213-2.395Zm16.397 4.757-.27 1.13 8.183 2.395.27-1.131-8.183-2.394Zm15.797 6.651-.599.965 6.924 5.421.6-.964-6.925-5.422Zm13.879 10.843-.599.965 6.924 5.421.6-.964-6.925-5.422Zm13.849 10.81-.599.964 6.924 5.421.6-.964-6.925-5.421Zm13.85 10.842-.6.965 6.925 5.421.599-.964-6.924-5.422Zm14.448 8.182-.12 1.164 8.424.965.12-1.164-8.424-.965Zm16.877 1.929-.12 1.164 8.423.965.12-1.164-8.423-.965Zm16.847 1.896-.12 1.164 8.423.965.12-1.164-8.423-.965Zm16.876 1.929-.12 1.164 8.424.965.12-1.164-8.424-.965Zm16.847 1.896-.12 1.164 8.424.965.119-1.165-8.423-.964Zm16.877 1.896-.12 1.164 8.423.964.12-1.164-8.423-.964Zm16.844 1.929-.12 1.164 8.43.964.12-1.164-8.43-.964Zm20.99 3.599-4.2-.474.1-1.159 4.21.475-.11 1.158Z" fill="#8C8C8C" opacity=".7"/><g opacity=".9"><g fill="#8C8C8C" opacity=".2"><path d="M156.537 114.59c15.737 36.951 31.505 73.87 47.243 110.821a3544.848 3544.848 0 0 0 6.774 15.865l-9.412-.1c19.904-45.599 39.808-91.165 59.743-136.764 2.817-6.452 5.635-12.871 8.453-19.324 1.858-4.257 7.434-3.492 9.413.1 15.497 28.204 30.995 56.409 46.463 84.613 2.188 3.991 4.376 7.949 6.565 11.94l-9.413-.1c16.068-37.417 32.105-74.834 48.172-112.251 2.278-5.322 4.557-10.61 6.835-15.932 2.188-5.122 8.543-2.893 9.952 1.53 9.443 29.868 18.915 59.735 28.358 89.602l45.234 142.884c3.477 10.976 6.925 21.918 10.402 32.894l-10.492-.1c8.394-24.945 16.787-49.856 25.15-74.801 13.31-39.546 26.589-79.059 39.899-118.604 3.058-9.147 6.145-18.26 9.203-27.406 1.588-4.69 7.524-6.154 9.952-1.364 15.228 29.867 30.486 59.734 45.714 89.602 3.447 6.785-5.995 12.771-9.443 6.02-15.228-29.868-30.486-59.735-45.714-89.602 3.328-.466 6.655-.898 9.952-1.364-8.393 24.945-16.786 49.857-25.15 74.801-13.309 39.546-26.589 79.059-39.898 118.605-3.058 9.146-6.145 18.259-9.203 27.406-1.919 5.687-8.693 5.654-10.492-.1-9.442-29.867-18.915-59.734-28.358-89.602L387.205 90.975c-3.477-10.975-6.924-21.918-10.402-32.894 3.328.5 6.625 1.031 9.952 1.53-16.067 37.417-32.104 74.835-48.172 112.252-2.278 5.322-4.556 10.61-6.834 15.931-1.829 4.291-7.434 3.493-9.413-.099a120320.435 120320.435 0 0 1-46.463-84.613c-2.189-3.991-4.377-7.95-6.565-11.94l9.413.1a280647.17 280647.17 0 0 1-59.743 136.763c-2.818 6.453-5.636 12.872-8.454 19.324-1.738 3.958-7.734 3.859-9.412-.099-15.738-36.952-31.506-73.87-47.243-110.822a3595.546 3595.546 0 0 0-6.775-15.865c-2.997-6.951 6.445-12.971 9.443-5.953Z"/><path d="M158.755 112.195c.06-6.253-4.496-11.408-10.132-11.441-5.636-.067-10.282 4.989-10.312 11.242-.06 6.252 4.497 11.408 10.132 11.441 5.636.066 10.252-4.956 10.312-11.242ZM303.931 124.9c.06-6.253-4.497-11.408-10.132-11.441-5.636-.067-10.282 4.989-10.312 11.242-.06 6.253 4.496 11.408 10.132 11.441 5.665.067 10.282-4.989 10.312-11.242Zm228.66 26.741c.059-6.253-4.497-11.408-10.132-11.441-5.636-.067-10.282 4.989-10.312 11.242-.06 6.252 4.496 11.408 10.132 11.441 5.665.067 10.282-4.989 10.312-11.242Z"/></g></g><g opacity=".9"><g fill="#8C8C8C" opacity=".2"><path d="M592.334 192.717a175297.51 175297.51 0 0 1 47.242 110.821c2.249 5.289 4.497 10.577 6.775 15.865l-9.412-.099c19.904-45.6 39.808-91.165 59.742-136.765 2.818-6.452 5.636-12.871 8.454-19.324 1.858-4.257 7.434-3.492 9.412.1 15.498 28.205 30.996 56.409 46.464 84.613 2.188 3.991 4.376 7.949 6.565 11.94l-9.413-.099c16.067-37.418 32.105-74.835 48.172-112.252 2.278-5.322 4.557-10.61 6.835-15.932 2.188-5.122 8.543-2.893 9.952 1.53 9.442 29.868 18.915 59.735 28.358 89.602l45.234 142.884c3.477 10.976 6.925 21.918 10.402 32.894l-10.492-.1c8.393-24.945 16.787-49.856 25.15-74.801 13.31-39.546 26.589-79.058 39.899-118.604 3.057-9.147 6.145-18.26 9.203-27.406 1.588-4.69 7.524-6.153 9.952-1.364 15.228 29.867 30.482 59.735 45.712 89.602 3.45 6.785-5.99 12.772-9.44 6.02-15.23-29.867-30.487-59.735-45.715-89.602 3.328-.466 6.655-.898 9.952-1.364-8.393 24.945-16.786 49.857-25.15 74.802-13.309 39.545-26.589 79.091-39.898 118.604-3.058 9.146-6.146 18.26-9.203 27.406-1.919 5.687-8.693 5.654-10.492-.1-9.442-29.867-18.915-59.734-28.358-89.602l-45.234-142.884c-3.477-10.975-6.925-21.918-10.402-32.893 3.328.498 6.625 1.031 9.952 1.53-16.067 37.417-32.104 74.834-48.172 112.251-2.278 5.322-4.556 10.61-6.834 15.932-1.829 4.29-7.434 3.492-9.413-.1a118118.076 118118.076 0 0 1-46.463-84.613c-2.189-3.991-4.377-7.949-6.565-11.94l9.412.1a261355.358 261355.358 0 0 1-59.743 136.764c-2.817 6.452-5.635 12.871-8.453 19.324-1.739 3.958-7.734 3.858-9.413-.1-15.767-36.952-31.505-73.87-47.242-110.822-2.249-5.288-4.497-10.576-6.775-15.865-2.998-6.951 6.415-12.971 9.443-5.953Z"/><path d="M594.522 190.322c.06-6.253-4.497-11.408-10.132-11.441-5.636-.067-10.282 4.989-10.312 11.242-.06 6.252 4.496 11.408 10.132 11.441 5.666.066 10.282-4.956 10.312-11.242Zm145.206 12.705c.06-6.252-4.497-11.408-10.132-11.441-5.636-.066-10.282 4.989-10.312 11.242-.06 6.253 4.496 11.408 10.132 11.441 5.635.067 10.252-4.989 10.312-11.242Zm228.66 26.741c.06-6.253-4.497-11.408-10.132-11.441-5.636-.067-10.282 4.989-10.312 11.242-.06 6.253 4.496 11.408 10.132 11.441 5.635.067 10.252-4.989 10.312-11.242Zm-81.356 90.434c.06-6.253-4.497-11.409-10.132-11.442-5.636-.066-10.282 4.989-10.312 11.242-.06 6.253 4.496 11.408 10.132 11.441 5.635.067 10.282-4.989 10.312-11.241Zm144.698-51.32c.06-6.253-4.5-11.408-10.13-11.442-5.64-.066-10.29 4.989-10.32 11.242-.06 6.253 4.5 11.408 10.14 11.442 5.66.066 10.28-4.956 10.31-11.242Z"/></g></g><g fill="#8C8C8C" opacity=".5"><path d="M289.092 53.758 221.586 291.63 104.917 135.277l-1.978 1.83 119.666 160.378L290.321 58.88l134.145 135.899 74.221-42.905 119.576 180.933 94.576-137.396 113.97 177.407 105.457-61.929 100.184 77.528 1.47-2.328-101.444-78.526-104.858 61.564-114.689-178.505-94.636 137.429-118.826-179.836-74.612 43.105L289.092 53.758Z"/><path d="M110.163 135.942c-.389-2.993-2.878-5.088-5.575-4.656-2.698.432-4.587 3.193-4.197 6.186.39 2.994 2.878 5.089 5.576 4.657 2.697-.399 4.556-3.193 4.196-6.187Zm117.328 159.115c-.39-2.993-2.878-5.088-5.576-4.656-2.698.432-4.586 3.193-4.196 6.186.389 2.994 2.877 5.089 5.575 4.657 2.728-.433 4.587-3.193 4.197-6.187Zm66.727-239.104c-.389-2.994-2.877-5.089-5.575-4.657-2.698.433-4.587 3.193-4.197 6.187.39 2.993 2.878 5.089 5.576 4.656 2.698-.432 4.586-3.193 4.196-6.186Zm135.104 135.666c-.39-2.993-2.878-5.088-5.576-4.656-2.698.432-4.586 3.193-4.196 6.186.389 2.994 2.877 5.089 5.575 4.657 2.728-.399 4.587-3.193 4.197-6.187Zm194.097 136.465c-.39-2.993-2.878-5.089-5.575-4.656-2.698.432-4.587 3.193-4.197 6.186.39 2.993 2.878 5.089 5.575 4.656 2.698-.399 4.587-3.193 4.197-6.186Zm95.025-136.398c-.389-2.994-2.877-5.089-5.575-4.657-2.698.433-4.587 3.193-4.197 6.187.39 2.993 2.878 5.088 5.576 4.656 2.697-.399 4.586-3.193 4.196-6.186Zm113.731 178.538c-.39-2.993-2.878-5.089-5.576-4.656-2.698.432-4.586 3.193-4.197 6.186.39 2.994 2.878 5.089 5.576 4.657 2.728-.433 4.586-3.193 4.197-6.187Zm203.625 15.034c-.39-2.994-2.87-5.089-5.57-4.657-2.7.433-4.59 3.193-4.2 6.187.39 2.993 2.88 5.088 5.58 4.656 2.7-.399 4.58-3.193 4.19-6.186ZM503.723 150.676c-.389-2.993-2.877-5.088-5.575-4.656-2.698.433-4.587 3.193-4.197 6.186.39 2.994 2.878 5.089 5.576 4.657 2.697-.399 4.556-3.193 4.196-6.187Z"/></g><path fill="#B2B2B2" d="M99.402 299.747h-1.11v-61.431h1.11v61.431Zm14.508-46.564h-1.109v-20.521h1.109v20.521Zm14.539 9.845h-1.109v-42.905h1.109v42.905Zm14.508-17.794h-1.109v-53.615h1.109v53.615Zm14.509-17.794h-1.109v-23.748h1.109v23.748Zm14.509 44.269h-1.11v-73.704h1.11v73.704Zm14.508 0h-1.109v-82.518h1.109v82.518Zm14.509-15.932h-1.109v-23.082h1.109v23.082Zm14.538 43.97h-1.109v-67.052h1.109v67.052Zm14.509 9.346h-1.109v-53.316h1.109v53.316Zm14.508-3.659h-1.109v-22.982h1.109v22.982Zm14.509-5.687h-1.109v-46.531h1.109v46.531Zm14.509-11.442h-1.11v-75.133h1.11v75.133Zm14.508-41.441h-1.109v-26.741h1.109v26.741Zm14.539-9.712h-1.11v-49.191h1.11v49.191Zm14.508-32.561h-1.109v-39.114h1.109v39.114Zm14.869 7.051h-1.11v-71.209h1.11v71.209Zm14.868-40.444h-1.109v-38.715h1.109v38.715Zm14.898-5.754h-1.109V99.955h1.109v65.489Zm14.868-26.974h-1.109v-22.417h1.109v22.417Zm14.869-2.993h-1.11V89.645h1.11v45.832Zm14.868 16.33h-1.109v-42.539h1.109v42.539Zm14.898-8.814h-1.109v-15.698h1.109v15.698Zm14.869 42.041h-1.11v-54.48h1.11v54.48Zm14.868-3.193h-1.109v-37.384h1.109v37.384Zm14.868 29.801h-1.109v-68.648h1.109v68.648Zm14.898 12.239h-1.109v-37.484h1.109v37.484Zm14.869-8.315h-1.109v-23.947h1.109v23.947Zm14.868-3.292h-1.109v-41.076h1.109v41.076Zm14.868-7.683h-1.109v-33.393h1.109v33.393Zm14.899-3.892h-1.11v-62.196h1.11v62.196Zm14.868 14.867h-1.109v-55.843h1.109v55.843Zm14.868 34.291h-1.109v-66.22h1.109v66.22Zm14.868 8.814h-1.109v-38.448h1.109v38.448Zm14.899 0h-1.109v-51.952h1.109v51.952Zm14.868 15.499h-1.109v-34.723h1.109v34.723Zm14.868 39.38h-1.109v-80.456h1.109v80.456Zm14.869 7.583h-1.109V268.05h1.109v53.083Zm14.898 32.095h-1.109v-76.065h1.109v76.065Zm14.868 0h-1.109v-38.016h1.109v38.016Zm14.868 3.692h-1.109v-19.423h1.109v19.423Zm14.869 19.424h-1.109v-58.238h1.109v58.238Zm14.898-9.712h-1.109v-37.517h1.109v37.517Zm14.868 20.322h-1.109v-45.965h1.109v45.965Zm14.869-17.329h-1.109v-80.089h1.109v80.089Zm14.868-32.095h-1.109v-36.353h1.109v36.353Zm14.898 19.39h-1.109v-43.37h1.109v43.37Zm14.868-19.39h-1.109v-42.939h1.109v42.939Zm14.869-12.506h-1.109V246.83h1.109v78.194Zm14.868 12.506h-1.109v-29.102h1.109v29.102Zm14.898 49.424h-1.109v-78.56h1.109v78.56Zm14.869-5.521h-1.11v-37.218h1.11v37.218Zm14.868 53.947h-1.109v-82.152h1.109v82.152Zm14.868-7.35h-1.109v-35.289h1.109v35.289Zm14.899-9.812h-1.11v-77.229h1.11v77.229Zm14.868-41.874h-1.109V356.92h1.109v19.424Zm14.868 17.96h-1.109v-41.076h1.109v41.076Zm14.868 56.409h-1.109v-82.518h1.109v82.518Zm14.899-4.291h-1.109v-56.408h1.109v56.408Zm14.868-7.616h-1.109v-36.353h1.109v36.353Zm14.868-18.193h-1.109v-19.391h1.109v19.391Zm14.867 14.767h-1.11v-49.357h1.11v49.357Z"/><path fill="#B2B2B2" d="M104.018 281.221H93.706v-36.353h10.312v36.353Zm43.526-42.938h-10.312V201.93h10.312v36.353Zm72.573 42.938h-10.312v-36.353h10.312v36.353Zm146.224-122.596H356.03v-36.352h10.311v36.352Zm74.402 15.3h-10.312v-36.353h10.312v36.353Zm14.868 0h-10.312v-18.193h10.312v18.193Zm193.378 127.219h-10.312v-23.981h10.312v23.981Zm312.384 137.662h-10.312v-36.353h10.312v36.353ZM544.851 183.637h-10.312v-36.353h10.312v36.353Zm14.898 20.954h-10.311v-36.353h10.311v36.353Zm-89.269-.898h-10.312v-47.961h10.312v47.961ZM663.857 337.53h-10.312v-47.961h10.312v47.961Zm148.773-18.193h-10.312v-47.961h10.312v47.961Zm-178.509-18.193h-10.312v-47.961h10.312v47.961Zm119.006 60.333h-10.312v-47.961h10.312v47.961Zm193.378 63.726h-10.312v-47.961h10.312v47.961Zm-44.635-14.269h-10.312v-47.961h10.312v47.961Zm-29.737 0h-10.312v-47.96h10.312v47.96Zm-29.766-42.739h-10.312v-47.96h10.312v47.96ZM574.618 237.152h-10.312v-47.961h10.312v47.961Zm-238.013-31.996h-10.312v-45.4h10.312v45.4Zm-29.407 26.209h-10.312v-36.353h10.312v36.353Zm-72.573 59.967h-10.312v-28.304h10.312v28.304ZM396.108 128.26h-10.312V99.955h10.312v28.305ZM263.672 295.356H253.36v-28.304h10.312v28.304Zm-87.081-39.579h-10.312v-52.051h10.312v52.051Zm14.508 8.548h-10.311v-52.051h10.311v52.051Zm87.082 17.495h-10.312v-52.052h10.312v52.052Zm-145.146-28.903h-10.312v-23.249h10.312v23.249Zm-14.508-5.055h-10.312v-6.021h10.312v6.021Zm87.081 2.993h-10.312v-6.02h10.312v6.02Zm116.099-52.85h-10.312v-20.089h10.312v20.089Zm-29.017 34.69h-10.312v-6.02h10.312v6.02Zm88.52-103.903h-10.312v-6.02h10.312v6.02Zm44.635 9.678h-10.312v-6.02h10.312v6.02Zm74.401 68.249h-10.312v-6.02h10.312v6.02Zm104.108 43.138h-10.312V220.09h10.312v29.767Zm89.27 100.378h-10.312v-6.02h10.312v6.02Zm133.874-29.102h-10.312v-6.02h10.312v6.02Zm89.27 48.492h-10.312v-6.02h10.312v6.02Zm74.372 44.302h-10.312v-6.02h10.312v6.02Zm-741.976-114.18h-10.312v-11.442h10.312v11.442Zm102.309-134.303h-10.312V146.02h10.312v19.424Zm59.503-29.967h-10.312v-19.424h10.312v19.424Zm74.372 76.165h-10.312v-19.424h10.312v19.424Zm29.766-5.821h-10.312v-19.424h10.312v19.424Zm193.378 141.387H698.18v-19.423h10.312v19.423Zm74.372-9.678h-10.312v-19.424h10.312v19.424ZM529.983 197.673h-10.312v-19.424h10.312v19.424Zm59.503 49.191h-10.312V227.44h10.312v19.424Zm29.766 18.625H608.94v-19.424h10.312v19.424Zm119.007 101.143h-10.312v-19.424h10.312v19.424Zm119.006 1.73h-10.312V356.92h10.312v11.442ZM723.36 356.92h-10.311v-19.423h10.311v19.423Zm163.642 63.693H876.69v-19.424h10.312v19.424Zm-208.247-73.405h-10.312v-19.423h10.312v19.423Zm119.007-19.39H787.45v-19.424h10.312v19.424Zm133.874 58.205h-10.312v-19.424h10.312v19.424Zm-163.641-56.908h-10.312v-19.424h10.312v19.424Zm208.276 101.21h-10.312v-19.424h10.312v19.424Zm29.739-18.16h-10.314v-19.424h10.314v19.424ZM162.082 218.892H151.77v-11.441h10.312v11.441Z"/><path fill="#828282" d="M672.849 295.988h-.928v-52.417h.928v52.417Zm-12.38-39.712h-.928v-17.495h.928v17.495Zm-12.38 8.382h-.929v-36.619h.929v36.619Zm-12.38-15.167h-.929v-45.732h.929v45.732Zm-12.41-15.166h-.929V214.07h.929v20.255Zm-12.381 37.75h-.928v-62.861h.928v62.861Zm-12.38 0h-.929v-70.378h.929v70.378Zm-12.38-13.604h-.929v-19.689h.929v19.689Zm-12.381 37.517h-.928v-57.206h.928v57.206Zm-12.38 7.983h-.928v-45.5h.928v45.5Zm-12.38-3.127h-.928v-19.623h.928v19.623Zm-12.38-4.856h-.929v-39.712h.929v39.712Zm-12.381-9.745h-.928v-64.091h.928v64.091Zm-12.38-35.388h-.928v-22.816h.928v22.816Zm-12.38-8.282h-.929v-41.974h.929v41.974Zm-12.38-27.772h-.929v-33.393h.929v33.393Zm-12.71 6.02h-.929v-60.765h.929v60.765Zm-12.68-34.523h-.929v-33.027h.929v33.027Zm-12.68-4.89h-.929v-55.876h.929v55.876Zm-12.71-22.982h-.929v-19.124h.929v19.124Zm-12.68-2.594h-.929v-39.08h.929v39.08Zm-12.68 13.969h-.929v-36.286h.929v36.286Zm-12.711-7.55h-.928v-13.404h.928v13.404Zm-12.679 35.854h-.929v-46.464h.929v46.464Zm-12.71-2.694h-.929v-31.896h.929v31.896Zm-12.68 25.41h-.929v-58.57h.929v58.57Zm-12.68 10.444h-.929v-31.996h.929v31.996Zm-12.71-7.085h-.929v-20.421h.929v20.421Zm-12.68-2.827h-.929v-35.055h.929v35.055Zm-12.68-6.552h-.929v-28.503h.929v28.503Zm-12.71-3.326h-.929v-53.082h.929v53.082Zm-12.68 12.705h-.929v-47.628h.929v47.628Zm-12.681 29.269h-.928v-56.508h.928v56.508Zm-12.71 7.483h-.928v-32.794h.928v32.794Zm-12.68 0h-.928V216.63h.928v44.302Zm-12.71 13.238h-.928v-29.635h.928v29.635Zm-12.679 33.592h-.929v-68.615h.929v68.615Zm-12.681 6.453h-.928v-45.3h.928v45.3Zm-12.71 27.406h-.928v-64.89h.928v64.89Zm-12.68 0h-.928v-32.429h.928v32.429Zm-12.68 3.159h-.928v-16.563h.928v16.563Zm-12.71 16.531h-.928v-49.657h.928v49.657Zm-12.68-8.282h-.928v-31.996h.928v31.996Zm-12.68 17.361h-.928v-39.213h.928v39.213Zm-12.71-14.767h-.928v-68.315h.928v68.315Zm-12.68-27.406h-.928v-31.031h.928v31.031Zm-12.71 16.563h-.928v-37.018h.928v37.018Zm-12.68-16.563h-.928v-36.619h.928v36.619Zm-12.68-10.643h-.928v-66.686h.928v66.686Zm-12.71 10.643h-.928v-24.845h.928v24.845Zm-12.68 42.173h-.928v-67.018h.928v67.018Zm-12.68-4.722h-.928v-31.763h.928v31.763Zm-12.71 46.031h-.928v-70.078h.928v70.078Zm-12.68-6.286h-.928v-30.1h.928v30.1Z"/><path fill="#828282" d="M667.992 249.162h8.783v31.031h-8.783v-31.031Zm-37.152-36.626h8.783v31.031h-8.783v-31.031Zm-61.89 36.626h8.783v31.031h-8.783v-31.031ZM444.186 144.553h8.783v31.031h-8.783v-31.031Zm-63.45 13.076h8.783v31.031h-8.783v-31.031Zm-12.702 15.511h8.783v15.499h-8.783V173.14ZM203.057 276.732h8.783v20.455h-8.783v-20.455Zm88.854-110.827h8.783v31.031h-8.783v-31.031Zm-12.702 17.877h8.783v31.031h-8.783v-31.031Zm76.152-10.654h8.784v40.909h-8.784v-40.909ZM190.355 287.29h8.783v40.91h-8.783v-40.91Zm-126.9-15.49h8.783v40.91h-8.783V271.8Zm152.304-15.523h8.783v40.91h-8.783v-40.91Zm-101.526 51.467h8.783v40.91h-8.783v-40.91ZM12.706 349.921h8.783v40.909h-8.783v-40.909Zm25.374-36.448h8.784v40.91H38.08v-40.91Zm228.427-111.781h8.783v40.909h-8.783v-40.909Zm203.053-25.159h8.783v38.748h-8.783v-38.748Zm25.086 30.081h8.783v31.032h-8.783v-31.032Zm61.92 58.045h8.783v24.146h-8.783v-24.146ZM418.812 125.545h8.783v24.146h-8.783v-24.146Zm112.986 142.566h8.783v24.147h-8.783v-24.147Zm74.274-54.056h8.783v44.435h-8.783v-44.435Zm-12.384 7.285h8.783v44.435h-8.783V221.34Zm-74.274 14.916h8.783v44.435h-8.783v-44.435Zm123.81-.059h8.783v19.822h-8.783v-19.822Zm12.385 10.38h8.783v5.156h-8.783v-5.156Zm-74.275 2.58h8.783v5.155h-8.783v-5.155Zm-99.072-57.086h8.783v17.128h-8.783v-17.128Zm24.768 41.563h8.783v5.155h-8.783v-5.155Zm-75.516-88.65h8.783v5.155h-8.783v-5.155Zm-38.076 8.275h8.783v5.155h-8.783v-5.155Zm-63.48 58.217h8.783v5.155h-8.783v-5.155Zm-88.825 16.564h8.783v25.377h-8.783V228.04Zm-76.152 105.874h8.783v5.155h-8.783v-5.155ZM50.782 309.088h8.784v5.155h-8.784v-5.155Zm493.4-22.86h8.783v9.745h-8.783v-9.745ZM456.888 164.88h8.783v16.563h-8.783V164.88Zm-50.778-25.583h8.783v16.563h-8.783v-16.563Zm-63.451 64.966h8.783v16.564h-8.783v-16.564Zm-25.374-4.956h8.784v16.564h-8.784v-16.564ZM152.309 319.918h8.783v16.563h-8.783v-16.563Zm-63.48-8.276h8.783v16.564h-8.783v-16.564Zm215.754-119.306h8.783V208.9h-8.783v-16.564Zm-50.748 41.983h8.783v16.564h-8.783v-16.564Zm-25.404 15.873h8.783v16.564h-8.783v-16.564Zm-101.526 86.309h8.783v16.564h-8.783v-16.564Zm-101.527 8.254h8.783v9.745h-8.783v-9.745Zm114.229-16.562h8.783v16.563h-8.783v-16.563ZM.004 382.548h8.783v16.563H.004v-16.563Zm177.679-62.63h8.783v16.563h-8.783v-16.563ZM76.156 303.367h8.784v16.564h-8.784v-16.564Zm25.375 1.141h8.783v16.563h-8.783v-16.563Zm516.925-87.25h8.784v9.745h-8.784v-9.745Zm448.164-95.351h-.93V74.279h.93v47.628Zm-12.68 29.268h-.93V94.667h.93v56.508Zm-12.68 7.517h-.93v-32.794h.93v32.794Zm-12.71 0h-.93V114.39h.93v44.302Zm-12.68 13.204h-.93v-29.634h.93v29.634Zm-12.71 33.593h-.93v-68.615h.93v68.615Zm-12.681 6.485h-.928v-45.3h.928v45.3Zm-12.68 27.373h-.928v-64.89h.928v64.89Zm-12.71 0h-.928v-32.428h.928v32.428Zm-12.68 3.16h-.928v-16.564h.928v16.564Zm-12.68 16.563h-.928v-49.657h.928v49.657Zm-12.71-8.282h-.928v-31.995h.928v31.995Zm-12.679 17.329h-.929v-39.214h.929v39.214Zm-12.681-14.768h-.928v-68.315h.928v68.315Zm-12.71-27.406h-.928v-31.031h.928v31.031Zm-12.68 16.564h-.928v-37.018h.928v37.018Zm-12.71-16.564h-.928v-36.619h.928v36.619Zm-12.68-10.643h-.928v-66.686h.928V215.3Zm-12.68 10.643h-.928v-24.845h.928v24.845Zm-12.71 42.174h-.928v-67.019h.928v67.019Zm-12.68-4.69h-.928v-31.763h.928v31.763Zm-12.68 45.998h-.928v-70.078h.928v70.078Zm-12.71-6.252h-.928v-30.101h.928v30.101Zm-12.68-8.382h-.928v-65.888h.928v65.888Zm-12.71-35.721h-.928v-16.563h.928v16.563Zm-12.68 15.333h-.928V239.38h.928v35.023Zm-12.68 48.093h-.928v-70.411h.928v70.411Zm-12.71-3.658h-.928v-48.127h.928v48.127Zm-12.68-6.486h-.928v-31.031h.928v31.031Zm-12.68-15.499h-.928V280.29h.928v16.563Zm-12.71 12.572h-.928v-42.107h.928v42.107Z"/><path fill="#828282" d="M985.644 174.486h8.783v20.455h-8.783v-20.455ZM719.111 281.36h8.783v31.032h-8.783V281.36ZM1061.8 81.536h8.78v31.031h-8.78V81.536Zm-88.858 103.508h8.783v40.91h-8.783v-40.91Zm-126.901-15.523h8.783v40.91h-8.783v-40.91Zm152.275-15.489h8.784v40.909h-8.784v-40.909Zm-101.527 51.467h8.783v40.909h-8.783v-40.909Zm-164.976 54.355h8.783v40.909h-8.783v-40.909Zm38.076-12.179h8.783v40.909h-8.783v-40.909Zm25.374 0h8.783v40.909h-8.783v-40.909Zm25.404-36.481h8.783v40.91h-8.783v-40.91ZM1049.09 99.413h8.79v40.91h-8.79v-40.91Zm-25.37 26.381h8.78v25.378h-8.78v-25.378Zm-76.153 105.874h8.784v5.155h-8.784v-5.155Zm-114.228-24.859h8.783v5.155h-8.783v-5.155Zm-76.152 41.41h8.783v5.155h-8.783v-5.155Zm-63.451 37.804h8.784v5.155h-8.784v-5.155Zm241.13-68.351h8.783v16.563h-8.783v-16.563Zm-63.451-8.275h8.783v16.563h-8.783v-16.563Zm164.975-77.357h8.79v16.564h-8.79V132.04Zm-25.37 15.907h8.78v16.563h-8.78v-16.563Zm-101.529 86.276h8.783v16.563h-8.783v-16.563Zm-101.526 8.286h8.783v9.745h-8.783v-9.745Zm114.228-16.562h8.784v16.564h-8.784v-16.564Zm-139.602 54.355h8.783v16.564h-8.783v-16.564Zm177.649-62.63h8.783v16.563h-8.783v-16.563Zm-101.527-16.551h8.783v16.564h-8.783v-16.564Zm-114.198 49.652h8.783v16.564h-8.783v-16.564Zm139.602-48.544h8.783v16.563h-8.783v-16.563Zm-177.678 86.349h8.783v16.563h-8.783v-16.563Zm-25.374-15.523h8.783v16.563h-8.783v-16.563Z"/><path stroke="#777" stroke-miterlimit="10" stroke-width="2" d="m70.984 149.612 141.339 35.821 93.676-69.081 104.048 53.449 91.518-70.112 162.832 146.875 78.628-8.148 73.922 111.32 70.085-29.534 157.588 56.907"/><path stroke="#777" stroke-miterlimit="10" stroke-width="2" d="m70.984 184.202 133.095-31.929h78.838l60.882-36.985 136.273 23.98 61.212-23.98 181.747 155.456 54.856-14.434 90.589 88.803 78.508-26.308 108.426 108.859"/></g><defs><clipPath id="a"><path fill="#fff" d="M0 514h1096V11c0-6.075-4.92-11-11-11H34C15.222 0 0 15.222 0 34v480Z"/></clipPath></defs></svg>