<svg xmlns="http://www.w3.org/2000/svg" width="44" height="44" fill="none"><g fill="#4768BD" clip-path="url('#a')"><path d="M19.104 17.083c1.697-1.84 2.632-4.31 2.632-6.954C21.736 5.096 18.141 0 11.268 0 8.07 0 5.371 1.099 3.464 3.177 1.775 5.018.845 7.487.845 10.129c0 5.034 3.58 10.13 10.423 10.13 3.21 0 5.92-1.098 7.836-3.176ZM11.268 4.71c3.766 0 5.481 2.81 5.481 5.423 0 1.42-.478 2.736-1.347 3.703-.97 1.08-2.378 1.651-4.073 1.651-3.86 0-5.62-2.81-5.62-5.422 0-2.665 1.72-5.355 5.56-5.355Zm24.996-.802c-.623.01-1.473.4-1.89.862L3.456 39.146c-.416.463-.121 1.113.502 1.113h4.046c.623 0 1.473-.38 1.888-.844L40.62 5.047c.415-.465.388-1.22-.642-1.22l-3.714.08Zm-3.379 20.219c-3.137 0-5.784 1.078-7.655 3.117-1.657 1.805-2.57 4.228-2.57 6.82C22.66 39 26.174 44 32.886 44c3.15 0 5.808-1.077 7.687-3.115 1.665-1.806 2.582-4.229 2.582-6.822 0-4.937-3.527-9.936-10.27-9.936Zm.06 15.313c-3.756 0-5.467-2.82-5.467-5.44 0-1.427.477-2.747 1.346-3.718.967-1.083 2.372-1.656 4.061-1.656 3.757 0 5.468 2.82 5.468 5.441 0 1.426-.478 2.747-1.346 3.718-.968 1.083-2.372 1.655-4.061 1.655Z"/></g><defs><clipPath id="a"><path fill="#fff" d="M0 0h44v44H0z"/></clipPath></defs></svg>