<svg xmlns="http://www.w3.org/2000/svg" width="44" height="44" fill="none"><g fill="#4768BD" clip-path="url('#a')"><path d="m43.623 33.989-6.972-6.973-.144-1.767 1.921-1.171a1.29 1.29 0 0 0 .52-1.597l-.867-2.077 1.466-1.707a1.29 1.29 0 0 0 0-1.68l-1.466-1.707.866-2.077a1.29 1.29 0 0 0-.519-1.597l-1.921-1.171.182-2.242a1.29 1.29 0 0 0-.987-1.359l-2.189-.52-.52-2.19a1.29 1.29 0 0 0-1.358-.986l-2.244.182-1.17-1.922A1.29 1.29 0 0 0 26.622.91l-2.076.867L22.84.31a1.29 1.29 0 0 0-1.68 0l-1.707 1.466-2.076-.867a1.29 1.29 0 0 0-1.597.52l-1.171 1.92-2.244-.181a1.29 1.29 0 0 0-1.358.987l-.52 2.19-2.19.519a1.29 1.29 0 0 0-.986 1.359l.182 2.242-1.921 1.171a1.29 1.29 0 0 0-.52 1.597l.867 2.077-1.466 1.708a1.29 1.29 0 0 0 0 1.679l1.466 1.707-.866 2.077a1.29 1.29 0 0 0 .519 1.597l1.921 1.17-.143 1.768L.378 33.99a1.29 1.29 0 0 0 .504 2.134l5.246 1.749 1.748 5.246a1.289 1.289 0 0 0 2.135.504l9.573-9.572 1.576 1.354a1.29 1.29 0 0 0 1.68 0l1.577-1.354 9.572 9.572a1.289 1.289 0 0 0 2.135-.504l1.748-5.246 5.247-1.749a1.289 1.289 0 0 0 .504-2.134Zm-33.96 6.335-1.293-3.88a1.29 1.29 0 0 0-.815-.815l-3.88-1.293 5.321-5.32 1.491.354.52 2.19a1.29 1.29 0 0 0 1.359.986l2.243-.182 1.141 1.873-6.087 6.087Zm17.94-9.98L26.596 32l-1.789-.746a1.29 1.29 0 0 0-1.336.212L22 32.727l-1.47-1.262c-.517-.444-1.099-.311-1.336-.212l-1.789.746-1.008-1.655a1.289 1.289 0 0 0-1.205-.614l-1.932.157-.448-1.886a1.289 1.289 0 0 0-.956-.956l-1.886-.448.157-1.931a1.289 1.289 0 0 0-.614-1.205l-1.655-1.009.746-1.789a1.29 1.29 0 0 0-.212-1.335l-1.262-1.47 1.262-1.472a1.29 1.29 0 0 0 .212-1.335l-.746-1.789 1.655-1.009a1.29 1.29 0 0 0 .614-1.205L9.97 9.117l1.885-.448c.474-.112.844-.482.957-.956l.448-1.886 1.932.157c.485.04.951-.198 1.205-.614l1.008-1.655 1.789.746c.449.187.966.106 1.336-.211L22 2.987l1.47 1.263c.37.317.887.398 1.336.211l1.789-.746 1.009 1.655c.253.416.718.654 1.204.614l1.933-.157.447 1.886c.113.474.483.844.957.956l1.885.448-.157 1.931c-.04.486.198.952.614 1.205l1.655 1.009-.746 1.789a1.29 1.29 0 0 0 .212 1.335l1.262 1.471-1.262 1.47c-.317.37-.4.887-.212 1.336l.746 1.79-1.655 1.008a1.29 1.29 0 0 0-.614 1.205l.157 1.931-1.886.448a1.289 1.289 0 0 0-.956.956l-.448 1.886-1.932-.157a1.289 1.289 0 0 0-1.204.614Zm8.843 5.285a1.29 1.29 0 0 0-.816.815l-1.293 3.88-6.087-6.087 1.142-1.873 2.243.182a1.29 1.29 0 0 0 1.358-.987l.52-2.19 1.491-.353 5.32 5.32-3.878 1.293Z"/><path d="m32.577 14.185-3.906-3.906a1.29 1.29 0 0 0-1.823 0l-6.229 6.23-2.777-2.778a1.29 1.29 0 0 0-1.823 0l-3.905 3.906a1.29 1.29 0 0 0 0 1.823l7.594 7.594a1.29 1.29 0 0 0 1.823 0l11.046-11.046a1.289 1.289 0 0 0 0-1.823ZM20.619 24.319l-5.77-5.77 2.082-2.083 2.777 2.777a1.29 1.29 0 0 0 1.823 0l6.229-6.229 2.082 2.082-9.223 9.223Z"/></g><defs><clipPath id="a"><path fill="#fff" d="M0 0h44v44H0z"/></clipPath></defs></svg>