<svg xmlns="http://www.w3.org/2000/svg" width="1920" height="1093" fill="none"><g stroke="#fff" stroke-linecap="round" stroke-linejoin="round" stroke-miterlimit="10" stroke-width="10" clip-path="url('#a')"><path d="m1930.4 117.588-69.33 108.543c-31.28 48.844-88.38 48.844-119.65 1.809L1640.81 75.98c-31.27-48.844-88.37-47.035-119.64 1.809l-96.53 150.151c-31.27 48.844-87.02 48.844-119.65 1.809l-38.07-56.08c-24.47-36.181-65.26-45.227-97.89-19.9l-122.36 94.07c-46.22 36.181-104.687 0-116.923-68.743l-9.518-59.699c-8.157-48.844-39.428-83.216-77.496-83.216H593.928c-16.315 0-33.99 7.236-47.586 19.9L326.089 273.165c-28.551 27.136-66.62 27.136-95.171-1.809l-96.531-97.688c-13.596-14.473-31.271-21.709-47.586-21.709H-24.685"/><path d="m1930.4 638.022-115.56-213.467c-24.47-45.227-70.7-56.081-106.05-27.136l-93.81 75.98c-19.03 16.281-42.15 19.899-63.9 10.854L1426 437.218c-25.84-9.045-54.39-1.809-73.42 21.709l-73.42 85.025c-25.83 30.754-63.9 34.372-93.81 10.854l-135.96-110.352c-25.83-19.899-57.102-19.899-82.935 0l-76.136 61.508c-27.192 23.517-63.901 19.899-89.733-5.427L603.445 301.539c-27.192-27.135-63.9-28.944-92.452-3.618L296.178 489.68c-13.596 10.855-28.551 18.091-44.866 18.091H143.904c-20.394 0-40.788-10.854-55.743-30.754L-19.246 334.102M1925 675.94l6-9.969c-41.37 46.688-143.35 23.279-169.18 16.043l-155-52.463c-16.31-5.427-33.99-3.618-50.3 3.619l-190.35 103.115-101.96 63.317c-24.48 14.472-51.67 12.663-74.78-5.427L993.647 634.979c-24.472-19.9-55.743-19.9-80.215-1.809l-131.88 99.497c-27.192 19.9-59.823 18.091-85.655-7.236l-85.654-83.216c-25.832-25.327-58.462-27.136-85.654-5.427L331.527 785.13c-31.27 23.517-70.698 16.281-95.171-16.282L120.791 615.079c-12.236-16.281-27.192-25.326-43.507-28.945l-93.811-19.899"/><path d="M-17.887 1065.33 92.24 980.308c12.236-9.046 25.832-14.473 39.428-14.473h175.387c16.315 0 32.63-7.236 44.866-18.09l123.723-113.97c38.068-36.181 91.092-19.9 114.205 34.372l48.945 112.161c25.833 57.892 84.295 70.552 121.004 25.322l100.609-121.202c44.867-52.462 115.565-23.518 130.521 54.271 8.158 47.036 40.792 81.411 77.492 79.601l248.81-3.62c17.67 0 33.99-7.24 47.58-21.709l198.51-198.995c17.67-18.091 40.78-25.327 63.9-19.9l148.19 39.799c14.96 3.618 29.91 14.472 40.79 28.945l114.2 155.578"/></g><defs><clipPath id="a"><path fill="#fff" d="M1920 0H0v1093h1920z"/></clipPath></defs></svg>