<svg xmlns="http://www.w3.org/2000/svg" width="44" height="41" fill="none"><g fill="#4768BD" clip-path="url('#a')"><path d="M43.811 38.344 23.335 1.19a1.524 1.524 0 0 0-2.67 0L.19 38.344a1.519 1.519 0 0 0 1.334 2.254h40.954a1.518 1.518 0 0 0 1.334-2.254ZM4.1 37.556 22 5.078l17.9 32.48H4.1Z"/><path d="M20.091 15.942v10.99c0 1.053.855 1.906 1.91 1.906a1.907 1.907 0 0 0 1.908-1.905V15.942A1.907 1.907 0 0 0 22 14.036a1.907 1.907 0 0 0-1.909 1.906ZM22 30.816c-1.108 0-2.01.9-2.01 2.008a2.011 2.011 0 0 0 4.02 0A2.011 2.011 0 0 0 22 30.816Z"/></g><defs><clipPath id="a"><path fill="#fff" d="M0 0h44v41H0z"/></clipPath></defs></svg>