<svg xmlns="http://www.w3.org/2000/svg" width="44" height="44" fill="none"><g fill="#4768BD" clip-path="url('#a')"><path d="M19.3 25.361h-1.864v-1.863a1.29 1.29 0 0 0-2.578 0v1.863h-1.863a1.29 1.29 0 0 0-1.29 1.29v6.304c0 .712.578 1.29 1.29 1.29h1.863v1.968a1.29 1.29 0 0 0 2.578 0v-1.969H19.3a1.29 1.29 0 0 0 1.29-1.289V26.65a1.29 1.29 0 0 0-1.29-1.289Zm11.705-6.305h-1.863v-1.864a1.29 1.29 0 0 0-2.578 0v1.864H24.7a1.29 1.29 0 0 0-1.289 1.29v6.304a1.29 1.29 0 0 0 1.29 1.289h1.863v8.274a1.29 1.29 0 0 0 2.578 0v-8.274h1.863a1.29 1.29 0 0 0 1.29-1.29v-6.304a1.29 1.29 0 0 0-1.29-1.29ZM42.71 9.65h-1.863V7.788a1.29 1.29 0 0 0-2.578 0v1.864h-1.863a1.29 1.29 0 0 0-1.29 1.29v9.404c0 .712.578 1.29 1.29 1.29h1.863v5.12a1.29 1.29 0 0 0 2.578 0v-5.12h1.864A1.29 1.29 0 0 0 44 20.344V10.94a1.29 1.29 0 0 0-1.29-1.289ZM7.594 15.799H5.731V7.788a1.29 1.29 0 0 0-2.579 0v8.01H1.29A1.29 1.29 0 0 0 0 17.089v9.667c0 .712.577 1.29 1.29 1.29h1.862v1.862a1.29 1.29 0 0 0 2.579 0v-1.863h1.863a1.29 1.29 0 0 0 1.29-1.29v-9.666a1.29 1.29 0 0 0-1.29-1.29Z"/></g><defs><clipPath id="a"><path fill="#fff" d="M0 0h44v44H0z"/></clipPath></defs></svg>