<svg xmlns="http://www.w3.org/2000/svg" width="44" height="44" fill="none"><g fill="#4768BD" clip-path="url('#a')"><path d="M13.17 24.887a5.936 5.936 0 0 0 5.932-5.932 5.936 5.936 0 0 0-5.931-5.931 5.936 5.936 0 0 0-5.932 5.931 5.94 5.94 0 0 0 5.932 5.932Zm0-9.805a3.874 3.874 0 0 1 3.868 3.867 3.874 3.874 0 0 1-3.867 3.867 3.874 3.874 0 0 1-3.867-3.867 3.874 3.874 0 0 1 3.867-3.867Zm12.872 17.485c-.523-3.752-3.661-6.612-7.468-6.8h-.121c-.025 0-.049.006-.067.006-.012 0-.018 0-.03.006l-.073.018c-.006 0-.012.006-.018.006-.025.006-.055.019-.08.025-.005 0-.011.006-.011.006-.025.012-.055.018-.08.036-.006 0-.006.006-.012.006a.453.453 0 0 0-.072.043c-.007 0-.007.006-.013.006a.269.269 0 0 0-.066.048c-.006.007-.012.007-.018.012-.013.013-.025.019-.037.03l-4.705 3.941-4.705-3.94c-.006-.006-.006-.006-.012-.006-.019-.018-.043-.03-.061-.049-.006-.006-.012-.012-.024-.012a.665.665 0 0 0-.067-.036c-.006-.006-.018-.006-.024-.012-.025-.012-.043-.025-.067-.03-.012-.007-.018-.007-.03-.013-.025-.006-.043-.018-.067-.024-.012-.006-.018-.006-.03-.012l-.067-.018c-.012 0-.025-.007-.037-.007-.018-.006-.042-.006-.06-.012-.013 0-.03-.006-.043-.006h-.139a7.923 7.923 0 0 0-4.949 2.064A7.871 7.871 0 0 0 .312 32.58v.012c-.449 3-.412 5.992.104 8.9a2.084 2.084 0 0 0 2.052 1.724h21.376a2.079 2.079 0 0 0 2.052-1.724c.528-2.999.577-5.998.146-8.912v-.012Zm-2.174 8.554c0 .012-.012.018-.024.018h-3.017l.14-6.593a1.032 1.032 0 0 0-1.008-1.056h-.025c-.558 0-1.02.449-1.032 1.007l-.146 6.642H7.543l-.182-6.648a1.032 1.032 0 1 0-2.064.061l.176 6.587H2.46c-.012 0-.018-.006-.024-.018-.48-2.69-.51-5.464-.091-8.25v-.014a5.843 5.843 0 0 1 5.106-4.996l5.039 4.225c.006.006.012.012.024.018a.129.129 0 0 0 .037.025l.054.036a.128.128 0 0 1 .03.018c.03.019.061.03.092.049.03.012.06.024.097.036.006 0 .018.006.024.006l.073.019c.012 0 .018.006.03.006a.313.313 0 0 0 .08.012c.005 0 .017 0 .024.006.036.006.066.006.103.006.036 0 .066 0 .103-.006.006 0 .018 0 .024-.006.024-.006.049-.006.08-.012.011 0 .017-.006.03-.006l.072-.019c.006 0 .018-.006.024-.006.067-.024.128-.048.189-.085.012-.006.018-.012.03-.018l.055-.036c.012-.006.024-.019.036-.025.006-.006.012-.012.024-.018l5.04-4.225c2.646.303 4.777 2.35 5.136 4.996v.012c.406 2.702.358 5.476-.134 8.25Zm15.937-12.385a4.207 4.207 0 0 0-4.074 3.181H31.16a.026.026 0 0 1-.025-.024V20.006h4.608a4.208 4.208 0 0 0 4.062 3.144A4.2 4.2 0 0 0 44 18.955a4.2 4.2 0 0 0-4.195-4.195 4.207 4.207 0 0 0-4.074 3.182h-4.596V6.012c0-.012.012-.025.025-.025l4.577.037a4.206 4.206 0 0 0 4.062 3.15 4.2 4.2 0 0 0 4.195-4.194A4.2 4.2 0 0 0 39.8.784a4.2 4.2 0 0 0-4.07 3.176l-4.565-.037h-.006a2.092 2.092 0 0 0-2.089 2.089v11.93h-8.105a1.031 1.031 0 1 0 0 2.064h8.105v11.887c0 1.153.935 2.088 2.089 2.088h4.583a4.208 4.208 0 0 0 4.062 3.145A4.2 4.2 0 0 0 44 32.931a4.2 4.2 0 0 0-4.195-4.195Zm0-11.912a2.13 2.13 0 0 1 2.13 2.131 2.13 2.13 0 0 1-2.13 2.131 2.13 2.13 0 0 1-2.131-2.13 2.13 2.13 0 0 1 2.13-2.132Zm0-13.981a2.13 2.13 0 0 1 2.13 2.13 2.13 2.13 0 0 1-2.13 2.131 2.13 2.13 0 0 1-2.131-2.13 2.13 2.13 0 0 1 2.13-2.131Zm0 32.219a2.13 2.13 0 0 1-2.131-2.131 2.13 2.13 0 0 1 2.13-2.131 2.13 2.13 0 0 1 2.132 2.13 2.13 2.13 0 0 1-2.131 2.132Z"/></g><defs><clipPath id="a"><path fill="#fff" d="M0 0h44v44H0z"/></clipPath></defs></svg>