<svg xmlns="http://www.w3.org/2000/svg" width="810" height="791" fill="none"><path fill="#F2F5F8" d="M-534.252 693.904c-10.126 1.673-21.552-11.426-19.508-23.037 2.415-13.842 14.585-23.317 24.803-32.885 25.454-23.874 43.012-56.202 49.143-90.573 1.765-9.847 2.694-20.065 7.246-29.076 9.569-19.136 32.143-27.032 49.608-39.294 51.93-36.694 58.99-113.146 88.625-168.233-18.673-4.459-42.64-.743-60.848-.465-27.405.372-42.083-1.3-69.302-6.781-7.339-1.486-20.345-8.453-26.476-12.634-7.897-5.295-19.044-13.191-23.782-21.365-13.471-23.41-17.465-49.885-17.558-76.917-.093-27.033 10.498-54.808 31.771-71.437 5.11-3.994 10.776-7.338 14.678-12.54 7.618-10.033 6.503-24.06 5.017-36.6 9.847 10.032 17.929 22.201 21.18 35.857 3.252 13.655 1.208 28.983-7.432 40.13-10.311 13.191-27.962 18.765-38.738 31.491-18.58 21.924-10.219 56.016 5.481 80.076 6.131 9.289 13.284 18.207 22.667 24.153 16.907 10.868 38.274 11.24 58.34 11.147 17.465 0 35.952-.372 50.908-9.475 6.224-3.809 11.52-9.011 17.372-13.47 32.607-24.896 94.756-30.377 139.905-27.033 21.087-1.021 42.454-1.672 62.613-6.967 32.607-8.453 60.755-28.425 88.16-48.026 36.509-26.197 73.39-52.579 103.86-85.556a468.883 468.883 0 0 0 9.011-10.126c-1.858 3.158-3.716 6.503-5.667 9.847-1.393 2.415-2.787 4.923-4.273 7.431a50.433 50.433 0 0 0-2.136 3.809c-.744 1.208-1.487 2.415-2.323 3.623l-4.738 7.525c-1.58 2.508-3.344 4.83-5.016 7.338-1.672 2.415-3.252 4.924-5.017 7.339-1.765 2.415-3.437 4.738-5.202 7.153-3.344 4.737-7.153 9.196-10.59 13.562-3.624 4.274-7.06 8.454-10.312 12.355-3.437 3.809-6.689 7.432-9.662 10.683-3.158 3.252-5.945 6.224-8.546 8.825-2.508 2.694-4.83 4.738-6.782 6.596-3.251 3.251-5.295 5.202-5.76 5.667.558-.372 2.788-2.23 6.318-5.017 2.043-1.672 4.552-3.623 7.339-6.038 2.787-2.415 5.852-5.109 9.29-8.082 3.25-3.158 6.78-6.502 10.59-10.125 3.53-3.716 7.432-7.618 11.24-11.798 3.716-4.273 7.71-8.546 11.427-13.191 3.809-4.645 7.618-9.29 11.24-14.213 3.717-4.831 7.06-9.847 10.312-14.77.836-1.208 1.672-2.508 2.601-3.716.743-1.208 1.487-2.508 2.323-3.716a498.732 498.732 0 0 1 4.552-7.246c1.486-2.415 2.972-4.737 4.366-7.06a655.507 655.507 0 0 0 4.088-6.874c2.6-4.459 5.109-8.64 7.431-12.54 4.552-7.711 8.268-14.306 10.962-18.766.186-.278.372-.557.465-.836 1.58-2.786 3.437-5.388 5.574-7.71 6.131-6.874 12.448-13.47 19.23-19.6C128.854 13.82 158.675-2.25 189.703.257c42.733 3.716 74.225 40.595 111.199 63.076 25.268 15.328 54.531 24.71 78.313 41.617-.279.65-.186.557-.465 1.115-4.459-.558-9.104-1.022-13.099-1.58-4.273-.836-8.546-1.579-12.355-2.415-3.809-.929-7.432-1.765-10.776-2.6-3.344-.93-6.503-1.766-9.197-2.416-2.787-.743-5.202-1.394-7.246-1.858-3.995-1.022-6.317-1.486-6.317-1.486s2.044 1.207 5.667 3.158c1.858.929 3.994 2.137 6.688 3.437 2.601 1.208 5.574 2.601 8.826 3.995 3.251 1.393 6.967 2.694 10.869 4.087 1.951.743 3.901 1.208 5.945 1.765 2.044.557 4.088 1.115 6.224 1.672l.836.186c.558.186.651.093 1.022.186l1.672.278c1.115.186 2.23.372 3.438.558 1.3.186 2.694.464 4.087.65.929.093 1.858.279 2.88.464 4.552.651 9.197 1.208 13.842 1.765.278.093.65.093.929.093 4.273.651 8.454 1.394 12.634 2.044 4.552.65 8.918 1.579 13.099 2.508 2.136.465 4.18.836 6.224 1.301 2.043.371 4.087.836 5.945 1.393a648.164 648.164 0 0 0 10.776 2.787c1.673.372 3.252.836 4.831 1.208.465.093.929.278 1.301.371.093 0 .093.093.185.093 30.657 12.355 59.176 28.426 80.264 52.857 14.307-5.295 31.307 2.416 47.1 4.645 25.825 3.623 52.208-9.197 68.93-29.169 16.629-19.972 24.432-46.262 26.104-72.272.836-13.841-3.344-26.29-9.568-39.295 28.798 23.781 40.503 64.841 32.607 101.256-7.896 36.507-33.536 67.813-65.679 86.671-9.383 5.48-19.416 10.125-30.006 12.726 3.437 6.503 6.317 13.006 8.082 19.044 15.979 2.136 28.984 17.278 43.198 26.568 23.875 15.699 56.11 15.42 82.122 3.251 25.918-12.076 45.984-34.464 59.826-59.546 7.339-13.284 9.94-27.589 8.918-43.474 17.465 37.065 9.847 83.326-15.049 115.839-24.897 32.514-65.029 51.65-105.811 55.273-12.634 1.115-25.454.929-37.903-1.765-11.147-2.415-21.738-6.781-31.678-12.355-1.858-1.022-3.809-2.137-5.667-3.344-.65-.558-1.486-1.208-2.229-1.951-1.858-1.672-3.995-3.623-6.317-5.667-.65-.557-1.301-1.207-2.044-1.765-.557-.464-1.115-1.022-1.672-1.486-1.301-1.115-2.601-2.229-4.366-3.251a8.565 8.565 0 0 1-1.208-.743c-2.508-1.394-4.924-2.787-7.153-4.181-2.601-1.672-4.738-3.53-6.503-5.295-.836-.929-1.579-1.765-2.137-2.601a38.732 38.732 0 0 1-1.393-2.229l-1.022-2.044s.093.836.557 2.23c.186.743.558 1.579.929 2.508.465.929 1.022 1.95 1.673 3.065 1.393 2.137 3.344 4.552 5.666 6.782 2.323 2.229 5.017 4.458 7.525 6.595 1.579 1.301 3.53 3.437 5.017 5.016.092.558.092.929.092 1.487-5.945 9.103-12.819 17.743-19.694 25.917-19.509 23.131-40.875 47.655-43.476 77.753-.743 8.361 0 17-3.066 24.71-7.896 19.694-34.279 22.388-55.553 21.924-6.689-.186-13.842-.465-19.23-4.552-8.361-6.503-8.268-18.951-12.355-28.612-3.809-9.104-11.427-15.885-17.465-23.595-6.038-7.71-10.776-18.022-7.432-27.218 1.579-4.459 5.017-8.454 5.017-13.284 0-2.23-.744-4.273-1.951-6.224-1.208-2.044-2.137-4.273-2.88-6.503-.743-1.951-1.579-4.18-2.323-5.759-.65-1.208-1.3-2.509-2.043-3.809-1.208-2.23-2.601-4.459-4.088-6.781-4.738-7.525-10.683-15.793-16.814-24.71-3.066-4.459-6.132-9.104-9.104-13.935-2.88-4.83-5.76-9.661-7.804-14.77-1.951-4.923-3.158-10.497-3.623-15.885a71.103 71.103 0 0 1 .465-16.071c.371-2.601.836-5.109 1.486-7.617l.465-1.858.092-.465v-.185l.093-.186.279-.929 1.115-3.623c.743-2.322 1.672-4.459 2.508-6.596.929-2.043 1.765-4.087 2.787-6.038a112.063 112.063 0 0 1 5.667-10.218 128.028 128.028 0 0 1 5.109-7.525c1.394-2.136 2.787-3.623 3.53-4.737.743-.929 1.115-1.487 1.208-1.672-.093.093-.65.557-1.486 1.393-1.022.929-2.602 2.23-4.274 4.087-.929.929-1.858 1.951-2.972 3.066-1.022 1.208-2.137 2.508-3.252 3.809-2.229 2.786-4.645 6.038-6.967 9.847-1.208 1.857-2.23 3.901-3.437 6.038-1.022 2.136-2.137 4.552-3.066 6.874-.465 1.208-.836 2.322-1.301 3.53l-.371.929-.093.279-.093.371-.093.465-.557 1.95c-.744 2.601-1.394 5.295-1.858 8.082-1.022 5.574-1.394 11.426-1.115 17.464.371 6.039 1.393 11.984 3.53 17.929 2.044 5.76 4.924 11.148 7.803 16.071 2.973 5.016 6.039 9.847 9.012 14.399 2.415 3.623 4.737 7.153 6.967 10.497.093.093.093.093.093.186 3.344 5.109 6.503 9.846 9.197 14.12 1.115 1.765 2.136 3.437 3.065 5.109.836 1.486.465 3.251-.836 4.273-2.694 2.137-5.295 4.18-7.803 6.503-12.727 11.89-20.159 28.24-28.613 43.474-16.071 28.798-37.252 55.459-64.935 73.295-20.995 13.562-45.985 21.737-70.882 21.551-3.901 0-7.617.558-11.24 1.579.929-1.858 1.858-3.622 2.694-5.573l1.672-3.902c.464-1.3.929-2.415 1.393-3.809 1.022-2.786 1.673-5.48 2.323-8.36 2.415-11.148 2.322-22.666.093-32.978-.558-2.508-1.301-5.016-2.137-7.431l-.557-1.765-.743-1.765c-.465-1.115-.93-2.137-1.301-3.252-1.858-4.366-3.809-8.267-5.481-11.89-.372-.929-.836-1.765-1.208-2.694-.371-.836-.65-1.672-1.022-2.508-.65-1.672-1.3-3.345-1.765-4.831-.464-1.579-1.022-2.973-1.3-4.273-.372-1.394-.651-2.601-.929-3.716-.558-2.229-.743-4.087-1.115-5.295a24.969 24.969 0 0 1-.372-1.858v1.951c0 1.208-.093 3.158.186 5.481.186 2.322.372 5.202 1.022 8.546.279 1.672.65 3.344 1.115 5.109.186.929.464 1.858.743 2.787.279.929.557 1.858.836 2.88 1.115 3.902 2.694 7.989 4.088 12.262.371 1.115.65 2.23 1.021 3.344l.465 1.672.372 1.672c.557 2.23.929 4.552 1.3 6.968 1.301 9.475.743 19.879-2.137 29.54-.65 2.415-1.579 4.831-2.508 6.967-.371 1.022-1.115 2.323-1.579 3.53l-1.672 3.252c-2.323 4.459-4.924 8.732-7.618 12.819-5.388 8.082-11.24 15.049-16.443 20.809-2.322 2.508-4.459 4.737-6.503 6.688h-.093c-11.891 8.453-26.383 14.956-39.574 20.994-26.941 12.448-52.86 24.71-52.023 56.387.372 13.099-3.716 40.781 1.858 52.579 14.492 30.748 22.946 35.765 22.667 60.66-44.312 6.967-60.755 1.672-108.69-8.174-10.405-22.853 10.497-40.038 21.738-62.519 11.24-22.48 8.267-60.196-8.454-78.96-5.017-5.667-12.356-10.219-11.891-18.672.093-1.951.743-3.902 1.672-5.667 7.153-13.655 24.71-12.355 36.323-19.879 2.508-1.58 5.017-3.252 7.618-4.552 1.672-.929 3.53-1.858 4.83-2.694a35.253 35.253 0 0 0 4.924-3.623c.743-.743 1.58-1.486 2.322-2.508.744-.929 1.487-2.23 1.766-2.973 1.95-4.087 2.694-7.896 3.251-11.705.557-3.994.65-7.71.372-11.333-.465-7.246-1.58-13.655-2.509-19.136a188.194 188.194 0 0 1-1.114-7.525c-.28-2.229-.558-4.18-.558-5.852-.093-1.672-.186-2.88-.186-3.809 0-.929-.092-1.393-.092-1.393s-.093.464-.28 1.3c-.185.837-.37 2.137-.557 3.809-.464 3.251-.557 8.082-.464 13.656 0 5.666.557 12.169.279 18.95-.093 3.344-.465 6.874-1.115 10.126-.65 3.437-1.672 6.967-3.252 9.475-.557.929-.743 1.301-1.207 1.765-.465.465-.93 1.022-1.58 1.486-1.207 1.022-2.6 1.951-4.087 2.787-2.973 1.765-6.131 3.252-9.197 4.552-6.224 2.694-12.355 4.645-17.65 6.41h-.093c-2.416.743-5.017 1.207-7.525 1.3-60.848 2.601-122.161-6.409-179.572-26.475-9.29-3.251-19.323-6.781-28.799-3.901-.278.093-.557.186-.836.371 1.208-1.95 2.416-4.087 3.716-6.224 1.765-2.972 3.066-5.759 4.645-8.732 1.487-3.065 2.88-6.317 4.274-9.475 1.114-3.251 2.508-6.503 3.437-9.661.836-3.344 1.951-6.503 2.601-9.661.65-3.159 1.486-6.131 1.858-9.104.371-2.972.836-5.666 1.022-8.268.186-2.601.371-4.923.464-6.967.093-2.043 0-3.901 0-5.388 0-2.972-.093-4.644-.093-4.644s-.278 1.672-.65 4.644c-.279 1.487-.372 3.252-.743 5.295-.372 2.044-.836 4.274-1.301 6.782-.464 2.508-1.3 5.109-1.951 7.896-.65 2.787-1.672 5.666-2.601 8.639-.929 2.973-2.229 5.945-3.344 9.011-1.208 3.065-2.601 6.038-3.995 9.104a256.793 256.793 0 0 1-4.552 8.732c-1.672 2.787-3.437 5.759-5.016 8.267-3.437 5.202-6.875 10.126-9.569 14.678-2.601 4.737-5.759 9.289-9.568 13.191l-.093.093c-12.17 12.355-28.334 20.901-45.427 23.967-4.738.836-12.077 1.486-18.394 1.95-6.782.465-13.563.279-20.252-.743-7.246-1.114-14.492-1.765-21.738-1.207-14.12 1.114-27.498 6.409-38.924 11.426-9.197 3.994-16.815 7.617-23.968 12.355-6.782 4.459-13.006 9.754-18.951 14.863l-12.634 10.869-.186.092c-31.678 21.552-58.99 63.541-47.099 99.212 2.787 8.454 37.623 42.082 30.749 76.081-41.34 4.18-64.75 5.388-105.068-4.737-2.973-.744-6.131-1.673-7.896-4.088-2.323-3.158-1.579-7.524-.743-11.333l15.699-69.857c1.022-2.137-.928-4.366-3.344-3.995ZM503.326 367.379c1.022-2.88 2.137-5.76 3.716-8.361 1.672-2.694 3.809-5.016 5.574-7.71 7.989-11.705 6.224-29.076-3.994-39.016 1.3 4.181 3.994 12.077-3.809 12.077-2.787 3.437-6.224 6.502-7.711 10.59-.557 1.579-.836 3.251-1.022 5.016-.836 9.568 3.902 15.142 7.246 27.404Z"/></svg>