<svg width="1920" height="722" fill="none" xmlns="http://www.w3.org/2000/svg"><g opacity=".07" clip-path="url('#clip0_453_1188')"><path fill="#fff" d="M0 722h1920V0H0z"/><path d="M9.653-16.875C4.827-16.875 0-12.417 0-5.73v178.31c0 5.572 3.861 11.145 9.653 11.145 4.827 0 9.653-4.458 9.653-11.145V-5.73c0-6.687-4.826-11.145-9.653-11.145ZM55.023-16.875c-4.827 0-9.654 4.458-9.654 11.145v320.959c0 5.572 3.862 11.144 9.654 11.144 5.791 0 9.653-4.458 9.653-11.144V-5.731c0-6.686-4.827-11.144-9.653-11.144ZM100.392-16.875c-4.826 0-9.653 4.458-9.653 11.144v397.856c0 5.572 3.861 11.145 9.653 11.145 4.827 0 9.653-4.458 9.653-11.145V-6.845c-.965-5.572-4.826-10.03-9.653-10.03ZM144.796-16.875c-4.826 0-9.653 4.458-9.653 11.145v442.433c0 5.572 3.862 11.145 9.653 11.145 4.827 0 9.653-4.458 9.653-11.145V-5.73c0-6.687-3.861-11.145-9.653-11.145ZM190.166-16.875c-4.827 0-9.653 4.458-9.653 11.144v465.837c0 5.572 3.861 11.144 9.653 11.144 4.826 0 9.653-4.457 9.653-11.144V-5.731c0-6.686-3.861-11.144-9.653-11.144ZM235.535-16.875c-4.826 0-9.653 4.458-9.653 11.144v478.096c0 5.572 3.862 11.144 9.653 11.144 4.827 0 9.654-4.457 9.654-11.144V-5.731c0-6.686-3.862-11.144-9.654-11.144ZM280.905-16.875c-4.827 0-9.653 4.458-9.653 11.144v478.096c0 5.572 3.861 11.144 9.653 11.144s9.653-4.457 9.653-11.144V-5.731c0-6.686-3.861-11.144-9.653-11.144ZM326.275-16.875c-4.827 0-9.654 4.458-9.654 11.144v469.18c0 5.573 3.862 11.145 9.654 11.145 4.826 0 9.653-4.458 9.653-11.145V-6.845c0-5.572-4.827-10.03-9.653-10.03ZM371.644-16.875c-4.826 0-9.653 4.458-9.653 11.145v442.433c0 5.572 3.861 11.145 9.653 11.145 4.827 0 9.653-4.458 9.653-11.145V-5.73c0-6.687-4.826-11.145-9.653-11.145ZM417.014-16.875c-4.827 0-9.654 4.458-9.654 11.145v403.427c0 5.573 3.862 11.145 9.654 11.145 5.791 0 9.653-4.458 9.653-11.145V-5.731c0-6.686-4.827-11.144-9.653-11.144ZM462.383-16.875c-4.826 0-9.653 4.458-9.653 11.145V330.83c0 5.572 3.861 11.145 9.653 11.145 4.827 0 9.653-4.458 9.653-11.145V-5.73c0-6.687-4.826-11.145-9.653-11.145ZM507.753-16.875c-4.827 0-9.653 4.458-9.653 11.145V240.56c0 5.572 3.861 11.145 9.653 11.145 5.791 0 9.653-4.458 9.653-11.145V-5.731c-.966-6.686-4.827-11.144-9.653-11.144ZM552.157-16.875c-4.827 0-9.653 4.458-9.653 11.145v160.479c0 5.572 3.861 11.145 9.653 11.145 4.826 0 9.653-4.458 9.653-11.145V-5.731c0-6.686-3.861-11.144-9.653-11.144ZM597.526-16.875c-4.826 0-9.653 4.458-9.653 11.145v105.872c0 5.572 3.862 11.144 9.653 11.144 4.827 0 9.654-4.458 9.654-11.144V-5.73c0-6.687-3.862-11.145-9.654-11.145ZM642.896-16.875c-4.827 0-9.653 4.458-9.653 11.145v64.637c0 5.573 3.861 11.145 9.653 11.145s9.653-4.458 9.653-11.145V-5.73c0-6.687-3.861-11.145-9.653-11.145ZM688.266-16.875c-4.827 0-9.654 4.458-9.654 11.145v46.806c0 5.572 3.862 11.145 9.654 11.145 4.826 0 9.653-4.458 9.653-11.145V-5.73c0-6.687-3.862-11.145-9.653-11.145ZM733.635-16.875c-4.827 0-9.653 4.458-9.653 11.145v37.89c0 5.573 3.861 11.145 9.653 11.145 4.827 0 9.653-4.458 9.653-11.144V-5.73c0-6.687-4.826-11.145-9.653-11.145ZM779.004-16.875c-4.826 0-9.653 4.458-9.653 11.144v28.976c0 5.572 3.862 11.144 9.653 11.144 4.827 0 9.654-4.457 9.654-11.144V-5.731c0-6.686-4.827-11.144-9.654-11.144ZM824.374-16.875c-4.827 0-9.653 4.458-9.653 11.145v37.89c0 5.573 3.861 11.145 9.653 11.145 4.827 0 9.653-4.458 9.653-11.144V-5.73c0-6.687-4.826-11.145-9.653-11.145ZM869.744-16.875c-4.827 0-9.653 4.458-9.653 11.145v57.95c0 5.573 3.861 11.145 9.653 11.145 4.826 0 9.653-4.458 9.653-11.144V-5.73c0-6.687-4.827-11.145-9.653-11.145ZM915.113-16.875c-4.826 0-9.653 4.458-9.653 11.144v99.186c0 5.572 3.861 11.144 9.653 11.144 4.827 0 9.653-4.458 9.653-11.144V-5.731c-.965-6.686-4.826-11.144-9.653-11.144ZM959.517-16.875c-4.826 0-9.653 4.458-9.653 11.145v168.28c0 5.573 3.861 11.145 9.653 11.145 4.827 0 9.653-4.458 9.653-11.145V-5.73c0-6.687-3.861-11.145-9.653-11.145ZM1004.89-16.875c-4.83 0-9.656 4.458-9.656 11.144v252.979c0 5.572 3.861 11.144 9.656 11.144 5.79 0 9.65-4.458 9.65-11.144V-5.731c0-6.686-3.86-11.144-9.65-11.144ZM1050.26-16.875c-4.83 0-9.66 4.458-9.66 11.145v383.368c0 5.572 3.86 11.144 9.66 11.144 4.82 0 9.65-4.458 9.65-11.144V-5.73c0-6.687-3.86-11.145-9.65-11.145ZM1095.63-16.875c-4.83 0-9.66 4.458-9.66 11.145v534.932c0 5.572 3.86 11.144 9.66 11.144 4.82 0 9.65-4.458 9.65-11.144V-5.73c0-6.687-3.86-11.145-9.65-11.145ZM1141-16.875c-4.83 0-9.66 4.458-9.66 11.145v648.605c0 5.572 3.86 11.144 9.66 11.144 4.82 0 9.65-4.458 9.65-11.144V-5.73c0-6.687-4.83-11.145-9.65-11.145ZM1186.36-16.875c-4.82 0-9.65 4.458-9.65 11.145V699.71c0 5.572 3.86 11.144 9.65 11.144 5.8 0 9.66-4.457 9.66-11.144V-5.73c0-6.687-4.83-11.145-9.66-11.145ZM1231.73-16.875c-4.82 0-9.65 4.458-9.65 11.145v716.586c0 5.572 3.86 11.144 9.65 11.144 5.8 0 9.66-4.458 9.66-11.144V-5.73c0-6.687-4.83-11.145-9.66-11.145ZM1277.1-16.875c-4.82 0-9.65 4.458-9.65 11.144v699.87c0 5.572 3.86 11.144 9.65 11.144 5.8 0 9.66-4.458 9.66-11.144V-6.845c0-5.572-4.83-10.03-9.66-10.03ZM1322.47-16.875c-4.82 0-9.65 4.458-9.65 11.144v622.973c0 5.573 3.86 11.145 9.65 11.145 5.8 0 9.66-4.458 9.66-11.145V-5.731c-.97-6.686-4.83-11.144-9.66-11.144ZM1366.88-16.875c-4.83 0-9.66 4.458-9.66 11.145v454.692c0 5.572 3.87 11.144 9.66 11.144s9.65-4.457 9.65-11.144V-6.845c0-5.572-3.86-10.03-9.65-10.03ZM1412.25-16.875c-4.83 0-9.66 4.458-9.66 11.144v240.72c0 5.572 3.87 11.144 9.66 11.144 4.82 0 9.65-4.457 9.65-11.144V-5.731c0-6.686-3.86-11.144-9.65-11.144ZM1457.62-16.875c-4.83 0-9.66 4.458-9.66 11.145v120.36c0 5.572 3.87 11.144 9.66 11.144 4.82 0 9.65-4.458 9.65-11.144V-5.73c0-6.687-3.86-11.145-9.65-11.145ZM1502.99-16.875c-4.83 0-9.66 4.458-9.66 11.145v64.637c0 5.573 3.86 11.145 9.66 11.145 4.82 0 9.65-4.458 9.65-11.145V-5.73c0-6.687-3.86-11.145-9.65-11.145ZM1548.36-16.875c-4.83 0-9.66 4.458-9.66 11.145v57.95c0 5.573 3.86 11.145 9.66 11.145 4.82 0 9.65-4.458 9.65-11.144V-5.73c0-6.687-4.83-11.145-9.65-11.145ZM1593.73-16.875c-4.83 0-9.66 4.458-9.66 11.145v64.637c0 5.573 3.86 11.145 9.66 11.145 4.82 0 9.65-4.458 9.65-11.145V-5.73c0-6.687-4.83-11.145-9.65-11.145ZM1639.09-16.875c-4.82 0-9.65 4.458-9.65 11.144v99.186c0 5.572 3.86 11.144 9.65 11.144 4.83 0 9.66-4.458 9.66-11.144V-5.731c0-6.686-4.83-11.144-9.66-11.144ZM1684.46-16.875c-4.82 0-9.65 4.458-9.65 11.145v174.967c0 5.572 3.86 11.144 9.65 11.144 4.83 0 9.66-4.457 9.66-11.144V-6.845c0-5.572-4.83-10.03-9.66-10.03ZM1729.83-16.875c-4.82 0-9.65 4.458-9.65 11.145v310.929c0 5.572 3.86 11.144 9.65 11.144 4.83 0 9.66-4.458 9.66-11.144V-5.731c-.97-6.686-4.83-11.144-9.66-11.144ZM1775.2-16.875c-4.82 0-9.65 4.458-9.65 11.144v397.856c0 5.572 3.86 11.145 9.65 11.145 5.8 0 9.66-4.458 9.66-11.145V-5.731c-.97-6.686-4.83-11.144-9.66-11.144ZM1819.61-16.875c-4.83 0-9.66 4.458-9.66 11.145v434.632c0 5.572 3.87 11.144 9.66 11.144s9.65-4.457 9.65-11.144V-5.73c0-6.687-3.86-11.145-9.65-11.145ZM1864.98-16.875c-4.83 0-9.66 4.458-9.66 11.145v454.692c0 5.572 3.87 11.144 9.66 11.144 4.82 0 9.65-4.457 9.65-11.144V-6.845c0-5.572-3.86-10.03-9.65-10.03ZM1910.35-16.875c-4.83 0-9.66 4.458-9.66 11.145v459.15c0 5.572 3.86 11.144 9.66 11.144 4.82 0 9.65-4.458 9.65-11.144V-6.845c0-5.572-3.86-10.03-9.65-10.03Z" fill="#979797"/></g><defs><clipPath id="clip0_453_1188"><path fill="#fff" transform="matrix(1 0 0 -1 0 722)" d="M0 0h1920v722H0z"/></clipPath></defs></svg>