<svg aria-hidden="true" style="width:0;height:0;position:absolute;overflow:hidden" xmlns="http://www.w3.org/2000/svg"><defs><symbol id="icon-header-logo-desktop" viewBox="0 0 103 32"><path fill="#2e2e2e" style="fill:var(--color1,#2e2e2e)" d="M38.756 2.348V0h9.277v2.348h-3.21v8.385h-2.856V2.348h-3.21zM52.646 10.732V0h4.607c.792 0 1.485.145 2.079.435s1.056.707 1.386 1.252c.33.545.495 1.198.495 1.96 0 .769-.17 1.417-.511 1.944a3.137 3.137 0 0 1-1.423 1.195c-.608.269-1.319.404-2.132.404h-2.752V4.926h2.168c.341 0 .631-.042.87-.126a1.1 1.1 0 0 0 .558-.414c.132-.189.198-.435.198-.739 0-.307-.066-.557-.198-.749a1.107 1.107 0 0 0-.558-.43 2.388 2.388 0 0 0-.87-.142h-1.021v8.406h-2.898zM58.9 5.806l2.668 4.926H58.42l-2.606-4.926h3.085zM68.743 10.732h-3.127L69.139 0H73.1l3.523 10.732h-3.127l-2.335-7.777h-.083l-2.335 7.777zm-.583-4.234h5.879v2.18H68.16v-2.18zM85.28 10.732h-4.107V0h4.065c1.098 0 2.046.215 2.846.645a4.419 4.419 0 0 1 1.855 1.845c.438.8.657 1.759.657 2.877s-.217 2.079-.651 2.882a4.481 4.481 0 0 1-1.845 1.845c-.796.426-1.735.639-2.819.639zm-1.209-2.473h1.105c.528 0 .978-.086 1.35-.257.375-.171.66-.466.855-.886.198-.419.297-1.003.297-1.75s-.101-1.331-.302-1.75c-.198-.419-.49-.714-.875-.886-.382-.171-.851-.257-1.407-.257h-1.021v5.785zM95.459 10.732V0h7.692v2.348h-4.795v1.845h4.399v2.348h-4.399v1.845h4.774v2.348h-7.671z"/><path fill="#4768bd" style="fill:var(--color2,#4768bd)" d="M46.589 21.519c-.036-.452-.206-.804-.508-1.057-.298-.253-.752-.379-1.362-.379-.389 0-.707.047-.955.142-.244.09-.425.215-.542.373s-.178.339-.183.542a.89.89 0 0 0 .088.454c.072.131.185.251.339.359.154.104.35.199.589.285s.524.163.854.23l1.138.244c.768.163 1.425.377 1.972.644s.994.58 1.342.942c.348.357.603.759.766 1.206.167.447.253.935.257 1.464-.004.912-.233 1.685-.684 2.317s-1.098 1.113-1.938 1.443c-.836.33-1.841.495-3.015.495-1.206 0-2.258-.178-3.157-.535-.894-.357-1.59-.906-2.087-1.646-.492-.745-.741-1.698-.745-2.859h3.578c.023.425.129.781.318 1.07s.456.508.799.657c.348.149.761.224 1.24.224.402 0 .739-.05 1.01-.149s.477-.237.617-.413a.978.978 0 0 0 .217-.603.863.863 0 0 0-.21-.556c-.131-.163-.348-.307-.65-.434-.303-.131-.711-.253-1.226-.366l-1.382-.298c-1.229-.267-2.198-.711-2.907-1.335-.705-.628-1.055-1.484-1.05-2.568-.005-.881.23-1.651.705-2.31.479-.664 1.141-1.181 1.985-1.552.849-.37 1.823-.556 2.92-.556 1.12 0 2.089.187 2.907.562s1.448.903 1.89 1.585c.447.678.673 1.47.677 2.378h-3.605zM56.016 20.218v-3.035h12.061v3.035h-4.174v10.841H60.19V20.218h-4.174zM75.927 31.059h-4.065l4.58-13.876h5.149l4.58 13.876h-4.065l-3.035-10.055h-.108l-3.035 10.055zm-.759-5.475h7.643v2.819h-7.643v-2.819zM92.087 31.059V17.183h5.99c1.03 0 1.931.203 2.703.61s1.373.978 1.802 1.714.644 1.597.644 2.581c0 .994-.221 1.854-.664 2.581a4.363 4.363 0 0 1-1.85 1.68c-.79.393-1.714.589-2.771.589h-3.578v-2.927h2.819c.443 0 .82-.077 1.132-.23.316-.158.558-.382.725-.671.172-.289.257-.63.257-1.023 0-.398-.086-.736-.257-1.016a1.612 1.612 0 0 0-.725-.65c-.312-.154-.689-.23-1.132-.23h-1.328v10.868h-3.767z"/><path fill="#9bb2ec" style="fill:var(--color3,#9bb2ec)" d="M0 15.652h15.652v15.651H0V15.651z"/><path fill="#4768bd" style="fill:var(--color2,#4768bd)" d="M15.652 0h15.652v31.303H15.652V0z"/></symbol><symbol id="icon-header-logo-mobile" viewBox="0 0 102 32"><path fill="#2e2e2e" style="fill:var(--color1,#2e2e2e)" d="M38.446 2.329V0h9.202v2.329h-3.185v8.318H41.63V2.329h-3.185zM52.224 10.647V0h4.57c.786 0 1.473.144 2.063.431s1.048.702 1.375 1.242.491 1.189.491 1.944c0 .762-.169 1.405-.507 1.929a3.12 3.12 0 0 1-1.411 1.185c-.603.267-1.308.4-2.115.4h-2.73V4.885h2.151c.338 0 .626-.042.863-.125.241-.087.426-.224.553-.411.131-.187.196-.431.196-.733 0-.305-.065-.553-.196-.743a1.097 1.097 0 0 0-.553-.426 2.354 2.354 0 0 0-.863-.14h-1.013v8.338h-2.874zm6.204-4.887 2.647 4.887h-3.123L55.367 5.76h3.061zM68.193 10.647h-3.102L68.586 0h3.929l3.495 10.647h-3.102l-2.316-7.715h-.083l-2.316 7.715zm-.579-4.201h5.832v2.163h-5.832V6.446zM84.598 10.647h-4.074V0h4.032c1.089 0 2.03.213 2.823.639a4.396 4.396 0 0 1 1.841 1.83c.434.794.651 1.745.651 2.854s-.215 2.062-.646 2.859a4.445 4.445 0 0 1-1.83 1.83c-.789.423-1.721.634-2.797.634zm-1.2-2.454h1.096c.524 0 .97-.085 1.339-.255.372-.17.655-.463.848-.879.196-.416.295-.995.295-1.736s-.1-1.32-.3-1.736c-.196-.416-.486-.709-.868-.879-.379-.17-.844-.255-1.396-.255h-1.013v5.739zM94.695 10.647V0h7.631v2.329H97.57v1.83h4.363v2.329H97.57v1.83h4.736v2.329h-7.61z"/><path fill="#4768bd" style="fill:var(--color2,#4768bd)" d="M46.216 21.347c-.036-.448-.204-.798-.504-1.048-.296-.251-.746-.376-1.351-.376-.385 0-.701.047-.948.141-.242.09-.421.213-.538.37s-.177.336-.181.538a.882.882 0 0 0 .087.45c.072.13.184.249.336.356.152.103.347.197.585.282s.52.161.847.228l1.129.242c.762.161 1.414.374 1.956.639s.986.576 1.331.934c.345.354.598.753.76 1.196.166.444.251.927.255 1.452-.004.905-.231 1.671-.679 2.299s-1.089 1.105-1.922 1.432c-.829.327-1.826.491-2.991.491-1.196 0-2.24-.177-3.132-.531-.887-.354-1.577-.898-2.07-1.633-.488-.739-.735-1.685-.739-2.836h3.549c.022.421.128.775.316 1.062s.452.504.793.652c.345.148.755.222 1.23.222.399 0 .733-.049 1.001-.148s.473-.235.612-.41a.964.964 0 0 0 .215-.598.848.848 0 0 0-.208-.551c-.13-.161-.345-.305-.645-.43-.3-.13-.706-.251-1.217-.363l-1.371-.296c-1.219-.264-2.18-.706-2.883-1.324-.699-.623-1.046-1.472-1.042-2.547-.004-.874.228-1.638.699-2.292.475-.659 1.131-1.172 1.969-1.539.843-.367 1.808-.551 2.897-.551 1.111 0 2.072.186 2.883.558s1.436.896 1.875 1.573c.444.672.668 1.459.672 2.359h-3.576zM55.568 20.056v-3.011h11.964v3.011h-4.14V30.81h-3.683V20.056h-4.14zM75.319 30.81h-4.033l4.544-13.765h5.108l4.544 13.765h-4.033l-3.011-9.974h-.108l-3.011 9.974zm-.753-5.43h7.582v2.796h-7.582V25.38zM91.35 30.81V17.045h5.942c1.022 0 1.916.202 2.682.605s1.362.97 1.788 1.7.638 1.584.638 2.561c0 .986-.22 1.84-.659 2.561a4.331 4.331 0 0 1-1.835 1.667c-.784.39-1.7.585-2.749.585h-3.549V23.82h2.796c.439 0 .813-.076 1.122-.228.314-.157.553-.379.719-.665.17-.287.255-.625.255-1.015 0-.394-.085-.73-.255-1.008a1.608 1.608 0 0 0-.719-.645c-.309-.152-.683-.229-1.122-.229h-1.317v10.781H91.35z"/><path fill="#9bb2ec" style="fill:var(--color3,#9bb2ec)" d="M0 15.526h15.526v15.526H0V15.526z"/><path fill="#4768bd" style="fill:var(--color2,#4768bd)" d="M15.526 0h15.526v31.053H15.526V0z"/></symbol><symbol id="icon-Arrow-1" viewBox="0 0 2 32"><path fill="#979797" style="fill:var(--color1,#979797)" d="M1.051 31.958a.145.145 0 0 0 .204 0l.917-.917c.056-.056.056-.148 0-.204s-.148-.056-.204 0l-.815.815-.815-.815c-.056-.056-.148-.056-.204 0s-.056.148 0 .204l.917.917zM1.009 0v31.856h.288V0h-.288z"/></symbol></defs></svg>