<svg aria-hidden="true" style="width:0;height:0;position:absolute;overflow:hidden" xmlns="http://www.w3.org/2000/svg"><defs><symbol id="icon-header-logo-desktop" viewBox="0 0 103 32"><path fill="#2e2e2e" style="fill:var(--color1,#2e2e2e)" d="M38.756 2.348V0h9.277v2.348h-3.21v8.385h-2.856V2.348h-3.21zM52.646 10.732V0h4.607c.792 0 1.485.145 2.079.435s1.056.707 1.386 1.252c.33.545.495 1.198.495 1.96 0 .769-.17 1.417-.511 1.944a3.137 3.137 0 0 1-1.423 1.195c-.608.269-1.319.404-2.132.404h-2.752V4.926h2.168c.341 0 .631-.042.87-.126a1.1 1.1 0 0 0 .558-.414c.132-.189.198-.435.198-.739 0-.307-.066-.557-.198-.749a1.107 1.107 0 0 0-.558-.43 2.388 2.388 0 0 0-.87-.142h-1.021v8.406h-2.898zM58.9 5.806l2.668 4.926H58.42l-2.606-4.926h3.085zM68.743 10.732h-3.127L69.139 0H73.1l3.523 10.732h-3.127l-2.335-7.777h-.083l-2.335 7.777zm-.583-4.234h5.879v2.18H68.16v-2.18zM85.28 10.732h-4.107V0h4.065c1.098 0 2.046.215 2.846.645a4.419 4.419 0 0 1 1.855 1.845c.438.8.657 1.759.657 2.877s-.217 2.079-.651 2.882a4.481 4.481 0 0 1-1.845 1.845c-.796.426-1.735.639-2.819.639zm-1.209-2.473h1.105c.528 0 .978-.086 1.35-.257.375-.171.66-.466.855-.886.198-.419.297-1.003.297-1.75s-.101-1.331-.302-1.75c-.198-.419-.49-.714-.875-.886-.382-.171-.851-.257-1.407-.257h-1.021v5.785zM95.459 10.732V0h7.692v2.348h-4.795v1.845h4.399v2.348h-4.399v1.845h4.774v2.348h-7.671z"/><path fill="#4768bd" style="fill:var(--color2,#4768bd)" d="M46.589 21.519c-.036-.452-.206-.804-.508-1.057-.298-.253-.752-.379-1.362-.379-.389 0-.707.047-.955.142-.244.09-.425.215-.542.373s-.178.339-.183.542a.89.89 0 0 0 .088.454c.072.131.185.251.339.359.154.104.35.199.589.285s.524.163.854.23l1.138.244c.768.163 1.425.377 1.972.644s.994.58 1.342.942c.348.357.603.759.766 1.206.167.447.253.935.257 1.464-.004.912-.233 1.685-.684 2.317s-1.098 1.113-1.938 1.443c-.836.33-1.841.495-3.015.495-1.206 0-2.258-.178-3.157-.535-.894-.357-1.59-.906-2.087-1.646-.492-.745-.741-1.698-.745-2.859h3.578c.023.425.129.781.318 1.07s.456.508.799.657c.348.149.761.224 1.24.224.402 0 .739-.05 1.01-.149s.477-.237.617-.413a.978.978 0 0 0 .217-.603.863.863 0 0 0-.21-.556c-.131-.163-.348-.307-.65-.434-.303-.131-.711-.253-1.226-.366l-1.382-.298c-1.229-.267-2.198-.711-2.907-1.335-.705-.628-1.055-1.484-1.05-2.568-.005-.881.23-1.651.705-2.31.479-.664 1.141-1.181 1.985-1.552.849-.37 1.823-.556 2.92-.556 1.12 0 2.089.187 2.907.562s1.448.903 1.89 1.585c.447.678.673 1.47.677 2.378h-3.605zM56.016 20.218v-3.035h12.061v3.035h-4.174v10.841H60.19V20.218h-4.174zM75.927 31.059h-4.065l4.58-13.876h5.149l4.58 13.876h-4.065l-3.035-10.055h-.108l-3.035 10.055zm-.759-5.475h7.643v2.819h-7.643v-2.819zM92.087 31.059V17.183h5.99c1.03 0 1.931.203 2.703.61s1.373.978 1.802 1.714.644 1.597.644 2.581c0 .994-.221 1.854-.664 2.581a4.363 4.363 0 0 1-1.85 1.68c-.79.393-1.714.589-2.771.589h-3.578v-2.927h2.819c.443 0 .82-.077 1.132-.23.316-.158.558-.382.725-.671.172-.289.257-.63.257-1.023 0-.398-.086-.736-.257-1.016a1.612 1.612 0 0 0-.725-.65c-.312-.154-.689-.23-1.132-.23h-1.328v10.868h-3.767z"/><path fill="#9bb2ec" style="fill:var(--color3,#9bb2ec)" d="M0 15.652h15.652v15.651H0V15.651z"/><path fill="#4768bd" style="fill:var(--color2,#4768bd)" d="M15.652 0h15.652v31.303H15.652V0z"/></symbol><symbol id="icon-header-logo-mobile" viewBox="0 0 102 32"><path fill="#2e2e2e" style="fill:var(--color1,#2e2e2e)" d="M38.446 2.329V0h9.202v2.329h-3.185v8.318H41.63V2.329h-3.185zM52.224 10.647V0h4.57c.786 0 1.473.144 2.063.431s1.048.702 1.375 1.242.491 1.189.491 1.944c0 .762-.169 1.405-.507 1.929a3.12 3.12 0 0 1-1.411 1.185c-.603.267-1.308.4-2.115.4h-2.73V4.885h2.151c.338 0 .626-.042.863-.125.241-.087.426-.224.553-.411.131-.187.196-.431.196-.733 0-.305-.065-.553-.196-.743a1.097 1.097 0 0 0-.553-.426 2.354 2.354 0 0 0-.863-.14h-1.013v8.338h-2.874zm6.204-4.887 2.647 4.887h-3.123L55.367 5.76h3.061zM68.193 10.647h-3.102L68.586 0h3.929l3.495 10.647h-3.102l-2.316-7.715h-.083l-2.316 7.715zm-.579-4.201h5.832v2.163h-5.832V6.446zM84.598 10.647h-4.074V0h4.032c1.089 0 2.03.213 2.823.639a4.396 4.396 0 0 1 1.841 1.83c.434.794.651 1.745.651 2.854s-.215 2.062-.646 2.859a4.445 4.445 0 0 1-1.83 1.83c-.789.423-1.721.634-2.797.634zm-1.2-2.454h1.096c.524 0 .97-.085 1.339-.255.372-.17.655-.463.848-.879.196-.416.295-.995.295-1.736s-.1-1.32-.3-1.736c-.196-.416-.486-.709-.868-.879-.379-.17-.844-.255-1.396-.255h-1.013v5.739zM94.695 10.647V0h7.631v2.329H97.57v1.83h4.363v2.329H97.57v1.83h4.736v2.329h-7.61z"/><path fill="#4768bd" style="fill:var(--color2,#4768bd)" d="M46.216 21.347c-.036-.448-.204-.798-.504-1.048-.296-.251-.746-.376-1.351-.376-.385 0-.701.047-.948.141-.242.09-.421.213-.538.37s-.177.336-.181.538a.882.882 0 0 0 .087.45c.072.13.184.249.336.356.152.103.347.197.585.282s.52.161.847.228l1.129.242c.762.161 1.414.374 1.956.639s.986.576 1.331.934c.345.354.598.753.76 1.196.166.444.251.927.255 1.452-.004.905-.231 1.671-.679 2.299s-1.089 1.105-1.922 1.432c-.829.327-1.826.491-2.991.491-1.196 0-2.24-.177-3.132-.531-.887-.354-1.577-.898-2.07-1.633-.488-.739-.735-1.685-.739-2.836h3.549c.022.421.128.775.316 1.062s.452.504.793.652c.345.148.755.222 1.23.222.399 0 .733-.049 1.001-.148s.473-.235.612-.41a.964.964 0 0 0 .215-.598.848.848 0 0 0-.208-.551c-.13-.161-.345-.305-.645-.43-.3-.13-.706-.251-1.217-.363l-1.371-.296c-1.219-.264-2.18-.706-2.883-1.324-.699-.623-1.046-1.472-1.042-2.547-.004-.874.228-1.638.699-2.292.475-.659 1.131-1.172 1.969-1.539.843-.367 1.808-.551 2.897-.551 1.111 0 2.072.186 2.883.558s1.436.896 1.875 1.573c.444.672.668 1.459.672 2.359h-3.576zM55.568 20.056v-3.011h11.964v3.011h-4.14V30.81h-3.683V20.056h-4.14zM75.319 30.81h-4.033l4.544-13.765h5.108l4.544 13.765h-4.033l-3.011-9.974h-.108l-3.011 9.974zm-.753-5.43h7.582v2.796h-7.582V25.38zM91.35 30.81V17.045h5.942c1.022 0 1.916.202 2.682.605s1.362.97 1.788 1.7.638 1.584.638 2.561c0 .986-.22 1.84-.659 2.561a4.331 4.331 0 0 1-1.835 1.667c-.784.39-1.7.585-2.749.585h-3.549V23.82h2.796c.439 0 .813-.076 1.122-.228.314-.157.553-.379.719-.665.17-.287.255-.625.255-1.015 0-.394-.085-.73-.255-1.008a1.608 1.608 0 0 0-.719-.645c-.309-.152-.683-.229-1.122-.229h-1.317v10.781H91.35z"/><path fill="#9bb2ec" style="fill:var(--color3,#9bb2ec)" d="M0 15.526h15.526v15.526H0V15.526z"/><path fill="#4768bd" style="fill:var(--color2,#4768bd)" d="M15.526 0h15.526v31.053H15.526V0z"/></symbol><symbol id="icon-Arrow-1" viewBox="0 0 2 32"><path fill="#979797" style="fill:var(--color1,#979797)" d="M1.051 31.958a.145.145 0 0 0 .204 0l.917-.917c.056-.056.056-.148 0-.204s-.148-.056-.204 0l-.815.815-.815-.815c-.056-.056-.148-.056-.204 0s-.056.148 0 .204l.917.917zM1.009 0v31.856h.288V0h-.288z"/></symbol><symbol id="icon-kucoin" viewBox="0 0 85 32"><path d="M61.658 15.993c0-.408 0-.792-.013-1.146a7.087 7.087 0 0 0-.098-.997 3.36 3.36 0 0 0-.276-.869 2.815 2.815 0 0 0-.545-.765 3.478 3.478 0 0 0-1.107-.773 3.593 3.593 0 0 0-1.414-.269 3.632 3.632 0 0 0-1.419.269c-.418.18-.796.441-1.114.769a2.784 2.784 0 0 0-.542.765c-.13.276-.221.568-.271.869-.055.33-.086.663-.094.997-.009.354-.013.738-.011 1.146s0 .789.011 1.146c.008.334.039.668.094.997.051.301.142.593.271.869.137.284.321.542.542.765.317.328.695.589 1.114.768a3.6 3.6 0 0 0 1.419.27c.485.007.965-.085 1.414-.27.415-.18.791-.441 1.107-.768.222-.222.406-.481.545-.765.131-.276.223-.568.276-.869.056-.329.088-.661.097-.994.011-.357.016-.738.013-1.146l.002.001zm-1.825 0c0 .452-.006.829-.022 1.128a5.829 5.829 0 0 1-.073.734 1.828 1.828 0 0 1-.145.468c-.056.12-.13.23-.218.328a1.404 1.404 0 0 1-.494.367 1.683 1.683 0 0 1-.674.138 1.699 1.699 0 0 1-.678-.138 1.406 1.406 0 0 1-.507-.367 1.293 1.293 0 0 1-.218-.328 1.813 1.813 0 0 1-.138-.468 6.446 6.446 0 0 1-.073-.734c-.013-.299-.019-.675-.019-1.128s.006-.829.019-1.129c.01-.246.034-.491.073-.734.025-.162.071-.319.138-.468a1.418 1.418 0 0 1 .725-.695c.214-.093.445-.14.678-.138a1.65 1.65 0 0 1 .674.138c.189.084.358.21.494.367.088.098.161.208.218.328.069.148.117.306.145.468.04.243.064.488.073.734.016.299.022.676.022 1.129zM76.202 11.419a.163.163 0 0 0-.16-.162h-1.506a.162.162 0 0 0-.16.162v5.637l-3.673-5.753c-.025-.039-.046-.046-.1-.046h-1.397a.163.163 0 0 0-.16.162v9.146a.164.164 0 0 0 .16.162h1.505a.16.16 0 0 0 .159-.162v-5.651l3.673 5.767c.026.039.046.046.101.046h1.396a.161.161 0 0 0 .16-.161l.002-9.146zM66.108 11.419a.16.16 0 0 0-.16-.162h-1.505a.162.162 0 0 0-.16.162v9.146a.162.162 0 0 0 .16.162h1.505a.16.16 0 0 0 .16-.162v-9.146zM48.098 15.993c0-.455.005-.834.018-1.135a6.02 6.02 0 0 1 .072-.734c.139-.815.755-1.295 1.541-1.295.513.004.978.197 1.275.634.134.204.233.431.29.669a.048.048 0 0 0 .052.04h1.771c.025 0 .035-.018.03-.043-.193-1.11-.778-2.108-1.811-2.602a3.695 3.695 0 0 0-1.621-.349c-.997 0-1.837.346-2.52 1.038-.39.385-.656.88-.763 1.421-.104.532-.157 1.317-.158 2.354s.052 1.822.158 2.354a2.76 2.76 0 0 0 .761 1.424c.682.691 1.522 1.037 2.52 1.037a3.68 3.68 0 0 0 1.621-.348c1.033-.494 1.617-1.491 1.811-2.602.004-.026-.005-.043-.03-.043h-1.772a.048.048 0 0 0-.052.04 2.099 2.099 0 0 1-.29.669c-.297.44-.762.63-1.275.634-.786 0-1.402-.48-1.541-1.295a5.827 5.827 0 0 1-.072-.734c-.01-.303-.015-.683-.015-1.136zM29.394 11.419a.162.162 0 0 0-.16-.162H27.73a.162.162 0 0 0-.16.162v9.146a.163.163 0 0 0 .16.162h1.504a.162.162 0 0 0 .16-.162V17.88l1.207-1.463 2.48 4.261a.1.1 0 0 0 .09.048h1.828c.084 0 .099-.053.057-.126l-3.247-5.578 2.979-3.621c.06-.073.035-.143-.059-.143h-1.998a.074.074 0 0 0-.062.029l-3.275 3.979v-3.849zM40.354 19.157c-.847 0-1.614-.794-1.614-1.742v-5.996a.162.162 0 0 0-.16-.162h-1.504a.162.162 0 0 0-.16.162v5.973c0 2.088 1.541 3.415 3.439 3.415s3.439-1.327 3.439-3.415v-5.973a.163.163 0 0 0-.16-.162h-1.505a.161.161 0 0 0-.159.162v5.996c0 .948-.769 1.742-1.614 1.742zM12.447 15.993l4.67 4.733 2.948-2.987c.527-.481 1.334-.46 1.835.049s.523 1.325.048 1.86l-3.89 3.943a1.33 1.33 0 0 1-1.883 0l-5.613-5.689v3.381c0 .746-.597 1.351-1.333 1.351s-1.333-.605-1.333-1.351V10.699c0-.746.597-1.351 1.333-1.351s1.334.605 1.334 1.351v3.381l5.612-5.687a1.33 1.33 0 0 1 1.883 0l3.893 3.942c.475.534.454 1.351-.048 1.86s-1.308.53-1.835.049l-2.948-2.987-4.673 4.737zm4.672-1.353c-.54 0-1.027.329-1.234.835s-.093 1.087.289 1.474.956.503 1.455.294.824-.703.824-1.25c0-.359-.14-.703-.39-.957s-.59-.397-.944-.397v.001z"/></symbol><symbol id="icon-cryptocom" viewBox="0 0 160 32"><path d="m13.824 0 13.824 7.989v15.979l-13.824 7.989L0 23.968V7.989L13.824 0zM1.204 8.686v14.587l12.62 7.293 12.62-7.293V8.686l-12.62-7.294-12.62 7.294zM41.884 23.064c-3.498 0-6.068-2.733-6.068-6.102s2.597-6.182 6.094-6.182c2.226 0 3.603.823 4.69 2.017l-1.669 1.804c-.821-.876-1.696-1.459-3.047-1.459-1.961 0-3.392 1.698-3.392 3.768 0 2.123 1.457 3.821 3.524 3.821 1.272 0 2.199-.61 3.047-1.459l1.616 1.618c-1.166 1.247-2.517 2.176-4.796 2.176zM51.794 23.062h-2.703V10.804h2.703v2.865c.742-1.751 2.093-2.972 4.16-2.865v2.865h-.159c-2.358 0-4.001 1.539-4.001 4.67v4.723zM70.079 10.751l-5.962 15.601h-2.729l1.298-3.29-5.114-12.311h2.888l3.471 9.101 3.338-9.101h2.809zM78.025 13.113c-1.828 0-3.418 1.486-3.418 3.794s1.616 3.794 3.418 3.794c1.855 0 3.365-1.459 3.365-3.794s-1.537-3.794-3.365-3.794zm.61 9.923c-1.934 0-3.153-.982-3.975-2.07v5.386h-2.702V10.751h2.702v2.202c.874-1.221 2.093-2.202 3.975-2.202 2.782 0 5.485 2.202 5.485 6.129s-2.676 6.156-5.485 6.156zM90.028 13.324v5.784c0 1.035.53 1.459 1.457 1.459h1.06v2.414H90.69c-1.961 0-3.365-.875-3.365-3.449v-6.209h-1.484v-2.308h1.484V7.778h2.703v3.237h2.517v2.308h-2.517zM101.051 13.114c-2.173 0-3.551 1.698-3.551 3.768 0 2.096 1.484 3.821 3.577 3.821 2.173 0 3.551-1.698 3.551-3.768.053-2.096-1.457-3.821-3.577-3.821zm0 9.95c-3.577 0-6.227-2.733-6.227-6.102 0-3.396 2.676-6.182 6.28-6.182s6.253 2.733 6.253 6.129c0 3.343-2.65 6.156-6.306 6.156zM133.138 13.114c-2.173 0-3.551 1.698-3.551 3.768 0 2.096 1.484 3.821 3.578 3.821 2.173 0 3.55-1.698 3.55-3.768.026-2.096-1.457-3.821-3.577-3.821zm0 9.95c-3.576 0-6.227-2.733-6.227-6.102 0-3.396 2.676-6.182 6.281-6.182 3.603 0 6.253 2.733 6.253 6.129 0 3.343-2.677 6.156-6.307 6.156zM155.452 10.751c2.57 0 4.134 1.618 4.134 4.511v7.774h-2.703v-6.951c0-1.884-.874-2.866-2.383-2.866-1.458 0-2.518 1.035-2.518 2.919v6.925h-2.701v-6.978c0-1.831-.902-2.866-2.386-2.866s-2.518 1.114-2.518 2.945v6.898h-2.701V10.777h2.701v2.017c.77-1.035 1.777-2.017 3.578-2.017 1.695 0 2.861.822 3.498 2.07.98-1.274 2.225-2.096 4-2.096zM112.314 20.568v1.38l-.079.133-1.192.663h-.16l-1.165-.663-.079-.133v-1.38l.079-.133 1.165-.663h.16l1.192.663.079.133zM120.498 23.038c-3.498-.08-6.015-2.866-5.962-6.235s2.702-6.129 6.227-6.05c2.226.053 3.604.902 4.663 2.123l-1.695 1.778c-.796-.876-1.67-1.512-3.021-1.539-1.961-.026-3.417 1.619-3.445 3.715-.053 2.123 1.378 3.847 3.445 3.874 1.272.027 2.226-.557 3.074-1.406l1.589 1.645c-1.192 1.247-2.57 2.149-4.875 2.096z"/><path d="M19.045 25.295h-1.881l-2.252-2.07v-1.061l2.332-2.229v-3.529l3.047-1.99 3.471 2.627-4.716 8.252zm-7.79-5.572.344-3.317-1.139-2.972h6.73l-1.113 2.972.318 3.317h-5.14zm1.537 3.503-2.252 2.096H8.632l-4.743-8.278 3.498-2.6 3.074 1.963v3.529l2.332 2.229v1.061zM8.606 7.306h10.413l1.245 5.307H7.387l1.219-5.307z"/></symbol><symbol id="icon-bitmex" viewBox="0 0 202 32"><path d="M17.13.596h18.825a1.184 1.184 0 0 1-.247.67c-.637 1.064-1.211 2.171-1.837 3.235-.886 1.528-1.714 3.083-2.614 4.605-.57 1.095-1.214 2.156-1.823 3.232H18.46c-.191 0-.381.009-.572.02-.159.409-.424.768-.637 1.152-.279.441-.505.91-.781 1.351-.292.593-.695 1.123-.988 1.714-.605 1-1.171 2.016-1.764 3.027a113.391 113.391 0 0 0-1.813 3.145c-.25.377-.48.765-.69 1.165-1.238 2.097-2.436 4.212-3.675 6.308a2.533 2.533 0 0 1-.411.62c-2.119-.014-4.238 0-6.357 0-.261.005-.52.04-.773.105 0-.571.392-1.028.656-1.507.319-.644.744-1.241 1.064-1.886 2.54-4.423 5.052-8.862 7.583-13.288.574-.962 1.066-1.943 1.643-2.886.72-1.241 1.391-2.509 2.141-3.736.239-.513.561-.983.824-1.484.934-1.618 1.85-3.245 2.78-4.862.11-.253.258-.488.438-.699z"/><path d="M38.944 7.109c1.254-2.133 2.465-4.288 3.736-6.412h6.8c.099.005.197.02.293.045-.226.333-.416.687-.615 1.034-1.64 2.865-3.275 5.732-4.905 8.6-.685 1.168-1.322 2.362-2.017 3.524l-.069.023-.013.146a5589.367 5589.367 0 0 0-9.559 16.762c-6.242.006-12.485.006-18.727 0 .355-.723.776-1.413 1.171-2.115 1.778-3.183 3.602-6.337 5.355-9.52 3.835-.006 7.671-.006 11.506 0 2.369-4.017 4.687-8.065 7.039-12.088h.006zM109.118.615v30.584h5.444V9.692l9.931 14.165 9.85-14.501v21.843h5.604V.615h-6.027l-9.387 14.118L115.041.615h-5.922zM83.655 8.502h3.557v22.954h-3.557V8.502zM83.351 0h4.169v3.851h-4.169V0zM94.01 1.927h3.717v6.577h7.329v3.206h-7.329v13.636a3.167 3.167 0 0 0 .365 1.512c.629 1.163 2.339 2.544 6.964.931v2.972s-4.222 2.327-8.045.208c0 0-1.899-.785-2.697-3.434a7.57 7.57 0 0 1-.303-2.182V11.66l-3.134.051V8.505h3.159l-.025-6.577zM145.68.615v30.79h23.631v-4.963h-17.868v-8.169h15.745v-4.885h-15.772V5.609h17.711V.615h-23.446zM171.531.615h6.731l7.727 10.81 7.668-10.81h6.73l-10.993 15.016 11.678 15.748h-7.088l-7.967-11.502-8.352 11.528h-6.731l11.511-15.638L171.532.615zM72.764 15.43s5.205-1.912 4.886-7.418c0 0-.043-5.295-6.167-6.929A12.081 12.081 0 0 0 68.36.692H53.673l.04 30.584h15.812s9.253-.194 9.904-8.22c0 0 .663-5.61-6.666-7.626zM57.47 3.849h9.374c7.354-.025 7.142 5.016 7.142 5.016.11 5.751-6.639 5.634-6.639 5.634h-9.878V3.849zm11.471 24.194H57.47V17.394h10.967c7.354-.026 7.142 5.014 7.142 5.014.11 5.751-6.639 5.634-6.639 5.634z"/></symbol><symbol id="icon-binance" viewBox="0 0 159 32"><path d="m9.69 13.177 6.153-6.088 6.155 6.093 3.578-3.544L15.842.001 6.108 9.636l3.581 3.542zM0 15.681l3.579-3.543 3.579 3.543-3.579 3.543L0 15.681zM9.69 18.184l6.153 6.091 6.155-6.093 3.581 3.54-.003.002-9.734 9.638-9.739-9.638 3.586-3.539zM24.521 15.681l3.579-3.543 3.579 3.543-3.579 3.543-3.579-3.543z"/><path d="m19.474 15.68-3.631-3.596-3.636 3.596.005.007 3.631 3.591 3.631-3.599zM37.265 7.598h7.787c1.932 0 3.393.495 4.384 1.486a3.803 3.803 0 0 1 1.148 2.804v.047c.007.426-.053.85-.178 1.258a3.859 3.859 0 0 1-1.169 1.764 4.48 4.48 0 0 1-.848.57 5.668 5.668 0 0 1 2.294 1.486c.557.628.836 1.494.836 2.601v.047a4.275 4.275 0 0 1-.443 1.996 3.904 3.904 0 0 1-1.269 1.427 6.055 6.055 0 0 1-1.989.855c-.843.198-1.708.294-2.575.285h-7.98V7.599zm7.006 6.722a3.883 3.883 0 0 0 1.944-.416c.234-.135.425-.333.552-.57s.183-.505.164-.772v-.047a1.457 1.457 0 0 0-.623-1.27c-.415-.292-1.015-.438-1.799-.438h-3.643v3.515h3.406zm.983 6.7a3.593 3.593 0 0 0 1.927-.438c.229-.145.414-.349.537-.59s.177-.509.159-.778v-.047a1.552 1.552 0 0 0-.648-1.318c-.43-.33-1.126-.495-2.087-.495h-4.276v3.666h4.389zM56.159 7.598h3.696v16.63h-3.696V7.598zM65.448 7.598h3.408l7.877 10.234V7.598h3.648v16.63h-3.145l-8.135-10.571v10.571h-3.653V7.598zM91.571 7.481h3.403l7.199 16.749h-3.859l-1.536-3.73h-7.104l-1.536 3.73H84.37l7.201-16.749zm3.889 9.789-2.237-5.395-2.227 5.395h4.464zM106.169 7.598h3.408l7.872 10.234V7.598h3.648v16.63h-3.145l-8.135-10.571v10.571h-3.648V7.598zM134.398 24.521a8.82 8.82 0 0 1-3.434-.664c-1.023-.419-1.952-1.036-2.732-1.815s-1.392-1.705-1.804-2.723a8.737 8.737 0 0 1-.648-3.351v-.047a8.578 8.578 0 0 1 2.45-6.071 8.32 8.32 0 0 1 2.753-1.853 9.067 9.067 0 0 1 3.55-.676c.72-.005 1.44.059 2.147.191a8.923 8.923 0 0 1 1.767.523 7.663 7.663 0 0 1 1.463.807c.446.314.864.663 1.252 1.045l-2.349 2.685a8.971 8.971 0 0 0-2.003-1.38 5.162 5.162 0 0 0-2.292-.495 4.684 4.684 0 0 0-3.503 1.52 5.227 5.227 0 0 0-1.011 1.652 5.605 5.605 0 0 0-.358 2.009v.047a5.677 5.677 0 0 0 .358 2.006c.228.61.566 1.174 1.001 1.662.437.491.977.883 1.581 1.15s1.26.402 1.921.396a5.176 5.176 0 0 0 2.435-.523 9.388 9.388 0 0 0 1.98-1.427l2.351 2.353c-.414.446-.864.86-1.343 1.238a8.048 8.048 0 0 1-1.524.939 7.951 7.951 0 0 1-1.811.592c-.724.144-1.46.213-2.197.208zM145.636 7.598h12.644v3.255h-9.008v3.373h7.932v3.255h-7.919v3.492h9.121v3.255h-12.761l-.008-16.63z"/></symbol><symbol id="сompany-numbers-save-money" viewBox="0 0 32 32"><path fill="#8e96b0" style="fill:var(--color1,#8e96b0)" d="m7.455 20.797 3.058-2.107h9.982a1.24 1.24 0 0 1 1.228 1.236 1.236 1.236 0 0 1-1.228 1.236H15.72a.673.673 0 0 0 0 1.344h4.775a2.572 2.572 0 0 0 2.149-1.161.526.526 0 0 0 .133-.058l5.616-3.241a.707.707 0 0 0 .084-.049 1.246 1.246 0 0 1 1.662.51c.142.266.177.576.096.866a1.41 1.41 0 0 1-.597.808l-10.532 6.876h-6.669a.695.695 0 0 0-.347.094l-.716.433-3.919-6.787zm-2.039-.852-3.692 2.134L7.452 32l3.692-2.13-5.728-9.926zM19.32 3.322v.29a3.52 3.52 0 0 0-1.473.607c-.617.455-.999 1.098-.999 1.826s.382 1.371.999 1.826c.438.312.942.52 1.473.607v2.264a1.969 1.969 0 0 1-.68-.317c-.277-.201-.449-.469-.449-.746a.672.672 0 0 0-1.344 0c0 .728.382 1.375.999 1.826.436.316.941.524 1.473.607v.29a.674.674 0 0 0 .672.678.677.677 0 0 0 .623-.419.674.674 0 0 0 .049-.259v-.29a3.405 3.405 0 0 0 1.473-.607c.617-.451.999-1.098.999-1.826 0-.723-.382-1.371-.999-1.826a3.463 3.463 0 0 0-1.473-.603V4.982c.244.063.475.171.681.317.277.205.449.469.449.746a.673.673 0 0 0 1.145.471.672.672 0 0 0 .199-.471c0-.728-.382-1.371-.999-1.826a3.52 3.52 0 0 0-1.473-.607v-.29a.673.673 0 0 0-1.145-.471.672.672 0 0 0-.199.471zm1.344 5.3c.245.061.476.169.681.317.277.201.449.464.449.741s-.172.545-.449.746a1.982 1.982 0 0 1-.681.317V8.622zM19.32 7.108a2.063 2.063 0 0 1-.68-.317c-.277-.205-.449-.469-.449-.746s.172-.54.449-.746c.206-.146.436-.254.68-.317v2.125zM19.992 0a7.865 7.865 0 0 1 3.012 15.134 7.868 7.868 0 0 1-10.839-8.038 7.863 7.863 0 0 1 2.266-4.791 7.822 7.822 0 0 1 5.56-2.304z"/></symbol><symbol id="сompany-numbers-money-bag" viewBox="0 0 32 32"><path fill="#8e96b0" style="fill:var(--color1,#8e96b0)" d="M8.687 5.688h7.001c1.003-2.247 2.766-4.064 2.78-4.094.281-.262.356-.656.206-1.012s-.487-.581-.862-.581c-1.688 0-2.606.6-3.337 1.087-.656.45-1.162.788-2.287.788s-1.631-.337-2.288-.788C9.169.6 8.25.001 6.563.001c-.375 0-.713.225-.862.581s-.075.75.206 1.012c.015.03 1.778 1.847 2.78 4.094zM18.812 29.188v1.875c0 .518.42.937.938.937h11.313c.518 0 .937-.42.937-.937v-1.875a.938.938 0 0 0-.937-.938H19.75a.938.938 0 0 0-.938.938zM32 25.438v-1.875a.937.937 0 0 0-.937-.937H19.75a.938.938 0 0 0-.938.937v1.875c0 .518.42.937.938.937h11.313c.518 0 .937-.42.937-.937z"/><path fill="#8e96b0" style="fill:var(--color1,#8e96b0)" d="M18.694 15.162c-1.837-1.8-3.338-3.325-3.637-5.725h.881c.525 0 .938-.412.938-.938s-.412-.937-.938-.937h-7.5c-.525 0-.937.412-.937.937s.412.938.937.938h.881c-.3 2.4-1.8 3.925-3.637 5.725C3.019 17.768.001 20.731.001 27.5.038 29.975 2.157 32 4.689 32h12.36a2.78 2.78 0 0 1-.172-.937v-7.5a2.815 2.815 0 0 1 2.812-2.812h3.358c-1.134-2.431-2.817-4.081-4.352-5.588zm-6.506 5.588A2.815 2.815 0 0 1 15 23.562a2.807 2.807 0 0 1-1.875 2.64v1.11a.936.936 0 1 1-1.875 0v-1.11a2.807 2.807 0 0 1-1.875-2.64.937.937 0 1 1 1.875 0 .938.938 0 1 0 .938-.937 2.816 2.816 0 0 1-2.813-2.813c0-1.221.786-2.251 1.875-2.64v-1.11a.937.937 0 1 1 1.875 0v1.11A2.807 2.807 0 0 1 15 19.812a.937.937 0 1 1-1.875 0 .938.938 0 1 0-.937.938z"/></symbol><symbol id="сompany-numbers-user" viewBox="0 0 32 32"><path fill="#8e96b0" style="fill:var(--color1,#8e96b0)" d="M15.77 15.414c2.118 0 3.951-.759 5.45-2.258s2.258-3.332 2.258-5.449-.76-3.951-2.258-5.449S17.888 0 15.771 0c-2.118 0-3.951.76-5.449 2.258S8.064 5.59 8.064 7.707c0 2.118.76 3.951 2.258 5.45s3.332 2.258 5.449 2.258zM29.258 24.608a19.16 19.16 0 0 0-.259-2.022 15.96 15.96 0 0 0-.497-2.033 10.053 10.053 0 0 0-.836-1.896 7.171 7.171 0 0 0-1.26-1.642 5.548 5.548 0 0 0-1.81-1.137 6.248 6.248 0 0 0-2.311-.418c-.327 0-.643.134-1.253.531-.375.245-.815.528-1.305.841-.419.267-.987.517-1.689.744-.684.221-1.379.334-2.065.334s-1.38-.112-2.065-.334c-.701-.226-1.269-.477-1.687-.744-.486-.31-.925-.594-1.306-.842-.609-.397-.925-.531-1.252-.531-.832 0-1.609.141-2.311.419a5.563 5.563 0 0 0-1.811 1.137 7.193 7.193 0 0 0-1.26 1.642c-.347.612-.629 1.25-.836 1.896a15.96 15.96 0 0 0-.497 2.033 18.82 18.82 0 0 0-.259 2.023 27.733 27.733 0 0 0-.064 1.89c0 1.67.531 3.023 1.578 4.02 1.034.984 2.403 1.483 4.067 1.483h15.408c1.664 0 3.032-.499 4.066-1.483 1.047-.997 1.578-2.349 1.578-4.02 0-.645-.022-1.281-.065-1.89z"/></symbol><symbol id="play-button" viewBox="0 0 32 32"><path fill="#fff" style="fill:var(--color1,#fff)" d="M16 0A16.003 16.003 0 0 0 0 16a16.003 16.003 0 0 0 16 16 16.003 16.003 0 0 0 16-16A16.003 16.003 0 0 0 16 0zm-4 22.666V9.333l12 6.861-12 6.472z"/></symbol><symbol id="icon-arrow-why-us-section" viewBox="0 0 3 32"><path fill="#979797" style="fill:var(--color1,#979797)" d="M.083.029h.285v.053c.016.018.04.035.07.051s.071.03.121.041C.61.185.674.193.752.197l.344.017v.484H.369v.094H.086V.698h.196V.123H.085V.029zm.285.17v.404h.64V.302L.752.289C.693.286.639.28.59.272S.499.254.462.241A.434.434 0 0 1 .368.198zM.28.973V.87l.815.299v.102L.28 1.57v-.103l.686-.243v-.006L.28.974zm.319.039v.417H.511v-.417h.088zm-.319.615h.091v.024c0 .034.011.06.033.079s.057.032.105.041c.049.008.113.014.193.017l.393.014v.497H.28V2.2h.727v-.304l-.325-.013C.597 1.88.524 1.872.464 1.86s-.106-.034-.137-.066C.295 1.763.28 1.717.28 1.657v-.03zm.473.942v.232c0 .058-.01.108-.029.148s-.046.071-.081.091c-.035.021-.076.031-.123.031s-.089-.01-.125-.031C.359 3.019.331 2.989.31 2.949S.279 2.86.279 2.801v-.306h.815v.099H.365v.207c0 .037.007.069.022.094s.034.046.058.059c.024.014.049.02.076.02.039 0 .073-.015.101-.045s.043-.073.043-.128v-.232h.088zm.342.659v.099H.371v.286h.724v.099H.371v.286h.724v.099H.28v-.869h.815zM.28 4.295h.815v.492h-.088v-.393H.732v.368H.644v-.368H.367v.399H.279v-.498zM2.401 31.979a.07.07 0 0 0 .099 0l.446-.446c.027-.027.027-.072 0-.099s-.072-.027-.099 0l-.396.396-.396-.396c-.027-.027-.072-.027-.099 0s-.027.072 0 .099l.446.446zM2.381 0v31.93h.14V0h-.14z"/></symbol></defs></svg>