<svg xmlns="http://www.w3.org/2000/svg" width="115" height="115" fill="none"><g clip-path="url('#a')"><path fill="url('#b')" d="M44.022 101.362c24.313 7.355 49.985-6.392 57.34-30.705 7.355-24.313-6.393-49.985-30.705-57.34-24.313-7.355-49.985 6.392-57.34 30.705-7.355 24.313 6.392 49.985 30.705 57.34Z" opacity=".65"/><path fill="url('#c')" d="M46.342 93.695c20.078 6.075 41.28-5.278 47.353-25.357 6.074-20.08-5.279-41.28-25.357-47.354-20.08-6.074-41.28 5.279-47.354 25.358-6.074 20.079 5.279 41.28 25.358 47.353Z"/><path fill="url('#d')" d="M49.858 86.391c15.845 4.793 32.575-4.166 37.369-20.01 4.793-15.845-4.166-32.575-20.011-37.368-15.845-4.794-32.575 4.165-37.368 20.01-4.793 15.845 4.166 32.575 20.01 37.368Z"/><path fill="url('#e')" d="M47.463 85.666c15.844 4.794 32.575-4.165 37.368-20.01 4.793-15.845-4.166-32.575-20.01-37.368-15.845-4.794-32.576 4.166-37.369 20.01-4.793 15.845 4.166 32.575 20.01 37.368Z"/><path fill="url('#f')" d="M48.84 81.114c13.33 4.033 27.406-3.505 31.439-16.835 4.032-13.331-3.505-27.407-16.836-31.44-13.33-4.032-27.406 3.505-31.439 16.836-4.033 13.33 3.505 27.407 16.836 31.44Z"/><path stroke="#AEF7FF" stroke-miterlimit="10" stroke-width="4" d="M48.84 81.114c13.33 4.033 27.406-3.505 31.439-16.835 4.032-13.331-3.505-27.407-16.836-31.44-13.33-4.032-27.406 3.505-31.439 16.836-4.033 13.33 3.505 27.407 16.836 31.44Z"/><path fill="#fff" d="m53.097 61.95 3.302-4.617 4.241.347.876-2.894-3.07-.285 6.316-8.677-6.546-1.98-7.19 9.992-4.116-.368-.875 2.894 2.944.306-2.373 3.318-.055-.016-2.786 3.895 6.492 1.964 10.855 3.283 2.786-3.895-10.8-3.267Z"/></g><defs><linearGradient id="d" x1="67.567" x2="118.724" y1="60.438" y2="75.913" gradientUnits="userSpaceOnUse"><stop offset=".005" stop-color="#3B79FA"/><stop offset=".995" stop-color="#40A8F9"/></linearGradient><linearGradient id="e" x1="71.163" x2="40.047" y1="84.991" y2="26.883" gradientUnits="userSpaceOnUse"><stop offset=".005" stop-color="#3BA1FA"/><stop offset="1" stop-color="#6ADEF0"/></linearGradient><linearGradient id="f" x1="45.827" x2="70.927" y1="40.775" y2="80.128" gradientUnits="userSpaceOnUse"><stop offset=".005" stop-color="#3BA1FA"/><stop offset="1" stop-color="#6ADEF0"/></linearGradient><radialGradient id="b" cx="0" cy="0" r="1" gradientTransform="rotate(16.831 -165.135 222.47) scale(57.1494)" gradientUnits="userSpaceOnUse"><stop stop-color="#52BEF5"/><stop offset=".995" stop-color="#56C4F4" stop-opacity="0"/></radialGradient><radialGradient id="c" cx="0" cy="0" r="1" gradientTransform="rotate(16.831 -165.135 222.47) scale(54.2182)" gradientUnits="userSpaceOnUse"><stop stop-color="#49B3F7"/><stop offset=".995" stop-color="#56C4F4" stop-opacity="0"/></radialGradient><clipPath id="a"><path fill="#fff" d="m26.634 0 88.045 26.634-26.634 88.045L0 88.045z"/></clipPath></defs></svg>