<svg xmlns="http://www.w3.org/2000/svg" width="1920" height="779" fill="none"><path stroke="#F2F5F8" stroke-miterlimit="10" stroke-width="6" d="M0 532.413c37.952-2.448 73.192 1.632 107.53 39.981 36.144 39.982 67.77 32.638 105.722-2.447 47.891-45.693 68.674-62.828 120.18-40.798 37.048 15.503 53.313-22.03 82.228-65.276 18.073-26.926 40.663-19.582 60.542-7.343 24.398 16.319 53.313 40.797 78.614 40.797 33.434-.816 67.771-45.693 98.494-70.987 51.505-42.43 111.144-55.485 155.42 13.055 31.627 48.141 53.313 133.815 90.361 157.478 46.085 29.374 93.976-53.853 119.279-150.951 37.95-146.054 47.89-391.655 131.92-437.348 9.94-5.712 20.79-8.975 30.73 0 12.65 10.607 19.88 39.166 25.3 66.908 5.42 27.742 9.94 57.932 18.07 79.963 13.55 35.086 12.65 101.993 34.34 121.576 30.72 26.926 54.21-80.779 85.84-96.282 46.08-22.846 65.96 140.343 110.24 172.981 47.89 35.086 89.46-93.018 138.25-130.551 36.15-27.743 75-3.264 112.95 4.895 18.98 4.08 39.76 1.632 57.84-13.871 14.45-11.423 35.24-66.908 49.69-59.564 18.98 9.791 32.53 40.797 52.41 47.325 20.79 6.527 43.38 0 63.26-21.215"/><path stroke="#F2F5F8" stroke-miterlimit="10" stroke-width="6" d="M0 775.565c98.493-2.447 191.565-70.987 277.408-146.87 16.265-13.871 34.337-28.559 52.409-21.215 27.109 11.423 42.47 69.356 70.482 71.803 21.687 1.632 38.855-33.453 58.735-48.956 23.493-17.951 49.698-8.976 75.903-5.712 65.963 8.975 74.096-70.988 103.915-156.662 18.976-55.485 46.084-101.178 77.71-133.816 9.94-10.607 20.783-19.583 32.53-19.583 20.783 0 37.048 26.927 56.928 36.718 40.662 19.583 90.36-38.349 124.698 5.712 11.747 15.503 18.976 39.981 28.012 60.38 19.879 44.877 54.22 68.54 86.75 59.564 15.36-4.08 30.72-14.687 46.08-13.055 29.82 3.264 70.48 34.27 97.59 55.485 12.65 9.791 19.88 32.637 30.72 42.429 18.07 16.319 28.92-3.264 46.99-12.239 10.84-4.896 22.59-1.632 33.43-6.528 12.65-5.712 22.59-21.215 32.53-36.718 20.79-34.269 40.67-72.619 65.97-94.65 25.3-22.03 58.73-24.478 79.51 10.608 9.04 15.503 15.37 36.717 26.21 47.325 18.98 17.135 40.66-4.896 60.54-11.424 45.18-14.687 85.84 48.141 115.66 110.153 28.02 58.749 54.22 116.681 95.79 143.607 46.08 29.375 96.68 25.295 144.57 23.663"/></svg>