<svg xmlns="http://www.w3.org/2000/svg" width="320" height="280" fill="none"><path stroke="#F2F5F8" stroke-miterlimit="10" stroke-width="6" d="M-170 190.985c12.157-.869 23.446.58 34.446 14.197 11.578 14.197 21.709 11.589 33.867-.869 15.341-16.225 21.999-22.309 38.498-14.487 11.868 5.505 17.078-7.822 26.341-23.178 5.79-9.561 13.026-6.953 19.394-2.607 7.816 5.794 17.078 14.486 25.183 14.486 10.71-.29 21.71-16.225 31.552-25.206 16.499-15.066 35.603-19.702 49.787 4.635 10.131 17.094 17.078 47.516 28.946 55.918 14.763 10.43 30.104-19.122 38.209-53.6 12.157-51.861 15.341-139.07 42.261-155.295 3.184-2.028 6.658-3.187 9.842 0 4.052 3.767 6.368 13.907 8.105 23.758 1.737 9.85 3.184 20.57 5.789 28.393 4.342 12.459 4.053 36.217 11 43.17 9.841 9.561 17.367-28.683 27.498-34.188 14.763-8.112 21.131 49.834 35.315 61.423 15.341 12.458 28.656-33.03 44.287-46.357 11.579-9.85 24.026-1.159 36.183 1.738 6.079 1.449 12.736.58 18.526-4.925 4.631-4.056 11.289-23.758 15.92-21.15 6.079 3.477 10.421 14.486 16.789 16.804 6.657 2.318 13.894 0 20.262-7.533"/><path stroke="#F2F5F8" stroke-miterlimit="10" stroke-width="6" d="M-170 277c31.531-.871 61.326-25.253 88.808-52.248 5.207-4.934 10.992-10.159 16.778-7.547 8.678 4.064 13.596 24.673 22.563 25.544 6.943.58 12.439-11.901 18.803-17.416 7.521-6.386 15.91-3.193 24.3-2.032 21.116 3.193 23.72-25.253 33.266-55.731 6.075-19.738 14.753-35.993 24.878-47.604 3.182-3.773 6.653-6.966 10.413-6.966 6.654 0 11.86 9.579 18.225 13.062 13.017 6.966 28.927-13.643 39.92 2.032 3.76 5.515 6.075 14.223 8.967 21.479 6.365 15.965 17.357 24.383 27.771 21.19 4.918-1.451 9.835-5.225 14.753-4.644 9.546 1.161 22.563 12.191 31.242 19.738 4.05 3.483 6.364 11.61 9.835 15.093 5.786 5.806 9.257-1.161 15.042-4.354 3.472-1.741 7.232-.58 10.704-2.322 4.05-2.032 7.232-7.547 10.414-13.062 6.653-12.191 13.017-25.833 21.117-33.67 8.099-7.838 18.803-8.708 25.456 3.773 2.893 5.515 4.918 13.062 8.389 16.835 6.075 6.096 13.017-1.741 19.381-4.063 14.464-5.225 27.482 17.125 37.028 39.186 8.967 20.899 17.356 41.508 30.663 51.086 14.753 10.45 30.952 8.999 46.284 8.418"/></svg>