<svg xmlns="http://www.w3.org/2000/svg" width="176" height="219" fill="none"><g clip-path="url('#a')"><path fill="#4768BD" d="M87.495 210.643c25.818 10.375 55.492-4.649 71.395-36.272 10.159-20.222 14.75-45.619 15.67-70.592.766-20.451-.815-41.983-8.421-59.003-10.677-24.13-31.063-35.142-50.58-38.617C91.639 2.03 65.503 7.802 47.412 31.24 38.146 43.068 31.954 60.28 29.87 77.93c-2.382 21.311 3.031 32.515 8.58 50.393 5.55 18.093 6.845 34.888 16.067 50.834 8.637 14.869 20.215 26.298 32.977 31.485Z"/><path d="m89.543 215.167-.002 1.077-5.578-.009-5.577-.009c-2.79-.004-4.11.425-5.58.853-1.468.428-2.79.857-5.725.852-2.79-.004-4.257-.222-5.577-.439-1.322-.002-2.789-.22-5.578-.224-2.789-.005-4.257.208-5.578.421-1.322.214-2.79.427-5.579.422-2.789-.004-4.256-.222-5.577-.439-1.32-.218-2.788-.435-5.577-.44-2.789-.004-4.257.209-5.579.422-1.468.213-2.79.426-5.578.422-2.789-.004-4.256-.222-5.577-.439-1.32-.218-2.788-.435-5.577-.44-2.79-.004-4.256-.437-5.724-.87-1.467-.433-2.787-.865-5.576-.87l.002-1.076c2.789.004 4.256.437 5.723.87 1.32.648 2.64.865 5.43.87 2.788.004 4.256.222 5.577.439 1.32.217 2.788.435 5.577.439 2.789.005 4.257-.208 5.578-.421 1.469-.213 2.937-.426 5.726-.422 2.789.004 4.256.222 5.577.439 1.32.218 2.788.435 5.577.44 2.789.004 4.257-.209 5.578-.422 1.322-.213 2.79-.426 5.579-.422 2.789.004 4.256.222 5.577.439 1.32.218 2.788.435 5.577.44 2.789.004 4.11-.424 5.58-.853 1.468-.428 2.79-.856 5.725-.852l5.578.009c1.468-.213 2.79-.211 5.578-.207Zm.011-7.104-.001 1.076c-2.79-.004-4.257.209-5.578.207-1.322.213-2.79.21-5.579.206-2.789-.004-4.256-.437-5.723-.655-1.321-.217-2.788-.65-5.577-.654-2.789-.005-4.11.424-5.58.852-1.468.428-2.79.857-5.725.852l-5.578-.009-5.578-.008-11.155-.018c-2.79-.004-4.256-.437-5.723-.87-1.468-.433-2.788-.866-5.577-.87-2.789-.005-4.257.208-5.578.422-1.322.213-2.79.426-5.579.422-2.789-.005-4.256-.438-5.723-.655-1.175-.002-2.495-.435-5.284-.439l.002-1.077c2.789.005 4.256.438 5.723.655 1.32.433 2.641.65 5.43.655 2.79.004 4.257-.209 5.579-.422 1.468-.213 2.79-.426 5.725-.422 2.789.005 4.256.437 5.723.87 1.467.433 2.788.866 5.577.87l11.155.018 5.578.009 5.578.008c2.789.005 4.11-.424 5.579-.852 1.468-.428 2.79-.857 5.726-.852 2.789.004 4.256.437 5.724.655 1.32.217 2.787.65 5.576.654 2.79.005 4.257-.208 5.578-.206 1.028-.429 2.496-.427 5.285-.422Zm.013-7.966-.002 1.076c-2.789-.004-4.257-.006-5.578.207-1.321-.002-2.79.211-5.578.207-2.79-.005-4.257-.007-5.578.206-1.321-.002-2.79.211-5.578.207-2.79-.005-4.258.208-5.579.206-1.321.213-2.789.211-5.578.207-2.789-.005-4.256-.222-5.577-.224-1.32-.218-2.789-.22-5.578-.225-2.788-.004-4.256-.437-5.723-.87-1.467-.433-2.787-.865-5.576-.87-2.79-.004-4.11.425-5.58.853-1.321.428-2.79.857-5.725.852-2.79-.004-4.257.209-5.578.206-1.322.214-2.79.211-5.579.207-2.789-.004-4.256-.222-5.577-.439-1.32-.433-2.788-.651-5.577-.655l.002-1.076c2.79.004 4.257.222 5.577.439 1.468.217 2.788.435 5.577.439 2.79.005 4.258-.208 5.579-.206 1.32-.213 2.789-.211 5.578-.207 2.789.005 4.11-.424 5.579-.852 1.322-.429 2.79-.857 5.726-.852 2.789.004 4.256.437 5.723.87 1.467.433 2.788.865 5.576.87 2.79.004 4.257.222 5.578.224 1.32.217 2.788.219 5.577.224 2.642.219 4.11.006 5.432-.207 1.321-.213 2.789-.211 5.578-.206 2.789.004 4.257.006 5.578-.207 1.321.002 2.79-.211 5.578-.206 2.789.004 4.257.006 5.578-.207 1.468.218 2.936.005 5.725.009Zm.011-7.32-.001 1.076c-2.79-.004-4.257.209-5.578.207-1.322.213-2.79.211-5.579.207-2.788-.005-4.256-.438-5.723-.655-1.32-.433-2.788-.651-5.577-.655-2.789-.004-4.257-.007-5.578.207-1.321-.003-2.79.21-5.578.206-2.79-.004-4.257.209-5.579.422-1.321.213-2.79.426-5.578.422l-5.578-.009-5.578-.009-5.578-.009-5.577-.008c-2.79-.005-4.256-.438-5.723-1.086-1.467-.433-2.787-1.081-5.576-1.085-2.79-.004-4.111.424-5.58.852-1.321.429-2.79.857-5.725.852l.001-1.076c2.79.004 4.11-.424 5.58-.852 1.321-.429 2.79-.857 5.725-.853 2.79.005 4.256.438 5.723 1.086 1.467.433 2.787 1.081 5.576 1.085l5.578.009 5.578.009 5.578.008 5.578.009c2.788.005 4.257-.208 5.578-.422 1.321-.213 2.79-.426 5.578-.421 2.79.004 4.257.006 5.579-.207 1.32.002 2.789-.211 5.578-.206 2.789.004 4.256.437 5.723.654 1.32.433 2.788.651 5.577.655 2.789.004 4.257-.209 5.578-.206 1.322-.214 2.79-.211 5.578-.207Zm.015-9.258-.002 1.077c-2.789-.005-4.257.208-5.578.422-1.322.213-2.79.426-5.579.421-2.789-.004-4.256-.222-5.577-.224-1.321-.217-2.789-.219-5.578-.224-2.789-.004-4.11.424-5.579.853-1.322.428-2.79.856-5.726.852l-11.155-.018c-2.79-.004-4.257-.222-5.578-.224-1.32-.217-2.788-.219-5.577-.224-2.79-.004-4.256-.437-5.724-.87-1.467-.433-2.787-.866-5.576-.87-2.789-.004-4.257.209-5.579.422-1.32.213-2.789.426-5.578.422-2.789-.005-4.257.208-5.578.422-1.321-.003-2.79.21-5.579.206l.002-1.076c2.789.004 4.257-.209 5.579-.422 1.321-.213 2.79-.426 5.578-.422 2.789.004 4.257-.209 5.579-.422 1.321-.213 2.79-.426 5.578-.422 2.789.005 4.256.438 5.723.87 1.467.433 2.788.866 5.577.87 2.789.005 4.256.222 5.577.224 1.32.218 2.789.22 5.578.225l11.155.017c2.79.004 4.11-.424 5.58-.852 1.321-.429 2.79-.857 5.725-.852 2.79.004 4.257.222 5.578.224 1.32.217 2.788.219 5.577.224 2.79.004 4.257-.209 5.579-.422 1.32.002 2.789-.211 5.578-.207Zm.013-8.611-.001 1.076c-2.79-.004-4.257.209-5.579.422-1.321.213-2.79.426-5.578.422-2.79-.005-4.257.208-5.578.206-1.322-.002-2.79.211-5.579.207-2.788-.005-4.257.208-5.578.422-1.321.213-2.79.426-5.578.421l-5.578-.008-5.578-.009-5.578-.009-5.578-.009c-2.789-.004-4.256-.006-5.577-.224-1.321-.002-2.789-.219-5.578-.224-2.788-.004-4.256-.437-5.723-.87-1.467-.433-2.787-.865-5.576-.87-2.79-.004-4.11.209-5.58.637-1.32.214-2.789.642-5.725.637l.002-1.076c2.789.004 4.11-.209 5.579-.637 1.32.002 2.79-.427 5.578-.422 2.79.004 4.256.437 5.723.87 1.468.433 2.788.866 5.577.87 2.789.004 4.257.007 5.577.224 1.322.002 2.789.22 5.578.224l5.578.009 5.578.009 5.577.008 5.578.009c2.789.004 4.257-.209 5.579-.422 1.32-.213 2.79-.426 5.578-.422 2.789.005 4.257-.208 5.578-.206 1.321.002 2.79-.211 5.578-.207 2.79.005 4.257-.208 5.579-.421 1.468-.429 2.936-.642 5.725-.637Zm.012-7.105-.002 1.077c-2.789-.005-4.11.424-5.579.637-1.322.428-2.79.641-5.726.637-2.788-.005-4.256-.222-5.577-.224-1.32-.218-2.789-.22-5.578-.225-2.788-.004-4.256-.222-5.577-.439-1.32-.217-2.788-.435-5.577-.439-2.789-.005-4.257.208-5.579.637-1.32.213-2.79.641-5.725.637-2.789-.005-4.257-.222-5.577-.44-1.32-.217-2.788-.435-5.577-.439-2.79-.004-4.111.424-5.58.637-1.32.429-2.789.642-5.725.637-2.789-.004-4.256-.437-5.723-.87-1.467-.433-2.787-.866-5.576-.87-2.79-.005-4.111.424-5.58.637-1.32.428-2.79.641-5.725.637l.002-1.077c2.789.005 4.11-.424 5.579-.637 1.321-.428 2.79-.641 5.725-.637 2.79.005 4.256.438 5.723.871 1.468.432 2.788.865 5.577.87 2.789.004 4.11-.425 5.579-.638 1.322-.428 2.79-.641 5.725-.636 2.79.004 4.257.222 5.578.439 1.32.217 2.788.435 5.577.439 2.788.005 4.257-.208 5.578-.637 1.322-.213 2.79-.641 5.58-.637 2.788.004 4.256.222 5.576.439 1.321.218 2.789.435 5.577.44 2.79.004 4.257.222 5.578.224 1.32.217 2.788.219 5.577.224 2.79.004 4.111-.424 5.58-.637 1.615-.428 3.083-.641 5.872-.637Zm.012-7.966-.002 1.077c-2.788-.005-4.257.208-5.578.637-1.322.213-2.79.641-5.726.637-2.789-.005-4.256-.222-5.577-.44-1.32-.217-2.788-.435-5.577-.439-2.79-.004-4.257.209-5.579.422-1.32-.002-2.642.426-5.578.422l-5.578-.009-5.578-.009c-2.789-.004-4.256-.437-5.723-.87-1.467-.433-2.788-.866-5.577-.87-2.788-.004-4.256-.007-5.578.206-1.32-.002-2.789.211-5.578.207-2.789-.004-4.11.424-5.578.637-1.322.429-2.79.642-5.726.637-2.789-.004-4.257-.222-5.577-.655-1.32-.217-2.788-.435-5.577-.439l.002-1.076c2.789.004 4.256.222 5.576.654 1.321.218 2.789.435 5.578.44 2.788.004 4.11-.425 5.578-.638 1.322-.428 2.79-.641 5.726-.636 2.789.004 4.257.006 5.578-.207 1.321.002 2.79-.211 5.578-.206 2.79.004 4.256.437 5.724.87 1.467.433 2.787.865 5.576.87l5.578.008 5.578.009c2.788.005 4.257-.208 5.578-.422 1.321-.213 2.79-.426 5.578-.421 2.79.004 4.257.222 5.578.439 1.32.217 2.788.435 5.577.439 2.789.005 4.257-.208 5.579-.637 1.468-.428 2.936-.641 5.725-.637Zm.013-8.181-.002 1.077c-2.789-.005-4.257.208-5.578.421-1.322.214-2.79.427-5.579.422-2.789-.004-4.256-.006-5.577-.224-1.321-.002-2.789-.22-5.578-.224-2.788-.004-4.257.209-5.578.207-1.321.213-2.789.211-5.578.206-2.789-.004-4.256-.437-5.723-.655-1.32-.432-2.788-.65-5.577-.654-2.79-.005-4.11.208-5.579.637-1.321.213-2.79.641-5.726.637l-5.577-.009-5.578-.009c-2.79-.004-4.257-.007-5.578.207-1.321-.003-2.79.21-5.579.206-2.788-.004-4.256-.007-5.577-.224l-5.578-.009.002-1.076c2.789.004 4.257.006 5.577.224l5.578.009c2.79.004 4.257.006 5.578-.207 1.321.002 2.79-.211 5.579-.206l5.577.008 5.578.009c2.789.004 4.11-.209 5.579-.637 1.321-.213 2.79-.641 5.725-.637 2.79.005 4.257.437 5.724.655 1.32.433 2.788.65 5.577.655 2.789.004 4.257-.209 5.578-.207 1.321-.213 2.79-.211 5.578-.206 2.789.004 4.257.006 5.578.224 1.32.002 2.788.219 5.577.224 2.789.004 4.257-.209 5.578-.422 1.322-.213 2.79-.426 5.579-.422Zm.012-7.75-.002 1.076c-2.788-.004-4.256-.222-5.577-.224-1.32-.217-2.789-.22-5.577-.224-2.79-.005-4.111.424-5.58.637-1.321.428-2.79.641-5.725.637-2.789-.005-4.256-.222-5.724-.655-1.32-.217-2.787-.65-5.576-.655-2.79-.004-4.257.209-5.579.422-1.321.213-2.79.426-5.578.422-2.79-.004-4.257.209-5.579.422-1.321.213-2.79.426-5.578.422-2.789-.005-4.256-.222-5.577-.44-1.321-.217-2.788-.435-5.577-.439-2.79-.005-4.111.424-5.58.852-1.321.429-2.79.857-5.725.852-2.79-.004-4.257-.006-5.578-.224-1.321-.002-2.788-.219-5.577-.224l.001-1.076c2.79.004 4.257.007 5.578.224 1.32.002 2.788.22 5.577.224 2.79.004 4.11-.424 5.58-.852 1.321-.429 2.79-.857 5.725-.853 2.79.005 4.257.222 5.577.44 1.468.002 2.936.22 5.725.224 2.789.004 4.257-.209 5.578-.422 1.322-.213 2.79-.426 5.579-.422 2.788.005 4.257-.208 5.578-.421 1.322-.214 2.79-.427 5.579-.422 2.788.004 4.256.222 5.723.655 1.32.217 2.788.65 5.577.654 2.789.005 4.11-.424 5.579-.637 1.322-.428 2.79-.641 5.725-.637 2.79.005 4.257.222 5.578.224 1.32.433 2.641.435 5.43.44Zm.01-6.459-.002 1.076c-2.788-.004-4.255-.437-5.723-.655-1.32-.217-2.788-.65-5.577-.654-2.789-.005-4.257-.007-5.578.206-1.321-.002-2.79.211-5.578.207-2.789-.005-4.256-.222-5.577-.224-1.321-.218-2.79-.22-5.578-.224l-5.578-.009-5.578-.009c-2.788-.004-4.257.209-5.578.422-1.321.213-2.79.426-5.578.422-2.79-.005-4.257-.222-5.578-.44-1.32-.217-2.788-.434-5.577-.439-2.789-.004-4.257.209-5.578.422-1.322.213-2.79.426-5.579.422-2.789-.005-4.257.208-5.578.422-1.468-.218-2.936-.005-5.725-.009l.002-1.077c2.789.004 4.257-.208 5.578-.422 1.322-.213 2.79-.426 5.579-.422 2.789.005 4.257-.208 5.578-.421 1.322-.214 2.79-.427 5.579-.422 2.789.004 4.256.222 5.577.439 1.467.218 2.935.435 5.724.44 2.789.004 4.257-.209 5.578-.422 1.322-.213 2.79-.426 5.579-.422l5.578.009 5.577.009c2.79.004 4.257.222 5.578.224 1.32.217 2.788.219 5.577.224 2.79.004 4.257.007 5.578-.207 1.322.002 2.79-.211 5.579-.206 2.788.004 4.256.437 5.723.655 1.467.648 2.787 1.08 5.576 1.085Zm.013-8.397-.001 1.077-5.578-.009-5.578-.009c-2.789-.004-4.257-.006-5.578.207-1.321-.002-2.79.211-5.578.206-2.789-.004-4.257-.006-5.577-.224-1.321-.002-2.789-.219-5.578-.224l-5.578-.009-5.578-.008c-2.788-.005-4.256-.222-5.577-.44-1.32-.217-2.788-.435-5.577-.439-2.789-.004-4.11.424-5.579.852-1.468.429-2.79 1.072-5.726 1.068-2.79-.005-4.257-.222-5.578-.224-1.32-.218-2.788-.22-5.577-.224-2.789-.005-4.256-.438-5.724-.655-1.32-.433-2.788-.65-5.576-.655l.001-1.076c2.79.004 4.256.437 5.724.655 1.32.432 2.788.65 5.577.654 2.788.005 4.256.222 5.577.224 1.32.218 2.789.22 5.578.224 2.788.005 4.11-.424 5.579-.852 1.468-.428 2.79-1.072 5.726-1.068 2.789.005 4.256.222 5.577.44 1.32.217 2.788.435 5.577.439l5.578.009 5.578.009c2.789.004 4.256.006 5.577.224 1.321.002 2.789.219 5.578.224 2.789.004 4.256.007 5.578-.207 1.32.002 2.789-.211 5.578-.206l5.578.009 5.578.008Zm.014-8.611-.002 1.076c-2.789-.004-4.256-.007-5.577-.224-1.321-.002-2.789-.22-5.578-.224-2.788-.004-4.256-.222-5.577-.224-1.32-.217-2.789-.22-5.578-.224-2.788-.005-4.11.424-5.578.637-1.322.428-2.79.641-5.726.637-2.789-.005-4.257.208-5.579.637-1.321.213-2.79.641-5.579.637-2.788-.004-4.256-.437-5.722-1.085-1.468-.433-2.788-1.081-5.577-1.086-2.788-.004-4.257.209-5.578.422-1.321.213-2.79.426-5.579.422l-5.577-.009-5.578-.009c-2.789-.004-4.256-.222-5.577-.439-1.32-.217-2.788-.435-5.577-.439l.001-1.077c2.79.005 4.257.222 5.577.44 1.321.217 2.789.435 5.578.439l5.577.009 5.578.009c2.79.004 4.257-.209 5.579-.422 1.321-.213 2.79-.426 5.578-.422 2.789.004 4.256.437 5.723 1.085 1.467.433 2.787 1.081 5.576 1.086 2.789.004 4.257-.209 5.579-.638 1.321-.213 2.79-.641 5.579-.637 2.789.005 4.11-.424 5.579-.637 1.321-.428 2.79-.641 5.725-.637 2.79.005 4.257.222 5.578.224 1.32.218 2.788.22 5.577.225 2.789.004 4.257.006 5.578.224 1.467.217 2.788.219 5.577.224Zm.012-7.536-.002 1.077c-2.789-.004-4.257.208-5.578.422-1.322.213-2.79.426-5.579.422-2.789-.005-4.256-.438-5.723-1.086-1.467-.433-2.787-1.081-5.576-1.085l-5.578-.009-5.577-.009c-2.79-.004-4.258.209-5.579.422-1.321.213-2.79.426-5.578.422-2.79-.004-4.257-.222-5.578-.439-1.32-.218-2.788-.435-5.577-.44-2.789-.004-4.11.64-5.433 1.283-1.468.644-2.79 1.288-5.726 1.283-2.79-.004-4.256-.652-5.723-1.301-1.467-.648-2.787-1.296-5.429-1.3-2.789-.004-4.257.209-5.578.207-1.321.213-2.79.211-5.578.206l.002-1.076c2.789.004 4.257-.209 5.578-.207 1.321-.213 2.789-.211 5.578-.206 2.789.004 4.256.652 5.722 1.3 1.467.649 2.787 1.297 5.43 1.301 2.788.004 4.11-.64 5.433-1.284 1.468-.643 2.79-1.287 5.726-1.282 2.789.004 4.257.222 5.577.439 1.321.217 2.789.435 5.577.439 2.79.005 4.257-.208 5.579-.421 1.321-.214 2.79-.427 5.578-.422l5.578.009 5.578.008c2.789.005 4.256.438 5.723 1.086 1.467.433 2.787 1.081 5.576 1.085 2.789.004 4.257-.209 5.578-.422 1.322-.213 2.79-.426 5.579-.422Zm.012-7.535-.002 1.077c-2.789-.005-4.257-.007-5.577-.224-1.321-.002-2.789-.22-5.578-.224l-5.578-.009-5.577-.009-5.578-.009-5.578-.008c-2.789-.005-4.257.208-5.578.421-1.322.214-2.79.427-5.579.422-2.789-.004-4.257-.006-5.577-.224-1.322-.002-2.789-.219-5.578-.224-2.789-.004-4.257-.007-5.578.207-1.321-.002-2.79.211-5.578.206-2.789-.004-4.257-.222-5.578-.224-1.32-.217-2.788-.22-5.577-.224-2.789-.004-4.256-.437-5.723-.87-1.467-.433-2.788-.866-5.577-.87l.001-.646c2.79.004 4.256.437 5.724.87 1.467.433 2.787.866 5.576.87 2.789.005 4.256.222 5.577.224 1.321.218 2.789.22 5.578.224 2.789.005 4.257.007 5.578-.206 1.321.002 2.79-.211 5.578-.207 2.789.005 4.257.007 5.578.224 1.32.002 2.788.22 5.577.224 2.789.005 4.257-.208 5.578-.421 1.322-.214 2.79-.427 5.579-.422l5.578.009 5.578.008 5.577.009 5.578.009c2.79.004 4.257.007 5.578.224 1.468-.213 2.789-.211 5.578-.207Zm.012-7.965-.001 1.076c-2.79-.004-4.257-.437-5.724-.655-1.32-.433-2.788-.65-5.577-.654-2.789-.005-4.11.424-5.579.637-1.321.428-2.79.641-5.725.636l-5.578-.008-5.578-.01c-2.789-.004-4.256-.221-5.577-.223-1.321-.218-2.789-.22-5.578-.224-2.789-.005-4.257.208-5.578.206-1.321.213-2.79.211-5.578.207-2.789-.005-4.256-.222-5.577-.44-1.32-.217-2.788-.434-5.577-.439-2.79-.004-4.257.209-5.579.637-1.321.213-2.79.642-5.579.637-2.789-.004-4.256-.437-5.723-.87-1.467-.433-2.788-.865-5.577-.87l.002-1.076c2.79.004 4.256.437 5.723.87 1.468.433 2.788.865 5.577.87 2.789.004 4.257-.209 5.579-.637 1.321-.213 2.79-.642 5.579-.637 2.788.004 4.256.222 5.577.439 1.32.217 2.788.435 5.577.44 2.789.004 4.257-.21 5.578-.207 1.321-.213 2.79-.211 5.578-.207 2.789.005 4.256.222 5.577.224 1.321.218 2.789.22 5.578.224l5.578.01 5.578.008c2.788.004 4.11-.424 5.578-.637 1.322-.429 2.79-.642 5.726-.637 2.789.004 4.256.437 5.723.655 1.468.433 2.788.65 5.577.654Zm.015-9.043-.002 1.077-5.578-.01c-1.468-.001-2.789-.004-5.578-.008s-4.257-.007-5.578.207c-1.321-.002-2.79.21-5.578.206-2.789-.004-4.257.209-5.579.422-1.321.213-2.79.426-5.578.422-2.789-.005-4.256-.222-5.577-.44-1.32-.217-2.788-.434-5.577-.439l-5.578-.009-5.578-.008c-2.789-.005-4.11.424-5.58 1.067-1.468.428-2.79 1.072-5.726 1.068-2.788-.005-4.255-.653-5.723-1.086-1.467-.433-2.787-1.08-5.576-1.085-2.788-.004-4.11.424-5.579.852-1.468.429-2.79.857-5.726.853l.002-1.077c2.789.004 4.11-.424 5.58-.852 1.468-.429 2.79-.857 5.725-.852 2.789.004 4.256.652 5.723 1.085 1.467.433 2.787 1.08 5.576 1.085 2.789.005 4.11-.424 5.58-1.067 1.468-.429 2.79-1.073 5.726-1.068l5.578.009 5.577.009c2.79.004 4.257.222 5.578.439 1.32.217 2.788.435 5.577.44 2.789.004 4.257-.21 5.578-.422 1.322-.214 2.79-.427 5.579-.422 2.788.004 4.256.006 5.578-.207 1.32.002 2.789-.21 5.578-.206l5.578.008 5.578.01Zm.01-6.459-.002 1.077-5.578-.01c-1.468-.001-2.789-.003-5.578-.008-2.788-.004-4.256-.222-5.577-.224-1.32-.217-2.789-.22-5.578-.224l-5.577-.009-5.578-.008c-2.789-.005-4.256-.223-5.578-.225-1.32-.217-2.788-.22-5.577-.224l-5.578-.008-5.578-.01c-2.789-.004-4.256-.006-5.578.207-1.32-.002-2.789.211-5.578.207-2.789-.004-4.256-.222-5.577-.224-1.321-.218-2.789-.22-5.578-.224l-5.578-.009-5.577-.009.001-1.076 5.578.008 5.578.01c2.789.004 4.256.221 5.577.223 1.321.218 2.789.22 5.578.224 2.789.005 4.256.007 5.578-.206 1.321.002 2.79-.211 5.578-.207l5.578.01c1.468.001 2.789.004 5.578.008 2.788.004 4.256.222 5.577.224 1.32.217 2.789.22 5.577.224l5.578.009 5.578.009c2.789.004 4.257.222 5.578.224 1.32.217 2.788.22 5.577.224l5.578.008 5.578.01Zm.013-8.396-.002 1.076c-2.789-.004-4.256-.222-5.577-.439-1.32-.217-2.788-.435-5.577-.44-2.789-.004-4.257-.006-5.578-.223-1.32-.002-2.788-.22-5.577-.224-2.789-.005-4.257-.007-5.578.206-1.321-.002-2.79.211-5.578.207-2.79-.005-4.257.208-5.578.206-1.322.213-2.79.211-5.578.207-2.79-.005-4.258.208-5.579.421-1.321.214-2.79.427-5.578.422l-5.578-.009-5.578-.008c-2.789-.005-4.257.208-5.578.206-1.322.213-2.79.211-5.578.207-2.79-.005-4.256-.653-5.723-1.086-1.467-.648-2.787-1.08-5.43-1.085l.002-1.076c2.789.004 4.256.652 5.723 1.085 1.467.648 2.787 1.081 5.43 1.085 2.788.005 4.256-.208 5.577-.206 1.322-.213 2.79-.211 5.579-.207l5.577.01c1.468.001 2.79.003 5.578.008 2.79.004 4.257-.209 5.579-.422 1.321-.213 2.79-.426 5.578-.422 2.789.005 4.257-.208 5.578-.206 1.322-.213 2.79-.211 5.578-.207 2.79.005 4.257.007 5.579-.206 1.32.002 2.789-.211 5.578-.207 2.789.005 4.256.007 5.577.224 1.321.002 2.789.22 5.578.224 2.788.005 4.256.222 5.577.44 1.467.217 2.788.435 5.577.439Zm.014-9.042-.002 1.076c-2.789-.004-4.11.424-5.579.637-1.321.429-2.79.642-5.725.637-2.789-.004-4.257-.222-5.577-.44-1.32-.217-2.788-.434-5.577-.439-2.79-.004-4.257.21-5.579.422-1.321.214-2.79.427-5.578.422-2.79-.004-4.257-.222-5.577-.654-1.32-.218-2.788-.435-5.577-.44-2.79-.004-4.257.209-5.579.422-1.321.213-2.79.426-5.578.422l-5.578-.009-5.578-.009c-2.789-.004-4.256-.222-5.577-.224-1.32-.217-2.789-.22-5.578-.224-2.789-.004-4.257.209-5.578.207-1.321.213-2.789.21-5.578.206L.387 65.4c2.789.004 4.257-.209 5.578-.207 1.321-.213 2.79-.21 5.578-.206 2.789.004 4.257.222 5.578.224 1.32.217 2.788.22 5.577.224l5.578.008 5.578.01c2.788.004 4.257-.21 5.578-.422 1.321-.214 2.79-.427 5.578-.422 2.79.004 4.257.222 5.577.654 1.321.218 2.788.435 5.577.44 2.79.004 4.258-.209 5.579-.422 1.321-.213 2.79-.426 5.578-.422 2.79.004 4.257.222 5.578.44 1.32.217 2.788.434 5.577.439 2.788.004 4.11-.424 5.578-.637 1.469-.213 2.937-.642 5.726-.637Zm.01-5.813-.003 1.076c-2.788-.004-4.256-.437-5.723-.655-1.32-.217-2.788-.65-5.577-.654-2.789-.005-4.257.208-5.578.422-1.322.213-2.79.426-5.579.421-2.789-.004-4.257-.006-5.577-.224-1.321-.217-2.789-.22-5.578-.224-2.789-.004-4.257.209-5.578.422-1.322.213-2.79.426-5.579.422l-5.578-.009-5.577-.009-11.156-.017c-2.789-.005-4.256-.438-5.723-.87-1.467-.433-2.788-.866-5.577-.87l-5.577-.01c-1.468-.001-2.79-.004-5.578-.008l.002-1.292 5.578.01c1.468.001 2.789.003 5.577.008 2.79.004 4.256.437 5.724.87 1.467.433 2.787.866 5.576.87l11.156.017 5.578.01 5.577.008c2.79.005 4.257-.208 5.579-.422 1.321-.213 2.79-.426 5.578-.422 2.79.005 4.257.007 5.578.224 1.32.003 2.788.22 5.577.225 2.79.004 4.257-.209 5.579-.422 1.321-.213 2.79-.426 5.578-.422 2.789.004 4.256.437 5.724.655 1.467.433 2.787.865 5.576.87Zm.015-10.12-.002 1.077c-2.789-.004-4.11.425-5.579.853-1.468.428-2.79.857-5.726.852-2.789-.004-4.256-.437-5.723-.87-1.467-.433-2.788-.866-5.576-.87l-5.578-.009-5.578-.009c-2.789-.004-4.257-.006-5.578.207-1.321-.002-2.79.21-5.578.206-2.79-.004-4.257-.006-5.578-.224-1.32-.002-2.788-.22-5.577-.224l-5.578-.008-5.578-.01c-2.789-.004-4.256-.006-5.577-.223-1.321-.002-2.789-.22-5.578-.224-2.789-.005-4.257.208-5.578.206-1.321.213-2.79.211-5.578.207l.002-1.077c2.789.005 4.257-.208 5.578-.206 1.321-.214 2.79-.211 5.578-.207 2.789.005 4.257.007 5.577.224 1.322.002 2.789.22 5.578.224l5.578.009 5.578.009c2.788.004 4.256.007 5.577.224 1.321.002 2.788.22 5.577.224 2.79.004 4.257.007 5.579-.207 1.32.003 2.789-.21 5.578-.206l5.578.009 5.577.008c2.79.005 4.256.438 5.724.87 1.467.433 2.787.866 5.576.87 2.789.005 4.11-.424 5.58-.852 1.468-.428 2.936-.857 5.725-.852Zm.01-6.242-.002 1.076c-2.789-.004-4.256-.222-5.577-.224-1.321-.217-2.789-.22-5.578-.224-2.789-.004-4.256-.222-5.577-.44-1.32-.217-2.788-.434-5.577-.439l-5.578-.008-5.578-.01-5.577-.008-5.578-.009c-2.79-.004-4.11.424-5.58 1.068-1.468.428-2.79 1.072-5.726 1.067-2.789-.004-4.257-.006-5.577-.224-1.322-.002-2.789-.22-5.578-.224-2.789-.004-4.256-.222-5.577-.224-1.321-.217-2.789-.22-5.578-.224-2.789-.004-4.256-.222-5.577-.44-1.32-.217-2.788-.434-5.577-.439l.002-1.076c2.789.004 4.256.222 5.577.44 1.32.217 2.788.434 5.577.439 2.789.004 4.256.222 5.577.224 1.321.217 2.789.22 5.578.224 2.789.004 4.257.006 5.577.224 1.321.002 2.789.22 5.578.224 2.789.004 4.11-.424 5.58-1.068 1.468-.428 2.79-1.072 5.725-1.067l5.578.008 5.578.01 5.578.008 5.578.009c2.789.004 4.256.222 5.577.44 1.32.216 2.788.434 5.577.438 2.789.005 4.256.223 5.577.225 1.468.002 2.789.22 5.578.224Zm.015-9.473-.002 1.076c-2.789-.004-4.257-.006-5.578.207-1.321-.002-2.79.21-5.578.206-2.79-.004-4.11.424-5.58.853-1.468.428-2.79.856-5.725.852-2.79-.005-4.257-.222-5.577-.655-1.32-.217-2.788-.65-5.577-.654-2.789-.005-4.256-.223-5.577-.44-1.32-.217-2.788-.435-5.577-.44-2.789-.004-4.257.21-5.578.423-1.322.213-2.79.426-5.579.421l-5.578-.008-5.578-.01c-2.788-.004-4.257.21-5.578.423-1.321.213-2.79.426-5.579.421-2.788-.004-4.256-.006-5.577-.224-1.321-.002-2.789-.22-5.577-.224l.001-1.076c2.79.004 4.257.007 5.578.224 1.32.002 2.788.22 5.577.224 2.79.004 4.257-.209 5.579-.422 1.321-.213 2.79-.426 5.578-.422l5.578.01 5.578.008c2.789.004 4.257-.209 5.578-.422 1.322-.213 2.79-.426 5.579-.422 2.789.005 4.256.222 5.577.44 1.32.217 2.788.435 5.577.439 2.789.004 4.256.222 5.577.655 1.32.217 2.788.65 5.576.654 2.79.005 4.111-.424 5.58-.852 1.468-.428 2.79-.857 5.726-.852 2.788.004 4.256.006 5.578-.207 1.468-.213 2.789-.21 5.578-.206Zm.011-7.32-.001 1.076c-2.79-.004-4.257.209-5.579.422-1.321.213-2.79.426-5.578.422-2.79-.005-4.257-.222-5.577-.44-1.321-.217-2.789-.434-5.578-.439-2.788-.004-4.257.209-5.578.207-1.321.213-2.789.21-5.578.206-2.789-.004-4.257.209-5.578.422-1.322.213-2.79.426-5.579.422-2.789-.005-4.256-.438-5.723-1.086-1.467-.433-2.787-1.08-5.576-1.085-2.789-.004-4.256-.007-5.578.207-1.32-.003-2.79.21-5.578.206-2.789-.004-4.257.209-5.579.422-1.32.213-2.79.426-5.578.422-2.789-.005-4.256-.222-5.577-.44-1.468-.002-2.935-.22-5.724-.224l.001-1.076c2.79.004 4.257.222 5.577.439 1.321.217 2.789.435 5.578.44 2.788.004 4.257-.21 5.578-.422 1.322-.214 2.79-.427 5.579-.422 2.789.004 4.256.006 5.578-.207 1.32.002 2.789-.21 5.578-.206 2.789.004 4.256.437 5.723 1.085 1.467.433 2.787 1.081 5.576 1.085 2.789.005 4.257-.208 5.578-.421 1.322-.214 2.79-.427 5.579-.422 2.789.004 4.257-.209 5.578-.207 1.321-.213 2.79-.21 5.578-.206 2.789.004 4.256.222 5.577.44 1.32.216 2.788.434 5.577.438 2.79.005 4.257-.208 5.579-.421 1.468-.429 2.936-.642 5.725-.637Zm.012-7.535-.002 1.076c-2.788-.004-4.257.209-5.578.422-1.321.213-2.79.426-5.578.422l-5.578-.01-5.578-.008c-2.789-.004-4.257-.222-5.577-.44-1.321-.217-2.789-.434-5.577-.439-2.79-.004-4.257-.222-5.578-.439-1.32-.217-2.788-.435-5.577-.44-2.788-.004-4.257.21-5.578.207-1.321.213-2.789.211-5.578.207-2.789-.005-4.256-.222-5.577-.224-1.321-.218-2.789-.22-5.578-.224-2.789-.005-4.256-.007-5.578.206-1.321-.002-2.79.211-5.578.207l-5.578-.01-5.578-.008.002-1.076 5.578.008 5.578.01c2.789.003 4.256.006 5.578-.207 1.32.002 2.789-.211 5.578-.207 2.789.005 4.256.222 5.577.224 1.174.648 2.641.866 5.43.87 2.789.004 4.257-.209 5.578-.207 1.322-.213 2.79-.21 5.578-.206 2.79.004 4.257.222 5.577.44 1.321.217 2.789.434 5.578.439 2.788.004 4.256.221 5.577.439 1.32.217 2.788.435 5.577.44l5.578.008 5.577.009c2.79.004 4.257-.209 5.579-.422 1.469-.859 2.937-1.072 5.726-1.068Zm.013-8.397-.001 1.077c-2.79-.005-4.257-.222-5.578-.44-1.32-.217-2.788-.435-5.577-.44-2.788-.004-4.11.425-5.58 1.069-1.468.428-2.79 1.072-5.725 1.067-2.79-.004-4.257-.222-5.577-.655-1.32-.217-2.788-.435-5.577-.439-2.79-.004-4.257-.222-5.578-.224-1.32-.217-2.788-.22-5.577-.224-2.79-.004-4.257.209-5.579.422-1.321.213-2.79.426-5.578.421-2.789-.004-4.257.21-5.578.207-1.322.213-2.79.21-5.578.207-2.79-.005-4.257-.222-5.578-.44-1.32-.217-2.788-.435-5.577-.44-2.789-.004-4.256-.221-5.577-.438-1.32-.218-2.788-.435-5.577-.44l.001-.646c2.789.005 4.257.222 5.577.44 1.321.217 2.788.435 5.577.439 2.79.004 4.257.222 5.577.44 1.321.217 2.789.434 5.578.439 2.789.004 4.257-.209 5.578-.207 1.321-.213 2.789-.21 5.578-.206 2.789.004 4.257-.209 5.578-.422 1.322-.213 2.79-.426 5.579-.422 2.789.004 4.256.222 5.577.224 1.321.217 2.789.22 5.578.224 2.789.005 4.256.222 5.576.655 1.321.217 2.789.435 5.578.44 2.788.004 4.11-.425 5.58-1.069 1.468-.428 2.79-1.072 5.725-1.067 2.79.004 4.257.222 5.578.44 1.468-.214 2.788.004 5.577.008Zm.012-7.535-.002 1.076c-2.788-.004-4.256-.006-5.578.207-1.32-.002-2.789.21-5.578.206-2.789-.004-4.256-.222-5.577-.224-1.321-.217-2.789-.22-5.578-.224-2.789-.004-4.11.21-5.578.637-1.322.214-2.79.642-5.726.637-2.789-.004-4.256-.437-5.723-1.085-1.467-.433-2.787-.866-5.576-.87-2.79-.004-4.111.424-5.58.852-1.321.429-2.79.857-5.725.852a1273124.313 1273124.313 0 0 1-16.734-.026l-5.578-.009C8.556 4.053 7.09 3.62 5.622 2.972 4.155 2.539 2.835 1.89.046 1.887L.048.81c2.789.005 4.256.437 5.723 1.086 1.467.433 2.787 1.08 5.576 1.085l5.578.009 5.578.008 5.577.01 5.578.008c2.79.004 4.11-.424 5.58-.852 1.321-.429 2.79-.857 5.725-.853 2.79.005 4.256.438 5.723 1.086 1.467.433 2.788.865 5.577.87 2.788.004 4.11-.209 5.578-.637 1.322-.213 2.79-.642 5.726-.637 2.789.004 4.256.222 5.578.224 1.32.217 2.788.22 5.577.224 2.789.004 4.257.007 5.578-.207 1.321-.213 2.79-.21 5.578-.206Z" fill="#000" opacity=".19"/><path fill="#F9F5F2" d="M147.502 41.732c1.468.003 2.639 1.727 2.636 3.88-.003 2.153-1.18 3.873-2.648 3.87-1.468-.001-2.64-1.726-2.636-3.879.003-2.153 1.18-3.873 2.648-3.87Z"/></g><defs><clipPath id="a"><path fill="#fff" d="M0 218.041.342.811l174.672.275-.341 217.23z"/></clipPath></defs></svg>