<svg xmlns="http://www.w3.org/2000/svg" width="256" height="291" fill="none"><g clip-path="url('#a')"><path fill="#4768BD" d="M.928 234.91c7.605 7.035 18.55 9.626 28.939 9.071 10.388-.555 20.405-3.888 30.237-7.22l77.913-26.101c7.792-2.591 15.769-5.368 22.076-10.551 15.397-12.588 16.51-35.357 16.324-55.349-.185-32.025-.556-64.05-.742-96.075-.185-15.92-1.484-34.431-14.469-43.687-9.276-6.664-22.076-6.479-32.835-2.221-11.13 4.442-19.664 16.105-31.35 18.326-14.656 2.962-24.859.185-38.03 10.366-10.76 8.7-19.107 19.808-29.495 28.508C19.293 68.677 6.864 75.342 0 86.634"/><path fill="#000" fill-opacity=".19" d="M251.362 229.172c-1.298.185-2.597.37-5.008 1.296-2.412.74-3.711 1.295-4.824 1.666-1.113.37-2.411.925-4.823 1.666-2.411.74-3.71 1.296-4.823 1.851-1.113.555-2.412.925-4.823 1.851-2.412.74-3.71 1.296-4.823 1.851-1.113.556-2.412.926-4.824 1.851-2.411.741-3.71 1.111-5.008 1.481-1.299.37-2.412.741-4.823 1.481-2.412.741-3.711 1.111-5.009 1.481-1.299.37-2.412.741-5.009 1.481-2.411.74-3.71 1.111-4.823 1.666-1.299.37-2.412.74-5.009 1.666-2.411.741-3.71 1.111-5.008 1.481-1.299.37-2.412.555-5.009 1.481-2.412.74-3.71 1.296-4.823 1.851-1.113.555-2.412 1.111-4.823 1.851-2.412.741-3.711 1.296-4.824 1.666-1.113.37-2.411.926-4.823 1.666a218.29 218.29 0 0 1-5.009 1.481c-1.298.37-2.411.555-5.008 1.481-2.412.741-3.525 1.296-4.823 1.851-1.113.556-2.412 1.111-4.824 2.036-2.411.741-3.895 1.111-5.194 1.296-1.298.185-2.597.37-5.008 1.111-2.412.74-3.711 1.296-4.824 1.666-1.113.555-2.411.926-4.823 1.851-2.411.741-3.71 1.111-5.009 1.296-1.298.185-2.597.37-5.008 1.296a24.968 24.968 0 0 0-4.452 2.221c-1.484.926-2.969 1.666-4.638 2.221-1.67.556-3.34.741-5.009.926-1.67.185-3.339.37-4.823.926-1.67.555-3.154 1.11-4.823 1.666-1.484.555-3.154 1.11-4.638 1.666-1.67.555-3.154.925-4.823 1.481-1.67.555-3.154.925-4.823 1.481-1.484.555-3.154.925-4.638 1.48"/><path fill="#000" fill-opacity=".19" d="M61.217 290.26c1.67-.556 3.154-1.111 4.824-1.481 1.484-.556 3.153-.926 4.637-1.481 1.67-.556 3.34-1.111 4.823-1.481 1.67-.556 3.154-.926 4.824-1.481 1.484-.555 3.153-1.111 4.637-1.666 1.67-.556 3.154-1.111 4.823-1.666 1.67-.556 3.34-.741 5.01-.926 1.669-.185 3.338-.37 4.822-.925a24.993 24.993 0 0 0 4.453-2.222c1.484-.925 2.968-1.666 4.637-2.221 2.412-.741 3.896-1.111 5.009-1.296 1.299-.185 2.597-.37 5.009-1.296 2.411-.74 3.71-1.295 4.823-1.666 1.113-.555 2.411-.925 4.823-1.851 2.412-.74 3.896-1.111 5.194-1.296 1.299-.185 2.597-.37 5.009-1.11 2.412-.741 3.525-1.296 4.823-1.852 1.113-.555 2.412-1.11 4.823-2.036 2.412-.74 3.71-1.11 5.009-1.481 1.299-.37 2.412-.555 5.009-1.481 2.411-.74 3.71-1.295 4.823-1.666 1.113-.37 2.411-.925 4.823-1.666 2.412-.74 3.71-1.295 4.823-1.851 1.113-.555 2.412-1.11 4.823-1.851 2.412-.74 3.711-1.111 5.009-1.481 1.299-.37 2.412-.555 5.009-1.481 2.411-.74 3.71-1.296 5.009-1.666 1.298-.37 2.411-.74 4.823-1.666 2.411-.74 3.71-1.111 5.008-1.481 1.299-.37 2.412-.74 4.824-1.481 2.411-.74 3.71-1.11 5.008-1.481 1.299-.37 2.412-.74 4.824-1.481 2.411-.74 3.71-1.295 4.823-1.851 1.113-.555 2.411-.925 4.823-1.851 2.411-.74 3.71-1.296 4.823-1.851 1.113-.555 2.412-.926 4.823-1.851 2.412-.741 3.71-1.296 4.823-1.666 1.113-.37 2.412-.926 4.824-1.666 2.411-.741 3.895-1.111 5.008-1.296m2.968-7.59c-2.411.741-3.524 1.296-4.823 1.852-1.113.555-2.411 1.11-4.823 2.036-2.412.74-3.525 1.296-4.823 1.851-1.113.555-2.412 1.111-4.823 2.036-2.412.741-3.71 1.111-5.009 1.296-1.299.185-2.597.555-5.009 1.296-2.411.74-3.71 1.111-5.008 1.296-1.299.185-2.597.555-5.009 1.295-2.412.741-3.71 1.111-4.823 1.666-1.299.371-2.412.741-4.823 1.667-2.412.74-3.711 1.295-4.824 1.851-1.113.555-2.411 1.11-4.823 1.851-2.411.74-3.71 1.296-4.823 1.666-1.299.37-2.412.925-4.823 1.666-2.412.74-3.71 1.296-4.823 1.851-1.113.555-2.412.926-4.824 1.851-2.411.741-3.71 1.111-5.008 1.481-1.299.37-2.412.555-5.009 1.481-2.412.74-3.71 1.296-4.823 1.851-1.113.555-2.412 1.111-4.823 1.851-2.412.741-3.711 1.296-4.824 1.666-1.298.371-2.411.926-4.823 1.666-2.411.741-3.71 1.111-5.008 1.296-1.299.185-2.598.555-5.009 1.296-2.412.74-3.896 1.111-5.009 1.296-1.298.185-2.597.37-5.009 1.296-2.411.74-3.524 1.48-4.637 2.036-1.113.74-2.226 1.296-4.823 2.221-2.412.741-3.711 1.296-4.824 1.666-1.298.37-2.411.926-4.823 1.666-1.669.556-3.339.741-5.194.926-1.67.185-3.34.37-4.823.925-1.484.556-3.154.926-4.638 1.481-1.67.556-3.339 1.111-4.823 1.666-1.484.556-2.968 1.481-4.452 2.222-1.484.925-2.968 1.851-4.638 2.406-1.67.556-3.153 1.111-4.823 1.666-1.484.556-3.154 1.296-4.638 1.666-1.67.556-3.524.741-5.194.741-1.67.185-3.34.185-5.009.74-1.67.556-3.153 1.296-4.637 1.851-1.484.741-3.154 1.296-4.638 1.851-1.67.556-3.154.926-4.823 1.481"/><path fill="#000" fill-opacity=".19" d="M39.884 290.074c1.67-.555 3.34-1.11 4.823-1.481 1.484-.37 3.154-.925 4.823-1.48 1.484-.556 3.154-1.111 4.638-1.852 1.484-.74 3.154-1.295 4.823-1.851 1.67-.555 3.525-.74 5.195-.74 1.669-.185 3.339-.185 5.008-.741 1.484-.555 3.154-1.11 4.638-1.666 1.484-.555 3.154-1.295 4.823-1.666a24.969 24.969 0 0 0 4.452-2.221c1.484-.926 2.968-1.851 4.638-2.407 1.67-.555 3.339-1.11 4.823-1.666 1.484-.555 3.154-.925 4.638-1.481 1.67-.555 3.339-.74 5.194-.925 1.67-.185 3.339-.37 5.009-.926 2.411-.74 3.71-1.295 4.823-1.666 1.298-.37 2.411-.925 4.823-1.666 2.412-.74 3.525-1.481 4.638-2.036 1.113-.74 2.226-1.296 4.823-2.221 2.412-.741 3.896-1.111 5.009-1.296 1.298-.185 2.597-.37 5.008-1.296 2.412-.74 3.71-1.111 5.009-1.296 1.299-.185 2.597-.555 5.009-1.296 2.411-.74 3.71-1.295 4.823-1.666 1.298-.37 2.411-.925 4.823-1.666 2.412-.74 3.71-1.295 4.823-1.851 1.113-.555 2.412-1.11 4.823-1.851 2.412-.74 3.711-1.111 5.009-1.481 1.299-.37 2.412-.555 5.009-1.481 2.411-.74 3.71-1.296 4.823-1.851 1.113-.555 2.412-.925 4.823-1.851 2.412-.74 3.71-1.296 4.823-1.666 1.299-.37 2.412-.926 4.824-1.666 2.411-.741 3.71-1.296 4.823-1.851 1.113-.556 2.411-1.111 4.823-1.851 2.412-.741 3.71-1.111 5.009-1.666 1.298-.371 2.411-.741 4.823-1.666 2.411-.741 3.71-1.111 5.009-1.296 1.298-.185 2.597-.556 5.008-1.296 2.412-.741 3.71-1.111 5.009-1.296 1.299-.185 2.597-.555 5.009-1.296 2.411-.74 3.524-1.295 4.637-1.851 1.113-.555 2.412-1.11 4.824-2.036 2.411-.741 3.524-1.296 4.823-1.851 1.113-.556 2.411-1.111 4.823-2.036m-2.041-5.369c-2.411.741-3.71 1.296-4.823 1.851-1.113.556-2.412 1.111-4.823 1.851-2.412.741-3.71 1.296-4.823 1.666-1.299.371-2.412.926-4.823 1.666-2.412.741-3.711 1.111-5.009 1.481-1.299.371-2.412.741-4.823 1.481-2.412.741-3.525 1.296-4.638 2.037-1.113.555-2.412 1.295-4.823 2.036-2.412.74-3.896 1.111-5.009 1.296-1.298.185-2.597.37-5.009 1.295-2.411.741-3.71 1.111-5.008 1.296-1.299.185-2.597.556-5.009 1.296-2.412.74-3.525 1.481-4.638 2.036-1.113.741-2.411 1.296-4.823 2.222-2.411.74-3.896.925-5.194 1.11-1.299.185-2.597.185-5.009 1.111-2.411.74-3.71 1.296-4.823 1.666-1.113.37-2.412.926-4.823 1.666-2.412.741-3.71 1.296-4.823 1.666-1.299.37-2.412.926-4.824 1.666-2.411.741-3.71 1.111-5.008 1.481-1.299.37-2.412.741-4.823 1.481-2.412.74-3.525 1.481-4.638 2.036-1.113.556-2.412 1.296-4.823 2.037-2.412.74-3.896.925-5.194 1.295-1.299.185-2.598.371-5.009 1.111-2.412.74-3.525 1.481-4.638 2.221-1.113.741-2.226 1.481-4.823 2.407-2.597.74-3.896.925-5.194.925-1.299 0-2.597.186-5.009.926-1.67.555-3.154 1.111-4.823 1.666-1.67.555-3.154 1.111-4.823 1.666-1.484.555-3.154 1.296-4.638 1.851a50.235 50.235 0 0 1-4.638 2.036c-1.484.556-3.153 1.111-4.637 1.481-1.67.556-3.34 1.111-4.824 1.666-1.67.556-3.153 1.111-4.823 1.666-1.484.556-3.153 1.111-4.637 1.666-1.67.556-3.34.741-5.01.926-1.669.185-3.338.37-4.822.926-1.484.555-3.154 1.295-4.453 2.221-1.484.74-2.968 1.666-4.637 2.221-1.67.556-3.154.926-4.823 1.481-1.67.371-3.34.926-4.824 1.481-1.67.556-3.339.926-4.823 1.296-1.67.37-3.339.926-4.823 1.296-1.67.555-3.154 1.296-4.638 1.851"/><path fill="#000" fill-opacity=".19" d="M18.736 291c1.484-.555 3.154-1.296 4.638-1.851 1.484-.741 3.154-1.481 4.823-2.036 1.67-.556 3.34-.926 4.823-1.481 1.67-.37 3.154-.926 4.823-1.296 1.67-.555 3.34-.926 4.824-1.481 1.484-.37 3.153-.926 4.823-1.481a24.97 24.97 0 0 0 4.452-2.221c1.484-.741 2.968-1.666 4.638-2.222 1.67-.555 3.339-.74 5.008-.925 1.67-.185 3.34-.37 4.824-.926 1.484-.555 3.153-1.11 4.637-1.666 1.484-.555 3.154-1.296 4.823-1.666l5.01-1.666c1.483-.555 3.153-.925 4.637-1.481 1.484-.555 3.153-1.296 4.637-1.851a50.506 50.506 0 0 1 4.638-2.036c1.484-.555 3.154-1.111 4.823-1.666 1.67-.556 3.154-1.111 4.824-1.666 2.597-.741 3.895-.926 5.194-.926 1.298 0 2.597-.185 5.008-.925 2.412-.741 3.525-1.481 4.638-2.222 1.113-.74 2.226-1.481 4.823-2.406 2.412-.741 3.896-.926 5.195-1.296 1.298-.185 2.597-.37 5.008-1.111 2.412-.74 3.525-1.481 4.638-2.036 1.113-.555 2.412-1.296 4.823-2.036a219.82 219.82 0 0 1 5.009-1.481c1.298-.37 2.411-.741 4.823-1.481 2.412-.741 3.71-1.296 4.823-1.666 1.299-.37 2.412-.926 4.823-1.666 2.412-.741 3.711-1.296 4.824-1.666 1.113-.37 2.411-.926 4.823-1.666 2.411-.741 3.895-.926 5.194-1.111 1.298-.185 2.597-.185 5.009-1.111 2.411-.74 3.524-1.48 4.637-2.036 1.113-.74 2.412-1.296 4.824-2.221 2.411-.741 3.71-1.111 5.008-1.296 1.299-.185 2.597-.555 5.009-1.296 2.411-.74 3.896-1.11 5.009-1.296 1.298-.185 2.597-.37 5.008-1.295 2.412-.741 3.525-1.296 4.638-2.037 1.113-.555 2.412-1.295 4.823-2.036 2.412-.74 3.71-1.111 5.009-1.481 1.298-.37 2.411-.74 4.823-1.481 2.412-.74 3.71-1.296 4.823-1.666 1.299-.37 2.412-.925 4.823-1.666 2.412-.74 3.711-1.296 4.824-1.851 1.113-.555 2.411-1.111 4.823-1.851m3.71-6.849c-1.113.555-2.412 1.295-4.823 2.036-2.412.74-3.71 1.11-5.009 1.481-1.298.37-2.411.74-5.009 1.481-2.411.74-3.71 1.11-5.008 1.481-1.299.37-2.597.555-5.009 1.295-2.412.741-3.525 1.481-4.638 2.037-1.113.555-2.411 1.295-4.823 2.036-2.411.74-3.71 1.111-5.009 1.296-1.298.185-2.597.555-5.008 1.295-2.412.741-3.71 1.296-5.009 1.666-1.113.371-2.412.741-4.823 1.667-2.412.74-3.71 1.295-4.823 1.851-1.113.555-2.412 1.11-4.823 1.851-2.412.74-3.711 1.111-5.009 1.481-1.299.37-2.597.555-5.009 1.296-2.411.74-3.71 1.295-4.823 1.666-1.113.37-2.412.925-4.823 1.666-2.412.74-3.71 1.11-5.009 1.295-1.299.186-2.597.556-5.009 1.296-2.411.741-3.71 1.111-5.008 1.481-1.299.37-2.412.555-5.009 1.481-2.412.74-3.525 1.481-4.638 2.036-1.113.741-2.226 1.296-4.823 2.222-2.412.74-3.71 1.295-4.823 1.666-1.299.37-2.412.925-4.823 1.666-2.412.74-3.896.925-5.195 1.11-1.298.186-2.597.371-5.008 1.111-2.412.741-3.71 1.296-4.823 1.851-1.113.556-2.412.926-4.824 1.851-2.411.741-3.71 1.111-5.008 1.481-1.299.371-2.412.741-5.009 1.481-1.67.556-3.154 1.111-4.823 1.481-1.67.555-3.34 1.111-4.823 1.666-1.67.555-3.34.926-4.824 1.296-1.67.37-3.339.74-4.823 1.296a50.506 50.506 0 0 0-4.637 2.036c-1.484.74-2.969 1.666-4.638 2.221-1.67.556-3.154 1.111-4.823 1.666-1.484.556-3.154 1.111-4.638 1.666-1.67.556-3.34.926-5.009 1.111-1.67.37-3.339.555-4.823 1.111-1.67.555-3.525 1.111-5.194 1.666-1.484.555-2.968.925-4.452 1.481a50.506 50.506 0 0 0-4.638 2.036c-1.484.74-2.968 1.666-4.638 2.036-1.67.556-3.153.926-4.823 1.481-1.67.37-3.339.926-4.823 1.481a24.37 24.37 0 0 1-5.009 1.111c-1.67.37-3.339.555-4.823 1.111"/><path fill="#000" fill-opacity=".19" d="M21.148 282.67c1.67-.37 3.339-.555 4.823-1.111 1.67-.555 3.34-1.111 4.823-1.481 1.484-.37 3.154-.925 4.823-1.481 1.485-.555 3.154-1.295 4.453-2.036 1.484-.74 3.153-1.666 4.637-2.221 1.484-.556 2.968-.926 4.452-1.481 1.67-.556 3.525-1.111 5.195-1.666a24.29 24.29 0 0 1 5.008-1.111c1.67-.37 3.34-.555 4.824-1.111 1.484-.555 3.153-1.11 4.637-1.666 1.484-.555 3.154-1.11 4.823-1.666 1.484-.555 3.154-1.295 4.453-2.036 1.484-.74 2.968-1.666 4.637-2.221 1.67-.556 3.34-.926 4.823-1.296 1.67-.37 3.34-.741 4.824-1.296 1.67-.555 3.339-1.111 4.823-1.666 1.67-.555 3.153-1.111 4.823-1.481 2.412-.74 3.71-1.111 5.009-1.481 1.298-.37 2.411-.74 4.823-1.481 2.411-.74 3.71-1.295 4.823-1.851 1.113-.555 2.412-.925 4.823-1.851 2.412-.74 3.896-.926 5.194-1.111 1.299-.185 2.598-.37 5.009-1.11 2.412-.741 3.71-1.296 4.823-1.666 1.299-.371 2.412-.926 4.823-1.666 2.412-.741 3.525-1.481 4.638-2.037 1.113-.74 2.226-1.295 4.823-2.221 2.412-.741 3.711-1.111 5.009-1.481 1.299-.37 2.412-.555 5.009-1.481 2.411-.74 3.71-1.111 5.008-1.296 1.299-.185 2.598-.555 5.009-1.295 2.412-.741 3.71-1.296 4.823-1.667 1.113-.37 2.412-.925 4.824-1.666 2.411-.74 3.71-1.11 5.008-1.48 1.299-.371 2.597-.556 5.009-1.296 2.412-.741 3.71-1.296 4.823-1.851 1.113-.556 2.412-1.111 4.823-1.852 2.412-.74 3.71-1.11 4.823-1.666 1.299-.37 2.412-.74 5.009-1.666 2.412-.74 3.71-1.11 5.009-1.295 1.298-.186 2.597-.556 5.009-1.296 2.411-.741 3.524-1.481 4.637-2.036 1.113-.556 2.412-1.296 4.823-2.037 2.412-.74 3.711-1.11 5.009-1.481 1.299-.37 2.597-.555 5.009-1.295a218.29 218.29 0 0 1 5.009-1.481c1.298-.371 2.411-.741 5.008-1.481 2.412-.741 3.525-1.481 4.638-2.037m-1.299-5.738c-1.113.555-2.411 1.111-4.823 2.036-2.411.741-3.895.926-5.194 1.111-1.299.185-2.597.37-5.009 1.111-2.411.74-3.71 1.295-4.823 1.666-1.113.37-2.412.925-4.823 1.666-2.412.74-3.71 1.11-5.009 1.481-1.298.37-2.411.74-5.009 1.48-2.411.741-3.71 1.111-5.008 1.296-1.299.185-2.597.556-5.009 1.296-2.411.741-3.525 1.481-4.638 2.221-1.113.741-2.226 1.481-4.823 2.407l-9.832 3.332c-2.411.74-3.895.926-5.194 1.111-1.298.185-2.597.185-5.009 1.11-2.411.741-3.524 1.296-4.637 2.037-1.113.555-2.412 1.295-4.823 2.036-2.412.74-3.711 1.111-5.009 1.481-1.299.37-2.412.555-5.009 1.481-2.411.74-3.71 1.11-5.009 1.481-1.298.37-2.411.555-5.008 1.295-2.412.741-3.525 1.296-4.823 1.852-1.113.555-2.412 1.11-4.824 1.851-2.411.74-3.71 1.296-4.823 1.666-1.113.37-2.411.925-4.823 1.666-2.412.74-3.71 1.11-5.009 1.296-1.298.185-2.597.37-5.008 1.295-2.412.741-3.71 1.296-4.824 1.666-1.113.556-2.411.926-4.823 1.666-2.411.741-3.524 1.296-4.823 1.852-1.113.555-2.412 1.11-4.823 2.036-1.67.555-3.34.925-4.823 1.481-1.67.37-3.34.925-4.823 1.481-1.67.555-3.34.925-5.01 1.296-1.669.37-3.338.74-4.822 1.11a50.779 50.779 0 0 0-4.638 2.036c-1.484.741-2.968 1.666-4.638 2.222-1.67.555-3.339.74-5.008 1.111-1.67.185-3.34.555-4.824 1.11-1.67.556-3.153 1.296-4.637 1.851a50.506 50.506 0 0 1-4.638 2.037c-1.67.555-3.154 1.295-4.638 1.851-1.484.74-3.153 1.296-4.637 1.851-1.67.555-3.154.925-4.823 1.481-1.67.37-3.34.925-4.824 1.481a24.35 24.35 0 0 1-5.008 1.11c-1.67.371-3.34.556-4.824 1.111a50.506 50.506 0 0 0-4.637 2.036"/><path fill="#000" fill-opacity=".19" d="M18.736 276.376c1.484-.741 3.154-1.666 4.638-2.221a24.291 24.291 0 0 1 5.009-1.111c1.67-.37 3.339-.555 4.823-1.111 1.67-.555 3.339-1.11 4.823-1.481 1.67-.37 3.154-.925 4.823-1.481 1.484-.555 3.154-1.295 4.638-1.851 1.484-.74 3.154-1.296 4.823-1.851 1.484-.555 3.154-1.296 4.638-1.851 1.484-.741 3.153-1.481 4.823-2.036 1.67-.556 3.339-.741 5.009-1.111 1.67-.185 3.339-.555 4.823-1.111 1.484-.555 3.153-1.296 4.452-2.036 1.484-.74 2.968-1.666 4.638-2.221 1.67-.556 3.339-.926 5.008-1.296 1.67-.37 3.34-.741 4.824-1.111 1.67-.555 3.339-.925 4.823-1.481 1.67-.37 3.153-.925 4.823-1.481 2.411-.74 3.525-1.295 4.823-1.851 1.113-.555 2.412-1.111 4.823-2.036 2.412-.741 3.71-1.296 4.823-1.666 1.113-.555 2.412-.926 4.824-1.666 2.411-.741 3.71-1.111 5.008-1.296 1.299-.185 2.597-.37 5.009-1.296 2.412-.74 3.71-1.296 4.823-1.666 1.113-.37 2.412-.925 4.823-1.666 2.412-.74 3.525-1.296 4.824-1.851 1.113-.555 2.411-1.111 4.823-1.851 2.411-.741 3.71-1.111 5.008-1.481 1.299-.37 2.598-.555 5.009-1.296 2.412-.74 3.71-1.11 5.009-1.481 1.298-.37 2.411-.555 5.009-1.481 2.411-.74 3.524-1.295 4.637-2.036 1.113-.555 2.412-1.296 4.823-2.036 2.412-.741 3.896-.926 5.195-1.111 1.298-.185 2.597-.185 5.008-1.111l9.832-3.332c2.412-.74 3.525-1.481 4.638-2.221s2.226-1.481 4.823-2.406c2.412-.741 3.71-1.111 5.009-1.296 1.298-.185 2.597-.556 5.008-1.296 2.412-.741 3.711-1.111 5.009-1.481 1.299-.37 2.412-.74 5.009-1.481 2.411-.74 3.71-1.296 4.823-1.666 1.113-.37 2.412-.926 4.823-1.666 2.412-.74 3.896-.926 5.194-1.111 1.299-.185 2.598-.37 5.009-1.11 2.412-.741 3.525-1.296 4.823-1.851m3.154-7.22c-2.412.741-3.71 1.296-4.823 1.666-1.299.37-2.412.741-4.823 1.666-2.412.741-3.896.926-5.195 1.111-1.298.185-2.597.37-5.008 1.11-2.412.741-3.711 1.296-4.824 1.852-1.113.555-2.411 1.11-4.823 1.851-2.411.74-3.71 1.11-5.008 1.481-1.299.37-2.412.74-5.009 1.481-2.412.74-3.71 1.11-5.009 1.295-1.298.186-2.597.556-5.009 1.296-2.411.741-3.524 1.481-4.637 2.222-1.113.74-2.226 1.48-4.823 2.221-2.412.74-3.896.926-5.195 1.111-1.298.185-2.597.185-5.008.925-2.412.741-3.525 1.481-4.638 2.222-1.113.74-2.226 1.481-4.823 2.221-2.412.74-3.71 1.111-5.009 1.481-1.298.37-2.411.74-4.823 1.481-2.412.74-3.896.925-5.194 1.11-1.299.186-2.597.371-5.009 1.111-2.412.741-3.525 1.296-4.638 2.036-1.113.556-2.411 1.111-4.823 2.037-2.411.74-3.71 1.295-4.823 1.666-1.113.37-2.412.925-4.823 1.666-2.412.74-3.896.925-5.194 1.11-1.299.186-2.597.186-5.009.926-2.412.74-3.71 1.296-4.823 1.851-1.113.555-2.412.926-4.823 1.851-2.412.741-3.711 1.111-5.009 1.481-1.299.37-2.412.556-5.009 1.481-2.411.741-3.524 1.481-4.638 2.222-1.113.74-2.226 1.48-4.823 2.221-1.67.555-3.524.74-5.194.74-1.67.185-3.339.185-5.009.741-1.484.555-2.968 1.481-4.452 2.406-1.484.926-2.968 2.037-4.638 2.592-1.669.555-3.339.925-5.008 1.296-1.67.37-3.34.74-4.823 1.295-1.67.556-3.154 1.111-4.823 1.667-1.485.555-3.154 1.11-4.824 1.666-1.67.555-3.339.925-4.823 1.48-1.67.371-3.339.926-4.823 1.481-1.67.556-3.154 1.296-4.638 1.852a50.769 50.769 0 0 1-4.637 2.036c-1.67.555-3.34.74-5.195.925-1.67.185-3.339.371-5.008.926-1.855.555-3.525 1.296-5.38 1.851-1.484.555-2.783.926-4.267 1.481-1.484.555-3.153 1.111-4.637 1.481"/><path fill="#000" fill-opacity=".19" d="M21.148 267.861c1.484-.556 2.782-.926 4.267-1.481 1.855-.555 3.524-1.296 5.38-1.851 1.669-.556 3.338-.741 5.193-.926 1.67-.185 3.34-.37 5.01-.925 1.483-.556 3.153-1.296 4.637-1.852 1.484-.74 3.153-1.48 4.823-2.036 1.67-.555 3.34-1.11 4.823-1.481 1.67-.37 3.154-.925 4.823-1.481 1.67-.555 3.154-1.11 4.638-1.666 1.484-.555 3.154-1.295 4.823-1.666 1.67-.555 3.34-.925 5.009-1.295 1.67-.371 3.339-.741 4.823-1.296 1.484-.556 2.968-1.481 4.452-2.407 1.484-.925 2.968-2.036 4.638-2.591 1.67-.556 3.525-.741 5.194-.741 1.67-.185 3.34-.185 5.009-.74 2.411-.741 3.524-1.481 4.638-2.222 1.113-.74 2.226-1.481 4.823-2.221 2.411-.74 3.71-1.111 5.008-1.481 1.299-.37 2.412-.555 5.009-1.481 2.412-.74 3.71-1.296 4.823-1.851 1.113-.555 2.412-.926 4.823-1.851 2.412-.741 3.896-.926 5.195-1.111 1.298-.185 2.597-.185 5.008-.925 2.412-.741 3.711-1.296 4.824-1.666 1.113-.371 2.411-.926 4.823-1.666 2.411-.741 3.524-1.296 4.637-2.037 1.113-.555 2.412-1.11 4.824-2.036 2.411-.74 3.895-.926 5.194-1.111 1.298-.185 2.597-.37 5.009-1.11 2.411-.741 3.71-1.111 5.008-1.481 1.299-.371 2.412-.741 4.823-1.481 2.412-.741 3.525-1.481 4.638-2.222 1.113-.74 2.226-1.481 4.823-2.221 2.412-.74 3.896-.926 5.194-1.111 1.299-.185 2.598-.185 5.009-.925 2.412-.741 3.525-1.481 4.638-2.222 1.113-.74 2.226-1.481 4.823-2.221 2.412-.74 3.71-1.111 5.009-1.296 1.298-.185 2.597-.555 5.008-1.296 2.412-.74 3.711-1.11 5.009-1.48 1.299-.371 2.412-.741 5.009-1.481 2.411-.741 3.71-1.296 4.823-1.852 1.113-.555 2.412-1.11 4.823-1.851 2.412-.74 3.896-.925 5.194-1.11 1.299-.185 2.597-.371 5.009-1.111 2.412-.741 3.71-1.296 4.823-1.666 1.299-.37 2.412-.741 4.823-1.666m-2.411-6.294c-2.412.74-3.896 1.111-5.194 1.296-1.299.185-2.597.37-5.009 1.11a219.82 219.82 0 0 1-5.009 1.481c-1.298.371-2.411.741-5.008 1.481-2.412.741-3.525 1.481-4.638 2.222-1.113.74-2.226 1.481-4.823 2.221-2.412.74-3.896.926-5.194 1.111-1.299.185-2.598.37-5.009 1.11-2.412.741-3.71 1.111-5.009 1.666-1.298.371-2.411.741-4.823 1.481-2.412.741-3.71 1.296-4.823 1.666-1.299.371-2.412.741-5.009 1.666-2.411.741-3.71 1.296-4.823 1.666-1.299.371-2.412.741-5.009 1.666-2.411.741-3.524 1.296-4.823 1.852-1.113.555-2.412 1.11-4.823 2.036-2.412.74-3.71 1.296-4.823 1.851-1.113.555-2.412 1.111-4.824 1.851-2.411.741-3.895.926-5.194 1.111-1.298.185-2.597.185-5.008 1.111-2.412.74-3.525 1.48-4.638 2.221-1.113.74-2.226 1.481-4.823 2.221-2.412.741-3.71 1.111-5.009 1.296-1.299.185-2.597.555-5.009 1.296-2.411.74-3.71 1.296-4.823 1.851-1.113.555-2.411 1.111-4.823 1.851-2.412.741-3.71 1.296-4.823 1.666-1.299.37-2.412.926-4.823 1.666-2.412.741-3.711 1.111-5.009 1.481-1.299.37-2.412.741-5.009 1.481-2.411.74-3.71 1.111-5.009 1.296-1.298.185-2.597.555-5.008 1.296-1.67.555-3.154 1.295-4.638 1.851-1.484.74-3.154 1.296-4.823 1.851a24.37 24.37 0 0 1-5.009 1.111c-1.67.37-3.339.555-4.823 1.11-1.67.556-3.154 1.111-4.823 1.666-1.484.556-3.154 1.296-4.823 1.666-1.67.556-3.154 1.111-4.824 1.481l-5.008 1.666c-1.67.556-3.154 1.296-4.638 2.037a50.78 50.78 0 0 1-4.638 2.036c-1.67.555-3.153 1.111-4.823 1.481l-5.008 1.666a51.27 51.27 0 0 0-4.824 1.851c-1.484.555-3.153 1.296-4.637 1.851-1.67.555-3.34.926-5.009 1.296-1.67.37-3.34.74-4.823 1.296"/><path fill="#000" fill-opacity=".19" d="M18.922 261.752c1.67-.555 3.339-.926 5.008-1.296 1.67-.37 3.34-.74 4.824-1.296 1.484-.555 3.153-1.11 4.637-1.851 1.484-.555 3.154-1.296 4.824-1.851l5.008-1.666c1.67-.555 3.154-.926 4.823-1.481a50.518 50.518 0 0 0 4.638-2.036c1.484-.741 3.154-1.481 4.823-2.036l5.009-1.667c1.67-.555 3.154-.925 4.823-1.48 1.67-.556 3.154-1.111 4.638-1.666 1.484-.556 3.153-1.296 4.823-1.852a24.35 24.35 0 0 1 5.009-1.11c1.67-.371 3.339-.556 4.823-1.111 1.67-.555 3.153-1.296 4.638-1.851 1.484-.741 3.153-1.296 4.823-1.851 2.411-.741 3.71-1.111 5.008-1.296 1.299-.185 2.598-.555 5.009-1.296 2.412-.74 3.71-1.111 5.009-1.481 1.298-.37 2.411-.74 5.009-1.481 2.411-.74 3.71-1.295 4.823-1.666 1.298-.37 2.411-.925 4.823-1.666 2.412-.74 3.71-1.296 4.823-1.851 1.113-.555 2.412-1.111 4.823-1.851 2.412-.741 3.71-1.111 5.009-1.296 1.299-.185 2.597-.555 5.009-1.296 2.411-.74 3.524-1.481 4.637-2.221 1.113-.74 2.226-1.481 4.824-2.221 2.411-.741 3.895-.926 5.194-1.111 1.298-.185 2.597-.185 5.008-1.111 2.412-.74 3.711-1.296 4.824-1.851 1.113-.555 2.411-1.111 4.823-1.851 2.411-.741 3.524-1.296 4.823-1.851 1.113-.556 2.412-1.111 4.823-2.036 2.412-.741 3.71-1.296 4.823-1.666 1.299-.371 2.412-.741 4.824-1.667 2.411-.74 3.71-1.295 4.823-1.666 1.298-.37 2.411-.74 4.823-1.666 2.412-.74 3.71-1.11 5.009-1.666 1.298-.37 2.411-.74 4.823-1.481 2.411-.74 3.896-.925 5.194-1.11 1.299-.185 2.597-.37 5.009-1.111 2.411-.74 3.524-1.481 4.637-2.221 1.113-.741 2.227-1.481 4.824-2.222 2.411-.74 3.71-1.11 5.008-1.481 1.299-.37 2.412-.74 5.009-1.48 2.412-.741 3.896-1.111 5.194-1.296 1.299-.185 2.597-.371 5.009-1.111m-2.226-4.998c-2.412.74-3.71 1.296-4.823 1.666-1.299.37-2.412.74-4.824 1.666-2.411.74-3.71 1.111-5.008 1.481-1.299.37-2.412.74-5.009 1.481-2.412.74-3.71 1.111-5.009 1.481-1.298.37-2.411.555-5.008 1.481-2.412.74-3.525 1.296-4.824 1.851-1.113.555-2.411 1.111-4.823 1.851-2.411.74-3.71 1.111-5.008 1.296-1.299.185-2.598.555-5.009 1.296-2.412.74-3.525 1.295-4.823 1.851-1.113.555-2.412 1.11-4.824 1.851-2.411.74-3.71 1.111-5.008 1.296-1.299.185-2.597.555-5.009 1.295-2.412.741-3.71 1.296-4.823 1.852-1.113.555-2.412.925-4.823 1.851-2.412.74-3.71 1.11-5.009 1.481-1.299.37-2.412.555-5.009 1.481-2.411.74-3.71 1.11-5.008 1.481-1.299.37-2.412.74-5.009 1.48-2.412.741-3.525 1.481-4.638 2.222-1.113.74-2.226 1.481-4.823 2.221-2.412.741-3.71 1.111-5.009 1.296-1.298.185-2.597.555-5.008 1.296-2.412.74-3.71 1.296-4.824 1.666-1.298.37-2.411.925-4.823 1.666-2.411.74-3.71 1.111-5.008 1.296-1.299.185-2.598.555-5.009 1.295-2.412.741-3.71 1.296-4.823 1.852-1.113.555-2.412.925-4.823 1.851-2.412.74-3.71 1.11-5.01 1.481-1.298.37-2.41.74-5.008 1.481-1.67.555-3.153 1.11-4.823 1.666-1.67.555-3.154 1.11-4.823 1.666-1.67.555-3.34.925-5.009 1.481-1.67.37-3.34.925-4.823 1.295-1.67.556-3.154 1.296-4.638 1.852-1.484.74-3.153 1.48-4.823 2.036-1.67.555-3.34 1.11-4.823 1.666-1.484.555-3.154 1.11-4.638 1.666-1.67.555-3.339.74-5.009 1.111a24.35 24.35 0 0 0-5.008 1.11c-1.484.556-2.968.926-4.452 1.481-1.67.555-3.34 1.111-5.195 1.666-1.484.556-2.968 1.481-4.452 2.407-1.484.925-2.968 1.851-4.637 2.406-1.67.555-3.34.926-5.01 1.296-1.669.37-3.338.74-5.008 1.296"/><path fill="#000" fill-opacity=".19" d="M16.696 255.458c1.67-.555 3.339-.925 5.008-1.296 1.67-.37 3.34-.74 4.824-1.11 1.484-.556 2.968-1.481 4.452-2.407 1.484-.925 2.968-1.851 4.637-2.406 1.67-.556 3.34-1.111 5.195-1.666 1.484-.556 2.968-.926 4.452-1.481 1.67-.556 3.339-.741 5.008-1.111a24.3 24.3 0 0 0 5.01-1.111c1.483-.555 3.153-1.11 4.637-1.666l5.009-1.666c1.67-.555 3.153-1.296 4.637-1.851 1.484-.74 3.154-1.481 4.823-2.036 1.67-.556 3.34-.926 5.01-1.481 1.669-.37 3.338-.926 4.822-1.296 1.67-.555 3.154-1.111 4.823-1.666 1.67-.555 3.154-1.111 4.824-1.666 2.411-.74 3.71-1.111 5.008-1.481 1.299-.37 2.412-.74 4.824-1.481 2.411-.74 3.71-1.296 4.823-1.851 1.113-.555 2.411-.926 4.823-1.851 2.412-.741 3.71-1.111 5.009-1.296 1.298-.185 2.597-.555 5.008-1.296 2.412-.74 3.71-1.295 4.824-1.666 1.298-.37 2.411-.925 4.823-1.666 2.411-.74 3.71-1.11 5.008-1.296 1.299-.185 2.598-.555 5.009-1.295 2.412-.741 3.525-1.481 4.638-2.222 1.113-.74 2.226-1.481 4.823-2.221a219.82 219.82 0 0 1 5.009-1.481c1.298-.37 2.411-.74 5.008-1.481 2.412-.74 3.711-1.111 5.009-1.481 1.299-.37 2.412-.555 5.009-1.481 2.411-.74 3.71-1.296 4.823-1.851 1.113-.555 2.412-.925 4.823-1.851 2.412-.741 3.71-1.111 5.009-1.296 1.298-.185 2.597-.555 5.009-1.296 2.411-.74 3.524-1.295 4.823-1.851 1.113-.555 2.411-1.11 4.823-1.851 2.411-.74 3.71-1.111 5.009-1.296 1.298-.185 2.597-.555 5.008-1.296 2.412-.74 3.525-1.295 4.823-1.851 1.114-.555 2.412-1.11 4.824-1.851 2.411-.74 3.71-1.111 5.008-1.481 1.299-.37 2.412-.555 5.009-1.481 2.412-.74 3.71-1.11 5.009-1.481 1.298-.37 2.411-.74 5.008-1.481 2.412-.74 3.711-1.295 4.824-1.666 1.298-.37 2.411-.74 5.008-1.666m2.597-7.404c-1.298.185-2.597.185-5.008 1.111-2.412.74-3.71 1.295-4.823 1.666-1.299.37-2.412.74-4.824 1.666-2.411.74-3.71 1.295-4.823 1.851-1.113.555-2.411.925-4.823 1.851-2.412.74-3.71 1.111-5.009 1.296-1.298.185-2.597.555-5.008 1.296-2.412.74-3.711 1.11-5.009 1.48-1.299.371-2.412.741-5.009 1.481-2.411.741-3.524 1.296-4.823 1.852-1.113.555-2.412 1.11-4.823 1.851-2.412.74-3.71 1.11-5.009 1.295-1.298.186-2.597.556-5.009 1.296-2.411.741-3.71 1.111-5.008 1.481-1.299.37-2.412.741-4.823 1.481-2.412.741-3.711 1.296-4.824 1.851-1.113.556-2.411.926-4.823 1.851-2.411.741-3.71 1.296-4.823 1.852-1.113.555-2.412 1.11-4.823 1.851-2.412.74-3.71 1.11-5.009 1.481-1.299.37-2.412.74-4.823 1.481-2.412.74-3.525 1.295-4.823 1.851-1.113.555-2.412 1.11-4.824 2.036-2.411.74-3.71 1.111-5.008 1.481-1.299.37-2.412.555-5.009 1.296-2.411.74-3.71 1.11-5.009 1.481-1.298.37-2.411.555-5.008 1.48-2.412.741-3.71 1.296-4.823 1.666-1.299.371-2.412.926-4.824 1.667-2.411.74-3.71 1.295-4.823 1.666-1.298.37-2.411.74-4.823 1.666-2.412.74-3.71 1.11-5.009 1.48-1.298.371-2.411.741-4.823 1.481-1.67.556-3.154 1.296-4.638 2.037-1.484.74-3.153 1.481-4.823 2.036l-5.008 1.666c-1.485.555-3.154 1.111-4.638 1.481-1.67.555-3.34.74-5.009 1.111-1.67.185-3.339.555-5.009 1.11-1.67.556-3.153 1.111-4.823 1.481-1.67.556-3.339.926-4.823 1.481-1.67.555-3.34 1.111-4.823 1.666-1.484.555-3.154 1.111-4.823 1.666-1.67.555-3.154 1.111-4.824 1.481-1.67.555-3.339.926-5.008 1.481l-4.081 1.296c-1.855.555-3.71 1.296-5.566 1.851-1.484.555-3.153 1.481-4.452 2.221"/><path fill="#000" fill-opacity=".19" d="M19.107 247.498c1.484-.925 2.968-1.851 4.638-2.406 1.855-.556 3.71-1.296 5.565-1.852l4.081-1.295c1.67-.556 3.34-1.111 5.01-1.481 1.669-.556 3.153-.926 4.822-1.481 1.67-.555 3.154-1.111 4.638-1.666 1.67-.556 3.154-1.296 4.823-1.851 1.67-.556 3.34-1.111 5.009-1.481 1.67-.556 3.153-.926 4.823-1.481 1.67-.556 3.34-.741 5.194-1.111 1.67-.185 3.34-.555 5.009-1.111 1.484-.555 3.154-1.11 4.638-1.48l5.008-1.666c1.67-.556 3.154-1.296 4.638-2.037 1.484-.74 3.154-1.481 4.823-2.036a225.44 225.44 0 0 1 5.009-1.481c1.298-.37 2.411-.74 4.823-1.481 2.412-.74 3.71-1.296 4.823-1.666 1.299-.37 2.412-.74 5.009-1.666 2.411-.74 3.71-1.296 4.823-1.666 1.299-.37 2.412-.925 4.823-1.666 2.412-.74 3.71-1.111 5.009-1.481 1.299-.37 2.412-.555 5.009-1.481 2.411-.74 3.71-1.11 5.008-1.481 1.299-.37 2.412-.555 5.009-1.296 2.412-.74 3.525-1.295 4.823-1.851 1.113-.555 2.412-1.11 4.823-2.036 2.412-.74 3.711-1.111 5.009-1.481 1.299-.37 2.412-.74 4.823-1.481 2.412-.74 3.71-1.296 4.824-1.851 1.113-.555 2.411-1.111 4.823-1.851 2.411-.74 3.71-1.296 4.823-1.851 1.113-.556 2.411-.926 4.823-1.851a219.82 219.82 0 0 1 5.009-1.481c1.298-.37 2.411-.741 4.823-1.481 2.412-.741 3.71-1.111 5.009-1.296 1.298-.185 2.597-.555 5.008-1.296 2.412-.74 3.525-1.296 4.824-1.851 1.113-.555 2.411-1.111 4.823-1.851 2.411-.741 3.71-1.111 5.008-1.481 1.299-.37 2.412-.74 4.824-1.481 2.411-.74 3.71-1.111 5.008-1.296 1.299-.185 2.597-.555 5.009-1.295 2.412-.741 3.71-1.296 4.823-1.852 1.113-.555 2.412-.925 4.823-1.851 2.412-.74 3.711-1.296 4.824-1.666 1.298-.37 2.411-.74 4.823-1.666 2.411-.74 3.895-.925 5.194-1.111m-1.855-6.293c-1.113.74-2.226 1.48-4.823 2.221-2.412.74-3.711 1.296-4.824 1.666-1.113.37-2.411.926-4.823 1.666-2.597.74-3.895.926-5.194.926s-2.597 0-5.009.925c-2.411.741-3.524 1.481-4.637 2.221-1.113.741-2.226 1.481-4.824 2.222-2.411.74-3.71 1.296-4.823 1.666-1.298.37-2.411.925-4.823 1.666-2.411.74-3.896.926-5.194 1.111-1.299.185-2.597.37-5.009 1.11-2.411.741-3.524 1.481-4.637 2.222-1.114.74-2.227 1.481-4.824 2.221-2.411.741-3.71 1.111-5.008 1.296-1.299.185-2.597.37-5.009 1.296-2.412.74-3.71 1.11-5.009 1.481-1.298.37-2.411.555-5.008 1.48-2.412.741-3.711 1.111-5.009 1.481-1.299.371-2.412.741-4.823 1.481a219.82 219.82 0 0 1-5.009 1.481c-1.299.37-2.412.741-5.009 1.481-2.411.741-3.71 1.296-4.823 1.851-1.113.556-2.411 1.111-4.823 1.851-2.412.741-3.525 1.296-4.638 2.037-1.113.555-2.411 1.11-4.823 2.036-2.597.74-3.896.926-5.194.926-1.299 0-2.597.185-5.009.925-2.411.741-3.524 1.481-4.638 2.036-1.113.556-2.411 1.296-4.823 2.037-2.411.74-3.71 1.295-4.823 1.666-1.298.37-2.412.925-4.823 1.666-2.412.74-3.71 1.11-5.009 1.481-1.298.37-2.411.74-4.823 1.481-1.67.555-3.34.74-5.194 1.11-1.67.185-3.34.556-5.009 1.111-1.67.555-3.153 1.296-4.638 2.221-1.484.741-3.153 1.666-4.823 2.222-1.67.555-3.153 1.11-4.823 1.481l-5.009 1.666c-1.67.555-3.339.925-4.823 1.48-1.67.556-3.339.926-4.823 1.481-1.67.556-3.34 1.111-4.823 1.666-1.484.556-3.154 1.111-4.823 1.666-1.67.556-3.154 1.296-4.824 1.852-1.484.555-3.153 1.295-4.823 1.851a24.35 24.35 0 0 1-5.009 1.11c-1.669.371-3.339.556-5.008 1.111-1.67.555-3.34 1.111-4.823 1.851"/><path fill="#000" fill-opacity=".19" d="M16.696 241.019c1.67-.555 3.153-1.296 4.823-1.851a24.291 24.291 0 0 1 5.009-1.111c1.67-.37 3.339-.555 5.008-1.111 1.67-.555 3.154-1.11 4.638-1.851 1.484-.74 3.154-1.295 4.823-1.851 1.67-.555 3.154-1.111 4.823-1.666 1.67-.555 3.154-1.296 4.824-1.851 1.67-.555 3.339-1.111 5.008-1.481 1.67-.37 3.34-.926 4.823-1.481l5.01-1.666c1.669-.555 3.153-.925 4.822-1.481 1.67-.555 3.154-1.296 4.638-2.221 1.484-.741 3.154-1.666 4.823-2.222 1.67-.555 3.34-.74 5.194-1.11 1.67-.185 3.34-.556 5.009-1.111a225.44 225.44 0 0 1 5.009-1.481c1.298-.37 2.411-.74 5.008-1.481 2.412-.74 3.711-1.296 4.824-1.666 1.298-.37 2.411-.925 4.823-1.666 2.411-.74 3.524-1.481 4.637-2.036 1.114-.555 2.412-1.296 4.824-2.036 2.597-.741 3.895-.926 5.194-.926 1.298 0 2.597-.185 5.009-.925 2.411-.741 3.524-1.296 4.637-2.037 1.113-.555 2.412-1.11 4.823-2.036 2.412-.74 3.711-1.296 4.824-1.851 1.113-.555 2.411-1.111 4.823-1.851 2.411-.741 3.71-1.111 5.009-1.481 1.298-.37 2.411-.741 4.823-1.481 2.411-.741 3.71-1.111 5.008-1.481 1.299-.37 2.412-.74 4.824-1.481 2.411-.74 3.71-1.111 5.008-1.481 1.299-.37 2.412-.555 5.009-1.481 2.412-.74 3.71-1.11 5.009-1.296 1.298-.185 2.597-.37 5.008-1.295 2.412-.741 3.525-1.481 4.638-2.222 1.113-.74 2.226-1.481 4.823-2.221 2.412-.741 3.896-.926 5.194-1.111 1.299-.185 2.598-.37 5.009-1.111 2.412-.74 3.71-1.295 4.823-1.666 1.299-.37 2.412-.925 4.824-1.666 2.411-.74 3.524-1.48 4.637-2.221 1.113-.74 2.226-1.481 4.823-2.221 2.597-.741 3.896-.926 5.195-.926 1.298 0 2.597 0 5.008-.925 2.412-.741 3.71-1.296 4.823-1.666 1.113-.371 2.412-.926 4.824-1.667 2.411-.74 3.524-1.48 4.637-2.221m2.968-8.145c-2.411.741-3.524 1.296-4.823 1.851-1.113.556-2.411 1.111-4.823 1.851-2.412.741-3.71 1.296-4.823 1.666-1.299.371-2.412.926-4.823 1.666-2.412.741-3.896 1.111-5.009 1.296-1.299.185-2.597.37-5.009 1.296-2.411.741-3.71 1.296-4.823 1.666-1.113.37-2.411.926-4.823 1.666-2.412.741-3.525 1.296-4.823 1.851-1.113.556-2.412 1.111-4.823 2.037-2.412.74-3.711 1.295-4.824 1.666-1.113.555-2.411.925-4.823 1.851-2.411.74-3.71 1.11-5.009 1.481-1.298.37-2.411.74-5.008 1.481-2.412.74-3.71 1.295-4.823 1.851-1.113.555-2.412 1.11-4.824 1.851-2.411.74-3.895 1.111-5.008 1.296-1.299.185-2.597.37-5.009 1.295-2.412.741-3.71 1.296-4.823 1.852-1.113.555-2.412 1.11-4.823 1.851-2.412.74-3.896 1.11-5.195 1.295-1.298.186-2.597.371-5.008 1.111-2.412.741-3.525 1.481-4.638 2.036-1.113.556-2.412 1.296-4.823 2.037-2.412.74-3.896.925-5.194 1.11-1.299.186-2.597.186-5.009 1.111-2.412.741-3.339 1.481-4.452 2.221-1.113.741-2.226 1.666-4.823 2.407-2.597.74-3.896.74-5.38.74s-2.597 0-5.009.741c-2.411.74-3.71 1.296-4.823 1.851-1.113.555-2.412 1.111-4.823 1.851-2.412.741-3.71 1.296-4.823 1.666-1.113.556-2.412.926-4.824 1.851-1.67.556-3.153 1.296-4.823 1.851-1.484.741-3.153 1.296-4.823 1.852-1.67.555-3.525.74-5.194.925-1.67.185-3.34.37-5.009.926-1.67.555-3.154 1.296-4.638 2.036s-3.153 1.666-4.823 2.036c-1.67.556-3.339 1.111-4.823 1.666-1.484.556-3.153 1.111-4.823 1.666-1.67.556-3.34 1.111-4.823 1.666-1.67.556-3.154 1.111-4.824 1.666-1.669.556-3.153 1.111-4.823 1.481l-5.008 1.666a24.29 24.29 0 0 1-5.009 1.111c-1.67.37-3.34.555-5.009 1.111"/><path fill="#000" fill-opacity=".19" d="M19.293 232.504a23.49 23.49 0 0 1 5.194-1.111c1.67-.37 3.34-.555 5.009-1.111l5.008-1.666c1.67-.555 3.154-.925 4.824-1.48 1.67-.556 3.153-1.111 4.823-1.667l5.008-1.666c1.67-.555 3.154-1.11 4.824-1.666 1.67-.555 3.153-1.295 4.823-1.851 1.67-.555 3.153-1.296 4.638-2.036 1.483-.74 3.153-1.666 4.823-2.221 1.67-.556 3.524-.741 5.194-.926 1.67-.185 3.339-.37 5.008-.926 1.67-.555 3.154-1.295 4.638-1.851 1.484-.74 3.154-1.295 4.823-1.851 2.412-.74 3.71-1.296 4.824-1.666 1.113-.555 2.411-.925 4.823-1.851 2.411-.74 3.524-1.296 4.823-1.851 1.113-.555 2.412-1.111 4.823-1.851 2.597-.741 3.896-.926 5.38-.741 1.298 0 2.597 0 5.009-.74 2.411-.741 3.339-1.481 4.452-2.222 1.113-.74 2.226-1.666 4.823-2.406 2.412-.74 3.896-.926 5.194-1.111 1.299-.185 2.597-.185 5.009-1.11 2.411-.741 3.524-1.481 4.638-2.037 1.113-.555 2.411-1.295 4.823-2.036 2.411-.74 3.895-1.111 5.194-1.296 1.298-.185 2.597-.37 5.009-1.11 2.411-.741 3.71-1.296 4.823-1.852 1.113-.555 2.411-1.11 4.823-1.851 2.412-.74 3.896-1.11 5.009-1.296 1.298-.185 2.597-.37 5.008-1.295 2.412-.741 3.711-1.296 4.824-1.851 1.113-.556 2.411-1.111 4.823-1.852 2.411-.74 3.71-1.11 5.008-1.481 1.299-.37 2.412-.74 5.009-1.48 2.412-.741 3.71-1.296 4.823-1.666 1.113-.556 2.412-.926 4.824-1.852 2.411-.74 3.524-1.295 4.823-1.851 1.113-.555 2.411-1.11 4.823-2.036 2.411-.74 3.71-1.296 4.823-1.666 1.113-.37 2.412-.926 4.823-1.666 2.412-.741 3.896-1.111 5.194-1.296 1.299-.185 2.598-.37 5.009-1.296 2.412-.74 3.71-1.295 4.823-1.666 1.299-.37 2.412-.925 4.824-1.666 2.411-.74 3.524-1.296 4.823-1.851 1.113-.555 2.411-1.111 4.823-1.851m-2.041-4.998c-2.411.74-3.71 1.111-5.008 1.296-1.299.185-2.597.555-5.009 1.296-2.412.74-3.71 1.295-4.823 1.666-1.299.37-2.412.925-5.009 1.666-2.412.74-3.71 1.295-4.823 1.666-1.299.37-2.412.925-4.823 1.666-2.412.74-3.71 1.295-4.824 1.851-1.113.555-2.411 1.11-4.823 1.851-2.411.74-3.895 1.111-5.008 1.296-1.299.185-2.597.37-5.009 1.296-2.412.74-3.525 1.295-4.638 2.036-1.113.555-2.411 1.11-4.823 2.036-2.412.741-3.525 1.296-4.823 1.851-1.113.556-2.412 1.111-4.823 1.851a219.82 219.82 0 0 1-5.009 1.481c-1.299.371-2.412.741-4.823 1.481-2.412.741-3.896.926-5.194 1.111-1.299.185-2.598.185-5.009 1.111-2.412.74-3.71 1.295-4.823 1.851-1.113.555-2.412.925-4.823 1.851-2.412.74-3.711 1.296-4.824 1.666-1.298.37-2.411.925-4.823 1.666-2.411.74-3.525 1.296-4.638 2.036-1.113.556-2.411 1.111-4.823 2.036-2.411.741-3.71 1.111-5.008 1.481-1.299.371-2.412.741-4.824 1.481-2.411.741-3.895.926-5.194 1.111-1.298.185-2.597.37-5.009 1.111-2.411.74-3.71 1.11-5.008 1.481-1.299.37-2.412.74-5.009 1.48-2.412.741-3.71 1.296-4.823 1.667-1.299.37-2.412.74-4.823 1.666-2.412.74-3.525 1.295-4.823 1.851-1.114.555-2.412 1.11-4.824 2.036-1.67.555-3.339.926-5.008 1.296-1.67.37-3.34.74-5.01 1.296-1.669.555-3.153 1.295-4.637 2.036-1.484.74-3.153 1.666-4.823 2.221-1.67.556-3.34 1.111-4.823 1.481-1.67.555-3.34.926-5.009 1.481-1.67.555-3.339 1.111-4.823 1.666-1.67.555-3.154 1.111-4.823 1.666-1.67.555-3.34.926-5.009 1.296-1.67.37-3.339.74-5.009 1.296-1.67.555-3.153 1.11-4.823 1.481l-5.008 1.666c-1.67.555-3.34 1.11-4.824 1.851-1.484.555-3.153 1.296-4.823 1.851"/><path fill="#000" fill-opacity=".19" d="M17.252 226.765c1.67-.555 3.154-1.11 4.823-1.666 1.67-.555 3.154-1.296 4.824-1.851l5.008-1.666c1.67-.555 3.154-.925 4.823-1.481 1.67-.555 3.34-.925 5.01-1.296 1.669-.37 3.338-.74 4.822-1.295 1.67-.556 3.154-1.111 4.824-1.666l5.008-1.666c1.67-.556 3.34-1.111 5.009-1.481 1.67-.556 3.154-.926 4.823-1.481 1.67-.556 3.154-1.296 4.638-2.037 1.484-.74 3.153-1.666 4.823-2.221 1.67-.555 3.34-.926 5.009-1.296 1.67-.37 3.339-.74 5.008-1.296 2.412-.74 3.525-1.295 4.824-1.851 1.113-.555 2.411-1.11 4.823-2.036 2.411-.74 3.71-1.296 4.823-1.666 1.298-.37 2.412-.74 5.009-1.666 2.411-.74 3.71-1.111 5.008-1.481 1.299-.37 2.412-.74 5.009-1.481 2.412-.74 3.896-.925 5.194-1.111 1.299-.185 2.597-.37 5.009-1.11a219.82 219.82 0 0 1 5.009-1.481c1.298-.37 2.411-.741 4.823-1.481 2.411-.74 3.524-1.296 4.637-2.036 1.114-.556 2.412-1.111 4.824-2.037 2.411-.74 3.71-1.295 4.823-1.666 1.298-.37 2.411-.925 4.823-1.666 2.412-.74 3.71-1.295 4.823-1.851 1.113-.555 2.412-.925 4.823-1.851 2.412-.74 3.896-.925 5.195-1.111 1.298-.185 2.597-.185 5.008-1.11a219.82 219.82 0 0 1 5.009-1.481c1.299-.37 2.412-.741 4.823-1.481 2.412-.741 3.525-1.296 4.823-1.851 1.113-.556 2.412-1.111 4.824-1.851 2.411-.741 3.524-1.296 4.637-2.037 1.113-.555 2.412-1.11 4.823-2.036 2.412-.74 3.896-1.111 5.009-1.296 1.299-.185 2.597-.37 5.009-1.296 2.411-.74 3.71-1.295 4.823-1.851 1.113-.555 2.412-1.11 4.823-1.851 2.412-.74 3.71-1.296 4.823-1.666 1.299-.37 2.412-.925 4.824-1.666 2.411-.74 3.71-1.296 4.823-1.666 1.298-.37 2.411-.925 4.823-1.666 2.412-.74 3.71-1.111 5.009-1.296 1.298-.185 2.597-.555 5.008-1.296m3.154-7.219c-1.299.37-2.412.74-4.823 1.666-2.412.74-3.896.926-5.194 1.111-1.299.185-2.597.37-5.009 1.11-2.412.741-3.525 1.481-4.638 2.037-1.113.74-2.411 1.295-4.823 2.221-2.412.74-3.896.926-5.194 1.111-1.299.185-2.597.185-5.009.925-2.411.741-3.71 1.296-4.823 1.851-1.113.556-2.412.926-4.823 1.852-2.412.74-3.525 1.48-4.638 2.036-1.113.74-2.411 1.296-4.823 2.221-2.412.741-3.896.926-5.194 1.296-1.299.185-2.597.37-5.009 1.111-2.412.74-3.525 1.295-4.823 1.851-1.113.555-2.412 1.111-4.823 1.851-2.597.74-3.896.926-5.195.926-1.298 0-2.597.185-5.008.925-2.412.741-3.525 1.481-4.638 2.221-1.113.741-2.226 1.481-4.823 2.407-2.412.74-3.71 1.111-5.009 1.296-1.298.185-2.597.555-5.009 1.296-2.411.74-3.71 1.295-4.823 1.666-1.298.37-2.411.925-4.823 1.666-2.411.74-3.71 1.11-4.823 1.666-1.299.37-2.412.74-5.009 1.666-2.411.74-3.71 1.296-4.823 1.666-1.113.37-2.412.925-4.823 1.666-2.412.74-3.896.925-5.194 1.11-1.299.186-2.597.371-5.009 1.111-2.412.741-3.525 1.481-4.638 2.036-1.113.556-2.411 1.296-4.823 2.222-2.412.74-3.71 1.11-5.009 1.296-1.298.185-2.597.555-5.008 1.295-2.412.741-3.525 1.296-4.638 2.037-1.113.555-2.412 1.295-4.823 2.036-1.67.555-3.34 1.111-4.823 1.851-1.67.555-3.154 1.296-4.824 1.851-1.67.556-3.339.926-5.008 1.296-1.67.37-3.34.926-5.009 1.296-1.67.555-3.34.925-5.194 1.11-1.67.371-3.34.556-5.009 1.111-1.67.556-3.339 1.111-4.823 1.481-1.67.555-3.34.926-5.009 1.481-1.67.555-3.339 1.111-4.823 1.851-1.484.555-3.154 1.296-4.823 1.851l-5.009 1.666c-1.484.556-3.153 1.111-4.637 1.666-1.67.556-3.34 1.111-5.01 1.851"/><path fill="#000" fill-opacity=".19" d="M19.478 218.25c1.67-.555 3.34-1.296 5.009-1.851 1.484-.556 3.154-1.111 4.638-1.666l5.008-1.666a51.805 51.805 0 0 0 4.823-1.851c1.67-.556 3.154-1.296 4.824-1.852 1.67-.555 3.339-1.11 5.008-1.48 1.67-.556 3.34-.926 4.824-1.481a23.493 23.493 0 0 1 5.194-1.111c1.67-.37 3.339-.555 5.009-1.111 1.67-.555 3.339-.925 5.008-1.296 1.67-.37 3.34-.74 5.009-1.295 1.67-.556 3.154-1.111 4.823-1.666 1.67-.556 3.154-1.296 4.823-1.852 2.412-.74 3.525-1.295 4.638-2.036 1.113-.555 2.412-1.296 4.823-2.036 2.412-.74 3.71-1.111 5.009-1.296 1.298-.185 2.597-.555 5.009-1.296 2.411-.74 3.524-1.481 4.637-2.036 1.113-.555 2.412-1.296 4.823-2.221 2.412-.741 3.896-.926 5.195-1.111 1.298-.185 2.597-.37 5.008-1.111 2.412-.74 3.71-1.295 4.823-1.666 1.114-.37 2.412-.925 4.824-1.666 2.411-.74 3.71-1.296 5.008-1.666 1.299-.37 2.412-.74 4.824-1.666 2.411-.74 3.71-1.296 4.823-1.666 1.298-.37 2.411-.925 4.823-1.666 2.412-.74 3.71-1.111 5.009-1.296 1.298-.185 2.597-.555 5.008-1.295 2.412-.741 3.525-1.481 4.638-2.222 1.113-.74 2.226-1.481 4.823-2.406 2.597-.741 3.896-.926 5.194-.926 1.299 0 2.598-.185 5.009-.925 2.412-.741 3.525-1.296 4.823-1.852 1.113-.555 2.412-1.11 4.823-1.851 2.412-.74 3.896-.925 5.195-1.296 1.298-.185 2.597-.37 5.008-1.11 2.412-.741 3.525-1.481 4.638-2.036 1.113-.741 2.412-1.296 4.823-2.222 2.412-.74 3.71-1.296 4.823-1.851 1.113-.555 2.412-.926 4.824-1.851 2.411-.741 3.895-.926 5.194-1.111 1.298-.185 2.597-.185 5.009-.925 2.411-.741 3.524-1.481 4.637-2.037 1.113-.74 2.226-1.295 4.823-2.221 2.412-.741 3.896-.926 5.195-1.111 1.298-.185 2.597-.37 5.008-1.11 2.412-.741 3.71-1.111 5.009-1.666m-2.412-6.85c-1.298.186-2.597.556-5.008 1.296-2.412.741-3.525 1.481-4.638 2.036-1.113.741-2.412 1.296-4.823 2.222-2.412.74-3.71 1.296-4.823 1.666-1.299.37-2.412.925-4.824 1.666-2.411.74-3.895.925-5.194 1.111-1.298.185-2.597.185-5.008 1.11-2.412.741-3.711 1.296-4.824 1.851-1.113.556-2.411 1.111-4.823 1.852-2.411.74-3.524 1.295-4.637 2.036-1.114.555-2.412 1.111-4.824 2.036-2.411.741-3.895.926-5.194 1.111-1.298.185-2.597.37-5.009 1.11-2.411.741-3.524 1.481-4.637 2.222-1.113.74-2.226 1.481-4.823 2.406-2.598.556-4.082.556-5.38.556-1.299 0-2.597 0-5.009.74-2.411.741-3.339 1.481-4.452 2.222-1.113.74-2.226 1.666-4.823 2.406-2.412.74-3.896 1.111-5.194 1.296-1.299.185-2.598.37-5.009 1.11-2.412.741-3.71 1.111-5.009 1.296-1.298.185-2.597.556-5.009 1.296-2.411.741-3.71 1.296-4.823 1.851-1.113.556-2.411.926-4.823 1.851-2.411.741-3.525 1.481-4.638 2.222-1.113.74-2.226 1.481-4.823 2.221-2.411.741-3.895.926-5.194 1.111-1.299.185-2.597.37-5.009 1.111-2.411.74-3.71 1.11-5.008 1.48-1.299.371-2.412.741-5.009 1.481-2.412.741-3.525 1.481-4.638 2.222-1.113.74-2.226 1.481-4.823 2.221-2.412.741-3.896.926-5.194 1.111-1.299.185-2.597.37-5.009 1.11-1.67.556-3.339 1.111-4.823 1.666-1.67.556-3.34 1.111-4.823 1.667-1.67.555-3.154 1.295-4.823 2.036-1.484.74-3.154 1.481-4.824 2.036a23.55 23.55 0 0 1-5.194 1.111 24.33 24.33 0 0 0-5.008 1.11c-1.67.556-3.34 1.111-4.824 1.481-1.67.556-3.339.926-5.008 1.481-1.67.556-3.154 1.296-4.824 1.851-1.484.741-3.153 1.296-4.823 1.852-1.67.555-3.153 1.295-4.637 2.036-1.485.74-3.154 1.481-4.824 2.036-1.67.555-3.524.741-5.194.926"/><path fill="#000" fill-opacity=".19" d="M17.623 212.141c1.67-.185 3.525-.37 5.009-.74 1.67-.556 3.153-1.296 4.637-2.037 1.485-.74 3.154-1.48 4.824-2.036 1.67-.555 3.153-1.296 4.823-1.851a51.536 51.536 0 0 1 4.823-1.851c1.67-.555 3.34-1.111 5.009-1.481 1.67-.555 3.339-.926 4.823-1.481 1.67-.555 3.525-.925 5.194-1.111a24.35 24.35 0 0 0 5.009-1.11c1.67-.556 3.153-1.296 4.638-2.037 1.484-.74 3.153-1.48 4.823-2.036 1.67-.555 3.339-1.11 4.823-1.666 1.67-.555 3.34-1.111 4.823-1.666 2.412-.74 3.896-.925 5.194-1.111 1.299-.185 2.597-.37 5.009-1.11 2.412-.741 3.525-1.481 4.638-2.222 1.113-.74 2.226-1.481 4.823-2.221 2.412-.74 3.71-1.111 5.009-1.481 1.298-.37 2.411-.74 5.008-1.481 2.412-.74 3.896-.925 5.195-1.11 1.298-.186 2.597-.371 5.008-1.111 2.412-.741 3.525-1.481 4.638-2.222 1.113-.74 2.226-1.48 4.823-2.221 2.412-.74 3.71-1.296 4.823-1.851 1.113-.555 2.412-.926 4.823-1.851 2.412-.741 3.711-1.111 5.009-1.296 1.299-.185 2.597-.555 5.009-1.296 2.411-.74 3.895-1.11 5.194-1.296 1.299-.185 2.597-.37 5.009-1.11 2.411-.741 3.339-1.481 4.452-2.222 1.113-.74 2.226-1.666 4.823-2.406 2.597-.741 3.896-.741 5.38-.741 1.298 0 2.597 0 5.009-.74 2.411-.741 3.524-1.481 4.637-2.221 1.113-.741 2.226-1.481 4.823-2.407 2.412-.74 3.896-.926 5.195-1.111 1.298-.185 2.597-.37 5.008-1.11 2.412-.741 3.525-1.296 4.638-2.037 1.113-.555 2.412-1.11 4.823-2.036 2.412-.74 3.71-1.296 4.823-1.851 1.113-.555 2.412-1.111 4.824-1.851 2.411-.741 3.895-.926 5.194-1.111 1.298-.185 2.597-.185 5.008-1.11 2.412-.741 3.711-1.296 4.824-1.667 1.298-.37 2.411-.925 4.823-1.666 2.411-.74 3.524-1.48 4.637-2.036 1.114-.74 2.412-1.296 4.824-2.221 2.411-.741 3.71-1.111 5.008-1.296m3.154-6.294c-2.597.741-3.896.926-5.194.926-1.299 0-2.597.185-5.009.925-2.411.741-3.71 1.111-5.009 1.481-1.298.37-2.411.741-5.008 1.481-2.412.74-3.71 1.296-4.823 1.851-1.114.556-2.412 1.111-4.824 1.851-2.411.741-3.71 1.296-4.823 1.666-1.113.556-2.411.926-4.823 1.852-2.412.74-3.71 1.11-5.009 1.295-1.298.185-2.597.556-5.008 1.296-2.412.741-3.525 1.296-4.824 1.851-1.113.556-2.411 1.111-4.823 1.851-2.411.741-3.71 1.296-4.823 1.852-1.113.555-2.412 1.11-4.823 1.851-2.412.74-3.896.925-5.194 1.11-1.299.185-2.597.185-5.009 1.111-2.412.741-3.525 1.296-4.638 2.036-1.113.556-2.411 1.111-4.823 2.037-2.412.74-3.896 1.11-5.194 1.295-1.299.185-2.597.371-5.009 1.111-2.411.741-3.339 1.481-4.452 2.407-1.113.74-2.226 1.666-4.823 2.406-2.412.741-3.71 1.111-5.009 1.296-1.298.185-2.597.555-5.009 1.296-2.411.74-3.71 1.11-5.008 1.295-1.299.186-2.597.556-5.009 1.296a219.82 219.82 0 0 1-5.009 1.481c-1.298.37-2.411.741-5.008 1.481-2.412.741-3.711 1.111-5.009 1.481-1.299.37-2.412.74-4.823 1.481-2.412.74-3.525 1.481-4.638 2.036-1.113.556-2.412 1.296-4.823 2.036-2.412.741-3.525 1.296-4.823 1.852-1.113.555-2.412 1.11-4.824 1.851-2.597.74-3.895.925-5.38.925-1.298 0-2.596 0-5.008.741-1.67.555-3.339 1.11-4.823 1.666-1.67.555-3.154 1.296-4.823 1.851-1.67.555-3.34 1.111-4.823 1.851-1.67.555-3.154 1.296-4.824 1.851-1.67.556-3.153 1.296-4.823 2.036-1.484.741-3.154 1.481-4.823 2.037-1.67.555-3.34.925-5.009 1.481-1.67.37-3.339.925-5.008 1.481-1.67.555-3.34.925-5.01 1.481-1.669.37-3.338.925-5.008 1.48-1.67.556-3.339 1.111-4.823 1.852-1.484.555-3.154 1.295-4.823 1.666"/><path fill="#000" fill-opacity=".19" d="M20.035 203.811c1.67-.555 3.153-1.111 4.823-1.666 1.67-.555 3.34-1.296 5.009-1.851 1.67-.556 3.339-.926 5.008-1.481 1.67-.37 3.34-.926 5.01-1.481 1.669-.555 3.338-.926 5.008-1.481 1.67-.37 3.339-.926 5.008-1.481 1.67-.555 3.154-1.296 4.824-2.036 1.484-.741 3.153-1.481 4.823-2.036 1.67-.556 3.339-1.111 4.823-1.666 1.67-.556 3.154-1.296 4.823-1.852 1.67-.555 3.34-1.11 4.823-1.666 1.67-.555 3.154-1.295 4.824-1.851 2.597-.74 3.895-.925 5.38-.925 1.298 0 2.596 0 5.008-.741 2.412-.74 3.525-1.296 4.823-1.851 1.113-.555 2.412-1.111 4.823-1.851 2.412-.74 3.525-1.481 4.638-2.036 1.113-.556 2.412-1.296 4.823-2.037 2.412-.74 3.71-1.11 5.009-1.48 1.298-.371 2.412-.741 5.009-1.481 2.411-.741 3.71-1.111 5.008-1.481 1.299-.371 2.412-.741 5.009-1.481 2.412-.741 3.71-1.111 5.009-1.296 1.298-.185 2.597-.555 5.008-1.296 2.412-.74 3.711-1.111 5.009-1.296 1.299-.185 2.597-.555 5.009-1.295 2.411-.741 3.339-1.481 4.452-2.407 1.113-.74 2.226-1.666 4.823-2.406 2.412-.741 3.896-1.111 5.194-1.296 1.299-.185 2.597-.37 5.009-1.111 2.412-.74 3.525-1.296 4.638-2.036 1.113-.555 2.411-1.111 4.823-2.036 2.412-.741 3.896-.926 5.194-1.111 1.299-.185 2.597-.185 5.009-1.111 2.411-.74 3.71-1.296 4.823-1.851 1.113-.555 2.412-1.111 4.823-1.851 2.412-.741 3.525-1.296 4.823-1.851 1.113-.556 2.412-1.111 4.824-1.851 2.411-.741 3.71-1.111 5.008-1.296 1.299-.185 2.597-.556 5.009-1.296 2.412-.74 3.71-1.296 4.823-1.666 1.113-.555 2.412-.926 4.823-1.851 2.412-.741 3.71-1.296 4.824-1.851 1.113-.556 2.411-1.111 4.823-1.851 2.411-.741 3.71-1.111 5.008-1.481 1.299-.371 2.412-.741 5.009-1.481 2.597-.741 3.896-.926 5.194-.926 1.299 0 2.597-.185 5.009-.925m-2.412-5.739c-2.597.741-3.895.926-5.194 1.111-1.298.185-2.597.185-5.008 1.11-2.412.741-3.525 1.296-4.824 1.852-1.113.555-2.411 1.11-4.823 1.851-2.411.74-3.71 1.296-4.823 1.666-1.299.37-2.412.925-4.823 1.666-2.412.74-3.71 1.11-5.009 1.481-1.298.37-2.411.74-5.009 1.481-2.411.74-3.895 1.11-5.008 1.295-1.299.186-2.597.371-5.009 1.296-2.412.741-3.525 1.481-4.638 2.036-1.113.741-2.226 1.296-4.823 2.222-2.411.74-3.71 1.111-5.009 1.481-1.298.37-2.597.555-5.008 1.296-2.412.74-3.71 1.11-5.009 1.295-1.298.185-2.597.556-5.009 1.296-2.411.741-3.524 1.296-4.823 1.851-1.113.556-2.411 1.111-4.823 1.851-2.412.741-3.71 1.296-4.823 1.852-1.113.555-2.412.925-4.823 1.851-2.412.74-3.711 1.11-5.009 1.481-1.299.37-2.412.555-5.009 1.481-2.411.74-3.71 1.295-4.823 1.666-1.298.37-2.412.925-4.823 1.666-2.412.74-3.71 1.295-5.009 1.666-1.298.37-2.411.74-4.823 1.666-2.412.74-3.71 1.11-5.009 1.666-1.298.37-2.411.74-4.823 1.481-2.411.74-3.71 1.11-5.009 1.295-1.298.186-2.597.556-5.008 1.296-2.412.741-3.525 1.481-4.638 2.037-1.113.555-2.412 1.295-4.823 2.036-2.412.74-3.71 1.296-4.823 1.851-1.113.555-2.412.926-4.823 1.851-2.412.741-3.896.926-5.195 1.111-1.298.185-2.597.37-5.008 1.11-1.67.556-3.34 1.111-5.01 1.481-1.669.371-3.338.926-5.008 1.481-1.67.556-3.339 1.111-4.823 1.666-1.67.556-3.154 1.296-4.823 1.666-1.67.556-3.34 1.111-5.009 1.481-1.67.556-3.339.926-5.009 1.481l-5.008 1.666c-1.67.556-3.154 1.111-4.824 1.666-1.669.556-3.153 1.111-4.823 1.481l-5.008 1.666c-1.67.556-3.34 1.296-4.823 1.851-1.485.741-3.154 1.296-4.824 1.851"/><path fill="#000" fill-opacity=".19" d="M17.809 197.517c1.67-.555 3.153-1.296 4.823-1.851a51.536 51.536 0 0 1 4.823-1.851l5.009-1.666c1.67-.556 3.153-1.111 4.823-1.481 1.67-.555 3.154-1.111 4.823-1.666l5.009-1.666c1.67-.555 3.339-1.111 5.009-1.481 1.67-.555 3.339-.926 5.008-1.481 1.67-.555 3.34-1.111 4.823-1.666 1.67-.555 3.34-1.296 4.824-1.851 1.67-.555 3.339-1.111 5.008-1.481 1.67-.37 3.34-.926 5.009-1.481 2.412-.74 3.896-.926 5.194-1.111 1.299-.185 2.597-.37 5.009-1.11 2.412-.741 3.71-1.296 4.823-1.851 1.113-.556 2.412-.926 4.823-1.852 2.412-.74 3.525-1.481 4.638-2.036 1.113-.555 2.412-1.296 4.823-2.036 2.412-.741 3.71-1.111 5.009-1.296 1.298-.185 2.597-.555 5.009-1.296 2.411-.74 3.71-1.11 5.008-1.666 1.299-.37 2.412-.74 4.823-1.666 2.412-.74 3.711-1.111 4.824-1.666 1.298-.37 2.411-.74 5.008-1.666 2.412-.74 3.71-1.296 4.824-1.666 1.298-.37 2.411-.925 4.823-1.666 2.411-.74 3.71-1.111 5.008-1.481 1.299-.37 2.412-.555 5.009-1.481 2.412-.74 3.71-1.296 4.823-1.851 1.113-.555 2.412-.925 4.823-1.851 2.412-.741 3.525-1.296 4.824-1.851 1.113-.556 2.411-1.111 4.823-1.851 2.411-.741 3.71-1.111 5.009-1.296 1.298-.185 2.597-.556 5.008-1.296 2.412-.74 3.71-1.111 5.009-1.481 1.299-.37 2.597-.555 5.009-1.296 2.411-.74 3.524-1.481 4.637-2.036 1.113-.74 2.226-1.296 4.824-2.221 2.411-.741 3.895-1.111 5.008-1.296 1.299-.185 2.597-.37 5.009-1.296 2.412-.74 3.71-1.111 5.009-1.481 1.298-.37 2.411-.74 5.008-1.481 2.412-.74 3.71-1.296 4.823-1.666 1.299-.37 2.412-.925 4.824-1.666 2.411-.74 3.524-1.296 4.823-1.851 1.113-.555 2.411-1.111 4.823-1.851 2.412-.741 3.896-.926 5.194-1.111 1.299-.185 2.597-.185 5.009-1.11m-2.412-6.665c-2.411.741-3.71 1.296-4.823 1.852-1.113.555-2.411 1.11-4.823 1.851l-9.832 3.147c-2.412.74-3.71 1.295-4.823 1.666-1.299.37-2.412.74-4.823 1.666-2.412.74-3.711 1.296-4.824 1.851-1.113.555-2.411 1.111-4.823 1.851-2.411.741-3.71 1.111-5.008 1.481-1.299.37-2.412.74-5.009 1.481-2.412.74-3.896.925-5.194 1.111-1.299.185-2.597.37-5.009 1.11a219.82 219.82 0 0 1-5.009 1.481c-1.298.37-2.411.741-5.008 1.481-2.412.741-3.711 1.296-4.824 1.851-1.113.556-2.411 1.111-4.823 1.851-2.411.741-3.524 1.481-4.637 2.037-1.114.74-2.412 1.295-4.824 2.221-2.411.74-3.71 1.111-5.008 1.296-1.299.185-2.597.555-5.009 1.296-2.412.74-3.71 1.295-4.823 1.666-1.113.37-2.412.925-4.823 1.666-2.412.74-3.711 1.295-4.824 1.851-1.113.555-2.411 1.111-4.823 1.851-2.411.74-3.71 1.111-5.008 1.296-1.299.185-2.598.37-5.009 1.296-2.412.74-3.71 1.11-5.009 1.666-1.298.37-2.411.74-4.823 1.666-2.412.74-3.71 1.295-4.823 1.851-1.113.555-2.412 1.11-4.823 1.851-2.412.74-3.896.925-5.195 1.111-1.298.185-2.597.185-5.008 1.11-2.412.741-3.525 1.481-4.638 2.222-1.113.74-2.226 1.481-4.823 2.221-2.412.74-3.896.926-5.194 1.111-1.299.185-2.597.37-5.01 1.11-1.669.556-3.338 1.111-5.008 1.481-1.67.556-3.339 1.111-5.008 1.481-1.67.556-3.154 1.296-4.638 2.037-1.484.74-3.154 1.666-4.823 2.221-1.67.555-3.34 1.111-4.824 1.851-1.67.555-3.153 1.296-4.823 1.851-1.67.556-3.524.741-5.194.926-1.67.185-3.525.37-5.009.925-1.67.556-3.153 1.296-4.823 2.037-1.484.74-3.153 1.48-4.823 2.036-1.67.555-3.525 1.111-5.194 1.851"/><path fill="#000" fill-opacity=".19" d="M20.22 189.557c1.67-.555 3.525-1.11 5.195-1.851 1.67-.555 3.153-1.296 4.637-2.036 1.484-.741 3.154-1.481 4.823-2.036 1.67-.556 3.525-.741 5.38-.926 1.67-.185 3.525-.37 5.009-.926 1.67-.555 3.339-1.11 4.823-1.851 1.67-.555 3.154-1.296 4.823-1.851 1.67-.555 3.154-1.296 4.638-2.036 1.484-.741 3.154-1.666 4.823-2.222l5.009-1.666c1.67-.555 3.339-1.11 5.008-1.48 2.412-.741 3.896-.926 5.195-1.111 1.298-.185 2.597-.37 5.008-1.111 2.412-.74 3.525-1.481 4.638-2.221 1.113-.741 2.226-1.481 4.823-2.222 2.412-.74 3.896-.925 5.194-1.11 1.299-.185 2.598-.185 5.009-1.111 2.412-.74 3.71-1.296 4.823-1.851 1.113-.555 2.412-1.111 4.823-1.851 2.412-.741 3.711-1.111 5.009-1.666 1.299-.371 2.412-.741 4.823-1.666 2.412-.741 3.711-1.111 5.009-1.296 1.299-.185 2.597-.37 5.009-1.296 2.411-.74 3.71-1.296 4.823-1.851 1.113-.555 2.412-1.111 4.823-1.851 2.412-.741 3.71-1.296 4.823-1.666 1.113-.37 2.412-.926 4.824-1.666 2.411-.741 3.71-1.111 5.008-1.296 1.299-.185 2.597-.555 5.009-1.296 2.412-.74 3.525-1.481 4.638-2.036 1.113-.741 2.411-1.296 4.823-2.222 2.411-.74 3.71-1.295 4.823-1.851 1.113-.555 2.412-1.11 4.823-1.851 2.412-.74 3.71-1.11 5.009-1.481 1.298-.37 2.411-.74 4.823-1.481 2.412-.74 3.896-.925 5.194-1.11 1.299-.185 2.597-.371 5.009-1.111 2.412-.74 3.71-1.111 5.009-1.481 1.298-.37 2.411-.74 5.008-1.481 2.412-.74 3.71-1.296 4.824-1.851 1.113-.555 2.411-1.111 4.823-1.851 2.411-.741 3.71-1.296 4.823-1.666 1.298-.37 2.412-.741 4.823-1.666l9.832-3.147c2.412-.741 3.71-1.296 4.823-1.851 1.113-.556 2.412-1.111 4.823-1.851m3.154-6.479c-1.299.185-2.597.555-5.009 1.295-2.411.741-3.524 1.481-4.637 2.037-1.113.74-2.412 1.295-4.824 2.221-2.411.74-3.71 1.296-4.823 1.666-1.298.37-2.411.926-4.823 1.666-2.597.741-3.896.926-5.38.926-1.298 0-2.597 0-5.008.74-2.412.741-3.525 1.481-4.638 2.221-1.113.741-2.226 1.481-4.823 2.407-2.412.74-3.71 1.111-5.009 1.296-1.299.185-2.597.37-5.009 1.296-2.411.74-3.71 1.11-5.008 1.295-1.299.185-2.597.371-5.009 1.296-2.412.741-3.525 1.296-4.823 1.851-1.113.556-2.412 1.111-4.823 2.037-2.412.74-3.711 1.295-4.824 1.851-1.113.555-2.411 1.11-4.823 1.851-2.411.74-3.895.925-5.194 1.111-1.299 0-2.412 0-4.823.74-2.412.74-3.525 1.296-4.823 1.851-1.113.555-2.412 1.111-4.824 1.851-2.411.741-3.71 1.111-5.008 1.296-1.299.185-2.597.555-5.009 1.296-2.412.74-3.525 1.481-4.638 2.221-1.113.741-2.226 1.481-4.823 2.222-2.411.74-3.71 1.295-4.823 1.666-1.299.37-2.412.74-4.823 1.666-2.412.74-3.71 1.295-4.823 1.666-1.113.37-2.412.925-4.824 1.666-2.411.74-3.895 1.11-5.194 1.296-1.298.185-2.597.37-5.008 1.295a218.03 218.03 0 0 1-5.01 1.481c-1.298.371-2.41.741-5.008 1.481-2.412.741-3.71 1.296-4.823 1.851-1.113.556-2.412 1.111-4.823 1.851-2.412.741-3.525 1.296-4.638 1.852-1.113.555-2.412 1.11-4.823 2.036-1.67.555-3.34 1.111-5.009 1.481-1.67.555-3.339.925-5.009 1.481l-5.008 1.666c-1.67.555-3.154 1.11-4.823 1.666-1.67.555-3.525.74-5.195 1.11-1.67.186-3.524.556-5.008 1.111-1.67.555-3.154 1.296-4.823 2.036-1.485.741-3.154 1.481-4.824 2.037-1.67.555-3.339 1.11-4.823 1.481-1.67.555-3.339.925-5.009 1.666-1.67.555-3.339.925-5.194 1.295"/><path fill="#000" fill-opacity=".19" d="M18.18 182.708c1.67-.37 3.339-.74 5.008-1.296l5.01-1.666c1.669-.555 3.338-.925 4.822-1.481 1.67-.555 3.154-1.296 4.823-2.036 1.484-.74 3.154-1.481 4.824-2.036 1.67-.556 3.524-.741 5.194-1.111 1.67-.185 3.525-.555 5.009-1.111 1.67-.555 3.153-1.11 4.823-1.666l5.008-1.666c1.67-.555 3.34-1.11 5.01-1.481 1.669-.555 3.338-.925 5.008-1.481 2.411-.74 3.525-1.295 4.638-1.851 1.112-.555 2.411-1.11 4.823-2.036 2.411-.74 3.71-1.296 4.823-1.851 1.113-.555 2.412-1.111 4.823-1.851a219.82 219.82 0 0 1 5.009-1.481c1.298-.37 2.411-.741 5.008-1.481 2.412-.741 3.896-1.111 5.195-1.296 1.298-.185 2.597-.37 5.008-1.296 2.412-.74 3.71-1.295 4.824-1.666 1.113-.37 2.411-.925 4.823-1.666 2.411-.74 3.71-1.296 4.823-1.666 1.298-.37 2.412-.74 4.823-1.666 2.412-.74 3.525-1.481 4.638-2.221 1.113-.741 2.226-1.481 4.823-2.222 2.412-.74 3.71-1.11 5.009-1.295 1.298-.185 2.597-.556 5.008-1.296 2.412-.741 3.525-1.296 4.824-1.851 1.113-.556 2.411-1.111 4.823-1.851 2.411-.741 3.895-.926 5.194-1.111 1.298-.185 2.597-.185 5.009-.926 2.411-.74 3.71-1.295 4.823-1.851 1.113-.555 2.411-1.111 4.823-1.851 2.412-.74 3.525-1.296 4.823-1.851 1.113-.555 2.412-1.111 4.823-2.036 2.412-.741 3.711-1.111 5.009-1.296 1.299-.185 2.597-.37 5.009-1.296 2.411-.74 3.71-1.111 5.008-1.296 1.299-.185 2.598-.37 5.009-1.296 2.412-.74 3.525-1.481 4.638-2.221s2.226-1.481 4.823-2.406c2.597-.741 3.896-.926 5.38-.926 1.298 0 2.597 0 5.008-.74 2.412-.741 3.711-1.296 4.824-1.667 1.298-.37 2.411-.925 4.823-1.666 2.411-.74 3.524-1.48 4.638-2.036 1.113-.74 2.411-1.296 4.823-2.221 2.411-.741 3.71-1.111 5.008-1.296m-2.04-6.109c-1.113.37-2.412.926-4.823 1.666-2.412.741-3.711 1.296-4.824 1.852-1.113.555-2.411 1.11-4.823 1.851-2.411.74-3.71 1.295-4.823 1.666-1.113.37-2.412.925-4.823 1.666-2.412.74-3.71 1.11-5.009 1.296-1.298.185-2.597.37-5.009 1.295-2.411.741-3.71 1.296-4.823 1.666-1.298.371-2.411.741-5.008 1.666-2.412.741-3.711 1.296-4.824 1.852-1.113.555-2.411 1.11-4.823 1.851-2.411.74-3.71 1.11-5.008 1.481-1.299.37-2.598.555-5.009 1.295a219.82 219.82 0 0 1-5.009 1.481c-1.298.371-2.411.741-5.009 1.481-2.411.741-3.71 1.296-4.823 1.851-1.113.556-2.411.926-4.823 1.852-2.412.74-3.525 1.295-4.638 2.036-1.113.555-2.411 1.11-4.823 2.036a218.29 218.29 0 0 1-5.009 1.481c-1.298.37-2.411.74-5.008 1.481-2.412.74-3.896.925-5.194 1.111-1.299.185-2.598.185-5.009.925-2.412.741-3.71 1.296-4.823 1.851-1.113.556-2.412 1.111-4.823 1.851-2.412.741-3.525 1.481-4.638 2.037-1.113.555-2.412 1.296-4.823 2.036-2.412.74-3.711 1.296-4.824 1.666-1.298.37-2.411.926-4.823 1.666-2.411.74-3.71 1.111-5.008 1.296-1.299.185-2.598.555-5.009 1.296-2.412.74-3.71 1.11-5.009 1.481-1.298.37-2.411.74-5.009 1.48-2.411.741-3.524 1.481-4.637 2.037-1.113.555-2.412 1.296-4.823 2.036-2.412.74-3.71 1.111-5.01 1.481-1.298.37-2.41.555-5.008 1.481-1.67.555-3.339.925-5.008 1.296-1.67.37-3.34.74-5.01 1.295-1.669.556-3.524 1.111-5.193 1.666-1.484.556-3.154 1.111-4.638 1.481-1.67.556-3.34 1.111-5.009 1.481l-5.008 1.666c-1.67.556-3.34 1.296-4.824 1.851a51.558 51.558 0 0 1-4.823 1.852c-1.67.555-3.153 1.11-4.823 1.481-1.67.555-3.34 1.11-5.194 1.666-1.67.555-3.154 1.295-4.823 2.036"/><path fill="#000" fill-opacity=".19" d="M20.962 174.933c1.67-.555 3.34-1.111 5.195-1.666 1.669-.555 3.153-1.111 4.823-1.481 1.67-.555 3.339-1.296 4.823-1.851 1.67-.74 3.339-1.296 5.009-1.851l5.008-1.666c1.67-.555 3.34-1.111 4.823-1.481 1.484-.555 3.154-1.111 4.638-1.481 1.67-.555 3.525-1.111 5.194-1.666 1.67-.555 3.34-.926 5.009-1.296 1.67-.37 3.34-.74 5.009-1.296 2.411-.74 3.71-1.11 5.008-1.48 1.299-.371 2.412-.556 5.01-1.481 2.41-.741 3.524-1.481 4.637-2.037 1.113-.555 2.411-1.295 4.823-2.036 2.412-.74 3.71-1.111 5.009-1.481 1.298-.37 2.411-.74 5.008-1.481 2.412-.74 3.711-1.11 5.009-1.296 1.299-.185 2.597-.555 5.009-1.295 2.411-.741 3.71-1.296 4.823-1.666 1.299-.371 2.412-.926 4.823-1.666 2.412-.741 3.525-1.481 4.638-2.037 1.113-.555 2.411-1.295 4.823-2.036 2.412-.74 3.71-1.296 4.823-1.851 1.113-.555 2.412-1.111 4.823-1.851 2.412-.741 3.896-.926 5.195-1.111 1.298-.185 2.597-.185 5.008-.925a219.82 219.82 0 0 1 5.009-1.481c1.299-.371 2.412-.741 4.823-1.481 2.412-.741 3.525-1.296 4.638-2.037 1.113-.555 2.411-1.11 4.823-2.036 2.412-.74 3.71-1.296 4.823-1.851 1.113-.555 2.412-.926 4.823-1.851 2.412-.741 3.711-1.111 5.009-1.481 1.299-.37 2.412-.74 4.823-1.481 2.412-.74 3.71-1.111 5.009-1.481 1.299-.37 2.597-.555 5.009-1.296 2.411-.74 3.71-1.295 4.823-1.851 1.113-.555 2.411-1.11 4.823-1.851 2.412-.74 3.71-1.296 5.009-1.666 1.298-.37 2.411-.74 4.823-1.666 2.412-.74 3.71-1.111 5.009-1.296 1.298-.185 2.597-.37 5.008-1.296 2.412-.74 3.71-1.295 4.824-1.666 1.113-.37 2.411-.925 4.823-1.666 2.411-.74 3.71-1.295 4.823-1.851 1.113-.555 2.411-1.11 4.823-1.851 2.412-.74 3.71-1.296 4.823-1.666m3.525-6.849c-2.412.74-3.71 1.11-5.009 1.296-1.298.185-2.597.555-5.008 1.296-2.412.74-3.711 1.295-4.824 1.665-1.298.37-2.411.926-4.823 1.667-2.411.74-3.71 1.295-4.823 1.666-1.113.37-2.412.925-4.823 1.666-2.412.74-3.525 1.295-4.823 1.851-1.113.555-2.412 1.11-4.824 2.036-2.411.74-3.71 1.111-5.008 1.481-1.299.37-2.412.555-5.009 1.481-2.412.74-3.896 1.111-5.194 1.296-1.299.185-2.597.37-5.009 1.11-2.411.741-3.71 1.111-5.009 1.481-1.298.37-2.411.556-5.008 1.481-2.412.741-3.71 1.296-4.823 1.666-1.113.37-2.412.926-4.824 1.666-2.411.741-3.71 1.111-4.823 1.666-1.298.371-2.411.741-5.008 1.666-2.412.741-3.525 1.481-4.638 2.037-1.113.74-2.412 1.295-4.823 2.221-2.412.74-3.71 1.296-4.824 1.851-1.113.555-2.411.926-4.823 1.851-2.411.741-3.71 1.111-5.008 1.296-1.113.37-2.412.555-4.824 1.296-2.411.74-3.71 1.111-5.008 1.481-1.299.37-2.412.555-5.009 1.481-2.412.74-3.71 1.11-5.009 1.481-1.298.37-2.411.74-5.008 1.48-2.412.741-3.711 1.111-5.009 1.481-1.299.371-2.412.741-5.009 1.481-2.411.741-3.524 1.481-4.637 2.037-1.114.74-2.227 1.295-4.824 2.221-2.411.74-3.524 1.296-4.823 1.851-1.113.555-2.411 1.111-4.823 1.851-2.412.741-3.71 1.111-5.009 1.296-1.298.185-2.597.555-5.008 1.296-2.412.74-3.71 1.296-4.824 1.666-1.113.37-2.411.925-4.823 1.666l-5.008 1.666-5.01 1.666c-1.669.555-3.338 1.296-4.822 1.851a51.26 51.26 0 0 1-4.824 1.851c-1.67.556-3.339.926-5.008 1.481-1.67.37-3.34.926-5.009 1.481-1.67.555-3.34 1.111-4.823 1.851-1.67.556-3.154 1.296-4.823 1.851-1.67.556-3.525.741-5.195 1.111-1.67.185-3.524.37-5.008.926"/><path fill="#000" fill-opacity=".19" d="M18.55 168.084c1.67-.555 3.525-.926 5.195-1.111 1.67-.185 3.525-.555 5.009-1.111 1.67-.555 3.339-1.11 4.823-1.851 1.67-.555 3.339-1.295 5.009-1.851 1.67-.555 3.339-.925 5.008-1.481 1.67-.37 3.34-.925 5.009-1.296 1.67-.555 3.34-1.295 4.823-1.851 1.67-.74 3.34-1.295 5.009-1.851l5.008-1.666 5.01-1.666c2.41-.74 3.71-1.296 4.822-1.666 1.113-.37 2.412-.925 4.824-1.666 2.411-.74 3.71-1.111 5.008-1.296 1.299-.185 2.597-.555 5.009-1.296 2.412-.74 3.525-1.295 4.823-1.851 1.113-.555 2.412-1.11 4.823-1.851 2.412-.74 3.525-1.481 4.638-2.036 1.113-.741 2.226-1.296 4.823-2.221a219.82 219.82 0 0 1 5.009-1.481c1.299-.371 2.412-.741 5.009-1.481 2.411-.741 3.71-1.111 5.008-1.481 1.299-.37 2.412-.741 5.009-1.481a219.82 219.82 0 0 1 5.009-1.481c1.298-.37 2.411-.555 5.008-1.481 2.412-.74 3.711-1.111 5.009-1.296 1.299-.185 2.597-.555 5.009-1.296 2.411-.74 3.71-1.295 4.823-1.851 1.113-.555 2.412-.925 4.823-1.851 2.412-.74 3.525-1.481 4.638-2.036 1.113-.741 2.411-1.296 4.823-2.221 2.412-.741 3.71-1.296 5.009-1.667 1.298-.37 2.411-.74 4.823-1.666 2.412-.74 3.71-1.295 4.823-1.666 1.113-.37 2.412-.925 4.823-1.666 2.412-.74 3.71-1.11 5.009-1.481 1.299-.37 2.412-.555 5.009-1.48 2.411-.741 3.895-1.111 5.194-1.296 1.298-.185 2.597-.37 5.009-1.111 2.411-.74 3.71-1.111 5.008-1.481 1.299-.37 2.412-.555 5.009-1.481 2.412-.74 3.525-1.296 4.823-1.851 1.113-.555 2.412-1.111 4.823-2.036 2.412-.74 3.711-1.296 4.824-1.666 1.113-.37 2.411-.926 4.823-1.666 2.411-.74 3.71-1.296 4.823-1.666 1.299-.37 2.412-.926 4.823-1.666 2.412-.74 3.71-1.111 5.009-1.296 1.298-.185 2.597-.555 5.009-1.296m-2.598-6.294c-2.411.74-3.71 1.296-4.823 1.666-1.298.37-2.411.926-4.823 1.666-2.412.74-3.71 1.296-4.823 1.666-1.299.37-2.412.741-4.823 1.666-2.412.741-3.711 1.111-4.824 1.667-1.298.37-2.411.74-5.008 1.666-2.412.74-3.525 1.295-4.638 1.85-1.113.556-2.412 1.111-4.823 2.037-2.412.74-3.71 1.11-5.009 1.296-1.298.185-2.597.555-5.009 1.296-2.411.74-3.71 1.295-4.823 1.851-1.113.555-2.411 1.11-4.823 1.851-2.412.74-3.71 1.111-5.009 1.296-1.298.185-2.597.555-5.008 1.295a219.82 219.82 0 0 1-5.009 1.481c-1.299.371-2.412.556-5.009 1.481-2.411.741-3.71 1.296-4.823 1.666-1.298.371-2.412.741-4.823 1.666-2.412.741-3.71 1.296-4.823 1.666-1.299.371-2.412.741-5.009 1.666l-10.017 3.147c-2.412.741-3.711 1.296-4.824 1.666-1.113.371-2.411.926-4.823 1.666-2.411.741-3.71 1.296-4.823 1.666-1.113.371-2.412.926-4.823 1.667-2.412.74-3.71 1.11-5.009 1.48-1.298.371-2.411.741-4.823 1.481l-10.017 3.518c-2.412.74-3.711 1.11-5.009 1.295-1.299.185-2.597.556-5.009 1.296-2.411.741-3.524 1.296-4.823 1.851-1.113.556-2.412 1.111-4.823 2.037-2.412.74-3.71 1.295-4.823 1.666-1.299.37-2.412.74-4.823 1.666-2.412.74-3.71 1.295-4.824 1.666-1.113.555-2.411.925-4.823 1.851-1.67.555-3.525.925-5.194 1.296-1.67.37-3.34.74-5.009 1.295-1.67.556-3.153 1.481-4.637 2.407-1.485.925-3.154 1.851-4.824 2.406-1.67.556-3.524.741-5.38.741-1.669.185-3.524.185-5.194.74-1.67.556-3.153 1.296-4.823 2.037-1.484.74-3.153 1.48-4.823 2.036-1.67.555-3.34 1.296-4.823 1.851a51.535 51.535 0 0 1-4.823 1.851"/><path fill="#000" fill-opacity=".19" d="M16.696 162.53c1.67-.555 3.339-1.295 4.823-1.851 1.67-.74 3.339-1.295 5.009-1.851 1.67-.555 3.153-1.296 4.823-2.036 1.67-.741 3.153-1.481 4.823-2.036 1.67-.556 3.525-.741 5.38-.741 1.67-.185 3.524-.185 5.194-.74 1.67-.556 3.154-1.481 4.638-2.407 1.484-.925 3.153-1.851 4.823-2.406 1.67-.556 3.524-.926 5.194-1.296s3.34-.74 5.009-1.296c2.411-.74 3.71-1.296 4.823-1.666 1.113-.555 2.411-.925 4.823-1.851 2.412-.74 3.71-1.296 4.823-1.666 1.299-.37 2.412-.926 4.823-1.666 2.412-.741 3.525-1.296 4.824-1.851 1.113-.556 2.411-1.111 4.823-2.036 2.411-.741 3.71-1.111 5.008-1.296 1.299-.185 2.598-.556 5.009-1.296l9.832-3.147c2.412-.74 3.71-1.111 5.009-1.481 1.298-.37 2.411-.74 4.823-1.481 2.412-.74 3.71-1.296 4.823-1.666 1.113-.37 2.412-.925 4.823-1.666 2.412-.74 3.71-1.296 4.823-1.666 1.114-.37 2.412-.926 4.824-1.666l9.832-3.147c2.411-.74 3.71-1.296 5.008-1.666 1.299-.37 2.412-.74 4.823-1.666 2.412-.74 3.711-1.296 4.824-1.666 1.298-.37 2.411-.74 4.823-1.666 2.411-.74 3.71-1.111 5.009-1.481 1.298-.37 2.411-.555 5.008-1.481 2.412-.74 3.71-1.111 5.009-1.296 1.298-.185 2.597-.555 5.009-1.295 2.411-.741 3.71-1.296 4.823-1.852 1.113-.555 2.411-1.11 4.823-1.851 2.412-.74 3.71-1.11 5.009-1.296 1.298-.185 2.597-.555 5.008-1.295 2.412-.74 3.525-1.296 4.638-1.852 1.113-.555 2.412-1.11 4.823-2.036 2.412-.74 3.71-1.296 5.009-1.666 1.299-.37 2.412-.74 4.823-1.666 2.412-.74 3.71-1.296 4.823-1.666 1.299-.37 2.412-.74 4.824-1.666 2.411-.74 3.71-1.296 4.823-1.666 1.298-.37 2.411-.925 4.823-1.666M18.55 154.941c1.856-.555 3.896-1.296 5.752-1.851l5.008-1.666c1.67-.556 3.34-.926 4.823-1.481 1.67-.556 3.34-1.296 4.824-1.851 1.67-.741 3.339-1.481 5.008-2.037 1.67-.555 3.34-1.11 4.823-1.666l5.01-1.666c1.669-.555 3.153-1.295 4.822-2.036 1.67-.74 3.154-1.481 4.824-2.036 2.411-.741 3.895-1.111 5.194-1.296 1.298-.185 2.597-.37 5.008-1.111 2.412-.74 3.71-1.11 5.01-1.295 1.298-.186 2.596-.556 5.008-1.296 2.411-.741 3.525-1.481 4.638-2.222 1.112-.74 2.226-1.481 4.823-2.406 2.411-.741 3.71-1.296 4.823-1.666 1.298-.37 2.411-.741 4.823-1.666 2.412-.741 3.71-1.296 4.823-1.666 1.299-.37 2.412-.926 4.823-1.666 2.598-.741 3.896-.926 5.38-.926 1.299 0 2.597 0 5.009-.925 2.411-.741 3.524-1.296 4.823-1.852 1.113-.555 2.412-1.11 4.823-1.851 2.412-.74 3.71-1.11 5.009-1.481 1.298-.37 2.412-.555 5.009-1.48 2.411-.741 3.524-1.296 4.637-2.037 1.113-.555 2.412-1.11 4.823-2.036 2.412-.74 3.711-1.296 4.824-1.666 1.113-.555 2.411-.926 4.823-1.851 2.411-.741 3.71-1.296 4.823-1.666 1.113-.37 2.412-.926 4.823-1.666a219.82 219.82 0 0 1 5.009-1.481c1.298-.37 2.412-.741 4.823-1.481 2.412-.74 3.71-1.296 4.823-1.666 1.113-.37 2.412-.926 4.823-1.666 2.412-.74 3.711-1.11 5.009-1.481 1.299-.37 2.412-.74 5.009-1.481 2.411-.74 3.896-.925 5.194-1.11 1.299-.186 2.597-.37 5.009-1.111 2.411-.74 3.524-1.296 4.823-1.852 1.113-.555 2.412-1.11 4.823-1.85 2.412-.741 3.525-1.296 4.638-1.852 1.113-.555 2.411-1.11 4.823-2.036 2.412-.74 3.71-1.11 5.009-1.481 1.298-.37 2.597-.555 5.008-1.296 2.412-.74 3.711-1.11 5.009-1.48 1.299-.37 2.412-.741 5.009-1.482l.371.926c-2.412.74-3.71 1.11-5.009 1.48-1.298.371-2.411.741-5.009 1.482-2.411.74-3.71 1.11-5.008 1.48-1.299.371-2.597.556-5.009 1.482-2.412.74-3.525 1.295-4.638 1.85-1.113.556-2.411 1.112-4.823 2.037-2.411.74-3.524 1.296-4.823 1.851-1.113.555-2.412 1.11-4.823 1.851-2.412.74-3.896.926-5.194 1.111-1.299.185-2.598.37-5.009 1.11-2.412.741-3.71 1.111-5.009 1.482-1.298.37-2.411.74-5.009 1.48-2.411.741-3.71 1.296-4.823 1.667-1.113.37-2.411.925-4.823 1.666-2.411.74-3.71 1.11-5.009 1.481-1.298.37-2.411.74-4.823 1.48-2.411.741-3.71 1.296-4.823 1.666-1.113.371-2.412.926-4.823 1.667-2.412.74-3.71 1.295-4.823 1.666-1.113.555-2.412.925-4.824 1.851-2.411.74-3.524 1.295-4.637 2.036-1.113.555-2.412 1.111-4.823 2.036-2.412.741-3.711 1.111-5.009 1.481-1.299.37-2.412.555-5.009 1.481-2.411.74-3.71 1.296-4.823 1.851-1.113.556-2.412 1.111-4.823 1.851-2.597.741-3.896.926-5.38.926-1.298 0-2.597 0-5.009.925-2.411.741-3.71 1.296-4.823 1.666-1.298.371-2.411.926-4.823 1.667-2.412.74-3.71 1.295-4.823 1.666-1.299.37-2.412.74-4.823 1.666-2.412.74-3.525 1.481-4.638 2.221s-2.226 1.481-4.823 2.406c-2.412.741-3.71 1.111-5.009 1.296-1.298.185-2.597.556-5.009 1.296-2.411.741-3.895 1.111-5.194 1.296-1.298.185-2.597.37-5.008 1.296-1.67.555-3.154 1.295-4.824 2.036-1.67.74-3.153 1.481-4.823 2.036l-5.008 1.666-5.01 1.666c-1.669.556-3.338 1.296-4.822 1.851-1.67.741-3.154 1.481-4.824 2.037-1.67.555-3.339 1.11-5.008 1.481l-5.009 1.666c-1.855.555-3.896 1.295-5.75 1.851m-1.67-8.886c1.67-.555 3.153-1.111 4.823-1.481 1.67-.555 3.339-1.296 4.823-1.851 1.67-.74 3.34-1.296 5.009-1.851 1.67-.555 3.524-.926 5.194-1.111 1.67-.185 3.525-.555 5.009-1.111 1.67-.555 3.339-1.295 4.823-2.036 1.67-.74 3.153-1.481 5.009-2.036 1.669-.555 3.339-1.296 4.823-1.851a39.835 39.835 0 0 1 5.008-1.851c2.412-.741 3.71-1.111 5.009-1.666 1.299-.371 2.412-.741 4.823-1.481 2.412-.741 3.896-.926 5.194-1.111 1.299-.185 2.597-.185 5.01-.926 2.41-.74 3.71-1.11 5.008-1.48 1.298-.371 2.411-.741 5.008-1.481 2.412-.741 3.525-1.481 4.638-2.037 1.113-.74 2.226-1.295 4.823-2.221 2.412-.74 3.896-.926 5.195-1.296 1.298-.185 2.597-.37 5.008-1.11 2.412-.741 3.525-1.481 4.638-2.222 1.113-.74 2.226-1.481 4.823-2.221 2.412-.741 3.896-.926 5.194-1.111 1.299-.185 2.597-.185 5.009-1.111 2.412-.74 3.71-1.295 4.823-1.851 1.113-.555 2.412-1.11 4.823-1.851 2.412-.74 3.711-1.111 5.009-1.481 1.299-.37 2.597-.555 5.009-1.296 2.411-.74 3.524-1.481 4.638-2.221 1.113-.74 2.226-1.481 4.823-2.221 2.411-.74 3.895-1.111 5.194-1.296 1.298-.185 2.597-.37 5.009-1.11 2.411-.741 3.71-1.297 4.823-1.852 1.113-.555 2.411-.926 4.823-1.851 2.412-.74 3.71-1.296 4.823-1.851 1.113-.556 2.412-.926 4.823-1.851 2.412-.74 3.711-1.111 5.009-1.481 1.299-.37 2.412-.556 5.009-1.481 2.411-.74 3.71-1.111 5.008-1.481 1.299-.37 2.412-.555 5.009-1.481 2.412-.74 3.71-1.11 5.009-1.481 1.298-.37 2.597-.555 5.009-1.296 2.411-.74 3.524-1.48 4.637-2.221 1.113-.74 2.226-1.481 4.823-2.407 2.412-.74 3.711-1.11 5.009-1.296 1.299-.185 2.597-.555 5.009-1.295 2.411-.74 3.895-1.111 5.194-1.296 1.299-.185 2.597-.37 5.009-1.296l.371.926c-2.412.74-3.896 1.11-5.194 1.296-1.299.185-2.598.37-5.009 1.295-2.412.74-3.71 1.111-5.009 1.296-1.298.185-2.597.555-5.009 1.296-2.411.74-3.524 1.48-4.637 2.221-1.113.74-2.226 1.481-4.823 2.407-2.412.74-3.711 1.11-5.009 1.48-1.299.37-2.597.556-5.009 1.296-2.411.74-3.71 1.111-5.009 1.481-1.298.37-2.411.556-5.008 1.481-2.412.74-3.71 1.111-5.009 1.481-1.298.37-2.412.556-5.009 1.481-2.411.74-3.71 1.296-4.823 1.851-1.113.556-2.411.926-4.823 1.851-2.412.74-3.71 1.296-4.823 1.852-1.113.555-2.412.925-4.823 1.85-2.412.741-3.896 1.111-5.195 1.296-1.298.186-2.597.37-5.008 1.111-2.412.741-3.525 1.481-4.638 2.222-1.113.74-2.226 1.48-4.823 2.221-2.412.74-3.71 1.111-5.009 1.481-1.298.37-2.597.555-5.009 1.296-2.411.74-3.71 1.295-4.823 1.851-1.113.555-2.411 1.11-4.823 1.851-2.412.74-3.896.926-5.194 1.111-1.299.185-2.597.185-5.009 1.11-2.411.741-3.524 1.481-4.638 2.222-1.484.555-2.597 1.295-5.194 2.036-2.411.74-3.895.926-5.194 1.296-1.298.185-2.597.37-5.009 1.11-2.411.741-3.524 1.481-4.637 2.037-1.113.74-2.226 1.296-4.823 2.221a218.03 218.03 0 0 1-5.01 1.481c-1.298.37-2.41.74-5.008 1.481-2.412.74-3.895.925-5.194 1.111-1.299.185-2.597.185-5.009.925-2.411.741-3.71 1.111-5.008 1.666-1.299.37-2.412.741-4.824 1.481-1.67.555-3.339 1.296-4.823 1.851-1.67.741-3.339 1.296-5.008 1.851-1.67.556-3.34 1.296-4.824 2.037-1.67.74-3.153 1.481-5.008 2.036-1.67.555-3.525.925-5.195 1.111-1.67.185-3.524.555-5.194 1.11-1.67.556-3.339 1.296-4.823 1.851-1.67.741-3.34 1.296-5.009 1.852-1.67.555-3.153 1.11-4.823 1.481m2.597-9.256c1.67-.555 3.34-1.111 5.194-1.666 1.67-.555 3.34-1.111 5.01-1.481 1.669-.555 3.153-1.111 4.822-1.666 1.67-.555 3.34-1.111 5.195-1.666 1.67-.555 3.339-1.111 4.823-1.666 1.67-.555 3.339-1.111 5.194-1.666 1.67-.555 3.34-1.111 5.009-1.481 1.67-.37 3.339-.926 5.008-1.481 2.412-.74 3.525-1.296 4.824-1.851 1.113-.555 2.411-1.111 4.823-1.851 2.597-.741 3.895-.741 5.38-.741 1.298 0 2.596 0 5.008-.74 2.412-.741 3.71-1.296 4.823-1.851 1.113-.556 2.412-.926 4.824-1.851 2.411-.741 3.524-1.481 4.637-2.222 1.113-.74 2.226-1.481 4.823-2.406 2.412-.741 3.896-.926 5.195-1.111 1.298-.185 2.597-.185 5.008-.926 2.412-.74 3.525-1.295 4.823-1.851 1.114-.555 2.412-1.11 4.824-2.036 2.411-.74 3.895-.926 5.194-1.111 1.298-.185 2.597-.185 5.009-.925 2.411-.741 3.524-1.481 4.637-2.222 1.113-.74 2.226-1.48 4.823-2.406 2.412-.74 3.711-1.11 5.009-1.481 1.299-.37 2.412-.555 5.009-1.48a219.48 219.48 0 0 1 5.009-1.482c1.298-.37 2.411-.74 4.823-1.48 2.411-.741 3.71-1.111 5.008-1.482 1.299-.37 2.412-.555 5.009-1.48 2.412-.741 3.525-1.481 4.638-2.037 1.113-.74 2.411-1.296 4.823-2.221 2.412-.74 3.896-.926 5.194-1.11 1.299-.186 2.597-.371 5.009-1.112 2.411-.74 3.525-1.295 4.638-2.036 1.113-.555 2.411-1.296 4.823-2.036 2.411-.74 3.71-1.11 5.008-1.481 1.299-.37 2.598-.555 5.009-1.296 2.412-.74 3.525-1.296 4.638-2.036 1.113-.555 2.411-1.11 4.823-2.036 2.412-.74 3.71-1.111 5.009-1.481 1.298-.37 2.411-.556 5.008-1.481 2.412-.74 3.896-.926 5.195-1.11 1.298-.186 2.597-.371 5.008-1.111l9.832-3.333.371.926-9.832 3.332c-2.411.74-3.895.926-5.194 1.11-1.298.186-2.597.371-5.009 1.111-2.411.74-3.71 1.111-5.008 1.481-1.299.37-2.597.556-5.009 1.481-2.412.74-3.525 1.296-4.638 2.037-1.113.555-2.411 1.11-4.823 2.036-2.411.74-3.71 1.11-5.009 1.48-1.298.37-2.597.556-5.008 1.297-2.412.74-3.525 1.295-4.638 2.036-1.113.555-2.412 1.296-4.823 2.036-2.412.74-3.896.926-5.194 1.11-1.299.186-2.597.37-5.009 1.111-2.412.74-3.525 1.481-4.638 2.037-1.113.74-2.411 1.295-4.823 2.221-2.411.74-3.71 1.11-5.009 1.48-1.298.371-2.411.556-5.008 1.482-2.412.74-3.71 1.11-4.823 1.48-1.299.371-2.412.741-5.009 1.482-2.412.74-3.71 1.11-5.009 1.48-1.298.37-2.411.556-5.009 1.482-2.411.74-3.524 1.48-4.637 2.221-1.113.74-2.226 1.481-4.823 2.406-2.412.741-3.896.926-5.195 1.111-1.669-.185-2.968 0-5.379.741-2.412.74-3.525 1.295-4.824 1.851-1.113.555-2.411 1.11-4.823 2.036-2.411.74-3.895.925-5.194 1.111-1.298.185-2.597.185-5.009.925-2.411.741-3.524 1.481-4.637 2.222-1.113.74-2.226 1.48-4.823 2.406-2.412.74-3.71 1.296-4.824 1.851-1.113.556-2.411.926-4.823 1.851-2.597.741-3.895.741-5.38.741-1.298 0-2.597 0-5.008.74-2.412.741-3.71 1.296-4.823 1.851-1.114.556-2.412 1.111-4.824 1.852-1.67.555-3.339.925-5.008 1.48-1.67.371-3.34.926-5.009 1.481-1.67.556-3.34 1.111-5.194 1.666-1.67.556-3.154 1.111-4.823 1.666-1.67.556-3.34 1.111-5.195 1.666-1.67.556-3.153 1.111-4.823 1.666l-5.009 1.667-5.008 1.666m-.186-7.59c1.67-.556 3.34-.926 5.009-1.111 1.67-.37 3.34-.555 4.823-1.111a24.902 24.902 0 0 0 4.452-2.221c1.484-.925 2.968-1.666 4.638-2.221 1.67-.556 3.34-.741 5.009-1.111 1.67-.185 3.339-.555 4.823-.926 1.67-.555 3.154-1.11 4.638-1.666 1.484-.555 3.153-1.11 4.637-1.666 2.412-.74 3.71-1.11 5.009-1.295 1.299-.186 2.597-.556 5.009-1.296 2.411-.741 3.339-1.481 4.452-2.407 1.113-.74 2.226-1.666 4.823-2.406 2.412-.741 3.71-1.111 5.009-1.666 1.298-.37 2.411-.741 4.823-1.666 2.411-.741 3.895-1.111 5.009-1.296 1.298-.185 2.597-.37 5.008-1.296 2.412-.74 3.71-1.111 5.009-1.481 1.299-.37 2.412-.74 5.009-1.481 2.411-.74 3.71-1.11 5.008-1.481 1.299-.37 2.412-.74 5.009-1.481 2.412-.74 3.525-1.295 4.823-1.85 1.113-.556 2.412-1.111 4.823-2.037 2.412-.74 3.711-1.11 5.009-1.48 1.299-.371 2.412-.556 5.009-1.482 2.411-.74 3.524-1.296 4.823-1.85 1.113-.556 2.412-1.112 4.823-2.037 2.412-.74 3.896-.926 5.194-1.11 1.299-.186 2.598-.186 5.009-.926 2.412-.74 3.525-1.296 4.638-1.852 1.113-.555 2.411-1.11 4.823-2.036 2.412-.74 3.71-1.296 4.823-1.666 1.299-.37 2.412-.74 4.823-1.666 2.412-.74 3.71-1.11 5.009-1.48 1.299-.371 2.412-.741 5.009-1.482 2.411-.74 3.71-1.11 5.008-1.48 1.299-.37 2.412-.741 5.009-1.481 2.412-.741 3.525-1.481 4.638-2.037 1.113-.555 2.411-1.296 4.823-2.036 2.412-.74 3.896-.926 5.194-1.11 1.299-.186 2.597-.371 5.009-1.111 2.412-.74 3.71-1.296 4.823-1.852 1.113-.555 2.412-.925 4.823-1.85 2.412-.741 3.71-1.297 4.823-1.667 1.299-.37 2.412-.925 4.824-1.666 2.411-.74 3.71-1.296 4.823-1.85 1.113-.556 2.411-1.112 4.823-1.852l.371.925c-2.412.74-3.71 1.296-4.823 1.852-1.113.555-2.412 1.11-4.823 1.85-2.412.741-3.71 1.297-4.824 1.667-1.113.37-2.411.925-4.823 1.666-2.411.74-3.71 1.296-4.823 1.851-1.113.555-2.411.926-4.823 1.851-2.412.74-3.896.926-5.194 1.11-1.299.186-2.597.371-5.009 1.112-2.412.74-3.525 1.48-4.638 2.036-1.113.555-2.411 1.296-4.823 2.036-2.411.74-3.71 1.11-5.009 1.48-1.298.371-2.411.741-4.823 1.482-2.411.74-3.71 1.11-5.008 1.48-1.299.371-2.412.741-5.009 1.482-2.412.74-3.71 1.296-4.823 1.666-1.299.37-2.412.74-4.823 1.666-2.412.74-3.525 1.296-4.638 1.85-1.113.556-2.412 1.112-4.823 2.037-2.412.74-3.896.926-5.195 1.11-1.298.186-2.597.186-5.008.926-2.412.74-3.525 1.296-4.823 1.852-1.113.555-2.412 1.11-4.824 2.036-2.411.74-3.71 1.11-5.008 1.48-1.299.371-2.412.556-5.009 1.482-2.412.74-3.525 1.296-4.823 1.85-1.113.556-2.412 1.111-4.823 2.037-2.412.741-3.711 1.111-5.009 1.481-1.299.37-2.412.74-5.009 1.481-2.411.74-3.71 1.111-5.008 1.481-1.299.37-2.412.74-5.01 1.481-2.41.74-3.895 1.11-5.008 1.296-1.298.185-2.597.37-5.009 1.295-2.411.741-3.71 1.111-5.008 1.666-1.299.371-2.412.741-4.824 1.666-2.411.741-3.339 1.481-4.452 2.407-1.113.74-2.226 1.666-4.823 2.406-2.411.741-3.71 1.111-5.009 1.296-1.298.185-2.597.556-5.008 1.296-1.484.555-3.154 1.111-4.638 1.666-1.484.555-3.154 1.111-4.823 1.666-1.67.555-3.34.74-5.009 1.111-1.67.185-3.339.555-4.823.925a24.975 24.975 0 0 0-4.452 2.222c-1.484.925-2.968 1.666-4.638 2.221-1.67.555-3.339.926-5.009 1.111-1.67.37-3.339.555-4.823 1.11m-2.597-7.219c1.484-.555 3.154-1.296 4.638-1.851 1.484-.741 3.154-1.481 4.638-1.851a24.297 24.297 0 0 1 5.008-1.111c1.67-.37 3.34-.555 4.823-1.111 1.67-.555 3.34-.925 5.01-1.295 1.669-.371 3.338-.741 4.822-1.296a24.976 24.976 0 0 0 4.453-2.222c1.484-.925 2.968-1.666 4.637-2.221 2.412-.74 3.71-1.111 5.009-1.481 1.298-.37 2.412-.74 5.009-1.481 2.411-.74 3.71-1.111 5.008-1.481 1.299-.37 2.412-.74 4.823-1.481 2.412-.74 3.71-1.295 4.824-1.666 1.113-.555 2.411-.925 4.823-1.851 2.411-.74 3.71-1.296 4.823-1.851 1.113-.555 2.412-1.111 4.823-1.851 2.597-.74 3.896-.926 5.194-.926 1.299 0 2.598-.185 5.009-.925 2.412-.74 3.525-1.481 4.638-2.037 1.113-.74 2.411-1.295 4.823-2.22 2.412-.741 3.71-1.112 5.009-1.482 1.298-.37 2.411-.74 5.008-1.48 2.412-.741 3.711-1.297 4.824-1.852 1.113-.555 2.411-1.11 4.823-1.851 2.411-.74 3.71-1.11 5.008-1.481 1.299-.37 2.412-.74 5.009-1.48 2.412-.741 3.71-1.112 5.009-1.297 1.298-.185 2.597-.555 5.009-1.295 2.411-.741 3.895-.926 5.194-1.111 1.298-.185 2.597-.37 5.008-1.11 2.412-.741 3.34-1.667 4.453-2.407 1.113-.926 2.226-1.666 4.823-2.592 2.597-.74 3.895-.925 5.194-1.11 1.299-.186 2.597-.186 5.009-.926 2.411-.74 3.71-1.296 4.823-1.851 1.113-.556 2.411-1.111 4.823-1.851a219.82 219.82 0 0 1 5.009-1.481c1.298-.37 2.411-.556 5.008-1.481 2.412-.74 3.711-1.111 5.009-1.481 1.299-.37 2.412-.556 5.009-1.481 2.411-.74 3.525-1.481 4.638-2.222 1.113-.74 2.226-1.48 4.823-2.406l9.832-3.332c2.597-.74 3.895-.926 5.379-.926 1.299 0 2.597 0 5.009-.74l.371.925c-2.597.74-3.896.926-5.38.926-1.298 0-2.597 0-5.008.74l-9.832 3.333c-2.412.74-3.525 1.48-4.638 2.22-1.113.741-2.226 1.482-4.823 2.407-2.412.74-3.71 1.111-5.009 1.481-1.298.37-2.411.556-5.009 1.481-2.411.74-3.71 1.11-5.008 1.481-1.299.37-2.412.556-5.009 1.481-2.412.74-3.71 1.296-4.823 1.851-1.113.556-2.412 1.11-4.823 1.851-2.597.74-3.896.926-5.194 1.111-1.299.185-2.598.185-5.009.926-2.412.74-3.339 1.666-4.452 2.406-1.113.926-2.226 1.666-4.824 2.592-2.411.74-3.895.925-5.194 1.11-1.298.186-2.597.37-5.008 1.111-2.412.74-3.711 1.11-5.009 1.296-1.299.185-2.597.555-5.009 1.296-2.411.74-3.71 1.11-5.009 1.48-1.298.37-2.411.741-4.823 1.482-2.411.74-3.71 1.295-4.823 1.85-1.113.556-2.412 1.111-4.823 1.852-2.412.74-3.71 1.11-5.009 1.48-1.298.37-2.411.741-5.008 1.482-2.412.74-3.525 1.48-4.638 2.036-1.113.74-2.412 1.296-4.823 2.221-2.597.74-3.896.926-5.195.926-1.298 0-2.597.185-5.008.925-2.412.741-3.71 1.296-4.824 1.852-1.113.555-2.411 1.11-4.823 1.851-2.411.74-3.71 1.296-4.823 1.666-1.113.555-2.411.925-4.823 1.851a225.44 225.44 0 0 1-5.009 1.481c-1.298.37-2.411.74-4.823 1.481-2.412.74-3.71 1.11-5.009 1.481-1.298.37-2.411.74-5.008 1.481a24.902 24.902 0 0 0-4.453 2.221c-1.483.925-2.968 1.666-4.637 2.221-1.67.556-3.34.926-4.823 1.296-1.67.37-3.34.741-4.823 1.296a24.42 24.42 0 0 1-5.01 1.111c-1.669.37-3.338.555-4.822 1.11-1.485.556-3.154 1.296-4.638 1.851-1.484.741-3.154 1.481-4.638 1.852m2.041-8.516c1.67-.37 3.339-.555 4.823-1.11 1.484-.556 3.154-1.296 4.638-1.852a50.505 50.505 0 0 1 4.637-2.036c1.67-.555 3.34-.925 5.009-1.296 1.67-.37 3.34-.74 4.823-1.295 1.484-.556 3.154-1.296 4.452-2.037 1.484-.74 2.968-1.481 4.638-2.036 2.412-.74 3.525-1.296 4.823-1.851 1.113-.556 2.412-1.111 4.824-1.851 2.597-.741 3.895-.926 5.194-.926 1.298 0 2.597 0 5.008-.925 2.412-.741 3.71-1.111 4.824-1.666 1.298-.37 2.411-.74 4.823-1.666 2.411-.741 3.339-1.481 4.452-2.407 1.113-.74 2.226-1.666 4.823-2.407 2.412-.74 3.71-1.11 5.009-1.48 1.298-.37 2.411-.556 5.008-1.481 2.412-.74 3.711-1.296 4.824-1.666 1.298-.37 2.411-.74 5.008-1.666 2.597-.74 3.896-.926 5.195-.926 1.298 0 2.597-.185 5.008-.925 2.412-.741 3.525-1.481 4.638-2.037 1.113-.74 2.412-1.296 4.823-2.221 2.412-.74 3.71-1.296 4.823-1.851 1.113-.556 2.412-.926 4.824-1.852 2.411-.74 3.71-1.295 4.823-1.85 1.113-.556 2.411-1.111 4.823-1.852 2.411-.74 3.896-.925 5.194-.925 1.299-.185 2.597-.185 5.009-.926 2.411-.74 3.71-1.11 5.008-1.48 1.299-.371 2.412-.741 5.009-1.482 2.412-.74 3.339-1.48 4.452-2.406 1.113-.74 2.226-1.666 4.824-2.407 5.008-1.666 5.565 0 10.388-1.666 2.412-.74 3.71-1.296 4.823-1.85 1.113-.556 2.412-1.112 4.823-1.852 2.412-.74 3.71-1.11 5.009-1.296 1.299-.185 2.597-.555 5.009-1.296 2.411-.74 3.524-1.48 4.637-2.221 1.113-.74 2.226-1.48 4.824-2.221 2.411-.74 3.71-1.111 5.008-1.481 1.299-.37 2.412-.74 5.009-1.481 2.412-.74 3.71-1.11 5.009-1.481 1.298-.37 2.411-.74 5.008-1.481l.371.925c-2.411.741-3.71 1.111-5.008 1.481-1.299.37-2.412.74-5.009 1.481-2.412.74-3.71 1.111-5.009 1.481-1.298.37-2.411.74-5.008 1.481-2.412.74-3.525 1.481-4.638 2.222-1.113.74-2.226 1.48-4.823 2.221-2.412.74-3.71 1.11-5.009 1.296-1.299.185-2.597.555-5.009 1.296-2.411.74-3.71 1.295-4.823 1.85-1.113.556-2.411 1.111-4.823 1.852-5.009 1.666-5.565 0-10.388 1.666-2.412.74-3.34 1.48-4.453 2.406-1.113.74-2.226 1.666-4.823 2.407-2.411.74-3.71 1.11-5.009 1.48-1.298.371-2.411.741-5.008 1.482-2.597.74-3.896.925-5.194.925-1.299.185-2.598.185-5.009.926-2.412.74-3.71 1.296-4.823 1.851-1.113.555-2.412 1.11-4.823 1.851-2.412.74-3.711 1.296-4.824 1.851-1.113.556-2.411.926-4.823 1.851-2.411.74-3.524 1.481-4.638 2.037-.927.925-2.04 1.666-4.637 2.591-2.597.74-3.896.926-5.194.926-1.299 0-2.598.185-5.009.925-2.412.74-3.71 1.296-5.009 1.666-1.298.37-2.411.74-4.823 1.666-2.412.74-3.71 1.111-5.009 1.481-1.298.37-2.411.556-5.008 1.481-2.412.74-3.34 1.481-4.453 2.407-1.113.74-2.226 1.666-4.823 2.406-2.411.74-3.71 1.111-4.823 1.666-1.299.371-2.412.741-4.823 1.666-2.597.741-3.896.926-5.194.926-1.299 0-2.597 0-5.009.925-2.412.741-3.525 1.296-4.823 1.852-1.113.555-2.412 1.11-4.823 1.851-1.485.555-3.154 1.296-4.453 2.036-1.484.741-2.968 1.481-4.637 2.036-1.67.556-3.34.926-5.009 1.296-1.67.37-3.34.741-4.823 1.296-1.484.555-3.154 1.296-4.638 1.851a50.235 50.235 0 0 1-4.637 2.036 24.3 24.3 0 0 1-5.01 1.111m-2.782-8.145a50.505 50.505 0 0 1 4.638-2.036c1.67-.556 3.154-1.111 4.637-1.666 1.67-.556 3.154-1.111 4.824-1.666 1.67-.556 3.339-.926 5.008-1.296 1.67-.37 3.34-.741 4.824-1.111 1.67-.555 3.153-1.11 4.637-1.851 1.484-.555 3.154-1.296 4.638-1.851 2.412-.74 3.71-1.11 5.009-1.296 1.298-.185 2.597-.555 5.008-1.296 2.412-.74 3.71-1.11 5.01-1.48 1.298-.37 2.41-.741 5.008-1.481 2.411-.741 3.71-1.111 5.008-1.666 1.299-.37 2.412-.741 4.824-1.481 2.411-.74 3.524-1.481 4.637-2.222 1.113-.74 2.226-1.48 4.823-2.406 2.598-.74 3.896-.926 5.195-.926 1.298 0 2.597 0 5.008-.925 2.412-.74 3.711-1.111 5.009-1.481 1.299-.37 2.412-.74 5.009-1.481 2.411-.74 3.524-1.481 4.637-2.037 1.114-.555 2.412-1.295 4.824-2.036 2.411-.74 3.524-1.296 4.823-1.851 1.113-.555 2.411-1.11 4.823-2.036 2.412-.74 3.896-.926 5.194-1.296 1.299-.185 2.597-.37 5.009-1.11 2.412-.741 3.71-1.111 5.009-1.482 1.298-.185 2.597-.555 5.008-1.295 2.412-.74 3.71-1.111 5.009-1.481 1.299-.37 2.412-.74 4.823-1.481 2.412-.74 3.525-1.296 4.823-1.851 1.113-.556 2.412-1.111 4.824-2.037 2.411-.74 3.895-1.11 5.194-1.296 1.298-.185 2.597-.37 5.008-1.295 2.412-.74 3.711-1.296 4.824-1.666 1.298-.37 2.411-.926 4.823-1.666 2.411-.74 3.71-1.296 4.823-1.852 1.113-.555 2.412-.925 4.823-1.85 2.412-.741 3.525-1.296 4.823-1.852 1.113-.555 2.412-1.11 4.824-2.036 2.411-.74 3.71-1.296 4.823-1.666 1.113-.555 2.411-.926 4.823-1.851 2.412-.74 3.71-1.296 4.823-1.666 1.299-.37 2.412-.74 5.009-1.666 2.411-.74 3.71-1.11 5.009-1.481 1.298-.37 2.411-.74 5.008-1.481l.371.925c-2.411.74-3.71 1.111-5.008 1.481-1.299.37-2.412.74-5.009 1.481-2.412.74-3.71 1.296-5.009 1.666-1.298.37-2.411.74-4.823 1.666-2.412.74-3.71 1.296-4.823 1.666-1.113.556-2.412.926-4.823 1.851-2.412.741-3.525 1.296-4.638 1.852-1.113.555-2.412 1.11-4.823 2.036-2.412.74-3.71 1.296-4.823 1.851-1.113.555-2.412.926-4.824 1.851-2.411.74-3.71 1.296-4.823 1.666-1.298.37-2.411.926-4.823 1.666-2.412.74-3.896 1.111-5.194 1.296-1.299.185-2.597.37-5.009 1.296-2.411.74-3.525 1.296-4.823 1.851-1.113.555-2.412 1.11-4.823 2.036-2.412.74-3.71 1.111-5.009 1.481-1.299.37-2.412.74-4.823 1.481-2.412.74-3.71 1.11-5.009 1.481-1.298.185-2.597.555-5.009 1.296-2.411.74-3.895.925-5.194 1.296-1.298.185-2.597.37-5.008 1.11-2.412.74-3.525 1.296-4.824 1.852-1.113.555-2.411 1.11-4.823 2.036-2.411.74-3.524 1.48-4.637 2.036-1.114.555-2.412 1.296-4.824 2.036-2.411.74-3.71 1.111-5.008 1.481-1.299.37-2.412.74-4.824 1.481-2.597.74-3.895.926-5.194.926-1.298 0-2.597 0-5.008.925-2.412.74-3.525 1.481-4.638 2.222-1.113.74-2.226 1.48-4.823 2.406-2.412.74-3.71 1.11-5.009 1.666-1.299.37-2.412.74-4.823 1.666-2.412.74-3.71 1.11-5.009 1.481-1.298.37-2.411.74-5.009 1.481-2.411.74-3.71 1.11-5.008 1.296-1.299.185-2.597.555-5.009 1.296-1.484.555-3.154 1.11-4.638 1.851-1.484.555-3.153 1.296-4.823 1.851-1.67.555-3.339.925-5.009 1.296-1.67.37-3.339.74-4.823 1.11-1.67.556-3.153 1.111-4.823 1.666-1.484.556-3.154 1.111-4.823 1.666a50.506 50.506 0 0 0-4.638 2.037"/></g><defs><clipPath id="a"><path fill="#fff" d="M0 0h256v291H0z"/></clipPath></defs></svg>