<svg xmlns="http://www.w3.org/2000/svg" width="1917" height="468" fill="none"><path stroke="#F2F5F8" stroke-miterlimit="10" stroke-width="6" d="M-5 464.566c98.493-2.448 191.565-70.988 277.408-146.871 16.265-13.871 34.337-28.558 52.409-21.215 27.109 11.424 42.47 69.356 70.482 71.804 21.687 1.632 38.855-33.454 58.735-48.957 23.493-17.951 49.698-8.976 75.903-5.712 65.963 8.976 74.096-70.987 103.915-156.662 18.976-55.485 46.084-101.178 77.71-133.816 9.94-10.607 20.783-19.582 32.53-19.582 20.783 0 37.048 26.926 56.928 36.717 40.662 19.583 90.36-38.35 124.698 5.712 11.747 15.503 18.976 39.982 28.012 60.38 19.879 44.877 54.22 68.54 86.75 59.564 15.36-4.079 30.72-14.687 46.08-13.055 29.82 3.264 70.48 34.27 97.59 55.485 12.65 9.791 19.88 32.638 30.72 42.429 18.07 16.319 28.92-3.264 46.99-12.239 10.84-4.896 22.59-1.632 33.43-6.528 12.65-5.711 22.59-21.214 32.53-36.717 20.79-34.27 40.67-72.62 65.97-94.65 25.3-22.031 58.73-24.479 79.51 10.607 9.04 15.503 15.37 36.718 26.21 47.325 18.98 17.135 40.66-4.896 60.54-11.423 45.18-14.687 85.84 48.141 115.66 110.153 28.02 58.748 54.22 116.68 95.79 143.607 46.08 29.374 96.68 25.294 144.57 23.662" opacity=".62"/></svg>