<svg xmlns="http://www.w3.org/2000/svg" width="1920" height="606" fill="none"><path stroke="#F2F5F8" stroke-miterlimit="10" stroke-width="6" d="M-5 532.413c37.952-2.448 73.192 1.632 107.53 39.981 36.144 39.982 67.77 32.638 105.722-2.447 47.891-45.693 68.674-62.828 120.18-40.798 37.048 15.503 53.313-22.03 82.228-65.276 18.073-26.926 40.663-19.582 60.542-7.343 24.398 16.319 53.313 40.797 78.614 40.797 33.434-.816 67.771-45.693 98.494-70.987 51.505-42.43 111.144-55.485 155.42 13.055 31.627 48.141 53.313 133.815 90.361 157.478 46.085 29.374 93.976-53.853 119.279-150.951 37.95-146.054 47.89-391.655 131.92-437.348 9.94-5.712 20.79-8.975 30.73 0 12.65 10.607 19.88 39.166 25.3 66.908 5.42 27.742 9.94 57.932 18.07 79.963 13.55 35.086 12.65 101.993 34.34 121.576 30.72 26.926 54.21-80.779 85.84-96.282 46.08-22.846 65.96 140.343 110.24 172.981 47.89 35.086 89.46-93.018 138.25-130.551 36.15-27.743 75-3.264 112.95 4.895 18.98 4.08 39.76 1.632 57.84-13.871 14.45-11.423 35.24-66.908 49.69-59.564 18.98 9.791 32.53 40.797 52.41 47.325 20.79 6.527 43.38 0 63.26-21.215" opacity=".62"/></svg>